<?xml version="1.0" encoding="UTF-8" standalone="no"?>
<!-- Created with Inkscape (http://www.inkscape.org/) -->

<svg
   width="280mm"
   height="80mm"
   viewBox="0 0 280 80"
   version="1.1"
   id="svg5"
   xml:space="preserve"
   inkscape:version="1.2.2 (732a01da63, 2022-12-09)"
   sodipodi:docname="lucys mug.svg"
   xmlns:inkscape="http://www.inkscape.org/namespaces/inkscape"
   xmlns:sodipodi="http://sodipodi.sourceforge.net/DTD/sodipodi-0.dtd"
   xmlns="http://www.w3.org/2000/svg"
   xmlns:svg="http://www.w3.org/2000/svg"><sodipodi:namedview
     id="namedview7"
     pagecolor="#ffffff"
     bordercolor="#000000"
     borderopacity="0.25"
     inkscape:showpageshadow="2"
     inkscape:pageopacity="0.0"
     inkscape:pagecheckerboard="0"
     inkscape:deskcolor="#d1d1d1"
     inkscape:document-units="mm"
     showgrid="false"
     inkscape:zoom="1.1540939"
     inkscape:cx="571.44398"
     inkscape:cy="273.37464"
     inkscape:window-width="2400"
     inkscape:window-height="1511"
     inkscape:window-x="-9"
     inkscape:window-y="-9"
     inkscape:window-maximized="1"
     inkscape:current-layer="text1397" /><defs
     id="defs2"><inkscape:path-effect
       effect="fill_between_many"
       method="originald"
       linkedpaths="#path1449,0,1|#path1451,0,1|#path1453,0,1|#path1455,0,1|#path1457,0,1|#path1459,0,1|#path1461,0,1|#path1463,0,1|#path1465,0,1"
       id="path-effect6030" /></defs><g
     inkscape:label="Layer 1"
     inkscape:groupmode="layer"
     id="layer1"><g
       aria-label="LUCY's MUG"
       transform="scale(0.81869741,1.2214525)"
       id="text1397"
       style="font-weight:bold;font-size:51.8425px;font-family:'Berlin Sans FB';-inkscape-font-specification:'Berlin Sans FB, Bold';text-align:center;text-anchor:middle;opacity:0.423706;fill:#ff0000;stroke-width:0.102052"><path
         inkscape:original-d="M 0,0"
         inkscape:path-effect="#path-effect6030"
         d="M 0,0"
         id="path6032"
         class="UnoptimicedTransforms" /><path
         d="m 52.06679,39.033425 q 0,5.189313 -0.88598,11.011469 -0.151883,0.911293 -0.784726,0.911293 0.40502,0 -3.645175,-0.27845 -5.771528,-0.430334 -9.214194,-0.430334 -1.847902,0 -5.543705,0.101255 -3.695803,0.101255 -5.543705,0.101255 -0.784725,0 -0.860666,-0.987235 0.05063,0.708784 0.05063,-1.77196 l -0.02531,-14.55539 q 0,-2.759195 -0.253137,-8.834488 -0.227823,-5.847469 -0.227823,-8.809174 0,-0.556902 0.607529,-0.556902 1.063176,0 3.189529,0.101255 2.151666,0.101254 3.214842,0.101254 1.139118,0 3.392039,-0.101254 2.252921,-0.126569 3.392038,-0.126569 0.40502,0 0.40502,0.531588 l -0.02531,0.278451 q -0.329078,4.278019 -0.734098,12.85937 -0.05063,3.290783 -0.05063,5.189312 0,2.126353 0.101255,4.96149 0.05063,0.987235 0.430333,0.987235 2.683254,0 5.847469,-0.303765 3.594548,-0.354392 6.32843,-0.987235 0.227824,-0.05063 0.379706,-0.05063 0.455647,0 0.455647,0.658156 z"
         id="path1449"
         inkscape:export-filename="path1449.svg"
         inkscape:export-xdpi="96"
         inkscape:export-ydpi="96"
         style="stroke:#000000;stroke-opacity:1;stroke-width:1;stroke-dasharray:none;fill:none"
         class="UnoptimicedTransforms" /><path
         d="m 87.17692,15.542293 q 0,2.936392 -0.253138,8.809175 -0.227823,5.847469 -0.227823,8.78386 0,0.835353 0.02531,2.480745 0.02531,1.645392 0.02531,2.480745 0,7.037214 -2.025097,9.39139 -3.06296,3.645175 -14.859154,3.645175 -6.657508,0 -9.847037,-1.341627 -2.987019,-1.265686 -3.999568,-4.202077 -0.759411,-2.252921 -0.759411,-7.41692 0,-0.734098 0.02531,-2.404804 0,-1.670705 0,-2.632627 0,-2.936391 -0.253137,-8.809174 -0.227823,-5.898097 -0.227823,-8.834488 0,-0.556902 0.607529,-0.556902 1.873215,0 5.64496,0.05063 3.797058,0.05063 5.670273,0.05063 1.620078,0 1.240372,-0.02531 0.860667,0.07594 0.860667,0.556902 0,2.911078 -0.278451,8.758547 -0.253138,5.847469 -0.253138,8.758547 0,0.329078 -0.02531,1.139117 -0.02531,0.810039 -0.02531,1.240373 0,4.885548 3.012333,4.885548 2.455431,0 2.455431,-3.771745 0,-3.442666 -0.227824,-10.353311 -0.20251,-6.910646 -0.20251,-10.353312 0,-0.759411 0.430334,-0.784725 0.911294,-0.101255 3.164215,-0.02531 3.037646,0.07594 3.290783,0.07594 1.063176,0 3.189529,-0.101254 2.126352,-0.101255 3.189529,-0.101255 0.632843,0 0.632843,0.607529 z"
         id="path1451"
         style="stroke:#000000;stroke-opacity:1;stroke-width:1;stroke-dasharray:none;fill:none"
         class="UnoptimicedTransforms" /><path
         d="m 122.61613,19.972194 q 0,0.531588 -2.40481,4.860234 -2.37949,4.303333 -2.86045,4.683038 -0.3797,0.303765 -0.70878,0.303765 -0.12657,0 -1.1138,-0.835353 -1.18975,-0.987235 -2.30355,-1.518823 -1.72134,-0.810039 -3.64518,-0.810039 -2.43012,0 -4.12613,1.771961 -1.67071,1.746646 -1.67071,4.176763 0,2.455431 1.67071,4.252705 1.69601,1.771961 4.12613,1.771961 4.07551,0 6.2778,-2.430117 0.3544,-0.40502 0.53159,-0.40502 0.30377,0 3.08828,4.100823 2.80982,4.202077 2.80982,4.910861 0,0.480961 -0.58222,1.240373 -1.99978,2.581999 -5.67027,4.050195 -3.3161,1.341627 -6.86002,1.341627 -7.82194,0 -13.315014,-5.417136 -5.467764,-5.44245 -5.467764,-13.239076 0,-7.821939 5.467764,-13.289703 5.493074,-5.493077 13.315014,-5.493077 7.87257,0 12.83406,4.936175 0.60753,0.582216 0.60753,1.037863 z"
         id="path1453"
         style="stroke:#000000;stroke-opacity:1;stroke-width:1;stroke-dasharray:none;fill:none"
         class="UnoptimicedTransforms" /><path
         d="m 156.18212,15.542293 q 0,1.366941 -0.12657,4.126136 -0.12657,2.759196 -0.12657,4.126137 0,1.366941 -0.3797,2.17698 -3.61986,8.125704 -8.02445,13.795977 -0.93661,1.215059 -0.93661,1.923843 0,1.341627 0.1772,4.024881 0.17719,2.683255 0.17719,3.999568 0,0.759412 -0.7341,0.759412 -1.08849,0 -3.29078,-0.101255 -2.17698,-0.126569 -3.26547,-0.126569 -1.06318,0 -3.16421,0.101255 -2.07573,0.101255 -3.11359,0.101255 -0.83535,0 -0.83535,-0.734098 0,-1.316313 0.25313,-3.999568 0.25314,-2.683254 0.25314,-4.024881 0,-0.810039 -0.60753,-2.025098 -1.51882,-2.379489 -4.30333,-6.885332 -1.62008,-2.759195 -3.36673,-6.075292 -0.5569,-1.037863 -0.58221,-1.771961 -0.0253,-1.366941 -0.32908,-4.531156 -0.27845,-2.936391 -0.27845,-4.531156 0,-0.936607 0.58221,-0.936607 0.98724,0 2.96171,0.101255 1.99978,0.101254 2.98702,0.101254 1.18974,0 3.61986,-0.101254 2.43012,-0.126569 3.61986,-0.126569 0.37971,0 0.37971,0.556902 -0.10126,3.74643 -0.10126,7.391606 0,0.632843 0.9113,2.227607 0.78472,1.392255 1.36694,2.025098 0.5569,-0.632843 1.31631,-1.949156 0.86067,-1.518824 0.86067,-2.126353 0,-1.265686 -0.1772,-3.797058 -0.15188,-2.531372 -0.15188,-3.771744 0,-0.556902 0.37971,-0.556902 1.08849,0 3.26547,0.126569 2.17698,0.101254 3.26547,0.101254 1.13911,0 3.44266,-0.101254 2.30355,-0.101255 3.44267,-0.101255 0.63284,0 0.63284,0.607529 z"
         id="path1455"
         style="stroke:#000000;stroke-opacity:1;stroke-width:1;stroke-dasharray:none;fill:none"
         class="UnoptimicedTransforms" /><path
         d="m 169.95278,20.326586 q 0,2.835137 -0.20251,4.024882 -0.20251,1.189744 -2.27824,6.404371 -0.20251,0.506274 -0.78472,0.506274 -0.37971,0 -1.13912,0.05063 -0.75941,0.05063 -1.13912,0.05063 -0.32907,0 -0.98723,-0.05063 -0.65816,-0.05063 -0.98724,-0.05063 -0.50627,0 -0.83535,-0.607529 -1.31631,-2.657941 -2.37949,-7.315665 Q 158.916,21.971978 158.916,19.26341 v -3.645176 q 0,-0.784725 0.40502,-0.784725 0.81004,0 2.43011,-0.07594 1.6454,-0.07594 2.45543,-0.07594 0.83536,0 2.53138,0.07594 1.69602,0.07594 2.55668,0.07594 0.65816,0 0.65816,5.493077 z"
         id="path1457"
         style="stroke:#000000;stroke-opacity:1;stroke-width:1;stroke-dasharray:none;fill:none"
         class="UnoptimicedTransforms" /></g></g></svg>
