<?xml version="1.0" encoding="UTF-8" standalone="no"?>
<!-- Created with Inkscape (http://www.inkscape.org/) -->

<svg
   width="280mm"
   height="80mm"
   viewBox="0 0 280 80"
   version="1.1"
   id="svg5"
   xml:space="preserve"
   inkscape:version="1.3 (0e150ed6c4, 2023-07-21)"
   sodipodi:docname="lucys mug.svg"
   xmlns:inkscape="http://www.inkscape.org/namespaces/inkscape"
   xmlns:sodipodi="http://sodipodi.sourceforge.net/DTD/sodipodi-0.dtd"
   xmlns="http://www.w3.org/2000/svg"
   xmlns:svg="http://www.w3.org/2000/svg"><sodipodi:namedview
     id="namedview7"
     pagecolor="#ffffff"
     bordercolor="#000000"
     borderopacity="0.25"
     inkscape:showpageshadow="2"
     inkscape:pageopacity="0.0"
     inkscape:pagecheckerboard="0"
     inkscape:deskcolor="#d1d1d1"
     inkscape:document-units="mm"
     showgrid="false"
     inkscape:zoom="0.81606762"
     inkscape:cx="542.84717"
     inkscape:cy="72.910625"
     inkscape:window-width="1920"
     inkscape:window-height="1009"
     inkscape:window-x="-8"
     inkscape:window-y="-8"
     inkscape:window-maximized="1"
     inkscape:current-layer="layer1" /><defs
     id="defs2"><clipPath
       clipPathUnits="userSpaceOnUse"
       id="clipPath25"><rect
         style="fill:#ff0000;stroke:none;stroke-width:3;stroke-linecap:square;stroke-linejoin:miter;paint-order:stroke markers fill;stop-color:#000000"
         id="rect25-8"
         width="78"
         height="45.033199"
         x="763.61322"
         y="452.82422" /></clipPath><inkscape:path-effect
       effect="rough_hatches"
       id="path-effect11"
       is_visible="true"
       lpeversion="1.2"
       direction="29.712099,44.536936 , 8.361241,0"
       dist_rdm="75;1"
       growth="0"
       do_bend="true"
       bender="29.712099,49.536936 , 5,0"
       bottom_edge_variation="3.6442193;1"
       top_edge_variation="3.6442193;1"
       bottom_tgt_variation="0;1"
       top_tgt_variation="0;1"
       scale_bf="1"
       scale_bb="1"
       scale_tf="1"
       scale_tb="1"
       top_smth_variation="0;1"
       bottom_smth_variation="0;1"
       fat_output="true"
       stroke_width_top="1"
       stroke_width_bottom="1"
       front_thickness="1"
       back_thickness="0.25" /><inkscape:path-effect
       effect="interpolate"
       id="path-effect2"
       is_visible="true"
       lpeversion="1"
       trajectory="M 0,0 V 0"
       equidistant_spacing="true"
       steps="5" /><inkscape:path-effect
       effect="sketch"
       id="path-effect1"
       is_visible="true"
       lpeversion="1"
       nbiter_approxstrokes="5"
       parallel_offset="5;1"
       strokelength="100"
       strokelength_rdm="0.3;1"
       strokeoverlap="0.3"
       strokeoverlap_rdm="0.3;1"
       ends_tolerance="0.1;1"
       tremble_size="5;1"
       tremble_frequency="1"
       nbtangents="5"
       tgt_places_rdmness="1;1"
       tgtlength="100"
       tgtlength_rdm="0.3;1"
       tgtscale="10" /><inkscape:path-effect
       effect="rough_hatches"
       id="path-effect60"
       is_visible="true"
       lpeversion="1.2"
       direction="0,-5 , 0,0"
       dist_rdm="75;1"
       growth="0"
       do_bend="true"
       bender="0,0 , 5,0"
       bottom_edge_variation="0;1"
       top_edge_variation="0;1"
       bottom_tgt_variation="0;1"
       top_tgt_variation="0;1"
       scale_bf="1"
       scale_bb="1"
       scale_tf="1"
       scale_tb="1"
       top_smth_variation="0;1"
       bottom_smth_variation="0;1"
       fat_output="true"
       stroke_width_top="1"
       stroke_width_bottom="1"
       front_thickness="1"
       back_thickness="0.25" /><inkscape:path-effect
       effect="curvestitching"
       id="path-effect59"
       is_visible="true"
       lpeversion="1"
       count="5"
       startpoint_edge_variation="0;1"
       startpoint_spacing_variation="0;1"
       endpoint_edge_variation="0;1"
       endpoint_spacing_variation="0;1"
       strokepath="#path1"
       prop_scale="1"
       scale_y_rel="false" /><inkscape:path-effect
       effect="vonkoch"
       id="path-effect58"
       is_visible="true"
       lpeversion="1"
       ref_path="M 25.132999,32.932819 H 52.066798"
       generator="m 25.132999,50.956187 h 8.977933 m 8.977933,0 h 8.977933"
       similar_only="false"
       nbgenerations="1"
       drawall="true"
       maxComplexity="1000" /><inkscape:path-effect
       effect="spiro"
       id="path-effect57"
       is_visible="true"
       lpeversion="1" /><inkscape:path-effect
       effect="gears"
       id="path-effect56"
       is_visible="true"
       lpeversion="1"
       teeth="6"
       phi="4.9"
       min_radius="5" /><inkscape:path-effect
       effect="knot"
       id="path-effect55"
       is_visible="true"
       lpeversion="1"
       switcher_size="16.7"
       interruption_width="2.8"
       prop_to_stroke_width="true"
       add_stroke_width="inkscape_1.0_and_up"
       both="true"
       inverse_width="false"
       add_other_stroke_width="inkscape_1.0_and_up"
       crossing_points_vector="" /><inkscape:path-effect
       effect="rough_hatches"
       id="path-effect54"
       is_visible="true"
       lpeversion="1.2"
       direction="38.599898,27.932819 , 6.7334497,0"
       dist_rdm="75;1"
       growth="0"
       do_bend="true"
       bender="38.599898,32.932819 , 5,0"
       bottom_edge_variation="3.6;1"
       top_edge_variation="3.6046737;1"
       bottom_tgt_variation="0;1"
       top_tgt_variation="0;1"
       scale_bf="1"
       scale_bb="1"
       scale_tf="1"
       scale_tb="1"
       top_smth_variation="0;1"
       bottom_smth_variation="0;1"
       fat_output="true"
       stroke_width_top="1"
       stroke_width_bottom="1"
       front_thickness="1"
       back_thickness="0.25" /><inkscape:path-effect
       effect="rough_hatches"
       id="path-effect53"
       is_visible="true"
       lpeversion="1.2"
       direction="31.483285,1.9013349 , 4.65319,0"
       dist_rdm="75;1"
       growth="0"
       do_bend="true"
       bender="31.483285,6.9013349 , 5,0"
       bottom_edge_variation="0;1"
       top_edge_variation="0;1"
       bottom_tgt_variation="0;1"
       top_tgt_variation="0;1"
       scale_bf="1"
       scale_bb="1"
       scale_tf="1"
       scale_tb="1"
       top_smth_variation="0;1"
       bottom_smth_variation="0;1"
       fat_output="true"
       stroke_width_top="1"
       stroke_width_bottom="1"
       front_thickness="1"
       back_thickness="0.25" /><clipPath
       clipPathUnits="userSpaceOnUse"
       id="clipPath5"><path
         id="path5"
         style="stroke-width:0.1;stroke-linecap:square;paint-order:markers fill stroke;stop-color:#000000"
         d="m 438.25066,553.76374 859.87054,0 v 201.39554 l -859.87054,0 z"
         sodipodi:nodetypes="ccccc" /></clipPath><inkscape:path-effect
       effect="fill_between_many"
       method="originald"
       linkedpaths="#path1449,0,1|#path1451,0,1|#path1453,0,1|#path1455,0,1|#path1457,0,1|#path1459,0,1|#path1461,0,1|#path1463,0,1|#path1465,0,1"
       id="path-effect6030"
       is_visible="true"
       lpeversion="0"
       join="true"
       close="true"
       autoreverse="true" /></defs><g
     inkscape:label="Layer 1"
     inkscape:groupmode="layer"
     id="layer1"><path
       style="font-weight:normal;font-size:42.3333px;font-family:Ravie;-inkscape-font-specification:'Ravie, Normal';text-align:center;text-anchor:middle;opacity:0.423706;fill:none;stroke-width:1;stroke:#000000"
       d="m 153.15667,46.901439 q 0,6.697261 -11.59618,7.524083 0.14469,6.180497 4.83691,7.916824 1.11621,0.434081 2.5218,0.434081 0.43409,0 1.69499,-0.124023 0,0.165364 -0.55811,1.11621 -0.70279,1.219563 -1.71565,2.439126 -5.06429,-1.322916 -10.04589,-1.322916 -5.56038,0 -13.24983,1.653645 -1.36426,-1.508951 -2.95589,-3.555336 -0.33073,-0.434082 0.20671,-0.434082 -0.0413,0 0.93017,0.103353 0.97152,0.08268 1.90169,0.08268 3.10059,0 3.78271,-0.475423 1.77767,-1.219563 1.77767,-3.265948 0,-1.612303 -1.28157,-4.44417 -0.41341,0.08268 -1.01286,0.08268 -5.37434,0 -8.88834,-2.790526 -3.26595,-2.60449 -3.26595,-6.056473 0,-4.940263 7.11067,-8.206211 0.10336,-0.04134 0.0827,-0.103353 -0.0413,-0.08268 -0.20671,-0.103353 -2.37711,-0.330729 -6.98665,-1.694986 -0.28938,-0.06201 -0.16536,-0.434081 0.72347,-1.922362 1.77767,-3.162595 0.18603,-0.227377 0.47542,-0.124024 4.4235,1.653645 13.08446,4.692217 0.45475,0.144694 0.0827,0.330729 -5.93245,2.935219 -5.93245,7.338047 0,4.81624 8.08219,4.81624 1.59164,0 2.54248,-0.08268 8.74365,-0.785481 9.17773,-6.387202 0.0413,-0.165365 0.0413,-0.558105 0,-1.384928 -0.62012,-3.059243 -0.66146,-1.777668 -1.69498,-2.955889 0.49609,0 -5.84977,-0.165365 -0.7028,-1.715656 -1.2609,-4.010088 5.31233,0.392741 16.72248,0.971516 -0.43409,1.198893 -1.24024,3.038572 -0.18603,0.02067 -4.23746,0.08268 5.93245,6.263179 5.93245,10.893384 z"
       transform="translate(55.765396,0.32421745)"
       id="path11" /><path
       style="font-weight:normal;font-size:42.3333px;font-family:Ravie;-inkscape-font-specification:'Ravie, Normal';text-align:center;text-anchor:middle;opacity:0.423706;fill:none;stroke-width:1;stroke:#000000"
       d="m 115.10218,42.663975 q 0,2.58382 -1.46761,3.638018 -1.46761,1.054198 -5.16764,1.054198 -4.25813,0 -6.90397,-1.198892 -2.542474,-1.157551 -2.542474,-2.893878 0,-0.909504 0.723469,-2.21175 1.260905,-2.294431 4.196125,-2.914548 1.65364,-0.165365 3.28662,-0.3514 0.22737,-0.124023 0.22737,-0.289387 0,-0.806152 -2.02571,-1.943033 -2.27376,-1.281574 -4.71289,-1.281574 -3.451982,0 -5.22965,2.62516 -1.550291,2.253091 -1.550291,5.93245 0,1.819009 0.351399,3.803383 1.446939,8.578281 3.431313,11.844229 1.591633,2.645832 4.175449,2.645832 0.95085,0 1.92237,-0.165365 3.43131,-0.599446 5.37434,-2.645831 0.95085,-0.992187 2.83187,-4.340817 0.24804,-0.165365 0.24804,-0.04134 0.12403,1.012857 0.12403,1.736326 0,3.658689 -1.57097,6.469885 -2.06705,3.70003 -6.30452,4.44417 -3.38997,0.599446 -5.953117,0.599446 -13.807932,0 -13.807932,-17.921373 0,-8.681634 4.423499,-13.084463 3.989418,-3.968747 11.03808,-3.968747 7.97883,0 11.88557,3.617347 2.99723,2.769855 2.99723,6.841955 z"
       transform="translate(55.765396,0.32421745)"
       id="path10" /><path
       style="font-weight:normal;font-size:42.3333px;font-family:Ravie;-inkscape-font-specification:'Ravie, Normal';text-align:center;text-anchor:middle;opacity:0.423706;fill:none;stroke-width:1;stroke:#000000"
       d="m 83.786279,34.271729 q 0,1.074869 -0.165364,2.087726 -0.537435,-0.02067 -1.570962,-0.186035 -0.950846,-0.165365 -1.302246,-0.165365 -0.826822,0 -0.847492,0.682129 -0.475423,10.02522 -0.496094,10.293937 -0.413411,6.263179 -1.384927,11.678865 1.591633,-0.930175 3.34863,-0.930175 1.074869,0 1.943033,0.289388 l 0.310058,4.030759 q -0.186035,0 -0.578776,-0.02067 -0.37207,-0.02067 -0.558105,-0.02067 -3.121254,0 -7.296707,1.446939 -3.782712,1.302245 -6.345861,2.99723 -0.434081,0.289388 -0.702799,0.227377 -0.227376,-0.06201 -0.186035,-0.310059 1.219563,-6.366531 1.219563,-8.474928 -3.079913,4.154782 -7.172683,6.221837 -3.203937,1.612304 -6.118485,1.612304 -3.34863,0 -5.353675,-2.005044 -2.129067,-2.108397 -2.129067,-5.870438 0,-6.015133 3.824053,-12.050935 2.480467,-3.927406 5.91178,-7.007319 -4.278806,0.08268 -8.392247,0.475422 -0.268717,0 -0.206705,-0.165364 1.13688,-2.253091 1.529621,-3.389971 0.06201,-0.186035 0.289388,-0.165365 5.270992,0.248047 8.640293,0.248047 3.245277,0 7.503412,-0.124024 -3.513995,4.733558 -5.849768,10.190585 -2.418455,5.622392 -2.418455,9.363763 0,1.984373 0.868164,3.265948 0.868163,1.260904 2.356443,1.260904 2.21175,0 4.506182,-4.092771 2.439125,-4.320146 3.741371,-11.224112 1.095539,-5.829097 1.095539,-11.47216 0,-0.351399 -0.02067,-0.868163 -0.02067,-0.516764 -0.02067,-0.578776 0,-0.413411 0.558105,-0.289387 3.968747,1.074869 11.472159,3.038572 z"
       transform="translate(55.765396,0.32421745)"
       id="path9" /><path
       style="font-weight:normal;font-size:42.3333px;font-family:Ravie;-inkscape-font-specification:'Ravie, Normal';text-align:center;text-anchor:middle;opacity:0.423706;fill:none;stroke-width:1;mix-blend-mode:normal;fill-opacity:1;stroke:#000000;stroke-opacity:1"
       d="m 46.434581,53.846746 q 0,3.121255 -0.950846,6.097815 -0.682128,2.149738 -1.881021,4.175452 -0.661458,1.033528 -1.302245,2.087727 -0.165364,0.268717 -0.558105,0.206705 -7.627436,-1.157551 -14.510731,-1.157551 -9.095045,0 -10.934725,2.501138 l -0.930175,-5.208981 q 1.11621,-0.74414 2.873207,-0.74414 0.888834,0 2.046386,0.248047 -2.852537,-7.131343 -2.852537,-19.63703 0,-0.930175 0.04134,-2.831866 0.06201,-1.922362 0.06201,-2.935219 0,-1.756998 -1.88102,-2.108397 -0.682129,-0.08268 -2.108397,-0.3514 -0.558105,-0.144694 -0.558105,-1.984373 0,-0.475423 0.08268,-0.888834 0.392741,0.186035 18.603502,1.86035 -1.756998,3.576006 -3.203937,9.301751 -1.550291,6.056473 -1.550291,9.963209 0,9.363762 7.152012,9.363762 5.18831,0 7.813471,-1.963703 1.922362,-1.426268 1.922362,-3.203936 0,-0.930175 -0.454752,-0.930175 -0.103353,0 -0.206706,0.08268 -3.162595,2.191079 -6.490555,2.191079 -3.038572,0 -4.857581,-2.067056 -0.806152,-0.909504 -0.806152,-1.943032 0,-1.694986 1.963703,-3.307289 1.901692,-1.591633 4.981605,-2.542479 2.439125,-0.764811 4.010088,-0.764811 4.485511,0 4.485511,6.490555 z"
       transform="translate(55.765396,0.32421745)"
       id="text8" /><path
       style="font-weight:normal;font-size:18.4421px;font-family:Ravie;-inkscape-font-specification:'Ravie, Normal';text-align:center;text-anchor:middle;opacity:0.423706;fill:none;stroke-width:0.43564;stroke:#000000"
       d="m 165.58633,17.588331 q 0,0.369202 -0.054,0.729399 -0.26115,1.719942 -2.5484,2.674465 -2.11616,0.891488 -5.33992,0.891488 -2.20621,0 -3.60198,-0.612335 -1.19765,-0.522286 -1.4588,-1.287706 -0.18009,-0.5493 -0.18009,-0.927508 0,-1.305715 2.48536,-1.638897 0.83746,-0.108059 1.54885,-0.108059 1.29671,0 2.05312,0.324177 0.75641,0.324178 0.75641,0.891488 0,0.594326 -0.5493,1.053578 -0.68437,0.576315 -2.07113,0.774424 -0.82845,0.117064 -0.82845,0.351192 0,0.252138 1.45879,0.252138 0.56731,0 1.00856,-0.05403 1.26969,-0.153084 1.86402,-0.441242 0.90049,-0.423232 0.86447,-1.269696 -0.11706,-2.746504 -2.71048,-2.746504 -0.26115,0 -1.06259,0.06303 -0.79243,0.06303 -1.12561,0.06303 -2.71949,0 -2.71949,-1.864021 0,-0.441241 0.081,-0.792434 0.29717,-1.431784 1.6299,-2.287252 1.53083,-0.981538 4.14226,-0.981538 2.53039,0 3.73705,0.459252 1.05358,0.396217 1.40477,1.2787 0.22512,0.549301 0.22512,0.864473 0,1.017558 -2.16118,1.161637 -0.40522,0.01801 -0.88248,0.01801 -2.86357,0 -2.86357,-0.990542 0,-0.864473 0.99955,-1.29671 0.12606,-0.05403 1.49481,-0.387212 0.16209,-0.03602 0.16209,-0.126069 0,-0.315173 -1.39576,-0.315173 -2.65646,0 -2.65646,1.584868 0,0.369202 0.14408,0.792434 0.33319,0.954523 1.04457,1.33273 0.58533,0.315173 1.61189,0.315173 0.35119,0 1.13462,-0.04502 0.78343,-0.05403 1.17064,-0.05403 1.51283,0 2.26924,0.459252 0.91851,0.549301 0.91851,1.891036 z"
       transform="matrix(0.92132097,0,0,1.0853981,55.765396,0.32421745)"
       id="path141" /><path
       style="font-weight:normal;font-size:18.4421px;font-family:Ravie;-inkscape-font-specification:'Ravie, Normal';text-align:center;text-anchor:middle;opacity:0.423706;fill:none;stroke-width:0.43564;stroke:#000000"
       d="m 147.22527,15.868389 q 0,-0.378208 -0.75641,-0.630346 -0.80144,-0.270148 -2.08915,-0.270148 -1.68392,0 -3.24177,0.630346 -1.51283,0.62134 -1.51283,1.251685 0,0.504276 1.07158,0.810444 0.96353,0.270148 2.28726,0.270148 1.50382,0 2.90859,-0.720395 1.33273,-0.693379 1.33273,-1.341734 z"
       transform="matrix(0.92132097,0,0,1.0853981,55.765396,0.32421745)"
       id="path140" /><path
       style="font-weight:normal;font-size:18.4421px;font-family:Ravie;-inkscape-font-specification:'Ravie, Normal';text-align:center;text-anchor:middle;opacity:0.423706;fill:none;stroke-width:0.43564;stroke:#000000"
       d="m 152.45714,20.902146 q -0.42324,-0.297163 -1.37776,-0.297163 -1.15263,0 -2.60242,0.378207 -1.4498,0.378207 -2.26925,0.882483 0.31518,-1.512828 0.31518,-2.017105 0,-0.153083 -0.054,-0.144078 -0.036,0.009 -0.11707,0.07204 -1.51283,1.242681 -3.61098,1.512829 -0.99954,0.126069 -1.69292,0.126069 -2.05313,0 -2.94462,-0.873479 -0.80143,-0.783429 -0.80143,-2.404317 0,-0.846463 0.16208,-1.86402 0.33319,-2.017105 1.44079,-3.331825 1.33273,-1.557854 3.41287,-1.557854 2.25124,0 4.3854,2.071135 0,-0.450247 -0.25213,-1.269696 -0.27916,-0.873478 -0.63035,-1.422779 4.43043,-0.67537 6.12335,-1.29671 0.16209,0.567311 0.16209,1.143626 0,0.468257 -0.10806,0.576316 -1.32372,0.450247 -1.32372,0.810444 v 0.01801 q 0,0.297162 0.027,0.936513 0.027,0.63935 0.027,0.981537 0,2.890583 -0.73841,4.772614 0.59433,-0.369202 1.41378,-0.369202 0.43224,0 0.80144,0.09905 z"
       transform="matrix(0.92132097,0,0,1.0853981,55.765396,0.32421745)"
       id="path139" /><path
       style="font-weight:normal;font-size:18.4421px;font-family:Ravie;-inkscape-font-specification:'Ravie, Normal';text-align:center;text-anchor:middle;opacity:0.423706;fill:none;stroke-width:0.43564;stroke:#000000"
       d="m 136.82458,14.445609 q 0,2.602426 -3.26879,5.150821 l 2.45835,0.387212 q 0.1891,0.252139 0.51328,0.792434 -0.70239,-0.03602 -2.62044,-0.03602 -1.77397,0 -3.85411,0.03602 0.65736,-0.765419 1.39576,-2.52138 0.80144,-1.909046 0.80144,-2.998643 0,-0.918503 -0.63034,-0.918503 -1.02656,0 -2.1882,1.728947 -0.94552,1.404769 -1.53084,3.178741 0,1.791981 0.23413,2.251233 0.3692,0.144079 1.22467,0.333182 -0.0991,0.171094 -0.35119,0.882484 l -4.90769,-1.125617 q 0.86447,-1.692927 0.86447,-4.331372 0,-1.197656 -0.045,-1.512828 -0.15308,-1.089597 -0.74741,-1.089597 -0.22512,0 -0.58532,0.180098 -1.49482,0.74741 -2.17919,3.448889 0.018,0.855469 0.82845,3.250781 -1.94507,-0.891489 -4.22331,-0.891489 -1.48582,0 -2.04412,0.486267 l 0.036,-2.089144 q 0.28815,-0.10806 0.70238,-0.10806 0.68438,0 1.34174,0.297163 -0.75642,-1.818996 -1.35975,-6.294447 -0.09,-0.603331 -0.68437,-0.71139 -0.5493,-0.02702 -1.0896,-0.06303 -0.33318,-0.04503 -0.33318,-1.098602 h 0.1891 q 1.02656,0 7.22196,-0.333183 -0.95453,1.945066 -0.95453,4.349383 0,0.522286 0.054,0.882483 1.07159,-3.529933 4.09725,-5.420969 0.79243,-0.495271 1.37775,-0.495271 1.68392,0 1.68392,3.764061 0,1.107607 -0.11706,1.99009 0.85547,-1.467804 1.90004,-2.512376 1.80999,-1.782976 3.74605,-1.782976 1.31472,0 2.1792,0.828453 0.86447,0.819449 0.86447,2.116159 z"
       transform="matrix(0.92132097,0,0,1.0853981,55.765396,0.32421745)"
       id="path138" /><path
       style="font-weight:normal;font-size:18.4421px;font-family:Ravie;-inkscape-font-specification:'Ravie, Normal';text-align:center;text-anchor:middle;opacity:0.423706;fill:none;stroke-width:0.43564;stroke:#000000"
       d="m 115.05966,20.298815 q -2.47636,0.243133 -8.42862,1.638898 -0.32418,-0.963528 -0.81044,-1.602878 h 0.31517 q 1.16164,0 1.43178,-0.441242 0.1711,-0.270148 0.1711,-0.594325 0,-0.76542 -0.76542,-2.017105 -0.57632,-0.945518 -1.02656,-1.395765 -2.13417,2.278248 -3.13372,3.502919 -0.10806,0.108059 -0.10806,0.261143 0,0.387212 0.75642,0.954523 0.063,0.07204 -0.018,0.189103 -0.26115,0.297163 -0.73841,0.864474 -0.88248,-0.243133 -2.782522,-0.684375 -0.342188,-0.06303 -2.287253,-0.495271 2.152179,-1.864021 7.005835,-6.267433 -0.87348,-1.269695 -1.74695,-2.530386 -1.27871,-1.593873 -2.77352,-2.2332229 -0.360201,0 -1.692931,0.3331825 -0.03602,-0.2701479 -0.189104,-1.4407891 4.358385,-0.6033304 8.041405,-2.1701886 0.15308,0.5402959 0.59432,1.9000407 -1.17964,-0.1530839 -1.38675,-0.1530839 -0.51329,0 -0.51329,0.1891036 0,0.090049 0.10806,0.3331825 0.24314,0.5402959 1.0896,1.8730262 0.47726,0.738404 0.95452,1.476808 2.40432,-2.4223262 3.02566,-3.4668983 0.10806,-0.1800987 0.10806,-0.4232318 0,-0.5673108 -0.51328,-0.7384045 -0.10806,-0.03602 -0.036,-0.2161183 0.045,-0.1170641 0.40522,-0.7744242 1.6479,0.4322368 4.73659,1.2336757 -2.82754,2.2872527 -6.44753,5.9342504 1.09861,1.251685 2.61143,3.223765 1.4588,1.900041 1.6389,2.107154 0.1891,0.207114 0.50428,0.207114 0.40522,0 1.60288,-0.189104 0.063,0.558306 0.29716,1.611883 z"
       transform="matrix(0.92132097,0,0,1.0853981,55.765396,0.32421745)"
       id="path137" /><path
       style="font-weight:normal;font-size:18.4421px;font-family:Ravie;-inkscape-font-specification:'Ravie, Normal';text-align:center;text-anchor:middle;opacity:0.423706;fill:none;stroke-width:0.43564;stroke:#000000"
       d="m 91.088529,12.4195 -0.09905,1.053577 Q 89.782814,13.07686 89.5757,13.085865 q -0.333182,0.01801 -0.540296,1.125616 -0.153084,0.819449 -0.369202,3.151726 -0.225123,2.458347 -0.495271,3.35884 -0.567311,1.864021 -1.566858,2.638445 -1.29671,0.990542 -4.043215,0.990542 -4.205303,0 -6.060319,-1.251685 -0.58532,-0.396217 -0.999547,-1.224671 -0.405222,-0.801439 -0.405222,-1.503823 0,-0.918504 0.945518,-1.40477 0.891488,-0.459251 2.449341,-0.459251 1.602878,0 2.692475,0.594325 0.990542,0.540296 0.990542,1.215666 0,1.36875 -1.91805,1.91805 -0.162089,0.04503 -1.36875,0.279153 -0.65736,0.135074 -0.65736,0.306168 0,0.387212 1.99009,0.387212 1.494819,0 2.125164,-0.333182 1.053577,-0.558306 1.638898,-1.782977 0.423231,-0.873478 0.423231,-1.476809 -0.02701,-0.216118 -3.070681,-2.566405 -3.115707,-2.413322 -4.115254,-2.935608 -0.342188,0 -2.035115,0.909498 -0.144079,0.08104 -0.144079,-0.07204 0,-0.378208 0.009,-0.981538 0.009,-0.60333 0.009,-0.792434 v -0.513281 q 4.475451,-0.7294 6.861758,-1.99009 0.225123,0.405222 0.702385,1.215666 -0.450247,0.117064 -1.512829,0.270148 0,0.972532 1.755962,2.674464 1.485814,1.431785 2.521381,1.954071 0.495271,-0.738405 1.2787,-2.449342 0.765419,-1.674917 0.765419,-1.99009 -1.891035,0.009 -2.746504,-0.03602 0.135074,-0.56731 0.495271,-1.828001 2.629441,0.09905 5.907236,1.936061 z"
       transform="matrix(0.92132097,0,0,1.0853981,55.765396,0.32421745)"
       id="path136" /><path
       style="font-weight:normal;font-size:18.4421px;font-family:Ravie;-inkscape-font-specification:'Ravie, Normal';text-align:center;text-anchor:middle;opacity:0.423706;fill:none;stroke-width:0.43564;stroke:#000000"
       d="m 71.926032,15.409137 q 0,-0.441242 -0.882484,-0.71139 -0.909498,-0.288157 -2.458346,-0.288157 -1.269695,0 -2.584416,0.67537 -1.305715,0.666364 -1.305715,1.26069 0,0.333182 0.630346,0.576316 0.738404,0.270148 2.062129,0.270148 1.602878,0 3.070682,-0.585321 1.467804,-0.585321 1.467804,-1.197656 z"
       transform="matrix(0.92132097,0,0,1.0853981,55.765396,0.32421745)"
       id="path135" /><path
       style="font-weight:normal;font-size:18.4421px;font-family:Ravie;-inkscape-font-specification:'Ravie, Normal';text-align:center;text-anchor:middle;opacity:0.423706;fill:none;stroke-width:0.43564;stroke:#000000"
       d="m 74.411393,14.247501 q 0,0.747409 -0.162089,1.746957 -0.297163,1.809991 -1.413774,2.962622 -1.305715,1.359745 -3.403864,1.359745 -2.368298,0 -3.99819,-1.665912 0.459251,2.098149 0.594325,2.59342 0.432237,1.530838 1.215666,3.277795 -5.060772,0.684375 -6.59161,1.008553 -0.108059,-0.441242 -0.108059,-0.756415 0,-0.396217 0.126069,-0.441241 1.530838,-0.522286 1.530838,-1.179647 0,0.04502 -0.05403,-0.729399 -0.05403,-0.765419 -0.05403,-1.891036 0,-4.286347 0.738404,-6.861758 -0.756414,0.468257 -1.476808,0.468257 -0.288158,0 -0.495272,-0.08105 l -0.207113,-2.224218 q 0.531291,0.162089 1.31472,0.162089 2.179194,0 4.259333,-1.107607 -0.369202,1.341735 -0.369202,1.755962 1.539843,-1.053577 3.358839,-1.2787 0.900493,-0.10806 1.674918,-0.10806 1.93606,0 2.773519,0.78343 0.747409,0.702384 0.747409,2.206208 z"
       transform="matrix(0.92132097,0,0,1.0853981,55.765396,0.32421745)"
       id="path134" /><path
       style="font-weight:normal;font-size:18.4421px;font-family:Ravie;-inkscape-font-specification:'Ravie, Normal';text-align:center;text-anchor:middle;opacity:0.423706;fill:none;stroke-width:0.43564;stroke:#000000"
       d="m 57.743266,15.409137 q 0,-0.441242 -0.882484,-0.71139 -0.909498,-0.288157 -2.458346,-0.288157 -1.269695,0 -2.584415,0.67537 -1.305716,0.666364 -1.305716,1.26069 0,0.333182 0.630346,0.576316 0.738404,0.270148 2.062129,0.270148 1.602878,0 3.070682,-0.585321 1.467804,-0.585321 1.467804,-1.197656 z"
       transform="matrix(0.92132097,0,0,1.0853981,55.765396,0.32421745)"
       id="path133" /><path
       style="font-weight:normal;font-size:18.4421px;font-family:Ravie;-inkscape-font-specification:'Ravie, Normal';text-align:center;text-anchor:middle;opacity:0.423706;fill:none;stroke-width:0.43564;stroke:#000000"
       d="m 60.228627,14.247501 q 0,0.747409 -0.162089,1.746957 -0.297163,1.809991 -1.413774,2.962622 -1.305715,1.359745 -3.403864,1.359745 -2.368298,0 -3.99819,-1.665912 0.459251,2.098149 0.594325,2.59342 0.432237,1.530838 1.215666,3.277795 -5.060772,0.684375 -6.59161,1.008553 -0.108059,-0.441242 -0.108059,-0.756415 0,-0.396217 0.126069,-0.441241 1.530838,-0.522286 1.530838,-1.179647 0,0.04502 -0.05403,-0.729399 -0.05403,-0.765419 -0.05403,-1.891036 0,-4.286347 0.738405,-6.861758 -0.756415,0.468257 -1.476809,0.468257 -0.288158,0 -0.495272,-0.08105 L 46.46909,11.834174 q 0.531291,0.162089 1.31472,0.162089 2.179194,0 4.259333,-1.107607 -0.369202,1.341735 -0.369202,1.755962 1.539843,-1.053577 3.358839,-1.2787 0.900493,-0.10806 1.674918,-0.10806 1.93606,0 2.773519,0.78343 0.747409,0.702384 0.747409,2.206208 z"
       transform="matrix(0.92132097,0,0,1.0853981,55.765396,0.32421745)"
       id="path132" /><path
       style="font-weight:normal;font-size:18.4421px;font-family:Ravie;-inkscape-font-specification:'Ravie, Normal';text-align:center;text-anchor:middle;opacity:0.423706;fill:none;stroke-width:0.43564;stroke:#000000"
       d="m 41.129165,15.868389 q 0,-0.378208 -0.756414,-0.630346 -0.801439,-0.270148 -2.089144,-0.270148 -1.683923,0 -3.241776,0.630346 -1.512829,0.62134 -1.512829,1.251685 0,0.504276 1.071587,0.810444 0.963528,0.270148 2.287253,0.270148 1.503824,0 2.908593,-0.720395 1.33273,-0.693379 1.33273,-1.341734 z"
       transform="matrix(0.92132097,0,0,1.0853981,55.765396,0.32421745)"
       id="path131" /><path
       style="font-weight:normal;font-size:18.4421px;font-family:Ravie;-inkscape-font-specification:'Ravie, Normal';text-align:center;text-anchor:middle;opacity:0.423706;fill:none;stroke-width:0.43564;stroke:#000000"
       d="m 46.36103,20.902146 q -0.423231,-0.297163 -1.377754,-0.297163 -1.152631,0 -2.602425,0.378207 -1.449794,0.378207 -2.269243,0.882483 0.315172,-1.512828 0.315172,-2.017105 0,-0.153083 -0.05403,-0.144078 -0.03602,0.009 -0.117064,0.07204 -1.512829,1.242681 -3.610978,1.512829 -0.999548,0.126069 -1.692927,0.126069 -2.053125,0 -2.944613,-0.873479 -0.801439,-0.783429 -0.801439,-2.404317 0,-0.846463 0.162089,-1.86402 0.333182,-2.017105 1.440789,-3.331825 1.33273,-1.557854 3.412869,-1.557854 2.251233,0 4.385402,2.071135 0,-0.450247 -0.252138,-1.269696 -0.279153,-0.873478 -0.630345,-1.422779 4.430426,-0.67537 6.123353,-1.29671 0.162089,0.567311 0.162089,1.143626 0,0.468257 -0.108059,0.576316 -1.323725,0.450247 -1.323725,0.810444 v 0.01801 q 0,0.297162 0.02701,0.936513 0.02701,0.63935 0.02701,0.981537 0,2.890583 -0.738405,4.772614 0.594326,-0.369202 1.413774,-0.369202 0.432237,0 0.801439,0.09905 z"
       transform="matrix(0.92132097,0,0,1.0853981,55.765396,0.32421745)"
       id="path130" /><path
       style="font-weight:normal;font-size:18.4421px;font-family:Ravie;-inkscape-font-specification:'Ravie, Normal';text-align:center;text-anchor:middle;opacity:0.423706;fill:none;stroke-width:0.43564;stroke:#000000"
       d="m 30.485335,20.686027 q -0.441241,-0.261143 -1.323725,-0.261143 -1.125616,0 -2.530386,0.396217 -1.440789,0.396217 -2.548395,1.044572 0.702384,-3.665007 0.702384,-5.538033 v -0.495271 q -0.936512,0.117064 -4.51147,0.495271 0.162088,2.584416 1.098601,5.438979 -2.161183,-0.972533 -4.367392,-0.972533 -1.33273,0 -1.90004,0.459252 l 0.05403,-2.098149 q 0.297163,-0.135074 0.720395,-0.135074 0.69338,0 1.440789,0.351192 -0.65736,-1.728947 -1.026562,-5.2949 -0.288158,-2.845558 -0.288158,-5.4569886 0,-0.6753699 -0.576316,-0.9004932 -0.02701,-0.01801 -1.152631,-0.2251233 -0.225123,-0.03602 -0.225123,-0.7384044 0,-0.072039 0.01801,-0.2161184 0.01801,-0.1530838 0.01801,-0.1891035 0.315173,0.05403 7.843296,0.6843748 -0.927508,2.1251639 -1.269695,3.9261506 -0.252138,1.31472 -0.297163,3.2868 3.007647,0 4.457441,0.144079 0.01801,-0.180099 0.01801,-0.441242 0,-3.214761 -1.99009,-5.9522599 3.151726,-0.4862663 7.122901,-1.2066609 0.02701,0 0.08104,0.3511924 0.06303,0.3511923 0.06303,0.6663649 0,0.396217 -0.108059,0.531291 -1.35074,0.4412417 -1.35074,0.927508 0,-0.1620888 0.180099,1.0175575 0.189103,1.170641 0.189103,2.746504 0,1.828001 -0.261143,3.430879 -0.261143,1.593873 -0.65736,2.188199 0.71139,-0.459252 1.476809,-0.459252 0.378207,0 0.63935,0.09005 z"
       transform="matrix(0.92132097,0,0,1.0853981,55.765396,0.32421745)"
       id="text130" /><path
       style="fill:none;stroke:#000000;stroke-width:0.341491;stroke-opacity:1"
       d="M 35.718829,65.630151 35.454723,65.366046 V 63.34064 c 0,-1.113969 -0.02686,-2.767132 -0.05974,-3.673695 l -0.05974,-1.648298 -2.492765,2.487907 c -1.371019,1.36835 -2.61043,2.531703 -2.754236,2.585228 -0.311104,0.115783 -0.763643,-0.0045 -1.00019,-0.265904 -0.08471,-0.09366 -0.176761,-0.339176 -0.204446,-0.545594 l -0.05032,-0.375302 3.26552,-3.270043 3.265519,-3.270044 V 54.12418 c 0,-0.682394 -0.02271,-1.240718 -0.05045,-1.240718 -0.02773,0 -0.66814,0.53961 -1.423062,1.199135 -1.841327,1.608664 -1.831689,1.601801 -2.250055,1.601801 -0.791705,0 -1.185298,-0.943817 -0.635926,-1.524901 0.136665,-0.144547 1.179035,-1.067961 2.31638,-2.052035 l 2.067898,-1.789228 -0.06589,-3.122082 c -0.03627,-1.71715 -0.07894,-3.135483 -0.09487,-3.151858 -0.02786,-0.02855 -5.265537,3.016623 -5.391736,3.134711 -0.03376,0.03159 -0.288904,1.332614 -0.567016,2.891198 -0.278124,1.558585 -0.541528,2.90078 -0.585338,2.982652 -0.172733,0.322747 -0.454823,0.487718 -0.833959,0.487718 -0.312083,0 -0.425268,-0.05081 -0.634332,-0.284804 -0.329615,-0.368912 -0.324759,-0.511266 0.09613,-2.811832 0.186361,-1.018729 0.308682,-1.864789 0.271837,-1.880136 -0.08195,-0.03415 -1.933756,1.038034 -2.049225,1.186504 -0.04543,0.05849 -0.56359,2.037627 -1.15135,4.398097 -0.952302,3.824553 -1.095606,4.318803 -1.316403,4.540226 -0.523356,0.524874 -1.526584,0.157096 -1.526584,-0.559638 0,-0.153941 0.367703,-1.749014 0.817117,-3.544603 0.449414,-1.795589 0.805182,-3.311242 0.790587,-3.368113 -0.01456,-0.05687 -1.32761,0.66424 -2.91782,1.602468 -3.417369,2.016262 -3.393199,2.004322 -3.791649,1.872825 -0.402001,-0.132675 -0.596419,-0.369015 -0.653482,-0.794396 -0.04054,-0.302192 -0.0088,-0.397421 0.210958,-0.633982 0.14225,-0.153106 1.590223,-1.058436 3.217706,-2.011844 1.62747,-0.953408 2.959045,-1.761191 2.959045,-1.795078 0,-0.03387 -1.532607,-0.476916 -3.405811,-0.984521 -1.873191,-0.507602 -3.477683,-0.98796 -3.56553,-1.067463 -0.488757,-0.442315 -0.3541,-1.280727 0.245959,-1.531449 0.323178,-0.135032 0.398526,-0.118267 4.543471,1.011229 2.318175,0.6317 4.297699,1.165617 4.398961,1.18649 0.181204,0.03735 2.210236,-1.084975 2.210236,-1.222545 0,-0.0358 -0.877305,-0.367512 -1.949555,-0.737124 -2.13844,-0.737129 -2.387374,-0.892989 -2.387374,-1.494702 0,-0.372379 0.354715,-0.822675 0.709404,-0.900583 0.185672,-0.04077 0.98926,0.197292 3.027328,0.896887 1.526019,0.523821 2.803732,0.951934 2.839385,0.951363 0.143818,-0.0024 5.37315,-3.128404 5.36877,-3.20946 -0.005,-0.104576 -5.249135,-3.111144 -5.429021,-3.112944 -0.06877,-6.84e-4 -1.304719,0.425665 -2.746555,0.947452 -1.533511,0.554968 -2.75888,0.948703 -2.952495,0.948703 -0.789433,0 -1.157751,-1.027327 -0.561707,-1.566743 0.08684,-0.07862 1.00969,-0.450853 2.05068,-0.827177 1.041002,-0.376326 1.921934,-0.713435 1.957637,-0.749131 0.03564,-0.0357 -0.412154,-0.336939 -0.995208,-0.669428 L 24.471283,36.7206 20.247476,37.935222 c -2.323107,0.668038 -4.368077,1.214617 -4.544411,1.214617 -0.673889,0 -1.099998,-0.866098 -0.704158,-1.431242 0.187453,-0.267626 0.0832,-0.232033 3.775911,-1.28926 1.744671,-0.49951 3.206524,-0.941337 3.248565,-0.981845 0.04204,-0.04051 -1.334512,-0.876074 -3.058978,-1.856818 -2.843326,-1.617055 -3.147754,-1.812715 -3.267941,-2.100356 -0.157222,-0.376299 -0.105794,-0.643933 0.189674,-0.987468 0.177728,-0.206617 0.288955,-0.251877 0.609246,-0.24794 0.33904,0.0041 0.803287,0.23974 3.446635,1.748939 1.680153,0.959264 3.074389,1.724545 3.098321,1.70062 0.02397,-0.02393 -0.344436,-1.508945 -0.818586,-3.300044 -0.474149,-1.791096 -0.862094,-3.403642 -0.862094,-3.583437 0,-0.179791 0.06425,-0.425057 0.14294,-0.545033 0.170072,-0.259564 0.652717,-0.438491 0.968804,-0.359156 0.507317,0.127328 0.562774,0.279053 1.762867,4.823321 l 1.150196,4.35535 1.010595,0.581542 c 1.069678,0.615547 1.2398,0.677435 1.163837,0.423421 -0.02598,-0.08697 -0.215991,-1.028943 -0.422181,-2.093284 -0.359408,-1.855265 -0.368858,-1.947805 -0.228942,-2.241224 0.289557,-0.607209 1.200357,-0.698574 1.555812,-0.156072 0.07718,0.117828 0.390869,1.50676 0.697042,3.08652 l 0.556663,2.872293 2.710588,1.553301 c 1.490818,0.854315 2.741072,1.555678 2.778344,1.558585 0.03727,0.0028 0.06777,-1.3968 0.06777,-3.110459 v -3.115747 l -0.24847,-0.261498 C 34.88886,34.049026 33.857371,33.156377 32.733303,32.209183 31.60926,31.26199 30.663936,30.420216 30.632612,30.338576 c -0.262838,-0.684949 0.329177,-1.416242 1.032619,-1.275551 0.175808,0.03516 0.853298,0.544295 1.874283,1.408526 l 1.598945,1.353465 0.02673,-1.239226 0.02673,-1.239225 -2.240304,-2.163535 c -4.355013,-4.205767 -4.363597,-4.21483 -4.363597,-4.603522 0,-0.272858 0.06576,-0.409417 0.318747,-0.662464 0.285504,-0.285504 0.356534,-0.313694 0.680816,-0.270198 0.325386,0.04365 0.558947,0.239262 2.306165,1.931557 1.069264,1.035646 2.253344,2.166937 2.631288,2.51398 l 0.687178,0.63099 -0.05095,-3.569207 c -0.05622,-3.938639 -0.04731,-4.018804 0.478441,-4.290671 0.393191,-0.203335 0.825789,-0.111378 1.119801,0.238036 l 0.231326,0.274916 v 3.592118 c 0,1.975669 0.02799,3.620141 0.06225,3.654389 0.03426,0.03425 1.193517,-1.066571 2.576157,-2.446259 1.382627,-1.379688 2.58454,-2.536518 2.670894,-2.570732 0.760443,-0.301287 1.541693,0.534613 1.165318,1.246813 -0.07542,0.142695 -1.543789,1.661848 -3.263047,3.375897 l -3.12593,3.116447 0.02497,1.237543 0.02497,1.237541 1.599786,-1.387585 c 0.879878,-0.763174 1.683805,-1.414254 1.786499,-1.446849 0.522741,-0.165911 1.176525,0.335832 1.176525,0.902911 0,0.187404 -0.08208,0.39948 -0.216029,0.557771 -0.118845,0.140473 -1.154902,1.06858 -2.302425,2.062458 l -2.086384,1.807056 0.0075,2.394349 c 0.005,1.316891 0.03413,2.748414 0.06614,3.181157 l 0.05823,0.786812 2.620231,-1.540274 c 1.441134,-0.84715 2.668033,-1.587474 2.726464,-1.645162 0.05848,-0.05769 0.314706,-1.283992 0.569514,-2.725116 0.254807,-1.441129 0.503854,-2.774555 0.553424,-2.963175 0.102656,-0.390474 0.508109,-0.695226 0.925747,-0.695777 0.352493,-3.41e-4 0.872636,0.520685 0.869876,0.871567 -10e-4,0.14163 -0.160133,1.131669 -0.353372,2.200092 -0.193251,1.068418 -0.336919,1.95725 -0.319262,1.975178 0.01769,0.01793 0.501369,-0.239914 1.074949,-0.572979 0.94575,-0.549194 1.050979,-0.636359 1.130129,-0.936125 0.04806,-0.1818 0.538052,-2.135329 1.089004,-4.341171 0.550953,-2.205846 1.042006,-4.085893 1.091238,-4.177884 0.143405,-0.267941 0.607652,-0.463786 0.948035,-0.399931 0.365394,0.06855 0.763442,0.512513 0.759966,0.847621 -0.0013,0.132848 -0.382763,1.756076 -0.847525,3.607178 -0.464762,1.851102 -0.814619,3.365641 -0.777485,3.365641 0.03715,0 1.450646,-0.813174 3.141127,-1.807052 2.174189,-1.278273 3.153919,-1.807058 3.348111,-1.807058 0.368872,0 0.809067,0.381146 0.880606,0.762468 0.116799,0.622616 0.0093,0.708688 -3.295792,2.639618 -1.68816,0.986259 -3.058626,1.83194 -3.045499,1.879291 0.01318,0.04735 1.543789,0.499936 3.401451,1.005748 2.958294,0.805495 3.403366,0.949652 3.585414,1.161297 0.476373,0.553817 0.08369,1.499003 -0.620963,1.494642 -0.165326,-0.001 -2.208237,-0.523063 -4.539797,-1.160093 l -4.239206,-1.15823 -1.077621,0.632157 c -0.717009,0.420607 -1.036961,0.654651 -0.956092,0.699383 0.06689,0.03697 0.833081,0.310876 1.70273,0.608667 2.195616,0.751847 2.335456,0.814203 2.488172,1.10951 0.325135,0.628743 -0.05497,1.348582 -0.712114,1.348582 -0.173787,0 -1.539849,-0.42011 -3.035724,-0.933575 l -2.719775,-0.933571 -2.708618,1.587884 c -1.489751,0.87334 -2.708631,1.613401 -2.708631,1.644585 0,0.03117 1.227339,0.756803 2.727418,1.61248 l 2.72743,1.55578 2.785271,-1.001852 c 1.531892,-0.551023 2.847743,-1.001855 2.924107,-1.001855 0.221062,0 0.658127,0.25704 0.759653,0.446759 0.143856,0.268791 0.10642,0.840794 -0.07015,1.070133 -0.110562,0.143672 -0.654537,0.384987 -1.782458,0.790728 -2.369101,0.852228 -2.396685,0.863333 -2.346386,0.944714 0.06726,0.10893 1.984267,1.17495 2.112825,1.17495 0.05999,0 2.027815,-0.550015 4.372947,-1.222257 2.952949,-0.84647 4.339934,-1.205558 4.511195,-1.167943 0.136013,0.02988 0.350042,0.176421 0.475619,0.325664 0.312275,0.371118 0.304725,0.804374 -0.02014,1.156141 -0.222454,0.240867 -0.597748,0.368755 -3.584171,1.221362 -1.834625,0.523778 -3.358987,0.975625 -3.387475,1.004102 -0.02849,0.02848 0.0088,0.08781 0.08295,0.131839 0.07417,0.04404 1.476511,0.843998 3.116412,1.777692 2.627527,1.49601 3.000199,1.735549 3.137871,2.01692 0.300351,0.613843 -0.09959,1.269199 -0.786425,1.288667 -0.22201,0.0063 -1.0376,-0.415915 -3.399872,-1.76003 -1.709281,-0.972573 -3.119981,-1.736744 -3.134878,-1.698159 -0.01493,0.03859 0.36119,1.542856 0.835766,3.342827 0.474563,1.799966 0.862848,3.41321 0.862848,3.58498 0,0.712582 -0.939099,1.114414 -1.489249,0.637239 -0.206089,-0.178757 -0.373652,-0.732225 -1.388249,-4.585406 L 47.053952,49.585586 45.98647,48.971811 c -0.587108,-0.337574 -1.081625,-0.599616 -1.098931,-0.582316 -0.01732,0.01732 0.149441,0.960989 0.370514,2.097095 0.221087,1.136101 0.378132,2.160616 0.348992,2.276698 -0.02912,0.116084 -0.173623,0.312587 -0.321094,0.436675 -0.473672,0.398568 -1.203381,0.24479 -1.415595,-0.298317 -0.05246,-0.134236 -0.326616,-1.46383 -0.609283,-2.954649 -0.282655,-1.490822 -0.551342,-2.758484 -0.597085,-2.817033 -0.08019,-0.102693 -5.046333,-2.949008 -5.345716,-3.06389 -0.134406,-0.05158 -0.147282,0.219446 -0.147282,3.101088 v 3.157606 l 2.17393,1.836734 c 1.19565,1.010206 2.252779,1.936995 2.349159,2.059532 0.48705,0.619174 -0.146027,1.58576 -0.926348,1.414372 -0.145764,-0.032 -0.95067,-0.641272 -1.859123,-1.407212 l -1.602083,-1.350752 -0.02522,1.24234 -0.02522,1.242343 1.922674,1.849159 c 3.955723,3.804473 4.678467,4.553195 4.678103,4.846212 -6.91e-4,0.665316 -0.680427,1.168745 -1.251196,0.926877 -0.151774,-0.0643 -1.392252,-1.204551 -2.756633,-2.533864 -1.36438,-1.329318 -2.504749,-2.416939 -2.534141,-2.416939 -0.02937,0 -0.05346,1.661466 -0.05346,3.692143 v 3.692144 l -0.238204,0.238201 c -0.348916,0.348924 -0.941684,0.337153 -1.304744,-0.02591 z"
       id="path3" /><path
       style="fill:none;stroke:#000000;stroke-width:0.419934;stroke-opacity:1"
       d="m 244.95321,26.406002 c -2.04039,0.877859 -4.5082,1.203521 -6.66645,1.736128 -0.65003,0.160419 -1.9962,0.190725 -2.2645,0.93534 -0.42575,1.18157 1.7058,1.138664 2.3756,1.231778 2.8794,0.400298 5.80897,0.676909 8.6664,1.207691 V 31.6281 c -4.24207,0.182161 -8.53394,0.830427 -12.77737,1.121018 -0.87148,0.05966 -3.69751,-0.226774 -3.92581,0.880635 -0.28571,1.385964 2.84421,1.324863 3.70359,1.442687 4.2132,0.577577 8.63932,1.689987 12.88849,1.777714 v 0.111161 c -1.24541,0.296513 -2.61531,0.230514 -3.88878,0.352197 -3.69061,0.352628 -7.43625,0.451485 -11.11074,0.933945 -1.08954,0.143069 -2.23511,0.230529 -3.33324,0.27057 -0.50477,0.0184 -1.16991,0.05758 -1.44122,0.560851 -0.30273,0.561459 0.12808,1.083425 0.66355,1.230932 1.19433,0.328956 2.6524,0.320274 3.88869,0.419651 5.58505,0.448918 11.28655,1.565024 16.88835,1.565024 v 0.111161 c -2.51402,0.598547 -5.42145,0.388914 -7.99976,0.565495 -3.98062,0.272589 -8.00977,0.719904 -11.99961,0.767367 -1.73822,0.02063 -3.48416,0.15092 -5.22206,0.227026 -0.55174,0.02419 -1.45193,0.01796 -1.75782,0.56324 -0.45628,0.8133 0.26189,1.359725 0.98007,1.477757 1.8759,0.308312 3.78349,0.425899 5.66649,0.68525 4.54225,0.625618 9.11381,1.074758 13.66623,1.619803 3.06847,0.36738 6.24455,1.0301 9.33303,1.093844 v 0.11116 c -9.43109,0.02597 -18.88662,0.777756 -28.33243,0.777756 -2.20648,0 -4.4648,0.08133 -6.66645,0.232161 -0.72382,0.04957 -1.83828,0.04348 -1.9257,0.990104 -0.1119,1.211594 1.42464,1.233915 2.25902,1.327638 2.55078,0.28654 5.1249,0.495623 7.66642,0.830486 6.58816,0.868005 13.27509,1.11753 19.88826,1.749426 4.42423,0.422738 9.00142,1.166536 13.44402,1.203313 v 0.111161 c -10.06739,0.432251 -20.12752,0.777755 -30.22126,0.777755 -2.25388,0 -4.76566,0.135055 -6.99978,-0.158267 -0.81719,-0.107302 -2.20479,-0.32302 -2.62689,0.60441 -0.29562,0.649526 0.23307,1.264354 0.84917,1.406073 1.58125,0.36373 3.28185,0.352139 4.88874,0.560851 3.61593,0.469666 7.2607,0.798177 10.88854,1.161149 3.02396,0.302553 6.07504,0.850848 9.11082,0.981199 -0.42284,2.27764 -0.36986,4.700725 -0.21228,6.999767 0.0604,0.880293 0.45317,2.2674 1.65615,1.806268 0.89727,-0.343931 0.75784,-1.270499 0.67274,-2.028486 -0.21842,-1.945494 -0.28961,-3.942783 -0.0368,-5.888692 0.0934,-0.718777 0.59297,-1.894544 0.0643,-2.511673 -0.39794,-0.464545 -1.14428,-0.447211 -1.69961,-0.506665 -1.2511,-0.133868 -2.54162,-0.196527 -3.77766,-0.426003 v -0.111161 c 4.52812,0 9.03876,-0.242298 13.55512,-0.440057 3.02149,-0.132236 6.10567,-0.126002 9.11083,-0.48053 1.73354,-0.204542 3.49015,-0.223405 5.22205,-0.459945 0.6964,-0.09513 1.61618,-0.247982 1.52687,-1.174521 -0.0966,-1.002451 -1.32393,-0.995951 -2.08241,-1.120424 -2.27066,-0.372604 -4.59493,-0.686066 -6.88868,-0.870424 -7.00828,-0.563285 -13.98701,-1.416804 -20.99931,-1.908287 -2.76736,-0.19396 -5.55711,-0.656695 -8.33308,-0.656695 v -0.111161 c 7.96855,-0.342135 16.06912,0.01558 23.99924,-0.920572 1.88237,-0.222233 3.78143,-0.312334 5.66649,-0.541053 0.68811,-0.08356 1.65693,-0.289478 1.52798,-1.20453 -0.10998,-0.780738 -0.902,-0.850655 -1.52798,-0.936348 -1.69869,-0.232548 -3.4087,-0.398651 -5.11096,-0.602347 -7.13796,-0.854158 -14.48871,-1.260081 -21.55486,-2.572714 v -0.111165 c 6.93222,0 13.85161,-1.131778 20.77711,-1.334836 1.65403,-0.04853 3.35185,-0.19307 4.99985,-0.350639 0.56511,-0.05402 1.35634,-0.09231 1.51976,-0.760614 0.15439,-0.631405 -0.25757,-1.089228 -0.85321,-1.198341 -1.42087,-0.2603 -2.89968,-0.263402 -4.33311,-0.434833 -3.87285,-0.46318 -7.7838,-0.679581 -11.6663,-1.050552 -2.09782,-0.200446 -4.22419,-0.536674 -6.33313,-0.536674 v -0.111161 c 1.24541,-0.296513 2.6153,-0.230514 3.88877,-0.352183 3.14009,-0.300045 6.31252,-0.42112 9.44414,-0.790622 1.00493,-0.118582 3.7938,0.169813 4.31159,-0.862024 0.73539,-1.465409 -2.6666,-1.45974 -3.42273,-1.565113 -4.18496,-0.583127 -8.36354,-1.233485 -12.55515,-1.763228 v -0.111161 c 3.34634,-0.0089 6.83942,-0.718242 10.11078,-1.377698 0.68726,-0.138617 3.34618,-0.360048 2.66307,-1.610126 -0.44093,-0.806918 -2.30965,-0.693412 -3.10749,-0.804321 -2.95984,-0.411488 -6.09405,-0.513997 -8.99971,-1.207706 v -0.111161 c 1.71259,-0.149332 3.56637,-0.831139 5.22205,-1.301057 0.49598,-0.140843 1.3823,-0.204275 1.51804,-0.814784 0.12942,-0.58197 -0.41806,-0.899186 -0.8514,-1.130546 -1.07391,-0.573362 -2.16375,-0.895209 -3.33322,-1.197911 1.13485,-1.244156 1.62137,-3.009537 1.34212,-4.666516 -0.0846,-0.502258 -0.19412,-1.534303 -0.89451,-1.513673 -0.84898,0.02508 -0.1676,2.325934 -0.24348,2.958067 -0.21813,1.816938 -1.43913,2.802412 -3.09241,3.293701 -0.39785,0.118285 -0.87861,0.420453 -0.63681,0.912009 0.25944,0.527443 0.96828,0.27906 1.41404,0.248532 1.33169,-0.09113 2.54133,0.180454 3.77766,0.65671 z"
       id="path143" /><path
       style="fill:none;stroke:#000000;stroke-width:0.419934;stroke-opacity:1"
       d="m 243.33384,11.967297 c -0.64684,0.410345 -0.258,1.632328 -0.79473,2.149456 -0.3606,0.347434 -1.4372,0.04809 -1.91737,0.06961 -0.26957,0.01187 -0.65651,0.07391 -0.57595,0.444005 0.17633,0.810243 1.64428,0.771715 1.79839,1.574285 0.0996,0.518894 -1.11882,2.051356 -0.41066,2.380238 0.79664,0.369962 1.4064,-1.256845 2.13925,-1.214043 0.67024,0.03918 1.38795,1.618778 2.10959,1.225693 0.69487,-0.378481 -0.52535,-1.829865 -0.46373,-2.37586 0.0545,-0.482667 1.04248,-0.838589 1.39631,-1.085265 0.22271,-0.155269 0.62436,-0.470646 0.37019,-0.773467 -0.50634,-0.603281 -1.74002,0.163388 -2.33155,-0.185189 -0.46993,-0.276922 -0.49078,-2.735314 -1.31974,-2.209459"
       id="path4" /></g></svg>
