<?xml version="1.0" encoding="UTF-8" standalone="no"?>
<!-- Created with Inkscape (http://www.inkscape.org/) -->

<svg
   width="280mm"
   height="80mm"
   viewBox="0 0 280 80"
   version="1.1"
   id="svg5"
   xml:space="preserve"
   inkscape:version="1.3 (0e150ed6c4, 2023-07-21)"
   sodipodi:docname="lucys mug star.svg"
   xmlns:inkscape="http://www.inkscape.org/namespaces/inkscape"
   xmlns:sodipodi="http://sodipodi.sourceforge.net/DTD/sodipodi-0.dtd"
   xmlns="http://www.w3.org/2000/svg"
   xmlns:svg="http://www.w3.org/2000/svg"><sodipodi:namedview
     id="namedview7"
     pagecolor="#ffffff"
     bordercolor="#000000"
     borderopacity="0.25"
     inkscape:showpageshadow="2"
     inkscape:pageopacity="0.0"
     inkscape:pagecheckerboard="0"
     inkscape:deskcolor="#d1d1d1"
     inkscape:document-units="mm"
     showgrid="false"
     inkscape:zoom="0.57704695"
     inkscape:cx="32.059783"
     inkscape:cy="188.02629"
     inkscape:window-width="1920"
     inkscape:window-height="1009"
     inkscape:window-x="-8"
     inkscape:window-y="-8"
     inkscape:window-maximized="1"
     inkscape:current-layer="layer1" /><defs
     id="defs2"><clipPath
       clipPathUnits="userSpaceOnUse"
       id="clipPath25"><rect
         style="fill:#ff0000;stroke:none;stroke-width:3;stroke-linecap:square;stroke-linejoin:miter;paint-order:stroke markers fill;stop-color:#000000"
         id="rect25-8"
         width="78"
         height="45.033199"
         x="763.61322"
         y="452.82422" /></clipPath><inkscape:path-effect
       effect="rough_hatches"
       id="path-effect11"
       is_visible="true"
       lpeversion="1.2"
       direction="29.712099,44.536936 , 8.361241,0"
       dist_rdm="75;1"
       growth="0"
       do_bend="true"
       bender="29.712099,49.536936 , 5,0"
       bottom_edge_variation="3.6442193;1"
       top_edge_variation="3.6442193;1"
       bottom_tgt_variation="0;1"
       top_tgt_variation="0;1"
       scale_bf="1"
       scale_bb="1"
       scale_tf="1"
       scale_tb="1"
       top_smth_variation="0;1"
       bottom_smth_variation="0;1"
       fat_output="true"
       stroke_width_top="1"
       stroke_width_bottom="1"
       front_thickness="1"
       back_thickness="0.25" /><inkscape:path-effect
       effect="interpolate"
       id="path-effect2"
       is_visible="true"
       lpeversion="1"
       trajectory="M 0,0 V 0"
       equidistant_spacing="true"
       steps="5" /><inkscape:path-effect
       effect="sketch"
       id="path-effect1"
       is_visible="true"
       lpeversion="1"
       nbiter_approxstrokes="5"
       parallel_offset="5;1"
       strokelength="100"
       strokelength_rdm="0.3;1"
       strokeoverlap="0.3"
       strokeoverlap_rdm="0.3;1"
       ends_tolerance="0.1;1"
       tremble_size="5;1"
       tremble_frequency="1"
       nbtangents="5"
       tgt_places_rdmness="1;1"
       tgtlength="100"
       tgtlength_rdm="0.3;1"
       tgtscale="10" /><inkscape:path-effect
       effect="rough_hatches"
       id="path-effect60"
       is_visible="true"
       lpeversion="1.2"
       direction="0,-5 , 0,0"
       dist_rdm="75;1"
       growth="0"
       do_bend="true"
       bender="0,0 , 5,0"
       bottom_edge_variation="0;1"
       top_edge_variation="0;1"
       bottom_tgt_variation="0;1"
       top_tgt_variation="0;1"
       scale_bf="1"
       scale_bb="1"
       scale_tf="1"
       scale_tb="1"
       top_smth_variation="0;1"
       bottom_smth_variation="0;1"
       fat_output="true"
       stroke_width_top="1"
       stroke_width_bottom="1"
       front_thickness="1"
       back_thickness="0.25" /><inkscape:path-effect
       effect="curvestitching"
       id="path-effect59"
       is_visible="true"
       lpeversion="1"
       count="5"
       startpoint_edge_variation="0;1"
       startpoint_spacing_variation="0;1"
       endpoint_edge_variation="0;1"
       endpoint_spacing_variation="0;1"
       strokepath="#path1"
       prop_scale="1"
       scale_y_rel="false" /><inkscape:path-effect
       effect="vonkoch"
       id="path-effect58"
       is_visible="true"
       lpeversion="1"
       ref_path="M 25.132999,32.932819 H 52.066798"
       generator="m 25.132999,50.956187 h 8.977933 m 8.977933,0 h 8.977933"
       similar_only="false"
       nbgenerations="1"
       drawall="true"
       maxComplexity="1000" /><inkscape:path-effect
       effect="spiro"
       id="path-effect57"
       is_visible="true"
       lpeversion="1" /><inkscape:path-effect
       effect="gears"
       id="path-effect56"
       is_visible="true"
       lpeversion="1"
       teeth="6"
       phi="4.9"
       min_radius="5" /><inkscape:path-effect
       effect="knot"
       id="path-effect55"
       is_visible="true"
       lpeversion="1"
       switcher_size="16.7"
       interruption_width="2.8"
       prop_to_stroke_width="true"
       add_stroke_width="inkscape_1.0_and_up"
       both="true"
       inverse_width="false"
       add_other_stroke_width="inkscape_1.0_and_up"
       crossing_points_vector="" /><inkscape:path-effect
       effect="rough_hatches"
       id="path-effect54"
       is_visible="true"
       lpeversion="1.2"
       direction="38.599898,27.932819 , 6.7334497,0"
       dist_rdm="75;1"
       growth="0"
       do_bend="true"
       bender="38.599898,32.932819 , 5,0"
       bottom_edge_variation="3.6;1"
       top_edge_variation="3.6046737;1"
       bottom_tgt_variation="0;1"
       top_tgt_variation="0;1"
       scale_bf="1"
       scale_bb="1"
       scale_tf="1"
       scale_tb="1"
       top_smth_variation="0;1"
       bottom_smth_variation="0;1"
       fat_output="true"
       stroke_width_top="1"
       stroke_width_bottom="1"
       front_thickness="1"
       back_thickness="0.25" /><inkscape:path-effect
       effect="rough_hatches"
       id="path-effect53"
       is_visible="true"
       lpeversion="1.2"
       direction="31.483285,1.9013349 , 4.65319,0"
       dist_rdm="75;1"
       growth="0"
       do_bend="true"
       bender="31.483285,6.9013349 , 5,0"
       bottom_edge_variation="0;1"
       top_edge_variation="0;1"
       bottom_tgt_variation="0;1"
       top_tgt_variation="0;1"
       scale_bf="1"
       scale_bb="1"
       scale_tf="1"
       scale_tb="1"
       top_smth_variation="0;1"
       bottom_smth_variation="0;1"
       fat_output="true"
       stroke_width_top="1"
       stroke_width_bottom="1"
       front_thickness="1"
       back_thickness="0.25" /><clipPath
       clipPathUnits="userSpaceOnUse"
       id="clipPath5"><path
         id="path5"
         style="stroke-width:0.1;stroke-linecap:square;paint-order:markers fill stroke;stop-color:#000000"
         d="m 438.25066,553.76374 859.87054,0 v 201.39554 l -859.87054,0 z"
         sodipodi:nodetypes="ccccc" /></clipPath><inkscape:path-effect
       effect="fill_between_many"
       method="originald"
       linkedpaths="#path1449,0,1|#path1451,0,1|#path1453,0,1|#path1455,0,1|#path1457,0,1|#path1459,0,1|#path1461,0,1|#path1463,0,1|#path1465,0,1"
       id="path-effect6030"
       is_visible="true"
       lpeversion="0"
       join="true"
       close="true"
       autoreverse="true" /></defs><g
     inkscape:label="Layer 1"
     inkscape:groupmode="layer"
     id="layer1"><path
       style="fill:none;stroke:#000000;stroke-width:0.341491;stroke-opacity:1"
       d="M 35.718829,65.630151 35.454723,65.366046 V 63.34064 c 0,-1.113969 -0.02686,-2.767132 -0.05974,-3.673695 l -0.05974,-1.648298 -2.492765,2.487907 c -1.371019,1.36835 -2.61043,2.531703 -2.754236,2.585228 -0.311104,0.115783 -0.763643,-0.0045 -1.00019,-0.265904 -0.08471,-0.09366 -0.176761,-0.339176 -0.204446,-0.545594 l -0.05032,-0.375302 3.26552,-3.270043 3.265519,-3.270044 V 54.12418 c 0,-0.682394 -0.02271,-1.240718 -0.05045,-1.240718 -0.02773,0 -0.66814,0.53961 -1.423062,1.199135 -1.841327,1.608664 -1.831689,1.601801 -2.250055,1.601801 -0.791705,0 -1.185298,-0.943817 -0.635926,-1.524901 0.136665,-0.144547 1.179035,-1.067961 2.31638,-2.052035 l 2.067898,-1.789228 -0.06589,-3.122082 c -0.03627,-1.71715 -0.07894,-3.135483 -0.09487,-3.151858 -0.02786,-0.02855 -5.265537,3.016623 -5.391736,3.134711 -0.03376,0.03159 -0.288904,1.332614 -0.567016,2.891198 -0.278124,1.558585 -0.541528,2.90078 -0.585338,2.982652 -0.172733,0.322747 -0.454823,0.487718 -0.833959,0.487718 -0.312083,0 -0.425268,-0.05081 -0.634332,-0.284804 -0.329615,-0.368912 -0.324759,-0.511266 0.09613,-2.811832 0.186361,-1.018729 0.308682,-1.864789 0.271837,-1.880136 -0.08195,-0.03415 -1.933756,1.038034 -2.049225,1.186504 -0.04543,0.05849 -0.56359,2.037627 -1.15135,4.398097 -0.952302,3.824553 -1.095606,4.318803 -1.316403,4.540226 -0.523356,0.524874 -1.526584,0.157096 -1.526584,-0.559638 0,-0.153941 0.367703,-1.749014 0.817117,-3.544603 0.449414,-1.795589 0.805182,-3.311242 0.790587,-3.368113 -0.01456,-0.05687 -1.32761,0.66424 -2.91782,1.602468 -3.417369,2.016262 -3.393199,2.004322 -3.791649,1.872825 -0.402001,-0.132675 -0.596419,-0.369015 -0.653482,-0.794396 -0.04054,-0.302192 -0.0088,-0.397421 0.210958,-0.633982 0.14225,-0.153106 1.590223,-1.058436 3.217706,-2.011844 1.62747,-0.953408 2.959045,-1.761191 2.959045,-1.795078 0,-0.03387 -1.532607,-0.476916 -3.405811,-0.984521 -1.873191,-0.507602 -3.477683,-0.98796 -3.56553,-1.067463 -0.488757,-0.442315 -0.3541,-1.280727 0.245959,-1.531449 0.323178,-0.135032 0.398526,-0.118267 4.543471,1.011229 2.318175,0.6317 4.297699,1.165617 4.398961,1.18649 0.181204,0.03735 2.210236,-1.084975 2.210236,-1.222545 0,-0.0358 -0.877305,-0.367512 -1.949555,-0.737124 -2.13844,-0.737129 -2.387374,-0.892989 -2.387374,-1.494702 0,-0.372379 0.354715,-0.822675 0.709404,-0.900583 0.185672,-0.04077 0.98926,0.197292 3.027328,0.896887 1.526019,0.523821 2.803732,0.951934 2.839385,0.951363 0.143818,-0.0024 5.37315,-3.128404 5.36877,-3.20946 -0.005,-0.104576 -5.249135,-3.111144 -5.429021,-3.112944 -0.06877,-6.84e-4 -1.304719,0.425665 -2.746555,0.947452 -1.533511,0.554968 -2.75888,0.948703 -2.952495,0.948703 -0.789433,0 -1.157751,-1.027327 -0.561707,-1.566743 0.08684,-0.07862 1.00969,-0.450853 2.05068,-0.827177 1.041002,-0.376326 1.921934,-0.713435 1.957637,-0.749131 0.03564,-0.0357 -0.412154,-0.336939 -0.995208,-0.669428 L 24.471283,36.7206 20.247476,37.935222 c -2.323107,0.668038 -4.368077,1.214617 -4.544411,1.214617 -0.673889,0 -1.099998,-0.866098 -0.704158,-1.431242 0.187453,-0.267626 0.0832,-0.232033 3.775911,-1.28926 1.744671,-0.49951 3.206524,-0.941337 3.248565,-0.981845 0.04204,-0.04051 -1.334512,-0.876074 -3.058978,-1.856818 -2.843326,-1.617055 -3.147754,-1.812715 -3.267941,-2.100356 -0.157222,-0.376299 -0.105794,-0.643933 0.189674,-0.987468 0.177728,-0.206617 0.288955,-0.251877 0.609246,-0.24794 0.33904,0.0041 0.803287,0.23974 3.446635,1.748939 1.680153,0.959264 3.074389,1.724545 3.098321,1.70062 0.02397,-0.02393 -0.344436,-1.508945 -0.818586,-3.300044 -0.474149,-1.791096 -0.862094,-3.403642 -0.862094,-3.583437 0,-0.179791 0.06425,-0.425057 0.14294,-0.545033 0.170072,-0.259564 0.652717,-0.438491 0.968804,-0.359156 0.507317,0.127328 0.562774,0.279053 1.762867,4.823321 l 1.150196,4.35535 1.010595,0.581542 c 1.069678,0.615547 1.2398,0.677435 1.163837,0.423421 -0.02598,-0.08697 -0.215991,-1.028943 -0.422181,-2.093284 -0.359408,-1.855265 -0.368858,-1.947805 -0.228942,-2.241224 0.289557,-0.607209 1.200357,-0.698574 1.555812,-0.156072 0.07718,0.117828 0.390869,1.50676 0.697042,3.08652 l 0.556663,2.872293 2.710588,1.553301 c 1.490818,0.854315 2.741072,1.555678 2.778344,1.558585 0.03727,0.0028 0.06777,-1.3968 0.06777,-3.110459 v -3.115747 l -0.24847,-0.261498 C 34.88886,34.049026 33.857371,33.156377 32.733303,32.209183 31.60926,31.26199 30.663936,30.420216 30.632612,30.338576 c -0.262838,-0.684949 0.329177,-1.416242 1.032619,-1.275551 0.175808,0.03516 0.853298,0.544295 1.874283,1.408526 l 1.598945,1.353465 0.02673,-1.239226 0.02673,-1.239225 -2.240304,-2.163535 c -4.355013,-4.205767 -4.363597,-4.21483 -4.363597,-4.603522 0,-0.272858 0.06576,-0.409417 0.318747,-0.662464 0.285504,-0.285504 0.356534,-0.313694 0.680816,-0.270198 0.325386,0.04365 0.558947,0.239262 2.306165,1.931557 1.069264,1.035646 2.253344,2.166937 2.631288,2.51398 l 0.687178,0.63099 -0.05095,-3.569207 c -0.05622,-3.938639 -0.04731,-4.018804 0.478441,-4.290671 0.393191,-0.203335 0.825789,-0.111378 1.119801,0.238036 l 0.231326,0.274916 v 3.592118 c 0,1.975669 0.02799,3.620141 0.06225,3.654389 0.03426,0.03425 1.193517,-1.066571 2.576157,-2.446259 1.382627,-1.379688 2.58454,-2.536518 2.670894,-2.570732 0.760443,-0.301287 1.541693,0.534613 1.165318,1.246813 -0.07542,0.142695 -1.543789,1.661848 -3.263047,3.375897 l -3.12593,3.116447 0.02497,1.237543 0.02497,1.237541 1.599786,-1.387585 c 0.879878,-0.763174 1.683805,-1.414254 1.786499,-1.446849 0.522741,-0.165911 1.176525,0.335832 1.176525,0.902911 0,0.187404 -0.08208,0.39948 -0.216029,0.557771 -0.118845,0.140473 -1.154902,1.06858 -2.302425,2.062458 l -2.086384,1.807056 0.0075,2.394349 c 0.005,1.316891 0.03413,2.748414 0.06614,3.181157 l 0.05823,0.786812 2.620231,-1.540274 c 1.441134,-0.84715 2.668033,-1.587474 2.726464,-1.645162 0.05848,-0.05769 0.314706,-1.283992 0.569514,-2.725116 0.254807,-1.441129 0.503854,-2.774555 0.553424,-2.963175 0.102656,-0.390474 0.508109,-0.695226 0.925747,-0.695777 0.352493,-3.41e-4 0.872636,0.520685 0.869876,0.871567 -10e-4,0.14163 -0.160133,1.131669 -0.353372,2.200092 -0.193251,1.068418 -0.336919,1.95725 -0.319262,1.975178 0.01769,0.01793 0.501369,-0.239914 1.074949,-0.572979 0.94575,-0.549194 1.050979,-0.636359 1.130129,-0.936125 0.04806,-0.1818 0.538052,-2.135329 1.089004,-4.341171 0.550953,-2.205846 1.042006,-4.085893 1.091238,-4.177884 0.143405,-0.267941 0.607652,-0.463786 0.948035,-0.399931 0.365394,0.06855 0.763442,0.512513 0.759966,0.847621 -0.0013,0.132848 -0.382763,1.756076 -0.847525,3.607178 -0.464762,1.851102 -0.814619,3.365641 -0.777485,3.365641 0.03715,0 1.450646,-0.813174 3.141127,-1.807052 2.174189,-1.278273 3.153919,-1.807058 3.348111,-1.807058 0.368872,0 0.809067,0.381146 0.880606,0.762468 0.116799,0.622616 0.0093,0.708688 -3.295792,2.639618 -1.68816,0.986259 -3.058626,1.83194 -3.045499,1.879291 0.01318,0.04735 1.543789,0.499936 3.401451,1.005748 2.958294,0.805495 3.403366,0.949652 3.585414,1.161297 0.476373,0.553817 0.08369,1.499003 -0.620963,1.494642 -0.165326,-0.001 -2.208237,-0.523063 -4.539797,-1.160093 l -4.239206,-1.15823 -1.077621,0.632157 c -0.717009,0.420607 -1.036961,0.654651 -0.956092,0.699383 0.06689,0.03697 0.833081,0.310876 1.70273,0.608667 2.195616,0.751847 2.335456,0.814203 2.488172,1.10951 0.325135,0.628743 -0.05497,1.348582 -0.712114,1.348582 -0.173787,0 -1.539849,-0.42011 -3.035724,-0.933575 l -2.719775,-0.933571 -2.708618,1.587884 c -1.489751,0.87334 -2.708631,1.613401 -2.708631,1.644585 0,0.03117 1.227339,0.756803 2.727418,1.61248 l 2.72743,1.55578 2.785271,-1.001852 c 1.531892,-0.551023 2.847743,-1.001855 2.924107,-1.001855 0.221062,0 0.658127,0.25704 0.759653,0.446759 0.143856,0.268791 0.10642,0.840794 -0.07015,1.070133 -0.110562,0.143672 -0.654537,0.384987 -1.782458,0.790728 -2.369101,0.852228 -2.396685,0.863333 -2.346386,0.944714 0.06726,0.10893 1.984267,1.17495 2.112825,1.17495 0.05999,0 2.027815,-0.550015 4.372947,-1.222257 2.952949,-0.84647 4.339934,-1.205558 4.511195,-1.167943 0.136013,0.02988 0.350042,0.176421 0.475619,0.325664 0.312275,0.371118 0.304725,0.804374 -0.02014,1.156141 -0.222454,0.240867 -0.597748,0.368755 -3.584171,1.221362 -1.834625,0.523778 -3.358987,0.975625 -3.387475,1.004102 -0.02849,0.02848 0.0088,0.08781 0.08295,0.131839 0.07417,0.04404 1.476511,0.843998 3.116412,1.777692 2.627527,1.49601 3.000199,1.735549 3.137871,2.01692 0.300351,0.613843 -0.09959,1.269199 -0.786425,1.288667 -0.22201,0.0063 -1.0376,-0.415915 -3.399872,-1.76003 -1.709281,-0.972573 -3.119981,-1.736744 -3.134878,-1.698159 -0.01493,0.03859 0.36119,1.542856 0.835766,3.342827 0.474563,1.799966 0.862848,3.41321 0.862848,3.58498 0,0.712582 -0.939099,1.114414 -1.489249,0.637239 -0.206089,-0.178757 -0.373652,-0.732225 -1.388249,-4.585406 L 47.053952,49.585586 45.98647,48.971811 c -0.587108,-0.337574 -1.081625,-0.599616 -1.098931,-0.582316 -0.01732,0.01732 0.149441,0.960989 0.370514,2.097095 0.221087,1.136101 0.378132,2.160616 0.348992,2.276698 -0.02912,0.116084 -0.173623,0.312587 -0.321094,0.436675 -0.473672,0.398568 -1.203381,0.24479 -1.415595,-0.298317 -0.05246,-0.134236 -0.326616,-1.46383 -0.609283,-2.954649 -0.282655,-1.490822 -0.551342,-2.758484 -0.597085,-2.817033 -0.08019,-0.102693 -5.046333,-2.949008 -5.345716,-3.06389 -0.134406,-0.05158 -0.147282,0.219446 -0.147282,3.101088 v 3.157606 l 2.17393,1.836734 c 1.19565,1.010206 2.252779,1.936995 2.349159,2.059532 0.48705,0.619174 -0.146027,1.58576 -0.926348,1.414372 -0.145764,-0.032 -0.95067,-0.641272 -1.859123,-1.407212 l -1.602083,-1.350752 -0.02522,1.24234 -0.02522,1.242343 1.922674,1.849159 c 3.955723,3.804473 4.678467,4.553195 4.678103,4.846212 -6.91e-4,0.665316 -0.680427,1.168745 -1.251196,0.926877 -0.151774,-0.0643 -1.392252,-1.204551 -2.756633,-2.533864 -1.36438,-1.329318 -2.504749,-2.416939 -2.534141,-2.416939 -0.02937,0 -0.05346,1.661466 -0.05346,3.692143 v 3.692144 l -0.238204,0.238201 c -0.348916,0.348924 -0.941684,0.337153 -1.304744,-0.02591 z"
       id="path3" /></g></svg>
