<?xml version="1.0" encoding="UTF-8" standalone="no"?>
<!-- Created with Inkscape (http://www.inkscape.org/) -->

<svg
   width="243.09576mm"
   height="48.883747mm"
   viewBox="0 0 243.09576 48.883747"
   version="1.1"
   id="svg5"
   xml:space="preserve"
   xmlns:inkscape="http://www.inkscape.org/namespaces/inkscape"
   xmlns:sodipodi="http://sodipodi.sourceforge.net/DTD/sodipodi-0.dtd"
   xmlns="http://www.w3.org/2000/svg"
   xmlns:svg="http://www.w3.org/2000/svg"><sodipodi:namedview
     id="namedview7"
     pagecolor="#ffffff"
     bordercolor="#000000"
     borderopacity="0.25"
     inkscape:showpageshadow="2"
     inkscape:pageopacity="0.0"
     inkscape:pagecheckerboard="0"
     inkscape:deskcolor="#d1d1d1"
     inkscape:document-units="mm"
     showgrid="false" /><defs
     id="defs2" /><g
     inkscape:label="Layer 1"
     inkscape:groupmode="layer"
     id="layer1"
     transform="translate(-20.576322,-17.098082)"><g
       aria-label="LUCY's MUG"
       transform="scale(0.81869741,1.2214525)"
       id="text1397"
       style="font-weight:bold;font-size:51.8425px;font-family:'Berlin Sans FB';-inkscape-font-specification:'Berlin Sans FB, Bold';text-align:center;text-anchor:middle;opacity:0.423706;fill:#ff0000;stroke-width:0.102052"><path
         d="m 52.06679,39.033425 q 0,5.189313 -0.88598,11.011469 -0.151883,0.911293 -0.784726,0.911293 0.40502,0 -3.645175,-0.27845 -5.771528,-0.430334 -9.214194,-0.430334 -1.847902,0 -5.543705,0.101255 -3.695803,0.101255 -5.543705,0.101255 -0.784725,0 -0.860666,-0.987235 0.05063,0.708784 0.05063,-1.77196 l -0.02531,-14.55539 q 0,-2.759195 -0.253137,-8.834488 -0.227823,-5.847469 -0.227823,-8.809174 0,-0.556902 0.607529,-0.556902 1.063176,0 3.189529,0.101255 2.151666,0.101254 3.214842,0.101254 1.139118,0 3.392039,-0.101254 2.252921,-0.126569 3.392038,-0.126569 0.40502,0 0.40502,0.531588 l -0.02531,0.278451 q -0.329078,4.278019 -0.734098,12.85937 -0.05063,3.290783 -0.05063,5.189312 0,2.126353 0.101255,4.96149 0.05063,0.987235 0.430333,0.987235 2.683254,0 5.847469,-0.303765 3.594548,-0.354392 6.32843,-0.987235 0.227824,-0.05063 0.379706,-0.05063 0.455647,0 0.455647,0.658156 z"
         id="path1449" /><path
         d="m 87.17692,15.542293 q 0,2.936392 -0.253138,8.809175 -0.227823,5.847469 -0.227823,8.78386 0,0.835353 0.02531,2.480745 0.02531,1.645392 0.02531,2.480745 0,7.037214 -2.025097,9.39139 -3.06296,3.645175 -14.859154,3.645175 -6.657508,0 -9.847037,-1.341627 -2.987019,-1.265686 -3.999568,-4.202077 -0.759411,-2.252921 -0.759411,-7.41692 0,-0.734098 0.02531,-2.404804 0,-1.670705 0,-2.632627 0,-2.936391 -0.253137,-8.809174 -0.227823,-5.898097 -0.227823,-8.834488 0,-0.556902 0.607529,-0.556902 1.873215,0 5.64496,0.05063 3.797058,0.05063 5.670273,0.05063 1.620078,0 1.240372,-0.02531 0.860667,0.07594 0.860667,0.556902 0,2.911078 -0.278451,8.758547 -0.253138,5.847469 -0.253138,8.758547 0,0.329078 -0.02531,1.139117 -0.02531,0.810039 -0.02531,1.240373 0,4.885548 3.012333,4.885548 2.455431,0 2.455431,-3.771745 0,-3.442666 -0.227824,-10.353311 -0.20251,-6.910646 -0.20251,-10.353312 0,-0.759411 0.430334,-0.784725 0.911294,-0.101255 3.164215,-0.02531 3.037646,0.07594 3.290783,0.07594 1.063176,0 3.189529,-0.101254 2.126352,-0.101255 3.189529,-0.101255 0.632843,0 0.632843,0.607529 z"
         id="path1451" /><path
         d="m 122.61613,19.972194 q 0,0.531588 -2.40481,4.860234 -2.37949,4.303333 -2.86045,4.683038 -0.3797,0.303765 -0.70878,0.303765 -0.12657,0 -1.1138,-0.835353 -1.18975,-0.987235 -2.30355,-1.518823 -1.72134,-0.810039 -3.64518,-0.810039 -2.43012,0 -4.12613,1.771961 -1.67071,1.746646 -1.67071,4.176763 0,2.455431 1.67071,4.252705 1.69601,1.771961 4.12613,1.771961 4.07551,0 6.2778,-2.430117 0.3544,-0.40502 0.53159,-0.40502 0.30377,0 3.08828,4.100823 2.80982,4.202077 2.80982,4.910861 0,0.480961 -0.58222,1.240373 -1.99978,2.581999 -5.67027,4.050195 -3.3161,1.341627 -6.86002,1.341627 -7.82194,0 -13.315014,-5.417136 -5.467764,-5.44245 -5.467764,-13.239076 0,-7.821939 5.467764,-13.289703 5.493074,-5.493077 13.315014,-5.493077 7.87257,0 12.83406,4.936175 0.60753,0.582216 0.60753,1.037863 z"
         id="path1453" /><path
         d="m 156.18212,15.542293 q 0,1.366941 -0.12657,4.126136 -0.12657,2.759196 -0.12657,4.126137 0,1.366941 -0.3797,2.17698 -3.61986,8.125704 -8.02445,13.795977 -0.93661,1.215059 -0.93661,1.923843 0,1.341627 0.1772,4.024881 0.17719,2.683255 0.17719,3.999568 0,0.759412 -0.7341,0.759412 -1.08849,0 -3.29078,-0.101255 -2.17698,-0.126569 -3.26547,-0.126569 -1.06318,0 -3.16421,0.101255 -2.07573,0.101255 -3.11359,0.101255 -0.83535,0 -0.83535,-0.734098 0,-1.316313 0.25313,-3.999568 0.25314,-2.683254 0.25314,-4.024881 0,-0.810039 -0.60753,-2.025098 -1.51882,-2.379489 -4.30333,-6.885332 -1.62008,-2.759195 -3.36673,-6.075292 -0.5569,-1.037863 -0.58221,-1.771961 -0.0253,-1.366941 -0.32908,-4.531156 -0.27845,-2.936391 -0.27845,-4.531156 0,-0.936607 0.58221,-0.936607 0.98724,0 2.96171,0.101255 1.99978,0.101254 2.98702,0.101254 1.18974,0 3.61986,-0.101254 2.43012,-0.126569 3.61986,-0.126569 0.37971,0 0.37971,0.556902 -0.10126,3.74643 -0.10126,7.391606 0,0.632843 0.9113,2.227607 0.78472,1.392255 1.36694,2.025098 0.5569,-0.632843 1.31631,-1.949156 0.86067,-1.518824 0.86067,-2.126353 0,-1.265686 -0.1772,-3.797058 -0.15188,-2.531372 -0.15188,-3.771744 0,-0.556902 0.37971,-0.556902 1.08849,0 3.26547,0.126569 2.17698,0.101254 3.26547,0.101254 1.13911,0 3.44266,-0.101254 2.30355,-0.101255 3.44267,-0.101255 0.63284,0 0.63284,0.607529 z"
         id="path1455" /><path
         d="m 169.95278,20.326586 q 0,2.835137 -0.20251,4.024882 -0.20251,1.189744 -2.27824,6.404371 -0.20251,0.506274 -0.78472,0.506274 -0.37971,0 -1.13912,0.05063 -0.75941,0.05063 -1.13912,0.05063 -0.32907,0 -0.98723,-0.05063 -0.65816,-0.05063 -0.98724,-0.05063 -0.50627,0 -0.83535,-0.607529 -1.31631,-2.657941 -2.37949,-7.315665 Q 158.916,21.971978 158.916,19.26341 v -3.645176 q 0,-0.784725 0.40502,-0.784725 0.81004,0 2.43011,-0.07594 1.6454,-0.07594 2.45543,-0.07594 0.83536,0 2.53138,0.07594 1.69602,0.07594 2.55668,0.07594 0.65816,0 0.65816,5.493077 z"
         id="path1457" /><path
         d="m 190.76065,30.072368 q 0,0.177196 -1.97447,2.202294 -1.97447,1.999784 -1.97447,3.189529 0,1.113803 1.51883,3.138901 1.54413,1.999784 1.54413,4.379274 0,1.645391 -0.70878,3.088273 -0.40502,0.810039 -1.74665,2.657941 -0.88598,1.265686 -2.37949,2.961705 -2.02509,2.328863 -2.63262,2.328863 -0.3544,0 -0.93661,-0.40502 -5.39182,-3.847685 -8.35353,-5.341195 -0.5569,-0.278451 -0.5569,-0.531588 0,-0.126569 2.20229,-2.759196 2.22761,-2.632626 2.22761,-4.278018 0,-1.164431 -1.69602,-2.809823 -1.6707,-1.645392 -1.6707,-3.721117 0,-2.354176 2.73388,-6.024665 2.05041,-2.78451 4.63241,-5.113372 0.40502,-0.379706 0.68347,-0.379706 0.32908,0 0.7341,0.430334 1.69602,1.746646 7.82194,6.32843 0.53158,0.379705 0.53158,0.658156 z"
         id="path1459" /><path
         d="m 246.12176,49.715815 q 0,0.734098 -0.83535,0.734098 -0.98724,0 -2.98702,-0.101255 -1.97447,-0.101255 -2.98702,-0.101255 -0.98723,0 -3.01233,0.101255 -1.99979,0.101255 -2.98702,0.101255 -0.78473,0 -0.78473,-0.936608 0,-1.696019 0.15189,-5.113371 0.15188,-3.442666 0.15188,-5.138685 0,-0.734098 -0.15188,-0.734098 -0.48096,0 -3.24016,6.379057 -2.73388,6.379058 -3.24016,6.379058 -0.70878,0 -3.34141,-6.379058 -2.63262,-6.379057 -3.1389,-6.379057 -0.15188,0 -0.15188,0.734098 0,1.696019 0.15188,5.138685 0.15188,3.417352 0.15188,5.113371 0,0.936608 -0.75941,0.936608 -1.01255,0 -3.01233,-0.101255 -1.99978,-0.101255 -3.01233,-0.101255 -0.98724,0 -2.98702,0.101255 -1.97447,0.101255 -2.96171,0.101255 -0.83535,0 -0.83535,-0.734098 0,-2.759195 0.25314,-8.277586 0.25313,-5.543705 0.25313,-8.302901 0,-2.936391 -0.25313,-8.809174 -0.22783,-5.898097 -0.22783,-8.834488 0,-0.556902 1.13912,-0.556902 0.83535,0 2.50606,-0.07594 1.67071,-0.07594 2.50606,-0.07594 0.93661,0 2.86045,-0.202509 1.92384,-0.227824 2.86045,-0.227824 0.22782,0 0.91129,1.113804 2.7592,4.455215 5.8981,10.302684 1.1138,2.075725 1.291,2.075725 0.37971,0 1.21506,-1.923843 0.88598,-2.075725 2.68325,-5.138685 2.582,-4.328646 2.96171,-5.012117 0.58221,-1.088489 1.03786,-1.088489 0.93661,0 2.86045,0.101254 1.92384,0.101255 2.88576,0.101255 0.93661,0 2.7592,-0.151882 1.8479,-0.177196 2.78451,-0.177196 0.60753,0 0.60753,0.582215 0,2.987019 -0.25314,8.986371 -0.25314,5.999352 -0.25314,9.011684 0,2.759196 0.25314,8.302901 0.27845,5.518391 0.27845,8.277586 z"
         id="path1461" /><path
         d="m 282.47227,15.542293 q 0,2.936392 -0.25313,8.809175 -0.22783,5.847469 -0.22783,8.78386 0,0.835353 0.0253,2.480745 0.0253,1.645392 0.0253,2.480745 0,7.037214 -2.0251,9.39139 -3.06296,3.645175 -14.85915,3.645175 -6.65751,0 -9.84704,-1.341627 -2.98702,-1.265686 -3.99957,-4.202077 -0.75941,-2.252921 -0.75941,-7.41692 0,-0.734098 0.0253,-2.404804 0,-1.670705 0,-2.632627 0,-2.936391 -0.25314,-8.809174 -0.22783,-5.898097 -0.22783,-8.834488 0,-0.556902 0.60753,-0.556902 1.87322,0 5.64496,0.05063 3.79706,0.05063 5.67028,0.05063 1.62007,0 1.24037,-0.02531 0.86067,0.07594 0.86067,0.556902 0,2.911078 -0.27846,8.758547 -0.25313,5.847469 -0.25313,8.758547 0,0.329078 -0.0253,1.139117 -0.0253,0.810039 -0.0253,1.240373 0,4.885548 3.01233,4.885548 2.45543,0 2.45543,-3.771745 0,-3.442666 -0.22782,-10.353311 -0.20251,-6.910646 -0.20251,-10.353312 0,-0.759411 0.43033,-0.784725 0.9113,-0.101255 3.16422,-0.02531 3.03764,0.07594 3.29078,0.07594 1.06318,0 3.18953,-0.101254 2.12635,-0.101255 3.18953,-0.101255 0.63284,0 0.63284,0.607529 z"
         id="path1463" /><path
         d="m 322.06293,49.057658 q 0,0.759412 -0.88598,0.759412 -1.26568,0 -3.72111,-0.430333 -2.53137,-0.455647 -3.72112,-0.480961 -4.93617,2.531372 -9.26482,2.531372 -7.72069,0 -13.26439,-5.467763 -5.51839,-5.493078 -5.51839,-13.188449 0,-7.872567 5.44245,-13.315016 5.46776,-5.467764 13.34033,-5.467764 3.74643,0 7.746,1.670706 4.35396,1.797274 6.35374,4.657724 0.48096,0.683471 0.48096,1.164431 0,0.759412 -2.80982,3.872999 -2.63263,2.911078 -3.59455,3.518607 -0.50627,0.329079 -1.01255,0.329079 -0.43033,0 -2.35417,-1.189745 -1.89853,-1.215059 -4.20208,-1.215059 -2.43012,0 -4.12614,1.771961 -1.6707,1.746647 -1.6707,4.202077 0,2.455431 1.77196,4.328647 1.79727,1.873215 4.22739,1.873215 1.64539,0 2.9617,-0.607529 -0.0506,-0.632843 -0.40502,-3.569235 -0.25313,-2.202294 -0.25313,-3.543921 0,-0.278451 0.10125,-0.506274 0.15188,-0.151883 0.53159,-0.151883 0.1772,0 1.36694,0.151883 1.77196,0.20251 4.9868,0.20251 1.11381,0 3.34141,-0.101255 2.22761,-0.101255 3.34142,-0.101255 0.73409,0 0.73409,0.607529 0,1.366941 -0.25313,4.100823 -0.22783,2.733881 -0.22783,4.100822 0,1.594765 0.27845,4.834921 0.27845,3.214842 0.27845,4.657724 z"
         id="path1465" /></g></g></svg>
