<?xml version="1.0" encoding="UTF-8" standalone="no"?>
<!-- Created with Inkscape (http://www.inkscape.org/) -->

<svg
   width="24.118088mm"
   height="29.354204mm"
   viewBox="0 0 24.118088 29.354204"
   version="1.1"
   id="svg5"
   xml:space="preserve"
   xmlns:inkscape="http://www.inkscape.org/namespaces/inkscape"
   xmlns:sodipodi="http://sodipodi.sourceforge.net/DTD/sodipodi-0.dtd"
   xmlns="http://www.w3.org/2000/svg"
   xmlns:svg="http://www.w3.org/2000/svg"><sodipodi:namedview
     id="namedview7"
     pagecolor="#ffffff"
     bordercolor="#000000"
     borderopacity="0.25"
     inkscape:showpageshadow="2"
     inkscape:pageopacity="0.0"
     inkscape:pagecheckerboard="0"
     inkscape:deskcolor="#d1d1d1"
     inkscape:document-units="mm"
     showgrid="false" /><defs
     id="defs2" /><g
     inkscape:label="Layer 1"
     inkscape:groupmode="layer"
     id="layer1"
     transform="translate(-132.51254,-25.32289)"><path
       style="fill:#606060;fill-opacity:1;stroke-width:0.109943"
       d="m 144.03024,54.4399 c 0.82418,0.377841 1.36049,-0.113445 1.32629,-1.21492 -0.1072,-3.451436 -0.0548,-3.596284 0.92156,-2.545005 0.95623,1.029658 1.39035,1.231171 1.7764,0.824574 0.44721,-0.471025 0.38281,-0.586169 -1.24761,-2.230616 -1.54939,-1.562702 -1.54939,-1.562702 -1.54939,-3.968436 0,-2.405739 0,-2.405739 0.78471,-0.874837 0.89997,1.755775 1.01643,1.915702 1.39506,1.915702 0.89436,0 0.88046,-0.705233 -0.0456,-2.314438 -1.27289,-2.211821 -1.34153,-2.110194 0.59681,-0.883531 2.06845,1.30901 2.19346,1.414602 2.27583,1.922426 0.15299,0.943264 0.69847,3.648479 0.77626,3.849769 0.0612,0.158418 0.0453,0.188191 -0.0643,0.120442 -0.086,-0.05318 -0.11906,-0.04703 -0.0807,0.01504 0.11481,0.185766 0.92055,0.171156 1.11186,-0.02015 0.2247,-0.224709 0.22263,-0.301616 -0.0516,-1.91623 -0.27587,-1.624334 -0.33801,-1.555755 0.78731,-0.868999 1.77278,1.081894 2.57553,1.523333 2.77161,1.524144 0.552,0.0021 0.98809,-1.0833 0.57343,-1.427442 -0.09,-0.07473 -0.13871,-0.176315 -0.10815,-0.225756 0.0305,-0.04944 0.004,-0.121465 -0.058,-0.160055 -0.0624,-0.0386 -0.0916,-0.105621 -0.0648,-0.148952 0.0268,-0.04333 -0.0487,-0.07878 -0.1677,-0.07878 -0.20179,0 -0.19939,0.01309 0.0356,0.19388 0.51587,0.396977 0.0384,0.17472 -1.37318,-0.639192 -2.04609,-1.179774 -1.93754,-1.076788 -1.37555,-1.305166 1.27426,-0.517827 1.99703,-0.717184 2.09723,-0.578462 0.07,0.09693 0.0816,0.08178 0.0391,-0.05096 -0.0333,-0.103884 -0.0132,-0.218123 0.0446,-0.253862 0.13912,-0.08598 0.13415,-0.561978 -0.009,-0.828835 -0.1673,-0.312606 -0.40299,-0.2736 -2.37982,0.393848 -1.77085,0.597901 -2.59289,0.654954 -2.28617,0.158668 0.0307,-0.04968 -0.002,-0.126123 -0.0729,-0.169879 -0.085,-0.05255 -0.0991,-0.03162 -0.0415,0.06164 0.0585,0.0947 0.037,0.122924 -0.0655,0.0857 -0.084,-0.0305 -0.13914,-0.114829 -0.12253,-0.187348 0.0166,-0.07252 -0.0215,-0.09991 -0.0846,-0.06087 -0.11847,0.0732 -2.85339,-1.584094 -2.85703,-1.731288 -0.001,-0.04535 0.75493,-0.08246 1.6801,-0.08246 1.83327,0 1.94715,-0.03511 1.94432,-0.599193 -0.003,-0.672169 -0.43491,-0.799011 -2.80188,-0.823545 -0.87955,-0.0091 -0.87955,-0.0091 -0.34414,-0.359234 0.51561,-0.337173 0.54103,-0.342446 0.68715,-0.142607 0.0834,0.114131 0.15173,0.158472 0.15173,0.09854 0,-0.05993 -0.0508,-0.15979 -0.11293,-0.221908 -0.1422,-0.142204 2.17038,-1.580192 2.54129,-1.580192 0.13938,0 1.03038,0.247376 1.97998,0.54972 0.94961,0.302347 1.80863,0.549719 1.90894,0.549719 0.10031,0 0.15181,0.04947 0.11443,0.109943 -0.0374,0.06047 -0.0114,0.109942 0.0576,0.109942 0.0691,0 0.10541,-0.06054 0.0807,-0.134547 -0.0247,-0.074 0.0138,-0.247509 0.0854,-0.385578 0.29505,-0.568718 0.0136,-0.919857 -0.99338,-1.239021 -1.28827,-0.408347 -1.60767,-0.565867 -1.47399,-0.726937 0.0773,-0.09311 0.22554,-0.131088 0.36258,-0.09287 0.16894,0.04711 0.19053,0.03607 0.0796,-0.04068 -0.12365,-0.08552 -0.10951,-0.128214 0.0752,-0.227086 0.28164,-0.150727 0.38562,-0.155293 0.29773,-0.01309 -0.0393,0.06352 0.008,0.08 0.11267,0.03968 0.12497,-0.04796 0.14093,-0.09306 0.0523,-0.147836 -0.0757,-0.0468 0.39262,-0.380883 1.15288,-0.822351 1.36317,-0.791586 1.57057,-1.02748 1.36918,-1.557204 -0.13611,-0.358 -0.0568,-0.472015 0.1107,-0.159083 0.15748,0.294261 0.33217,0.297714 0.25564,0.0051 -0.0323,-0.123339 -0.0849,-0.197978 -0.11702,-0.165873 -0.0321,0.03212 -0.12477,0.0033 -0.20592,-0.06407 -0.0811,-0.06735 -0.14755,-0.09418 -0.14755,-0.05963 0,0.03453 -0.16509,-0.0061 -0.36687,-0.09047 -0.36512,-0.152552 -0.37526,-0.148264 -2.10332,0.889095 -2.0555,1.233913 -1.90194,1.287384 -1.59446,-0.555221 0.27844,-1.668543 0.21825,-1.92846 -0.44661,-1.92846 -0.4588,0 -0.51727,0.144294 -1.01191,2.497339 -0.50487,2.401704 -0.4583,2.347098 -3.4654,4.063166 -0.80369,0.458643 -0.80369,0.458643 -0.59545,0.109946 1.7586,-2.944778 1.89937,-3.681958 0.73356,-3.841523 -0.24187,-0.03312 -0.38256,-0.0374 -0.31265,-0.0096 0.0813,0.03237 -0.0223,0.296646 -0.28705,0.732376 -0.2278,0.374962 -0.57115,0.992709 -0.763,1.372765 -0.21636,0.428599 -0.39563,0.662097 -0.47206,0.614863 -0.0712,-0.04401 -0.0928,-0.02684 -0.0511,0.0406 0.0397,0.06422 0.0257,0.232662 -0.031,0.374301 -0.0694,0.173324 -0.10546,-0.501974 -0.11015,-2.065312 -0.007,-2.415957 0.023,-2.581024 0.46029,-2.510287 0.10582,0.01712 0.1924,-0.01928 0.1924,-0.08085 0,-0.06159 -0.0742,-0.0835 -0.16491,-0.04869 -0.30584,0.117359 -0.16889,-0.05984 1.08096,-1.398741 1.34056,-1.436072 1.45646,-1.614897 1.27108,-1.961275 -0.085,-0.158834 -0.0862,-0.247351 -0.004,-0.298146 0.0643,-0.03972 -0.11841,-0.08248 -0.40602,-0.095 -0.49306,-0.02144 -0.55348,0.0083 -1.05855,0.52106 -0.2946,0.299098 -0.57622,0.518729 -0.62583,0.488071 -0.0496,-0.03067 -0.0648,0.01056 -0.0337,0.0916 0.0311,0.08104 -0.0932,0.290766 -0.27611,0.466055 -0.33267,0.318707 -0.33267,0.318707 -0.33267,-1.955706 0,-2.685468 -0.0462,-2.805708 -1.04446,-2.72081 -0.63252,0.05379 -0.69769,0.344067 -0.63565,2.831068 0.0571,2.28793 0.0571,2.28793 -0.45073,1.797778 -0.45616,-0.440309 -0.68133,-0.78448 -0.39911,-0.610059 0.0623,0.03852 0.0807,-0.0056 0.0432,-0.103456 -0.036,-0.09384 -0.10965,-0.170627 -0.16365,-0.170627 -0.054,0 -0.0982,-0.07421 -0.0982,-0.164917 0,-0.0907 -0.0552,-0.164913 -0.12259,-0.164913 -0.0748,0 -0.0524,0.107104 0.0575,0.274859 0.24666,0.376454 0.17987,0.347059 -0.37469,-0.164917 -0.51771,-0.47794 -0.897,-0.557557 -1.22822,-0.257819 -0.4127,0.373487 -0.26362,0.667274 0.99014,1.951343 2.0076,2.056108 1.77732,1.50638 1.77705,4.242308 -2.2e-4,2.364908 -2.2e-4,2.364908 -0.45209,1.485363 -1.16166,-2.261241 -1.47799,-2.655268 -2.02205,-2.51872 -0.42303,0.106174 -0.67371,0.799636 -0.39582,1.094947 0.16241,0.172601 1.67759,2.927884 1.63404,2.971431 -0.0222,0.02219 -0.3097,-0.142607 -0.63895,-0.366198 -0.32925,-0.223591 -1.14285,-0.734898 -1.808,-1.136238 -1.31124,-0.791158 -1.2572,-0.670715 -1.93302,-4.309399 -0.15061,-0.810892 -0.49311,-1.241415 -0.90529,-1.137963 -0.61504,0.154366 -0.65249,0.412688 -0.28813,1.987391 0.37012,1.59956 0.37008,1.612304 -0.004,1.471716 -0.22537,-0.08463 -0.24429,-0.121403 -0.10994,-0.213718 0.12883,-0.08852 0.11695,-0.09949 -0.0576,-0.05325 -0.14746,0.03906 -0.67165,-0.212056 -1.59146,-0.762407 -1.51134,-0.904283 -1.8378,-0.983304 -2.19362,-0.530961 -0.5618,0.714212 -0.34434,1.013593 1.49901,2.063707 1.78122,1.014732 1.90126,1.089292 1.90126,1.18085 0,0.04022 -0.42269,0.226047 -0.9393,0.412984 -1.62194,0.58688 -1.9032,0.850172 -1.60571,1.503089 0.18055,0.396263 2.76293,-0.176648 4.15546,-0.921914 0.27195,-0.145541 2.20589,1.072837 2.15031,1.354685 -0.0178,0.0901 0.0223,0.163813 0.0889,0.163813 0.0667,0 0.0907,-0.04948 0.0533,-0.109946 -0.0995,-0.160933 0.0251,-0.134622 0.34026,0.07192 0.21348,0.139877 0.24431,0.204987 0.13356,0.282061 -0.0977,0.06801 -0.068,0.07895 0.0926,0.03403 0.1622,-0.04536 0.33507,0.02044 0.54972,0.209209 0.31312,0.275375 0.31312,0.275375 -1.22911,0.278849 -1.75874,0.0042 -2.03094,0.0962 -2.03094,0.6882 0,0.688055 0.16155,0.744543 2.12953,0.744543 1.50824,0 1.74214,0.02219 1.60462,0.152227 -0.15256,0.144254 -3.08669,1.983548 -3.58233,2.245613 -0.19242,0.101748 -0.53686,0.01899 -1.97898,-0.475534 -1.99473,-0.684012 -2.16721,-0.707502 -2.41526,-0.328925 -0.28506,0.435069 -0.13172,0.762378 0.47539,1.014674 0.28803,0.119695 0.85643,0.355614 1.26313,0.524264 0.73943,0.306639 0.73943,0.306639 0.27486,0.598091 -1.07203,0.672539 -1.72832,0.991022 -1.9167,0.930146 -0.14555,-0.04703 -0.15883,-0.03632 -0.0508,0.04105 0.11056,0.07921 0.0302,0.172734 -0.32996,0.38378 -0.73648,0.4316 -0.9003,0.66218 -0.83205,1.171048 0.0493,0.36774 0.0305,0.425558 -0.12263,0.376898 -0.15085,-0.04793 -0.15437,-0.03873 -0.0212,0.05559 0.0878,0.06218 0.19572,0.09078 0.23978,0.06355 0.0441,-0.02722 0.11118,8.32e-4 0.14916,0.06223 0.14538,0.235213 0.81931,0.108945 1.45166,-0.271976 0.40333,-0.242963 0.71789,-0.361304 0.85756,-0.32263 0.15988,0.04427 0.17954,0.03262 0.0714,-0.04232 -0.12561,-0.08706 -0.12561,-0.117422 0,-0.192105 0.082,-0.04879 0.52613,-0.323374 0.98687,-0.610197 0.83773,-0.521496 0.83773,-0.521496 0.6844,0.26736 -0.39624,2.03878 -0.42165,2.361052 -0.20505,2.600404 0.56498,0.624291 1.07564,0.124303 1.32928,-1.301493 0.27587,-1.55078 0.56645,-2.990304 0.61214,-3.032569 0.16011,-0.148113 3.676,-2.343637 3.70564,-2.314009 0.0207,0.02074 -0.19608,0.466583 -0.48181,0.99076 -0.38594,0.708017 -0.54669,0.915045 -0.62525,0.805223 -0.0801,-0.111949 -0.0909,-0.101594 -0.0446,0.04268 0.0337,0.104777 -0.0602,0.451097 -0.20844,0.769604 -0.34457,0.740106 -0.34089,1.003509 0.0179,1.285756 0.37866,0.297856 0.44404,0.289528 0.81099,-0.103306 0.17015,-0.182145 0.32623,-0.280606 0.34683,-0.218803 0.0206,0.06181 0.10709,4.15e-4 0.19219,-0.136089 0.1417,-0.227534 0.13935,-0.235749 -0.0278,-0.09757 -0.27379,0.226276 -0.22709,0.08477 0.27233,-0.825206 0.33764,-0.615203 0.48202,-0.791008 0.56009,-0.681971 0.0794,0.110831 0.0903,0.100472 0.0446,-0.04218 -0.0474,-0.147794 0.30463,-1.184869 0.40233,-1.185301 0.0123,-5.4e-5 0.008,1.078492 -0.009,2.396767 -0.0315,2.396864 -0.0315,2.396864 -1.51172,3.874082 -1.5247,1.521555 -1.63524,1.704835 -1.30912,2.170442 0.26036,0.371712 0.70442,0.31739 1.14817,-0.14045 0.37784,-0.389827 0.73695,-0.554033 0.40185,-0.183746 -0.10008,0.110582 -0.18195,0.240943 -0.18195,0.289685 0,0.127288 0.49374,-0.517851 0.49974,-0.65297 0.003,-0.06195 0.0683,-0.09903 0.1456,-0.08242 0.0773,0.01662 0.11411,-0.01267 0.0817,-0.06503 -0.0324,-0.05239 0.11237,-0.261213 0.32167,-0.464065 0.38052,-0.36882 0.38052,-0.36882 0.38052,1.787656 0,1.186062 0.0332,2.242849 0.0736,2.34842 0.0473,0.12321 0.0312,0.165744 -0.0447,0.118785 -0.0776,-0.04799 -0.095,0.01201 -0.0506,0.174362 0.0578,0.211183 0.0739,0.218094 0.1093,0.04705 0.0295,-0.14242 0.0945,-0.176208 0.22434,-0.116674 z"
       id="path1061"
       inkscape:export-filename="snowflake.svg"
       inkscape:export-xdpi="96"
       inkscape:export-ydpi="96" /></g></svg>
