  0
SECTION
  2
HEADER
  9
$ACADVER
  1
AC1014
  9
$ACADMAINTVER
 70
     9
  9
$DWGCODEPAGE
  3
ANSI_1252
  9
$INSBASE
 10
0.0
 20
0.0
 30
0.0
  9
$EXTMIN
 10
-91.59864860219864
 20
-98.51666713565801
 30
0.0
  9
$EXTMAX
 10
133.2094527562332
 20
116.8281593996596
 30
0.0
  9
$LIMMIN
 10
0.0
 20
0.0
  9
$LIMMAX
 10
12.0
 20
9.0
  9
$ORTHOMODE
 70
     0
  9
$REGENMODE
 70
     1
  9
$FILLMODE
 70
     1
  9
$QTEXTMODE
 70
     0
  9
$MIRRTEXT
 70
     1
  9
$DRAGMODE
 70
     2
  9
$LTSCALE
 40
1.0
  9
$OSMODE
 70
    37
  9
$ATTMODE
 70
     1
  9
$TEXTSIZE
 40
0.2
  9
$TRACEWID
 40
0.05
  9
$TEXTSTYLE
  7
STANDARD
  9
$CLAYER
  8
0
  9
$CELTYPE
  6
BYLAYER
  9
$CECOLOR
 62
   256
  9
$CELTSCALE
 40
1.0
  9
$DELOBJ
 70
     1
  9
$DISPSILH
 70
     0
  9
$DIMSCALE
 40
1.0
  9
$DIMASZ
 40
0.18
  9
$DIMEXO
 40
0.0625
  9
$DIMDLI
 40
0.38
  9
$DIMRND
 40
0.0
  9
$DIMDLE
 40
0.0
  9
$DIMEXE
 40
0.18
  9
$DIMTP
 40
0.0
  9
$DIMTM
 40
0.0
  9
$DIMTXT
 40
0.18
  9
$DIMCEN
 40
0.09
  9
$DIMTSZ
 40
0.0
  9
$DIMTOL
 70
     0
  9
$DIMLIM
 70
     0
  9
$DIMTIH
 70
     1
  9
$DIMTOH
 70
     1
  9
$DIMSE1
 70
     0
  9
$DIMSE2
 70
     0
  9
$DIMTAD
 70
     0
  9
$DIMZIN
 70
     0
  9
$DIMBLK
  1

  9
$DIMASO
 70
     1
  9
$DIMSHO
 70
     1
  9
$DIMPOST
  1

  9
$DIMAPOST
  1

  9
$DIMALT
 70
     0
  9
$DIMALTD
 70
     2
  9
$DIMALTF
 40
25.4
  9
$DIMLFAC
 40
1.0
  9
$DIMTOFL
 70
     0
  9
$DIMTVP
 40
0.0
  9
$DIMTIX
 70
     0
  9
$DIMSOXD
 70
     0
  9
$DIMSAH
 70
     0
  9
$DIMBLK1
  1

  9
$DIMBLK2
  1

  9
$DIMSTYLE
  2
STANDARD
  9
$DIMCLRD
 70
     0
  9
$DIMCLRE
 70
     0
  9
$DIMCLRT
 70
     0
  9
$DIMTFAC
 40
1.0
  9
$DIMGAP
 40
0.09
  9
$DIMJUST
 70
     0
  9
$DIMSD1
 70
     0
  9
$DIMSD2
 70
     0
  9
$DIMTOLJ
 70
     1
  9
$DIMTZIN
 70
     0
  9
$DIMALTZ
 70
     0
  9
$DIMALTTZ
 70
     0
  9
$DIMFIT
 70
     5
  9
$DIMUPT
 70
     0
  9
$DIMUNIT
 70
     2
  9
$DIMDEC
 70
     4
  9
$DIMTDEC
 70
     4
  9
$DIMALTU
 70
     2
  9
$DIMALTTD
 70
     2
  9
$DIMTXSTY
  7
STANDARD
  9
$DIMAUNIT
 70
     0
  9
$LUNITS
 70
     2
  9
$LUPREC
 70
     3
  9
$SKETCHINC
 40
0.1
  9
$FILLETRAD
 40
0.5
  9
$AUNITS
 70
     0
  9
$AUPREC
 70
     0
  9
$MENU
  1
.
  9
$ELEVATION
 40
0.0
  9
$PELEVATION
 40
0.0
  9
$THICKNESS
 40
0.0
  9
$LIMCHECK
 70
     0
  9
$CHAMFERA
 40
0.0
  9
$CHAMFERB
 40
0.0
  9
$CHAMFERC
 40
0.0
  9
$CHAMFERD
 40
0.0
  9
$SKPOLY
 70
     0
  9
$TDCREATE
 40
2457744.600545555
  9
$TDUPDATE
 40
2457744.600545614
  9
$TDINDWG
 40
0.0000000116
  9
$TDUSRTIMER
 40
0.0000000116
  9
$USRTIMER
 70
     1
  9
$ANGBASE
 50
0.0
  9
$ANGDIR
 70
     0
  9
$PDMODE
 70
     0
  9
$PDSIZE
 40
0.0
  9
$PLINEWID
 40
0.0
  9
$COORDS
 70
     1
  9
$SPLFRAME
 70
     0
  9
$SPLINETYPE
 70
     6
  9
$SPLINESEGS
 70
     8
  9
$ATTDIA
 70
     0
  9
$ATTREQ
 70
     1
  9
$HANDLING
 70
     1
  9
$HANDSEED
  5
3F5
  9
$SURFTAB1
 70
     6
  9
$SURFTAB2
 70
     6
  9
$SURFTYPE
 70
     6
  9
$SURFU
 70
     6
  9
$SURFV
 70
     6
  9
$UCSNAME
  2

  9
$UCSORG
 10
0.0
 20
0.0
 30
0.0
  9
$UCSXDIR
 10
1.0
 20
0.0
 30
0.0
  9
$UCSYDIR
 10
0.0
 20
1.0
 30
0.0
  9
$PUCSNAME
  2

  9
$PUCSORG
 10
0.0
 20
0.0
 30
0.0
  9
$PUCSXDIR
 10
1.0
 20
0.0
 30
0.0
  9
$PUCSYDIR
 10
0.0
 20
1.0
 30
0.0
  9
$USERI1
 70
     0
  9
$USERI2
 70
     0
  9
$USERI3
 70
     0
  9
$USERI4
 70
     0
  9
$USERI5
 70
     0
  9
$USERR1
 40
0.0
  9
$USERR2
 40
0.0
  9
$USERR3
 40
0.0
  9
$USERR4
 40
0.0
  9
$USERR5
 40
0.0
  9
$WORLDVIEW
 70
     1
  9
$SHADEDGE
 70
     3
  9
$SHADEDIF
 70
    70
  9
$TILEMODE
 70
     1
  9
$MAXACTVP
 70
    64
  9
$PINSBASE
 10
0.0
 20
0.0
 30
0.0
  9
$PLIMCHECK
 70
     0
  9
$PEXTMIN
 10
1.000000000000000E+20
 20
1.000000000000000E+20
 30
1.000000000000000E+20
  9
$PEXTMAX
 10
-1.000000000000000E+20
 20
-1.000000000000000E+20
 30
-1.000000000000000E+20
  9
$PLIMMIN
 10
0.0
 20
0.0
  9
$PLIMMAX
 10
12.0
 20
9.0
  9
$UNITMODE
 70
     0
  9
$VISRETAIN
 70
     1
  9
$PLINEGEN
 70
     0
  9
$PSLTSCALE
 70
     1
  9
$TREEDEPTH
 70
  3020
  9
$PICKSTYLE
 70
     1
  9
$CMLSTYLE
  2
STANDARD
  9
$CMLJUST
 70
     0
  9
$CMLSCALE
 40
1.0
  9
$PROXYGRAPHICS
 70
     1
  9
$MEASUREMENT
 70
     0
  0
ENDSEC
  0
SECTION
  2
CLASSES
  0
CLASS
  1
ACDBDICTIONARYWDFLT
  2
AcDbDictionaryWithDefault
  3
ObjectDBX Classes
 90
        0
280
     0
281
     0
  0
CLASS
  1
VISUALSTYLE
  2
AcDbVisualStyle
  3
ObjectDBX Classes
 90
     4095
280
     0
281
     0
  0
CLASS
  1
MATERIAL
  2
AcDbMaterial
  3
ObjectDBX Classes
 90
     1153
280
     0
281
     0
  0
CLASS
  1
SCALE
  2
AcDbScale
  3
ObjectDBX Classes
 90
     1153
280
     0
281
     0
  0
CLASS
  1
TABLESTYLE
  2
AcDbTableStyle
  3
ObjectDBX Classes
 90
     4095
280
     0
281
     0
  0
CLASS
  1
MLEADERSTYLE
  2
AcDbMLeaderStyle
  3
ACDB_MLEADERSTYLE_CLASS
 90
     4095
280
     0
281
     0
  0
CLASS
  1
SUN
  2
AcDbSun
  3
SCENEOE
 90
     1153
280
     0
281
     0
  0
CLASS
  1
DICTIONARYVAR
  2
AcDbDictionaryVar
  3
ObjectDBX Classes
 90
        0
280
     0
281
     0
  0
CLASS
  1
XRECORD
  2
AcDbXrecord
  3
ObjectDBX Classes
 90
        0
280
     0
281
     0
  0
CLASS
  1
LWPOLYLINE
  2
AcDbPolyline
  3
ObjectDBX Classes
 90
        0
280
     0
281
     1
  0
CLASS
  1
HATCH
  2
AcDbHatch
  3
ObjectDBX Classes
 90
        0
280
     0
281
     1
  0
CLASS
  1
ACDBPLACEHOLDER
  2
AcDbPlaceHolder
  3
ObjectDBX Classes
 90
        0
280
     0
281
     0
  0
CLASS
  1
LAYOUT
  2
AcDbLayout
  3
ObjectDBX Classes
 90
        0
280
     0
281
     0
  0
ENDSEC
  0
SECTION
  2
TABLES
  0
TABLE
  2
VPORT
  5
8
102
{ACAD_XDICTIONARY
360
3EA
102
}
330
0
100
AcDbSymbolTable
 70
     1
  0
VPORT
  5
29
330
8
100
AcDbSymbolTableRecord
100
AcDbViewportTableRecord
  2
*ACTIVE
 70
     0
 10
0.0
 20
0.0
 11
1.0
 21
1.0
 12
20.80540207701726
 22
9.1557461320008
 13
0.0
 23
0.0
 14
0.5
 24
0.5
 15
0.5
 25
0.5
 16
0.0
 26
0.0
 36
1.0
 17
0.0
 27
0.0
 37
0.0
 40
219.651723066024
 41
1.043944751194485
 42
50.0
 43
0.0
 44
0.0
 50
0.0
 51
0.0
 71
     0
 72
   100
 73
     1
 74
     3
 75
     0
 76
     0
 77
     0
 78
     0
  0
ENDTAB
  0
TABLE
  2
LTYPE
  5
5
330
0
100
AcDbSymbolTable
 70
     1
  0
LTYPE
  5
14
330
5
100
AcDbSymbolTableRecord
100
AcDbLinetypeTableRecord
  2
BYBLOCK
 70
     0
  3

 72
    65
 73
     0
 40
0.0
  0
LTYPE
  5
15
330
5
100
AcDbSymbolTableRecord
100
AcDbLinetypeTableRecord
  2
BYLAYER
 70
     0
  3

 72
    65
 73
     0
 40
0.0
  0
LTYPE
  5
16
330
5
100
AcDbSymbolTableRecord
100
AcDbLinetypeTableRecord
  2
CONTINUOUS
 70
     0
  3
Solid line
 72
    65
 73
     0
 40
0.0
  0
ENDTAB
  0
TABLE
  2
LAYER
  5
2
330
0
100
AcDbSymbolTable
 70
     2
  0
LAYER
  5
10
330
2
100
AcDbSymbolTableRecord
100
AcDbLayerTableRecord
  2
0
 70
     0
 62
     7
  6
CONTINUOUS
  0
LAYER
  5
6E
330
2
100
AcDbSymbolTableRecord
100
AcDbLayerTableRecord
  2
LASERCUTFLAT
 70
     0
 62
    18
  6
CONTINUOUS
  0
ENDTAB
  0
TABLE
  2
STYLE
  5
3
330
0
100
AcDbSymbolTable
 70
     1
  0
STYLE
  5
11
330
3
100
AcDbSymbolTableRecord
100
AcDbTextStyleTableRecord
  2
STANDARD
 70
     0
 40
0.0
 41
1.0
 50
0.0
 71
     0
 42
0.2
  3
txt
  4

  0
ENDTAB
  0
TABLE
  2
VIEW
  5
6
330
0
100
AcDbSymbolTable
 70
     0
  0
ENDTAB
  0
TABLE
  2
UCS
  5
7
330
0
100
AcDbSymbolTable
 70
     0
  0
ENDTAB
  0
TABLE
  2
APPID
  5
9
330
0
100
AcDbSymbolTable
 70
     2
  0
APPID
  5
12
330
9
100
AcDbSymbolTableRecord
100
AcDbRegAppTableRecord
  2
ACAD
 70
     0
  0
APPID
  5
3F4
330
9
100
AcDbSymbolTableRecord
100
AcDbRegAppTableRecord
  2
ACAD_MLEADERVER
 70
     0
  0
ENDTAB
  0
TABLE
  2
DIMSTYLE
  5
A
330
0
100
AcDbSymbolTable
 70
     1
  0
DIMSTYLE
105
27
330
A
100
AcDbSymbolTableRecord
100
AcDbDimStyleTableRecord
  2
STANDARD
 70
     0
  3

  4

  5

  6

  7

 40
1.0
 41
0.18
 42
0.0625
 43
0.38
 44
0.18
 45
0.0
 46
0.0
 47
0.0
 48
0.0
140
0.18
141
0.09
142
0.0
143
25.4
144
1.0
145
0.0
146
1.0
147
0.09
 71
     0
 72
     0
 73
     1
 74
     1
 75
     0
 76
     0
 77
     0
 78
     0
170
     0
171
     2
172
     0
173
     0
174
     0
175
     0
176
     0
177
     0
178
     0
270
     2
271
     4
272
     4
273
     2
274
     2
340
11
275
     0
280
     0
281
     0
282
     0
283
     1
284
     0
285
     0
286
     0
287
     3
288
     0
  0
ENDTAB
  0
TABLE
  2
BLOCK_RECORD
  5
1
330
0
100
AcDbSymbolTable
 70
     1
  0
BLOCK_RECORD
  5
1F
330
1
100
AcDbSymbolTableRecord
100
AcDbBlockTableRecord
  2
*MODEL_SPACE
  0
BLOCK_RECORD
  5
1B
330
1
100
AcDbSymbolTableRecord
100
AcDbBlockTableRecord
  2
*PAPER_SPACE
  0
ENDTAB
  0
ENDSEC
  0
SECTION
  2
BLOCKS
  0
BLOCK
  5
20
330
1F
100
AcDbEntity
  8
0
100
AcDbBlockBegin
  2
*MODEL_SPACE
 70
     0
 10
0.0
 20
0.0
 30
0.0
  3
*MODEL_SPACE
  1

  0
ENDBLK
  5
21
330
1F
100
AcDbEntity
  8
0
100
AcDbBlockEnd
  0
BLOCK
  5
1C
330
1B
100
AcDbEntity
 67
     1
  8
0
100
AcDbBlockBegin
  2
*PAPER_SPACE
 70
     0
 10
0.0
 20
0.0
 30
0.0
  3
*PAPER_SPACE
  1

  0
ENDBLK
  5
1D
330
1B
100
AcDbEntity
 67
     1
  8
0
100
AcDbBlockEnd
  0
ENDSEC
  0
SECTION
  2
ENTITIES
  0
CIRCLE
  5
6F
330
1F
100
AcDbEntity
  8
LASERCUTFLAT
100
AcDbCircle
 10
-77.43174149337963
 20
94.06705251073473
 30
0.0
 40
1.749999997209627
  0
CIRCLE
  5
70
330
1F
100
AcDbEntity
  8
LASERCUTFLAT
100
AcDbCircle
 10
13.23517190659232
 20
36.82710723099224
 30
0.0
 40
10.99999996779427
  0
CIRCLE
  5
71
330
1F
100
AcDbEntity
  8
LASERCUTFLAT
100
AcDbCircle
 10
-77.54799195959221
 20
109.0668458924515
 30
0.0
 40
1.750165286037896
  0
CIRCLE
  5
72
330
1F
100
AcDbEntity
  8
LASERCUTFLAT
100
AcDbCircle
 10
-77.54803327965044
 20
79.115638987952
 30
0.0
 40
1.750165286033988
  0
CIRCLE
  5
73
330
1F
100
AcDbEntity
  8
LASERCUTFLAT
100
AcDbCircle
 10
103.9868835403461
 20
109.06680457145
 30
0.0
 40
1.750165286034016
  0
CIRCLE
  5
74
330
1F
100
AcDbEntity
  8
LASERCUTFLAT
100
AcDbCircle
 10
-2.264837399922719
 20
52.32711034567075
 30
0.0
 40
1.499978765058036
  0
CIRCLE
  5
75
330
1F
100
AcDbEntity
  8
LASERCUTFLAT
100
AcDbCircle
 10
28.73514433677571
 20
52.32696474776404
 30
0.0
 40
1.499978765058055
  0
CIRCLE
  5
76
330
1F
100
AcDbEntity
  8
LASERCUTFLAT
100
AcDbCircle
 10
28.73520434605587
 20
21.32713465460739
 30
0.0
 40
1.499978765058059
  0
CIRCLE
  5
77
330
1F
100
AcDbEntity
  8
LASERCUTFLAT
100
AcDbCircle
 10
-2.264812250409474
 20
21.3271230480711
 30
0.0
 40
1.499978765058054
  0
CIRCLE
  5
78
330
1F
100
AcDbEntity
  8
LASERCUTFLAT
100
AcDbCircle
 10
125.0268286252688
 20
61.03545638003382
 30
0.0
 40
1.500000000000002
  0
CIRCLE
  5
79
330
1F
100
AcDbEntity
  8
LASERCUTFLAT
100
AcDbCircle
 10
99.02682862526868
 20
35.03545638003385
 30
0.0
 40
1.500000000000027
  0
CIRCLE
  5
7A
330
1F
100
AcDbEntity
  8
LASERCUTFLAT
100
AcDbCircle
 10
112.0268286252687
 20
48.03545638003385
 30
0.0
 40
11.75000000000002
  0
CIRCLE
  5
7B
330
1F
100
AcDbEntity
  8
LASERCUTFLAT
100
AcDbCircle
 10
112.0268286252688
 20
63.03545638003384
 30
0.0
 40
3.000000000000008
  0
CIRCLE
  5
7C
330
1F
100
AcDbEntity
  8
LASERCUTFLAT
100
AcDbCircle
 10
103.9559599236904
 20
85.80107819621233
 30
0.0
 40
1.750165286033974
  0
CIRCLE
  5
7D
330
1F
100
AcDbEntity
  8
LASERCUTFLAT
100
AcDbCircle
 10
103.9020853065889
 20
97.06705250635649
 30
0.0
 40
1.750000000000059
  0
CIRCLE
  5
7E
330
1F
100
AcDbEntity
  8
LASERCUTFLAT
100
AcDbCircle
 10
125.0268286252687
 20
35.03545638003385
 30
0.0
 40
1.500000000000011
  0
CIRCLE
  5
7F
330
1F
100
AcDbEntity
  8
LASERCUTFLAT
100
AcDbCircle
 10
99.02682862526865
 20
61.03545638003381
 30
0.0
 40
1.500000000000008
  0
CIRCLE
  5
80
330
1F
100
AcDbEntity
  8
LASERCUTFLAT
100
AcDbCircle
 10
112.0268286252688
 20
33.035456380034
 30
0.0
 40
3.000000000000001
  0
POLYLINE
  5
81
330
1F
100
AcDbEntity
  8
LASERCUTFLAT
100
AcDb2dPolyline
 66
     1
 10
0.0
 20
0.0
 30
0.0
 70
     1
  0
VERTEX
  5
82
330
81
100
AcDbEntity
  8
LASERCUTFLAT
100
AcDbVertex
100
AcDb2dVertex
 10
116.2351719065922
 20
71.61580427398569
 30
0.0
  0
VERTEX
  5
83
330
81
100
AcDbEntity
  8
LASERCUTFLAT
100
AcDbVertex
100
AcDb2dVertex
 10
117.1297102736443
 20
71.60190123281055
 30
0.0
  0
VERTEX
  5
84
330
81
100
AcDbEntity
  8
LASERCUTFLAT
100
AcDbVertex
100
AcDb2dVertex
 10
117.9934623735344
 20
71.56040679354479
 30
0.0
  0
VERTEX
  5
85
330
81
100
AcDbEntity
  8
LASERCUTFLAT
100
AcDbVertex
100
AcDb2dVertex
 10
118.8269347479279
 20
71.49195430184098
 30
0.0
  0
VERTEX
  5
86
330
81
100
AcDbEntity
  8
LASERCUTFLAT
100
AcDbVertex
100
AcDb2dVertex
 10
119.2324743323337
 20
71.44781670684125
 30
0.0
  0
VERTEX
  5
87
330
81
100
AcDbEntity
  8
LASERCUTFLAT
100
AcDbVertex
100
AcDb2dVertex
 10
119.6306339384899
 20
71.39717710335174
 30
0.0
  0
VERTEX
  5
88
330
81
100
AcDbEntity
  8
LASERCUTFLAT
100
AcDbVertex
100
AcDb2dVertex
 10
120.0214768841044
 20
71.340114659579
 30
0.0
  0
VERTEX
  5
89
330
81
100
AcDbEntity
  8
LASERCUTFLAT
100
AcDbVertex
100
AcDb2dVertex
 10
120.4050664868855
 20
71.27670854372965
 30
0.0
  0
VERTEX
  5
8A
330
81
100
AcDbEntity
  8
LASERCUTFLAT
100
AcDbVertex
100
AcDb2dVertex
 10
120.7814660645414
 20
71.20703792401022
 30
0.0
  0
VERTEX
  5
8B
330
81
100
AcDbEntity
  8
LASERCUTFLAT
100
AcDbVertex
100
AcDb2dVertex
 10
121.1507389347801
 20
71.13118196862733
 30
0.0
  0
VERTEX
  5
8C
330
81
100
AcDbEntity
  8
LASERCUTFLAT
100
AcDbVertex
100
AcDb2dVertex
 10
121.5129484153099
 20
71.04921984578753
 30
0.0
  0
VERTEX
  5
8D
330
81
100
AcDbEntity
  8
LASERCUTFLAT
100
AcDbVertex
100
AcDb2dVertex
 10
121.8681578238388
 20
70.96123072369738
 30
0.0
  0
VERTEX
  5
8E
330
81
100
AcDbEntity
  8
LASERCUTFLAT
100
AcDbVertex
100
AcDb2dVertex
 10
122.2164304780751
 20
70.86729377056349
 30
0.0
  0
VERTEX
  5
8F
330
81
100
AcDbEntity
  8
LASERCUTFLAT
100
AcDbVertex
100
AcDb2dVertex
 10
122.5578296957269
 20
70.76748815459243
 30
0.0
  0
VERTEX
  5
90
330
81
100
AcDbEntity
  8
LASERCUTFLAT
100
AcDbVertex
100
AcDb2dVertex
 10
122.8924187945022
 20
70.66189304399077
 30
0.0
  0
VERTEX
  5
91
330
81
100
AcDbEntity
  8
LASERCUTFLAT
100
AcDbVertex
100
AcDb2dVertex
 10
123.2202610921094
 20
70.55058760696505
 30
0.0
  0
VERTEX
  5
92
330
81
100
AcDbEntity
  8
LASERCUTFLAT
100
AcDbVertex
100
AcDb2dVertex
 10
123.5414199062565
 20
70.43365101172189
 30
0.0
  0
VERTEX
  5
93
330
81
100
AcDbEntity
  8
LASERCUTFLAT
100
AcDbVertex
100
AcDb2dVertex
 10
123.8559585546517
 20
70.31116242646786
 30
0.0
  0
VERTEX
  5
94
330
81
100
AcDbEntity
  8
LASERCUTFLAT
100
AcDbVertex
100
AcDb2dVertex
 10
124.1639403550031
 20
70.18320101940952
 30
0.0
  0
VERTEX
  5
95
330
81
100
AcDbEntity
  8
LASERCUTFLAT
100
AcDbVertex
100
AcDb2dVertex
 10
124.4654286250189
 20
70.04984595875348
 30
0.0
  0
VERTEX
  5
96
330
81
100
AcDbEntity
  8
LASERCUTFLAT
100
AcDbVertex
100
AcDb2dVertex
 10
124.7604866824073
 20
69.91117641270627
 30
0.0
  0
VERTEX
  5
97
330
81
100
AcDbEntity
  8
LASERCUTFLAT
100
AcDbVertex
100
AcDb2dVertex
 10
125.0491778448763
 20
69.76727154947447
 30
0.0
  0
VERTEX
  5
98
330
81
100
AcDbEntity
  8
LASERCUTFLAT
100
AcDbVertex
100
AcDb2dVertex
 10
125.3315654301342
 20
69.61821053726467
 30
0.0
  0
VERTEX
  5
99
330
81
100
AcDbEntity
  8
LASERCUTFLAT
100
AcDbVertex
100
AcDb2dVertex
 10
125.607712755889
 20
69.46407254428348
 30
0.0
  0
VERTEX
  5
9A
330
81
100
AcDbEntity
  8
LASERCUTFLAT
100
AcDbVertex
100
AcDb2dVertex
 10
125.877683139849
 20
69.30493673873741
 30
0.0
  0
VERTEX
  5
9B
330
81
100
AcDbEntity
  8
LASERCUTFLAT
100
AcDbVertex
100
AcDb2dVertex
 10
126.1415398997223
 20
69.1408822888331
 30
0.0
  0
VERTEX
  5
9C
330
81
100
AcDbEntity
  8
LASERCUTFLAT
100
AcDbVertex
100
AcDb2dVertex
 10
126.3993463532171
 20
68.97198836277707
 30
0.0
  0
VERTEX
  5
9D
330
81
100
AcDbEntity
  8
LASERCUTFLAT
100
AcDbVertex
100
AcDb2dVertex
 10
126.6511658180414
 20
68.79833412877593
 30
0.0
  0
VERTEX
  5
9E
330
81
100
AcDbEntity
  8
LASERCUTFLAT
100
AcDbVertex
100
AcDb2dVertex
 10
126.8970616119035
 20
68.61999875503625
 30
0.0
  0
VERTEX
  5
9F
330
81
100
AcDbEntity
  8
LASERCUTFLAT
100
AcDbVertex
100
AcDb2dVertex
 10
127.1370970525114
 20
68.4370614097646
 30
0.0
  0
VERTEX
  5
A0
330
81
100
AcDbEntity
  8
LASERCUTFLAT
100
AcDbVertex
100
AcDb2dVertex
 10
127.3713354575734
 20
68.24960126116754
 30
0.0
  0
VERTEX
  5
A1
330
81
100
AcDbEntity
  8
LASERCUTFLAT
100
AcDbVertex
100
AcDb2dVertex
 10
127.5998401447976
 20
68.05769747745167
 30
0.0
  0
VERTEX
  5
A2
330
81
100
AcDbEntity
  8
LASERCUTFLAT
100
AcDbVertex
100
AcDb2dVertex
 10
127.8226744318922
 20
67.86142922682356
 30
0.0
  0
VERTEX
  5
A3
330
81
100
AcDbEntity
  8
LASERCUTFLAT
100
AcDbVertex
100
AcDb2dVertex
 10
128.0399016365652
 20
67.66087567748977
 30
0.0
  0
VERTEX
  5
A4
330
81
100
AcDbEntity
  8
LASERCUTFLAT
100
AcDbVertex
100
AcDb2dVertex
 10
128.2515850765249
 20
67.4561159976569
 30
0.0
  0
VERTEX
  5
A5
330
81
100
AcDbEntity
  8
LASERCUTFLAT
100
AcDbVertex
100
AcDb2dVertex
 10
128.4577880694794
 20
67.24722935553152
 30
0.0
  0
VERTEX
  5
A6
330
81
100
AcDbEntity
  8
LASERCUTFLAT
100
AcDbVertex
100
AcDb2dVertex
 10
128.6585739331368
 20
67.03429491932019
 30
0.0
  0
VERTEX
  5
A7
330
81
100
AcDbEntity
  8
LASERCUTFLAT
100
AcDbVertex
100
AcDb2dVertex
 10
128.8540059852053
 20
66.81739185722948
 30
0.0
  0
VERTEX
  5
A8
330
81
100
AcDbEntity
  8
LASERCUTFLAT
100
AcDbVertex
100
AcDb2dVertex
 10
129.0441475433931
 20
66.596599337466
 30
0.0
  0
VERTEX
  5
A9
330
81
100
AcDbEntity
  8
LASERCUTFLAT
100
AcDbVertex
100
AcDb2dVertex
 10
129.2290619254083
 20
66.37199652823631
 30
0.0
  0
VERTEX
  5
AA
330
81
100
AcDbEntity
  8
LASERCUTFLAT
100
AcDbVertex
100
AcDb2dVertex
 10
129.408812448959
 20
66.14366259774698
 30
0.0
  0
VERTEX
  5
AB
330
81
100
AcDbEntity
  8
LASERCUTFLAT
100
AcDbVertex
100
AcDb2dVertex
 10
129.5834624317534
 20
65.91167671420456
 30
0.0
  0
VERTEX
  5
AC
330
81
100
AcDbEntity
  8
LASERCUTFLAT
100
AcDbVertex
100
AcDb2dVertex
 10
129.7530751914997
 20
65.67611804581568
 30
0.0
  0
VERTEX
  5
AD
330
81
100
AcDbEntity
  8
LASERCUTFLAT
100
AcDbVertex
100
AcDb2dVertex
 10
129.917714045906
 20
65.43706576078688
 30
0.0
  0
VERTEX
  5
AE
330
81
100
AcDbEntity
  8
LASERCUTFLAT
100
AcDbVertex
100
AcDb2dVertex
 10
130.0774423126804
 20
65.19459902732474
 30
0.0
  0
VERTEX
  5
AF
330
81
100
AcDbEntity
  8
LASERCUTFLAT
100
AcDbVertex
100
AcDb2dVertex
 10
130.2323233095312
 20
64.94879701363585
 30
0.0
  0
VERTEX
  5
B0
330
81
100
AcDbEntity
  8
LASERCUTFLAT
100
AcDbVertex
100
AcDb2dVertex
 10
130.3824203541664
 20
64.69973888792678
 30
0.0
  0
VERTEX
  5
B1
330
81
100
AcDbEntity
  8
LASERCUTFLAT
100
AcDbVertex
100
AcDb2dVertex
 10
130.5277967642942
 20
64.4475038184041
 30
0.0
  0
VERTEX
  5
B2
330
81
100
AcDbEntity
  8
LASERCUTFLAT
100
AcDbVertex
100
AcDb2dVertex
 10
130.6685158576228
 20
64.19217097327437
 30
0.0
  0
VERTEX
  5
B3
330
81
100
AcDbEntity
  8
LASERCUTFLAT
100
AcDbVertex
100
AcDb2dVertex
 10
130.8046409518602
 20
63.93381952074419
 30
0.0
  0
VERTEX
  5
B4
330
81
100
AcDbEntity
  8
LASERCUTFLAT
100
AcDbVertex
100
AcDb2dVertex
 10
130.9362353647147
 20
63.67252862902014
 30
0.0
  0
VERTEX
  5
B5
330
81
100
AcDbEntity
  8
LASERCUTFLAT
100
AcDbVertex
100
AcDb2dVertex
 10
131.0633624138945
 20
63.40837746630876
 30
0.0
  0
VERTEX
  5
B6
330
81
100
AcDbEntity
  8
LASERCUTFLAT
100
AcDbVertex
100
AcDb2dVertex
 10
131.3044676920622
 20
62.87181100075042
 30
0.0
  0
VERTEX
  5
B7
330
81
100
AcDbEntity
  8
LASERCUTFLAT
100
AcDbVertex
100
AcDb2dVertex
 10
131.5284633280285
 20
62.32475346972176
 30
0.0
  0
VERTEX
  5
B8
330
81
100
AcDbEntity
  8
LASERCUTFLAT
100
AcDbVertex
100
AcDb2dVertex
 10
131.7358558634587
 20
61.76783821887537
 30
0.0
  0
VERTEX
  5
B9
330
81
100
AcDbEntity
  8
LASERCUTFLAT
100
AcDbVertex
100
AcDb2dVertex
 10
131.927151840018
 20
61.20169859386388
 30
0.0
  0
VERTEX
  5
BA
330
81
100
AcDbEntity
  8
LASERCUTFLAT
100
AcDbVertex
100
AcDb2dVertex
 10
132.1028577993715
 20
60.62696794033989
 30
0.0
  0
VERTEX
  5
BB
330
81
100
AcDbEntity
  8
LASERCUTFLAT
100
AcDbVertex
100
AcDb2dVertex
 10
132.2634802831845
 20
60.044279603956
 30
0.0
  0
VERTEX
  5
BC
330
81
100
AcDbEntity
  8
LASERCUTFLAT
100
AcDbVertex
100
AcDb2dVertex
 10
132.4095258331221
 20
59.45426693036481
 30
0.0
  0
VERTEX
  5
BD
330
81
100
AcDbEntity
  8
LASERCUTFLAT
100
AcDbVertex
100
AcDb2dVertex
 10
132.5415009908497
 20
58.85756326521893
 30
0.0
  0
VERTEX
  5
BE
330
81
100
AcDbEntity
  8
LASERCUTFLAT
100
AcDbVertex
100
AcDb2dVertex
 10
132.6599122980323
 20
58.25480195417096
 30
0.0
  0
VERTEX
  5
BF
330
81
100
AcDbEntity
  8
LASERCUTFLAT
100
AcDbVertex
100
AcDb2dVertex
 10
132.7652662963351
 20
57.64661634287351
 30
0.0
  0
VERTEX
  5
C0
330
81
100
AcDbEntity
  8
LASERCUTFLAT
100
AcDbVertex
100
AcDb2dVertex
 10
132.8580695274235
 20
57.0336397769792
 30
0.0
  0
VERTEX
  5
C1
330
81
100
AcDbEntity
  8
LASERCUTFLAT
100
AcDbVertex
100
AcDb2dVertex
 10
132.9388285329626
 20
56.41650560214061
 30
0.0
  0
VERTEX
  5
C2
330
81
100
AcDbEntity
  8
LASERCUTFLAT
100
AcDbVertex
100
AcDb2dVertex
 10
133.0080498546176
 20
55.79584716401035
 30
0.0
  0
VERTEX
  5
C3
330
81
100
AcDbEntity
  8
LASERCUTFLAT
100
AcDbVertex
100
AcDb2dVertex
 10
133.1139056129362
 20
54.54649088048527
 30
0.0
  0
VERTEX
  5
C4
330
81
100
AcDbEntity
  8
LASERCUTFLAT
100
AcDbVertex
100
AcDb2dVertex
 10
133.1796891357008
 20
53.29063769162477
 30
0.0
  0
VERTEX
  5
C5
330
81
100
AcDbEntity
  8
LASERCUTFLAT
100
AcDbVertex
100
AcDb2dVertex
 10
133.2094527562332
 20
52.03335436264972
 30
0.0
  0
VERTEX
  5
C6
330
81
100
AcDbEntity
  8
LASERCUTFLAT
100
AcDbVertex
100
AcDb2dVertex
 10
133.2072488078549
 20
50.77970765878093
 30
0.0
  0
VERTEX
  5
C7
330
81
100
AcDbEntity
  8
LASERCUTFLAT
100
AcDbVertex
100
AcDb2dVertex
 10
133.1771296238877
 20
49.53476434523925
 30
0.0
  0
VERTEX
  5
C8
330
81
100
AcDbEntity
  8
LASERCUTFLAT
100
AcDbVertex
100
AcDb2dVertex
 10
133.1231475376531
 20
48.30359118724552
 30
0.0
  0
VERTEX
  5
C9
330
81
100
AcDbEntity
  8
LASERCUTFLAT
100
AcDbVertex
100
AcDb2dVertex
 10
132.9598039916686
 20
45.90282239878526
 30
0.0
  0
VERTEX
  5
CA
330
81
100
AcDbEntity
  8
LASERCUTFLAT
100
AcDbVertex
100
AcDb2dVertex
 10
132.7496368364745
 20
43.61793541516687
 30
0.0
  0
VERTEX
  5
CB
330
81
100
AcDbEntity
  8
LASERCUTFLAT
100
AcDbVertex
100
AcDb2dVertex
 10
132.3095016931738
 20
39.54855842324807
 30
0.0
  0
VERTEX
  5
CC
330
81
100
AcDbEntity
  8
LASERCUTFLAT
100
AcDbVertex
100
AcDb2dVertex
 10
132.0903430087546
 20
37.78882710083457
 30
0.0
  0
VERTEX
  5
CD
330
81
100
AcDbEntity
  8
LASERCUTFLAT
100
AcDbVertex
100
AcDb2dVertex
 10
131.9726623760372
 20
36.9719720956012
 30
0.0
  0
VERTEX
  5
CE
330
81
100
AcDbEntity
  8
LASERCUTFLAT
100
AcDbVertex
100
AcDb2dVertex
 10
131.8459793225005
 20
36.19449495503677
 30
0.0
  0
VERTEX
  5
CF
330
81
100
AcDbEntity
  8
LASERCUTFLAT
100
AcDbVertex
100
AcDb2dVertex
 10
131.7075926777836
 20
35.45442374965633
 30
0.0
  0
VERTEX
  5
D0
330
81
100
AcDbEntity
  8
LASERCUTFLAT
100
AcDbVertex
100
AcDb2dVertex
 10
131.5548012715258
 20
34.74978654997489
 30
0.0
  0
VERTEX
  5
D1
330
81
100
AcDbEntity
  8
LASERCUTFLAT
100
AcDbVertex
100
AcDb2dVertex
 10
131.4721596670813
 20
34.41013947430724
 30
0.0
  0
VERTEX
  5
D2
330
81
100
AcDbEntity
  8
LASERCUTFLAT
100
AcDbVertex
100
AcDb2dVertex
 10
131.3849039333664
 20
34.07861142650748
 30
0.0
  0
VERTEX
  5
D3
330
81
100
AcDbEntity
  8
LASERCUTFLAT
100
AcDbVertex
100
AcDb2dVertex
 10
131.2926964240858
 20
33.75495591538997
 30
0.0
  0
VERTEX
  5
D4
330
81
100
AcDbEntity
  8
LASERCUTFLAT
100
AcDbVertex
100
AcDb2dVertex
 10
131.1951994929447
 20
33.43892644976911
 30
0.0
  0
VERTEX
  5
D5
330
81
100
AcDbEntity
  8
LASERCUTFLAT
100
AcDbVertex
100
AcDb2dVertex
 10
131.0920754936477
 20
33.13027653845928
 30
0.0
  0
VERTEX
  5
D6
330
81
100
AcDbEntity
  8
LASERCUTFLAT
100
AcDbVertex
100
AcDb2dVertex
 10
130.9829867798998
 20
32.82875969027484
 30
0.0
  0
VERTEX
  5
D7
330
81
100
AcDbEntity
  8
LASERCUTFLAT
100
AcDbVertex
100
AcDb2dVertex
 10
130.8675957054061
 20
32.53412941403018
 30
0.0
  0
VERTEX
  5
D8
330
81
100
AcDbEntity
  8
LASERCUTFLAT
100
AcDbVertex
100
AcDb2dVertex
 10
130.7455646238712
 20
32.24613921853967
 30
0.0
  0
VERTEX
  5
D9
330
81
100
AcDbEntity
  8
LASERCUTFLAT
100
AcDbVertex
100
AcDb2dVertex
 10
130.6165558890003
 20
31.96454261261769
 30
0.0
  0
VERTEX
  5
DA
330
81
100
AcDbEntity
  8
LASERCUTFLAT
100
AcDbVertex
100
AcDb2dVertex
 10
130.4802318544981
 20
31.68909310507863
 30
0.0
  0
VERTEX
  5
DB
330
81
100
AcDbEntity
  8
LASERCUTFLAT
100
AcDbVertex
100
AcDb2dVertex
 10
130.3362548740697
 20
31.41954420473686
 30
0.0
  0
VERTEX
  5
DC
330
81
100
AcDbEntity
  8
LASERCUTFLAT
100
AcDbVertex
100
AcDb2dVertex
 10
130.1842873014198
 20
31.15564942040676
 30
0.0
  0
VERTEX
  5
DD
330
81
100
AcDbEntity
  8
LASERCUTFLAT
100
AcDbVertex
100
AcDb2dVertex
 10
130.0239914902535
 20
30.8971622609027
 30
0.0
  0
VERTEX
  5
DE
330
81
100
AcDbEntity
  8
LASERCUTFLAT
100
AcDbVertex
100
AcDb2dVertex
 10
129.8550297942756
 20
30.64383623503907
 30
0.0
  0
VERTEX
  5
DF
330
81
100
AcDbEntity
  8
LASERCUTFLAT
100
AcDbVertex
100
AcDb2dVertex
 10
129.677064567191
 20
30.39542485163024
 30
0.0
  0
VERTEX
  5
E0
330
81
100
AcDbEntity
  8
LASERCUTFLAT
100
AcDbVertex
100
AcDb2dVertex
 10
129.4897581627046
 20
30.1516816194906
 30
0.0
  0
VERTEX
  5
E1
330
81
100
AcDbEntity
  8
LASERCUTFLAT
100
AcDbVertex
100
AcDb2dVertex
 10
129.2927729345214
 20
29.91236004743451
 30
0.0
  0
VERTEX
  5
E2
330
81
100
AcDbEntity
  8
LASERCUTFLAT
100
AcDbVertex
100
AcDb2dVertex
 10
129.0857712363463
 20
29.67721364427636
 30
0.0
  0
VERTEX
  5
E3
330
81
100
AcDbEntity
  8
LASERCUTFLAT
100
AcDbVertex
100
AcDb2dVertex
 10
128.8684154218841
 20
29.44599591883053
 30
0.0
  0
VERTEX
  5
E4
330
81
100
AcDbEntity
  8
LASERCUTFLAT
100
AcDbVertex
100
AcDb2dVertex
 10
128.6403678448398
 20
29.21846037991139
 30
0.0
  0
VERTEX
  5
E5
330
81
100
AcDbEntity
  8
LASERCUTFLAT
100
AcDbVertex
100
AcDb2dVertex
 10
128.4012908589182
 20
28.99436053633333
 30
0.0
  0
VERTEX
  5
E6
330
81
100
AcDbEntity
  8
LASERCUTFLAT
100
AcDbVertex
100
AcDb2dVertex
 10
128.1508468178244
 20
28.77344989691072
 30
0.0
  0
VERTEX
  5
E7
330
81
100
AcDbEntity
  8
LASERCUTFLAT
100
AcDbVertex
100
AcDb2dVertex
 10
127.8886980752632
 20
28.55548197045794
 30
0.0
  0
VERTEX
  5
E8
330
81
100
AcDbEntity
  8
LASERCUTFLAT
100
AcDbVertex
100
AcDb2dVertex
 10
127.6145069849395
 20
28.34021026578936
 30
0.0
  0
VERTEX
  5
E9
330
81
100
AcDbEntity
  8
LASERCUTFLAT
100
AcDbVertex
100
AcDb2dVertex
 10
127.3279359005582
 20
28.12738829171937
 30
0.0
  0
VERTEX
  5
EA
330
81
100
AcDbEntity
  8
LASERCUTFLAT
100
AcDbVertex
100
AcDb2dVertex
 10
127.0286471758242
 20
27.91676955706235
 30
0.0
  0
VERTEX
  5
EB
330
81
100
AcDbEntity
  8
LASERCUTFLAT
100
AcDbVertex
100
AcDb2dVertex
 10
126.7163031644425
 20
27.70810757063267
 30
0.0
  0
VERTEX
  5
EC
330
81
100
AcDbEntity
  8
LASERCUTFLAT
100
AcDbVertex
100
AcDb2dVertex
 10
126.390566220118
 20
27.50115584124471
 30
0.0
  0
VERTEX
  5
ED
330
81
100
AcDbEntity
  8
LASERCUTFLAT
100
AcDbVertex
100
AcDb2dVertex
 10
126.0510986965555
 20
27.29566787771285
 30
0.0
  0
VERTEX
  5
EE
330
81
100
AcDbEntity
  8
LASERCUTFLAT
100
AcDbVertex
100
AcDb2dVertex
 10
125.69756294746
 20
27.09139718885147
 30
0.0
  0
VERTEX
  5
EF
330
81
100
AcDbEntity
  8
LASERCUTFLAT
100
AcDbVertex
100
AcDb2dVertex
 10
125.3296213265363
 20
26.88809728347494
 30
0.0
  0
VERTEX
  5
F0
330
81
100
AcDbEntity
  8
LASERCUTFLAT
100
AcDbVertex
100
AcDb2dVertex
 10
124.9469361874895
 20
26.68552167039766
 30
0.0
  0
VERTEX
  5
F1
330
81
100
AcDbEntity
  8
LASERCUTFLAT
100
AcDbVertex
100
AcDb2dVertex
 10
124.1359847698457
 20
26.28155735639829
 30
0.0
  0
VERTEX
  5
F2
330
81
100
AcDbEntity
  8
LASERCUTFLAT
100
AcDbVertex
100
AcDb2dVertex
 10
123.2620075241681
 20
25.8775323173684
 30
0.0
  0
VERTEX
  5
F3
330
81
100
AcDbEntity
  8
LASERCUTFLAT
100
AcDbVertex
100
AcDb2dVertex
 10
122.3223032800958
 20
25.47147462382301
 30
0.0
  0
VERTEX
  5
F4
330
81
100
AcDbEntity
  8
LASERCUTFLAT
100
AcDbVertex
100
AcDb2dVertex
 10
121.3141708672681
 20
25.06141234627716
 30
0.0
  0
VERTEX
  5
F5
330
81
100
AcDbEntity
  8
LASERCUTFLAT
100
AcDbVertex
100
AcDb2dVertex
 10
119.0818168539037
 20
24.22138632124414
 30
0.0
  0
VERTEX
  5
F6
330
81
100
AcDbEntity
  8
LASERCUTFLAT
100
AcDbVertex
100
AcDb2dVertex
 10
116.5433361211891
 20
23.34167880638956
 30
0.0
  0
VERTEX
  5
F7
330
81
100
AcDbEntity
  8
LASERCUTFLAT
100
AcDbVertex
100
AcDb2dVertex
 10
113.6762828808125
 20
22.4115998606959
 30
0.0
  0
VERTEX
  5
F8
330
81
100
AcDbEntity
  8
LASERCUTFLAT
100
AcDbVertex
100
AcDb2dVertex
 10
110.4548656427584
 20
21.44080152259481
 30
0.0
  0
VERTEX
  5
F9
330
81
100
AcDbEntity
  8
LASERCUTFLAT
100
AcDbVertex
100
AcDb2dVertex
 10
108.7029493010267
 20
20.94473806054583
 30
0.0
  0
VERTEX
  5
FA
330
81
100
AcDbEntity
  8
LASERCUTFLAT
100
AcDbVertex
100
AcDb2dVertex
 10
106.8524564915851
 20
20.44402132538021
 30
0.0
  0
VERTEX
  5
FB
330
81
100
AcDbEntity
  8
LASERCUTFLAT
100
AcDbVertex
100
AcDb2dVertex
 10
104.9000587250034
 20
19.94049350875968
 30
0.0
  0
VERTEX
  5
FC
330
81
100
AcDbEntity
  8
LASERCUTFLAT
100
AcDbVertex
100
AcDb2dVertex
 10
102.8424275118512
 20
19.43599680234599
 30
0.0
  0
VERTEX
  5
FD
330
81
100
AcDbEntity
  8
LASERCUTFLAT
100
AcDbVertex
100
AcDb2dVertex
 10
100.6762343626986
 20
18.93237339780088
 30
0.0
  0
VERTEX
  5
FE
330
81
100
AcDbEntity
  8
LASERCUTFLAT
100
AcDbVertex
100
AcDb2dVertex
 10
98.39815078811515
 20
18.43146548678609
 30
0.0
  0
VERTEX
  5
FF
330
81
100
AcDbEntity
  8
LASERCUTFLAT
100
AcDbVertex
100
AcDb2dVertex
 10
96.0048482986708
 20
17.93511526096336
 30
0.0
  0
VERTEX
  5
100
330
81
100
AcDbEntity
  8
LASERCUTFLAT
100
AcDbVertex
100
AcDb2dVertex
 10
93.49299840493534
 20
17.44516491199442
 30
0.0
  0
VERTEX
  5
101
330
81
100
AcDbEntity
  8
LASERCUTFLAT
100
AcDbVertex
100
AcDb2dVertex
 10
90.85927261747855
 20
16.96345663154103
 30
0.0
  0
VERTEX
  5
102
330
81
100
AcDbEntity
  8
LASERCUTFLAT
100
AcDbVertex
100
AcDb2dVertex
 10
88.10034244687023
 20
16.4918326112649
 30
0.0
  0
VERTEX
  5
103
330
81
100
AcDbEntity
  8
LASERCUTFLAT
100
AcDbVertex
100
AcDb2dVertex
 10
85.21287940368022
 20
16.0321350428278
 30
0.0
  0
VERTEX
  5
104
330
81
100
AcDbEntity
  8
LASERCUTFLAT
100
AcDbVertex
100
AcDb2dVertex
 10
82.1935549984783
 20
15.58620611789145
 30
0.0
  0
VERTEX
  5
105
330
81
100
AcDbEntity
  8
LASERCUTFLAT
100
AcDbVertex
100
AcDb2dVertex
 10
79.0390407418343
 20
15.1558880281176
 30
0.0
  0
VERTEX
  5
106
330
81
100
AcDbEntity
  8
LASERCUTFLAT
100
AcDbVertex
100
AcDb2dVertex
 10
75.74600814431801
 20
14.74302296516799
 30
0.0
  0
VERTEX
  5
107
330
81
100
AcDbEntity
  8
LASERCUTFLAT
100
AcDbVertex
100
AcDb2dVertex
 10
72.31112871649925
 20
14.34945312070434
 30
0.0
  0
VERTEX
  5
108
330
81
100
AcDbEntity
  8
LASERCUTFLAT
100
AcDbVertex
100
AcDb2dVertex
 10
68.73107396894783
 20
13.97702068638842
 30
0.0
  0
VERTEX
  5
109
330
81
100
AcDbEntity
  8
LASERCUTFLAT
100
AcDbVertex
100
AcDb2dVertex
 10
65.00251541223352
 20
13.62756785388195
 30
0.0
  0
VERTEX
  5
10A
330
81
100
AcDbEntity
  8
LASERCUTFLAT
100
AcDbVertex
100
AcDb2dVertex
 10
61.12212455692618
 20
13.30293681484667
 30
0.0
  0
VERTEX
  5
10B
330
81
100
AcDbEntity
  8
LASERCUTFLAT
100
AcDbVertex
100
AcDb2dVertex
 10
57.08657291359558
 20
13.00496976094433
 30
0.0
  0
VERTEX
  5
10C
330
81
100
AcDbEntity
  8
LASERCUTFLAT
100
AcDbVertex
100
AcDb2dVertex
 10
52.89253199281154
 20
12.73550888383666
 30
0.0
  0
VERTEX
  5
10D
330
81
100
AcDbEntity
  8
LASERCUTFLAT
100
AcDbVertex
100
AcDb2dVertex
 10
48.53667330514386
 20
12.49639637518541
 30
0.0
  0
VERTEX
  5
10E
330
81
100
AcDbEntity
  8
LASERCUTFLAT
100
AcDbVertex
100
AcDb2dVertex
 10
44.01566836116237
 20
12.28947442665231
 30
0.0
  0
VERTEX
  5
10F
330
81
100
AcDbEntity
  8
LASERCUTFLAT
100
AcDbVertex
100
AcDb2dVertex
 10
39.32618867143685
 20
12.1165852298991
 30
0.0
  0
VERTEX
  5
110
330
81
100
AcDbEntity
  8
LASERCUTFLAT
100
AcDbVertex
100
AcDb2dVertex
 10
34.46490574653712
 20
11.97957097658752
 30
0.0
  0
VERTEX
  5
111
330
81
100
AcDbEntity
  8
LASERCUTFLAT
100
AcDbVertex
100
AcDb2dVertex
 10
29.42849109703298
 20
11.88027385837931
 30
0.0
  0
VERTEX
  5
112
330
81
100
AcDbEntity
  8
LASERCUTFLAT
100
AcDbVertex
100
AcDb2dVertex
 10
24.21361623349424
 20
11.82053606693622
 30
0.0
  0
VERTEX
  5
113
330
81
100
AcDbEntity
  8
LASERCUTFLAT
100
AcDbVertex
100
AcDb2dVertex
 10
18.81695266649071
 20
11.80219979391998
 30
0.0
  0
VERTEX
  5
114
330
81
100
AcDbEntity
  8
LASERCUTFLAT
100
AcDbVertex
100
AcDb2dVertex
 10
11.70887211688762
 20
11.83799784944555
 30
0.0
  0
VERTEX
  5
115
330
81
100
AcDbEntity
  8
LASERCUTFLAT
100
AcDbVertex
100
AcDb2dVertex
 10
10.20381921302684
 20
11.87044162902611
 30
0.0
  0
VERTEX
  5
116
330
81
100
AcDbEntity
  8
LASERCUTFLAT
100
AcDbVertex
100
AcDb2dVertex
 10
8.719786675526784
 20
11.92409645606531
 30
0.0
  0
VERTEX
  5
117
330
81
100
AcDbEntity
  8
LASERCUTFLAT
100
AcDbVertex
100
AcDb2dVertex
 10
7.256547984904362
 20
11.99862021689447
 30
0.0
  0
VERTEX
  5
118
330
81
100
AcDbEntity
  8
LASERCUTFLAT
100
AcDbVertex
100
AcDb2dVertex
 10
5.813876621676497
 20
12.09367079784489
 30
0.0
  0
VERTEX
  5
119
330
81
100
AcDbEntity
  8
LASERCUTFLAT
100
AcDbVertex
100
AcDb2dVertex
 10
4.391546066360109
 20
12.20890608524789
 30
0.0
  0
VERTEX
  5
11A
330
81
100
AcDbEntity
  8
LASERCUTFLAT
100
AcDbVertex
100
AcDb2dVertex
 10
2.989329799472117
 20
12.34398396543478
 30
0.0
  0
VERTEX
  5
11B
330
81
100
AcDbEntity
  8
LASERCUTFLAT
100
AcDbVertex
100
AcDb2dVertex
 10
1.607001301529438
 20
12.49856232473688
 30
0.0
  0
VERTEX
  5
11C
330
81
100
AcDbEntity
  8
LASERCUTFLAT
100
AcDbVertex
100
AcDb2dVertex
 10
0.2443340530489932
 20
12.67229904948549
 30
0.0
  0
VERTEX
  5
11D
330
81
100
AcDbEntity
  8
LASERCUTFLAT
100
AcDbVertex
100
AcDb2dVertex
 10
-1.098898465452299
 20
12.86485202601193
 30
0.0
  0
VERTEX
  5
11E
330
81
100
AcDbEntity
  8
LASERCUTFLAT
100
AcDbVertex
100
AcDb2dVertex
 10
-2.42292277345752
 20
13.07587914064751
 30
0.0
  0
VERTEX
  5
11F
330
81
100
AcDbEntity
  8
LASERCUTFLAT
100
AcDbVertex
100
AcDb2dVertex
 10
-3.727965390449749
 20
13.30503827972355
 30
0.0
  0
VERTEX
  5
120
330
81
100
AcDbEntity
  8
LASERCUTFLAT
100
AcDbVertex
100
AcDb2dVertex
 10
-5.014252835912068
 20
13.55198732957134
 30
0.0
  0
VERTEX
  5
121
330
81
100
AcDbEntity
  8
LASERCUTFLAT
100
AcDbVertex
100
AcDb2dVertex
 10
-6.282011629327558
 20
13.81638417652222
 30
0.0
  0
VERTEX
  5
122
330
81
100
AcDbEntity
  8
LASERCUTFLAT
100
AcDbVertex
100
AcDb2dVertex
 10
-7.5314682901793
 20
14.09788670690748
 30
0.0
  0
VERTEX
  5
123
330
81
100
AcDbEntity
  8
LASERCUTFLAT
100
AcDbVertex
100
AcDb2dVertex
 10
-8.762849337950374
 20
14.39615280705845
 30
0.0
  0
VERTEX
  5
124
330
81
100
AcDbEntity
  8
LASERCUTFLAT
100
AcDbVertex
100
AcDb2dVertex
 10
-9.976381292123863
 20
14.71084036330643
 30
0.0
  0
VERTEX
  5
125
330
81
100
AcDbEntity
  8
LASERCUTFLAT
100
AcDbVertex
100
AcDb2dVertex
 10
-11.17229067218284
 20
15.04160726198273
 30
0.0
  0
VERTEX
  5
126
330
81
100
AcDbEntity
  8
LASERCUTFLAT
100
AcDbVertex
100
AcDb2dVertex
 10
-13.51214778788962
 20
15.75001063194557
 30
0.0
  0
VERTEX
  5
127
330
81
100
AcDbEntity
  8
LASERCUTFLAT
100
AcDbVertex
100
AcDb2dVertex
 10
-15.78423284093533
 20
16.51862600759745
 30
0.0
  0
VERTEX
  5
128
330
81
100
AcDbEntity
  8
LASERCUTFLAT
100
AcDbVertex
100
AcDb2dVertex
 10
-17.99035798718465
 20
17.34471647958888
 30
0.0
  0
VERTEX
  5
129
330
81
100
AcDbEntity
  8
LASERCUTFLAT
100
AcDbVertex
100
AcDb2dVertex
 10
-20.13233538250221
 20
18.22554513857036
 30
0.0
  0
VERTEX
  5
12A
330
81
100
AcDbEntity
  8
LASERCUTFLAT
100
AcDbVertex
100
AcDb2dVertex
 10
-22.21197718275265
 20
19.15837507519238
 30
0.0
  0
VERTEX
  5
12B
330
81
100
AcDbEntity
  8
LASERCUTFLAT
100
AcDbVertex
100
AcDb2dVertex
 10
-24.23109554380063
 20
20.14046938010544
 30
0.0
  0
VERTEX
  5
12C
330
81
100
AcDbEntity
  8
LASERCUTFLAT
100
AcDbVertex
100
AcDb2dVertex
 10
-26.19150262151079
 20
21.16909114396004
 30
0.0
  0
VERTEX
  5
12D
330
81
100
AcDbEntity
  8
LASERCUTFLAT
100
AcDbVertex
100
AcDb2dVertex
 10
-28.09501057174779
 20
22.24150345740667
 30
0.0
  0
VERTEX
  5
12E
330
81
100
AcDbEntity
  8
LASERCUTFLAT
100
AcDbVertex
100
AcDb2dVertex
 10
-29.94343155037626
 20
23.35496941109584
 30
0.0
  0
VERTEX
  5
12F
330
81
100
AcDbEntity
  8
LASERCUTFLAT
100
AcDbVertex
100
AcDb2dVertex
 10
-31.73857771326085
 20
24.50675209567805
 30
0.0
  0
VERTEX
  5
130
330
81
100
AcDbEntity
  8
LASERCUTFLAT
100
AcDbVertex
100
AcDb2dVertex
 10
-33.48226121626622
 20
25.69411460180378
 30
0.0
  0
VERTEX
  5
131
330
81
100
AcDbEntity
  8
LASERCUTFLAT
100
AcDbVertex
100
AcDb2dVertex
 10
-35.176294215257
 20
26.91432002012353
 30
0.0
  0
VERTEX
  5
132
330
81
100
AcDbEntity
  8
LASERCUTFLAT
100
AcDbVertex
100
AcDb2dVertex
 10
-36.82248886609786
 20
28.16463144128782
 30
0.0
  0
VERTEX
  5
133
330
81
100
AcDbEntity
  8
LASERCUTFLAT
100
AcDbVertex
100
AcDb2dVertex
 10
-38.42265732465341
 20
29.44231195594712
 30
0.0
  0
VERTEX
  5
134
330
81
100
AcDbEntity
  8
LASERCUTFLAT
100
AcDbVertex
100
AcDb2dVertex
 10
-39.97861174678834
 20
30.74462465475195
 30
0.0
  0
VERTEX
  5
135
330
81
100
AcDbEntity
  8
LASERCUTFLAT
100
AcDbVertex
100
AcDb2dVertex
 10
-41.49216428836726
 20
32.06883262835279
 30
0.0
  0
VERTEX
  5
136
330
81
100
AcDbEntity
  8
LASERCUTFLAT
100
AcDbVertex
100
AcDb2dVertex
 10
-42.96512710525485
 20
33.41219896740014
 30
0.0
  0
VERTEX
  5
137
330
81
100
AcDbEntity
  8
LASERCUTFLAT
100
AcDbVertex
100
AcDb2dVertex
 10
-44.39931235331574
 20
34.77198676254451
 30
0.0
  0
VERTEX
  5
138
330
81
100
AcDbEntity
  8
LASERCUTFLAT
100
AcDbVertex
100
AcDb2dVertex
 10
-45.79653218841457
 20
36.14545910443641
 30
0.0
  0
VERTEX
  5
139
330
81
100
AcDbEntity
  8
LASERCUTFLAT
100
AcDbVertex
100
AcDb2dVertex
 10
-47.15859876641599
 20
37.5298790837263
 30
0.0
  0
VERTEX
  5
13A
330
81
100
AcDbEntity
  8
LASERCUTFLAT
100
AcDbVertex
100
AcDb2dVertex
 10
-48.48732424318466
 20
38.9225097910647
 30
0.0
  0
VERTEX
  5
13B
330
81
100
AcDbEntity
  8
LASERCUTFLAT
100
AcDbVertex
100
AcDb2dVertex
 10
-49.7845207745852
 20
40.3206143171021
 30
0.0
  0
VERTEX
  5
13C
330
81
100
AcDbEntity
  8
LASERCUTFLAT
100
AcDbVertex
100
AcDb2dVertex
 10
-51.05200051648229
 20
41.72145575248901
 30
0.0
  0
VERTEX
  5
13D
330
81
100
AcDbEntity
  8
LASERCUTFLAT
100
AcDbVertex
100
AcDb2dVertex
 10
-53.50505825522467
 20
44.52040171391332
 30
0.0
  0
VERTEX
  5
13E
330
81
100
AcDbEntity
  8
LASERCUTFLAT
100
AcDbVertex
100
AcDb2dVertex
 10
-55.86099470632895
 20
47.29745240054161
 30
0.0
  0
VERTEX
  5
13F
330
81
100
AcDbEntity
  8
LASERCUTFLAT
100
AcDbVertex
100
AcDb2dVertex
 10
-62.49104880298499
 20
55.2782800636902
 30
0.0
  0
VERTEX
  5
140
330
81
100
AcDbEntity
  8
LASERCUTFLAT
100
AcDbVertex
100
AcDb2dVertex
 10
-64.60347257270865
 20
57.74879690317424
 30
0.0
  0
VERTEX
  5
141
330
81
100
AcDbEntity
  8
LASERCUTFLAT
100
AcDbVertex
100
AcDb2dVertex
 10
-65.6495402347436
 20
58.93615940929997
 30
0.0
  0
VERTEX
  5
142
330
81
100
AcDbEntity
  8
LASERCUTFLAT
100
AcDbVertex
100
AcDb2dVertex
 10
-66.69126128938012
 20
60.08794209388217
 30
0.0
  0
VERTEX
  5
143
330
81
100
AcDbEntity
  8
LASERCUTFLAT
100
AcDbVertex
100
AcDb2dVertex
 10
-67.73044789248289
 20
61.20140804757134
 30
0.0
  0
VERTEX
  5
144
330
81
100
AcDbEntity
  8
LASERCUTFLAT
100
AcDbVertex
100
AcDb2dVertex
 10
-68.76891219991654
 20
62.27382036101798
 30
0.0
  0
VERTEX
  5
145
330
81
100
AcDbEntity
  8
LASERCUTFLAT
100
AcDbVertex
100
AcDb2dVertex
 10
-69.80846636754572
 20
63.30244212487257
 30
0.0
  0
VERTEX
  5
146
330
81
100
AcDbEntity
  8
LASERCUTFLAT
100
AcDbVertex
100
AcDb2dVertex
 10
-70.8509225512351
 20
64.28453642978563
 30
0.0
  0
VERTEX
  5
147
330
81
100
AcDbEntity
  8
LASERCUTFLAT
100
AcDbVertex
100
AcDb2dVertex
 10
-71.8980929068493
 20
65.21736636640767
 30
0.0
  0
VERTEX
  5
148
330
81
100
AcDbEntity
  8
LASERCUTFLAT
100
AcDbVertex
100
AcDb2dVertex
 10
-72.95178959025297
 20
66.09819502538915
 30
0.0
  0
VERTEX
  5
149
330
81
100
AcDbEntity
  8
LASERCUTFLAT
100
AcDbVertex
100
AcDb2dVertex
 10
-73.48165160358357
 20
66.51825359159295
 30
0.0
  0
VERTEX
  5
14A
330
81
100
AcDbEntity
  8
LASERCUTFLAT
100
AcDbVertex
100
AcDb2dVertex
 10
-74.01382475731077
 20
66.92428549738057
 30
0.0
  0
VERTEX
  5
14B
330
81
100
AcDbEntity
  8
LASERCUTFLAT
100
AcDbVertex
100
AcDb2dVertex
 10
-74.54853557091768
 20
67.3159486290833
 30
0.0
  0
VERTEX
  5
14C
330
81
100
AcDbEntity
  8
LASERCUTFLAT
100
AcDbVertex
100
AcDb2dVertex
 10
-75.08601056388736
 20
67.69290087303244
 30
0.0
  0
VERTEX
  5
14D
330
81
100
AcDbEntity
  8
LASERCUTFLAT
100
AcDbVertex
100
AcDb2dVertex
 10
-75.62647625570287
 20
68.05480011555933
 30
0.0
  0
VERTEX
  5
14E
330
81
100
AcDbEntity
  8
LASERCUTFLAT
100
AcDbVertex
100
AcDb2dVertex
 10
-76.17015916584734
 20
68.40130424299528
 30
0.0
  0
VERTEX
  5
14F
330
81
100
AcDbEntity
  8
LASERCUTFLAT
100
AcDbVertex
100
AcDb2dVertex
 10
-76.71728581380381
 20
68.73207114167158
 30
0.0
  0
VERTEX
  5
150
330
81
100
AcDbEntity
  8
LASERCUTFLAT
100
AcDbVertex
100
AcDb2dVertex
 10
-77.2680827190554
 20
69.04675869791957
 30
0.0
  0
VERTEX
  5
151
330
81
100
AcDbEntity
  8
LASERCUTFLAT
100
AcDbVertex
100
AcDb2dVertex
 10
-77.82277640108515
 20
69.34502479807054
 30
0.0
  0
VERTEX
  5
152
330
81
100
AcDbEntity
  8
LASERCUTFLAT
100
AcDbVertex
100
AcDb2dVertex
 10
-78.38159337937617
 20
69.62652732845581
 30
0.0
  0
VERTEX
  5
153
330
81
100
AcDbEntity
  8
LASERCUTFLAT
100
AcDbVertex
100
AcDb2dVertex
 10
-78.94476017341151
 20
69.8909241754067
 30
0.0
  0
VERTEX
  5
154
330
81
100
AcDbEntity
  8
LASERCUTFLAT
100
AcDbVertex
100
AcDb2dVertex
 10
-79.51250330267429
 20
70.13787322525448
 30
0.0
  0
VERTEX
  5
155
330
81
100
AcDbEntity
  8
LASERCUTFLAT
100
AcDbVertex
100
AcDb2dVertex
 10
-80.08504928664757
 20
70.36703236433053
 30
0.0
  0
VERTEX
  5
156
330
81
100
AcDbEntity
  8
LASERCUTFLAT
100
AcDbVertex
100
AcDb2dVertex
 10
-80.66262464481443
 20
70.5780594789661
 30
0.0
  0
VERTEX
  5
157
330
81
100
AcDbEntity
  8
LASERCUTFLAT
100
AcDbVertex
100
AcDb2dVertex
 10
-81.24545589665794
 20
70.77061245549254
 30
0.0
  0
VERTEX
  5
158
330
81
100
AcDbEntity
  8
LASERCUTFLAT
100
AcDbVertex
100
AcDb2dVertex
 10
-81.8337695616612
 20
70.94434918024115
 30
0.0
  0
VERTEX
  5
159
330
81
100
AcDbEntity
  8
LASERCUTFLAT
100
AcDbVertex
100
AcDb2dVertex
 10
-82.42779215930729
 20
71.09892753954324
 30
0.0
  0
VERTEX
  5
15A
330
81
100
AcDbEntity
  8
LASERCUTFLAT
100
AcDbVertex
100
AcDb2dVertex
 10
-83.02775020907927
 20
71.23400541973012
 30
0.0
  0
VERTEX
  5
15B
330
81
100
AcDbEntity
  8
LASERCUTFLAT
100
AcDbVertex
100
AcDb2dVertex
 10
-83.63387023046025
 20
71.34924070713313
 30
0.0
  0
VERTEX
  5
15C
330
81
100
AcDbEntity
  8
LASERCUTFLAT
100
AcDbVertex
100
AcDb2dVertex
 10
-84.24637874293329
 20
71.44429128808355
 30
0.0
  0
VERTEX
  5
15D
330
81
100
AcDbEntity
  8
LASERCUTFLAT
100
AcDbVertex
100
AcDb2dVertex
 10
-84.86550226598149
 20
71.5188150489127
 30
0.0
  0
VERTEX
  5
15E
330
81
100
AcDbEntity
  8
LASERCUTFLAT
100
AcDbVertex
100
AcDb2dVertex
 10
-85.49146731908792
 20
71.5724698759519
 30
0.0
  0
VERTEX
  5
15F
330
81
100
AcDbEntity
  8
LASERCUTFLAT
100
AcDbVertex
100
AcDb2dVertex
 10
-86.12450042173565
 20
71.60491365553244
 30
0.0
  0
VERTEX
  5
160
330
81
100
AcDbEntity
  8
LASERCUTFLAT
100
AcDbVertex
100
AcDb2dVertex
 10
-86.76482809340777
 20
71.61580427398569
 30
0.0
  0
VERTEX
  5
161
330
81
100
AcDbEntity
  8
LASERCUTFLAT
100
AcDbVertex
100
AcDb2dVertex
 10
-86.76482809340777
 20
116.5668872164163
 30
0.0
  0
VERTEX
  5
162
330
81
100
AcDbEntity
  8
LASERCUTFLAT
100
AcDbVertex
100
AcDb2dVertex
 10
-81.51306473492545
 20
116.7269083448557
 30
0.0
  0
VERTEX
  5
163
330
81
100
AcDbEntity
  8
LASERCUTFLAT
100
AcDbVertex
100
AcDb2dVertex
 10
-76.58140811766461
 20
116.812860234433
 30
0.0
  0
VERTEX
  5
164
330
81
100
AcDbEntity
  8
LASERCUTFLAT
100
AcDbVertex
100
AcDb2dVertex
 10
-71.95653938280026
 20
116.8281593996596
 30
0.0
  0
VERTEX
  5
165
330
81
100
AcDbEntity
  8
LASERCUTFLAT
100
AcDbVertex
100
AcDb2dVertex
 10
-67.62513967150736
 20
116.7762223550471
 30
0.0
  0
VERTEX
  5
166
330
81
100
AcDbEntity
  8
LASERCUTFLAT
100
AcDbVertex
100
AcDb2dVertex
 10
-63.57389012496088
 20
116.660465615107
 30
0.0
  0
VERTEX
  5
167
330
81
100
AcDbEntity
  8
LASERCUTFLAT
100
AcDbVertex
100
AcDb2dVertex
 10
-59.7894718843358
 20
116.4843056943508
 30
0.0
  0
VERTEX
  5
168
330
81
100
AcDbEntity
  8
LASERCUTFLAT
100
AcDbVertex
100
AcDb2dVertex
 10
-56.25856609080709
 20
116.25115910729
 30
0.0
  0
VERTEX
  5
169
330
81
100
AcDbEntity
  8
LASERCUTFLAT
100
AcDbVertex
100
AcDb2dVertex
 10
-52.96785388554972
 20
115.9644423684362
 30
0.0
  0
VERTEX
  5
16A
330
81
100
AcDbEntity
  8
LASERCUTFLAT
100
AcDbVertex
100
AcDb2dVertex
 10
-49.90401640973866
 20
115.6275719923009
 30
0.0
  0
VERTEX
  5
16B
330
81
100
AcDbEntity
  8
LASERCUTFLAT
100
AcDbVertex
100
AcDb2dVertex
 10
-47.05373480454887
 20
115.2439644933956
 30
0.0
  0
VERTEX
  5
16C
330
81
100
AcDbEntity
  8
LASERCUTFLAT
100
AcDbVertex
100
AcDb2dVertex
 10
-44.40369021115536
 20
114.8170363862319
 30
0.0
  0
VERTEX
  5
16D
330
81
100
AcDbEntity
  8
LASERCUTFLAT
100
AcDbVertex
100
AcDb2dVertex
 10
-41.94056377073306
 20
114.3502041853212
 30
0.0
  0
VERTEX
  5
16E
330
81
100
AcDbEntity
  8
LASERCUTFLAT
100
AcDbVertex
100
AcDb2dVertex
 10
-39.65103662445698
 20
113.8468844051751
 30
0.0
  0
VERTEX
  5
16F
330
81
100
AcDbEntity
  8
LASERCUTFLAT
100
AcDbVertex
100
AcDb2dVertex
 10
-37.52178991350208
 20
113.3104935603051
 30
0.0
  0
VERTEX
  5
170
330
81
100
AcDbEntity
  8
LASERCUTFLAT
100
AcDbVertex
100
AcDb2dVertex
 10
-35.53950477904331
 20
112.7444481652227
 30
0.0
  0
VERTEX
  5
171
330
81
100
AcDbEntity
  8
LASERCUTFLAT
100
AcDbVertex
100
AcDb2dVertex
 10
-33.69086236225566
 20
112.1521647344395
 30
0.0
  0
VERTEX
  5
172
330
81
100
AcDbEntity
  8
LASERCUTFLAT
100
AcDbVertex
100
AcDb2dVertex
 10
-31.96254380431412
 20
111.537059782467
 30
0.0
  0
VERTEX
  5
173
330
81
100
AcDbEntity
  8
LASERCUTFLAT
100
AcDbVertex
100
AcDb2dVertex
 10
-30.34123024639364
 20
110.9025498238167
 30
0.0
  0
VERTEX
  5
174
330
81
100
AcDbEntity
  8
LASERCUTFLAT
100
AcDbVertex
100
AcDb2dVertex
 10
-28.8136028296692
 20
110.2520513730001
 30
0.0
  0
VERTEX
  5
175
330
81
100
AcDbEntity
  8
LASERCUTFLAT
100
AcDbVertex
100
AcDb2dVertex
 10
-27.36634269531577
 20
109.5889809445288
 30
0.0
  0
VERTEX
  5
176
330
81
100
AcDbEntity
  8
LASERCUTFLAT
100
AcDbVertex
100
AcDb2dVertex
 10
-25.98613098450833
 20
108.9167550529143
 30
0.0
  0
VERTEX
  5
177
330
81
100
AcDbEntity
  8
LASERCUTFLAT
100
AcDbVertex
100
AcDb2dVertex
 10
-24.65964883842183
 20
108.2387902126681
 30
0.0
  0
VERTEX
  5
178
330
81
100
AcDbEntity
  8
LASERCUTFLAT
100
AcDbVertex
100
AcDb2dVertex
 10
-19.62463872478489
 20
105.5378716555967
 30
0.0
  0
VERTEX
  5
179
330
81
100
AcDbEntity
  8
LASERCUTFLAT
100
AcDbVertex
100
AcDb2dVertex
 10
-18.36702151992778
 20
104.8824597898648
 30
0.0
  0
VERTEX
  5
17A
330
81
100
AcDbEntity
  8
LASERCUTFLAT
100
AcDbVertex
100
AcDb2dVertex
 10
-17.08322072684145
 20
104.2418080625705
 30
0.0
  0
VERTEX
  5
17B
330
81
100
AcDbEntity
  8
LASERCUTFLAT
100
AcDbVertex
100
AcDb2dVertex
 10
-15.7599174867009
 20
103.619332988225
 30
0.0
  0
VERTEX
  5
17C
330
81
100
AcDbEntity
  8
LASERCUTFLAT
100
AcDbVertex
100
AcDb2dVertex
 10
-14.38379294068107
 20
103.0184510813401
 30
0.0
  0
VERTEX
  5
17D
330
81
100
AcDbEntity
  8
LASERCUTFLAT
100
AcDbVertex
100
AcDb2dVertex
 10
-12.94152822995696
 20
102.4425788564272
 30
0.0
  0
VERTEX
  5
17E
330
81
100
AcDbEntity
  8
LASERCUTFLAT
100
AcDbVertex
100
AcDb2dVertex
 10
-12.19143116944797
 20
102.1650890354952
 30
0.0
  0
VERTEX
  5
17F
330
81
100
AcDbEntity
  8
LASERCUTFLAT
100
AcDbVertex
100
AcDb2dVertex
 10
-11.41980449570353
 20
101.8951328279979
 30
0.0
  0
VERTEX
  5
180
330
81
100
AcDbEntity
  8
LASERCUTFLAT
100
AcDbVertex
100
AcDb2dVertex
 10
-9.93861754450288
 20
101.4185246765173
 30
0.0
  0
VERTEX
  5
181
330
81
100
AcDbEntity
  8
LASERCUTFLAT
100
AcDbVertex
100
AcDb2dVertex
 10
-8.38390120596916
 20
100.9695692976761
 30
0.0
  0
VERTEX
  5
182
330
81
100
AcDbEntity
  8
LASERCUTFLAT
100
AcDbVertex
100
AcDb2dVertex
 10
-6.760878028013646
 20
100.5488906610127
 30
0.0
  0
VERTEX
  5
183
330
81
100
AcDbEntity
  8
LASERCUTFLAT
100
AcDbVertex
100
AcDb2dVertex
 10
-5.074770558547614
 20
100.1571127360655
 30
0.0
  0
VERTEX
  5
184
330
81
100
AcDbEntity
  8
LASERCUTFLAT
100
AcDbVertex
100
AcDb2dVertex
 10
-3.33080134548234
 20
99.79485949237298
 30
0.0
  0
VERTEX
  5
185
330
81
100
AcDbEntity
  8
LASERCUTFLAT
100
AcDbVertex
100
AcDb2dVertex
 10
-1.534192936729098
 20
99.46275489947344
 30
0.0
  0
VERTEX
  5
186
330
81
100
AcDbEntity
  8
LASERCUTFLAT
100
AcDbVertex
100
AcDb2dVertex
 10
0.3098321198008329
 20
99.16142292690529
 30
0.0
  0
VERTEX
  5
187
330
81
100
AcDbEntity
  8
LASERCUTFLAT
100
AcDbVertex
100
AcDb2dVertex
 10
2.196051276196178
 20
98.89148754420691
 30
0.0
  0
VERTEX
  5
188
330
81
100
AcDbEntity
  8
LASERCUTFLAT
100
AcDbVertex
100
AcDb2dVertex
 10
4.119241984545661
 20
98.65357272091669
 30
0.0
  0
VERTEX
  5
189
330
81
100
AcDbEntity
  8
LASERCUTFLAT
100
AcDbVertex
100
AcDb2dVertex
 10
6.074181696938005
 20
98.44830242657304
 30
0.0
  0
VERTEX
  5
18A
330
81
100
AcDbEntity
  8
LASERCUTFLAT
100
AcDbVertex
100
AcDb2dVertex
 10
8.055647865461935
 20
98.27630063071432
 30
0.0
  0
VERTEX
  5
18B
330
81
100
AcDbEntity
  8
LASERCUTFLAT
100
AcDbVertex
100
AcDb2dVertex
 10
10.05841794220618
 20
98.13819130287894
 30
0.0
  0
VERTEX
  5
18C
330
81
100
AcDbEntity
  8
LASERCUTFLAT
100
AcDbVertex
100
AcDb2dVertex
 10
12.07726937925945
 20
98.03459841260528
 30
0.0
  0
VERTEX
  5
18D
330
81
100
AcDbEntity
  8
LASERCUTFLAT
100
AcDbVertex
100
AcDb2dVertex
 10
14.10697962871048
 20
97.96614592943173
 30
0.0
  0
VERTEX
  5
18E
330
81
100
AcDbEntity
  8
LASERCUTFLAT
100
AcDbVertex
100
AcDb2dVertex
 10
16.14232614264799
 20
97.93345782289668
 30
0.0
  0
VERTEX
  5
18F
330
81
100
AcDbEntity
  8
LASERCUTFLAT
100
AcDbVertex
100
AcDb2dVertex
 10
18.1780863731607
 20
97.93715806253851
 30
0.0
  0
VERTEX
  5
190
330
81
100
AcDbEntity
  8
LASERCUTFLAT
100
AcDbVertex
100
AcDb2dVertex
 10
20.20903777233735
 20
97.97787061789563
 30
0.0
  0
VERTEX
  5
191
330
81
100
AcDbEntity
  8
LASERCUTFLAT
100
AcDbVertex
100
AcDb2dVertex
 10
22.22995779226665
 20
98.0562194585064
 30
0.0
  0
VERTEX
  5
192
330
81
100
AcDbEntity
  8
LASERCUTFLAT
100
AcDbVertex
100
AcDb2dVertex
 10
24.23562388503732
 20
98.17282855390923
 30
0.0
  0
VERTEX
  5
193
330
81
100
AcDbEntity
  8
LASERCUTFLAT
100
AcDbVertex
100
AcDb2dVertex
 10
26.22081350273809
 20
98.32832187364251
 30
0.0
  0
VERTEX
  5
194
330
81
100
AcDbEntity
  8
LASERCUTFLAT
100
AcDbVertex
100
AcDb2dVertex
 10
28.18030409745769
 20
98.52332338724462
 30
0.0
  0
VERTEX
  5
195
330
81
100
AcDbEntity
  8
LASERCUTFLAT
100
AcDbVertex
100
AcDb2dVertex
 10
30.10887312128483
 20
98.75845706425395
 30
0.0
  0
VERTEX
  5
196
330
81
100
AcDbEntity
  8
LASERCUTFLAT
100
AcDbVertex
100
AcDb2dVertex
 10
32.00129802630825
 20
99.03434687420886
 30
0.0
  0
VERTEX
  5
197
330
81
100
AcDbEntity
  8
LASERCUTFLAT
100
AcDbVertex
100
AcDb2dVertex
 10
33.85235626461666
 20
99.35161678664782
 30
0.0
  0
VERTEX
  5
198
330
81
100
AcDbEntity
  8
LASERCUTFLAT
100
AcDbVertex
100
AcDb2dVertex
 10
35.65682528829879
 20
99.71089077110915
 30
0.0
  0
VERTEX
  5
199
330
81
100
AcDbEntity
  8
LASERCUTFLAT
100
AcDbVertex
100
AcDb2dVertex
 10
37.40948254944337
 20
100.1127927971312
 30
0.0
  0
VERTEX
  5
19A
330
81
100
AcDbEntity
  8
LASERCUTFLAT
100
AcDbVertex
100
AcDb2dVertex
 10
39.10510550013912
 20
100.5579468342525
 30
0.0
  0
VERTEX
  5
19B
330
81
100
AcDbEntity
  8
LASERCUTFLAT
100
AcDbVertex
100
AcDb2dVertex
 10
39.92989706284639
 20
100.7969383474561
 30
0.0
  0
VERTEX
  5
19C
330
81
100
AcDbEntity
  8
LASERCUTFLAT
100
AcDbVertex
100
AcDb2dVertex
 10
40.73847159247474
 20
101.0469768520113
 30
0.0
  0
VERTEX
  5
19D
330
81
100
AcDbEntity
  8
LASERCUTFLAT
100
AcDbVertex
100
AcDb2dVertex
 10
41.53017627053524
 20
101.3081403441106
 30
0.0
  0
VERTEX
  5
19E
330
81
100
AcDbEntity
  8
LASERCUTFLAT
100
AcDbVertex
100
AcDb2dVertex
 10
42.304358278539
 20
101.5805068199461
 30
0.0
  0
VERTEX
  5
19F
330
81
100
AcDbEntity
  8
LASERCUTFLAT
100
AcDbVertex
100
AcDb2dVertex
 10
43.06036479799708
 20
101.8641542757102
 30
0.0
  0
VERTEX
  5
1A0
330
81
100
AcDbEntity
  8
LASERCUTFLAT
100
AcDbVertex
100
AcDb2dVertex
 10
43.79754301042058
 20
102.1591607075952
 30
0.0
  0
VERTEX
  5
1A1
330
81
100
AcDbEntity
  8
LASERCUTFLAT
100
AcDbVertex
100
AcDb2dVertex
 10
44.5152400973206
 20
102.4656041117934
 30
0.0
  0
VERTEX
  5
1A2
330
81
100
AcDbEntity
  8
LASERCUTFLAT
100
AcDbVertex
100
AcDb2dVertex
 10
45.21280324020823
 20
102.783562484497
 30
0.0
  0
VERTEX
  5
1A3
330
81
100
AcDbEntity
  8
LASERCUTFLAT
100
AcDbVertex
100
AcDb2dVertex
 10
45.88957962059456
 20
103.1131138218985
 30
0.0
  0
VERTEX
  5
1A4
330
81
100
AcDbEntity
  8
LASERCUTFLAT
100
AcDbVertex
100
AcDb2dVertex
 10
46.54491641999066
 20
103.45433612019
 30
0.0
  0
VERTEX
  5
1A5
330
81
100
AcDbEntity
  8
LASERCUTFLAT
100
AcDbVertex
100
AcDb2dVertex
 10
47.32598019978731
 20
103.8918178316121
 30
0.0
  0
VERTEX
  5
1A6
330
81
100
AcDbEntity
  8
LASERCUTFLAT
100
AcDbVertex
100
AcDb2dVertex
 10
48.08403000658087
 20
104.3454402876522
 30
0.0
  0
VERTEX
  5
1A7
330
81
100
AcDbEntity
  8
LASERCUTFLAT
100
AcDbVertex
100
AcDb2dVertex
 10
51.90384567130745
 20
106.7929130203887
 30
0.0
  0
VERTEX
  5
1A8
330
81
100
AcDbEntity
  8
LASERCUTFLAT
100
AcDbVertex
100
AcDb2dVertex
 10
52.74867737556549
 20
107.3057295140968
 30
0.0
  0
VERTEX
  5
1A9
330
81
100
AcDbEntity
  8
LASERCUTFLAT
100
AcDbVertex
100
AcDb2dVertex
 10
53.64545035198144
 20
107.8221366090764
 30
0.0
  0
VERTEX
  5
1AA
330
81
100
AcDbEntity
  8
LASERCUTFLAT
100
AcDbVertex
100
AcDb2dVertex
 10
54.60487249272114
 20
108.3403414277065
 30
0.0
  0
VERTEX
  5
1AB
330
81
100
AcDbEntity
  8
LASERCUTFLAT
100
AcDbVertex
100
AcDb2dVertex
 10
55.63765168995045
 20
108.8585510923662
 30
0.0
  0
VERTEX
  5
1AC
330
81
100
AcDbEntity
  8
LASERCUTFLAT
100
AcDbVertex
100
AcDb2dVertex
 10
56.75449583583521
 20
109.3749727254346
 30
0.0
  0
VERTEX
  5
1AD
330
81
100
AcDbEntity
  8
LASERCUTFLAT
100
AcDbVertex
100
AcDb2dVertex
 10
57.96611282254131
 20
109.8878134492908
 30
0.0
  0
VERTEX
  5
1AE
330
81
100
AcDbEntity
  8
LASERCUTFLAT
100
AcDbVertex
100
AcDb2dVertex
 10
59.28321054223456
 20
110.3952803863139
 30
0.0
  0
VERTEX
  5
1AF
330
81
100
AcDbEntity
  8
LASERCUTFLAT
100
AcDbVertex
100
AcDb2dVertex
 10
60.71649688708083
 20
110.8955806588829
 30
0.0
  0
VERTEX
  5
1B0
330
81
100
AcDbEntity
  8
LASERCUTFLAT
100
AcDbVertex
100
AcDb2dVertex
 10
62.27667974924598
 20
111.386921389377
 30
0.0
  0
VERTEX
  5
1B1
330
81
100
AcDbEntity
  8
LASERCUTFLAT
100
AcDbVertex
100
AcDb2dVertex
 10
63.97446702089586
 20
111.8675097001751
 30
0.0
  0
VERTEX
  5
1B2
330
81
100
AcDbEntity
  8
LASERCUTFLAT
100
AcDbVertex
100
AcDb2dVertex
 10
65.82056659419632
 20
112.3355527136565
 30
0.0
  0
VERTEX
  5
1B3
330
81
100
AcDbEntity
  8
LASERCUTFLAT
100
AcDbVertex
100
AcDb2dVertex
 10
67.82568636131323
 20
112.7892575522001
 30
0.0
  0
VERTEX
  5
1B4
330
81
100
AcDbEntity
  8
LASERCUTFLAT
100
AcDbVertex
100
AcDb2dVertex
 10
70.00053421441243
 20
113.2268313381851
 30
0.0
  0
VERTEX
  5
1B5
330
81
100
AcDbEntity
  8
LASERCUTFLAT
100
AcDbVertex
100
AcDb2dVertex
 10
72.35581804565976
 20
113.6464811939905
 30
0.0
  0
VERTEX
  5
1B6
330
81
100
AcDbEntity
  8
LASERCUTFLAT
100
AcDbVertex
100
AcDb2dVertex
 10
74.9022457472211
 20
114.0464142419954
 30
0.0
  0
VERTEX
  5
1B7
330
81
100
AcDbEntity
  8
LASERCUTFLAT
100
AcDbVertex
100
AcDb2dVertex
 10
77.6505252112623
 20
114.424837604579
 30
0.0
  0
VERTEX
  5
1B8
330
81
100
AcDbEntity
  8
LASERCUTFLAT
100
AcDbVertex
100
AcDb2dVertex
 10
80.6113643299492
 20
114.7799584041202
 30
0.0
  0
VERTEX
  5
1B9
330
81
100
AcDbEntity
  8
LASERCUTFLAT
100
AcDbVertex
100
AcDb2dVertex
 10
83.79547099544766
 20
115.1099837629982
 30
0.0
  0
VERTEX
  5
1BA
330
81
100
AcDbEntity
  8
LASERCUTFLAT
100
AcDbVertex
100
AcDb2dVertex
 10
87.21355309992353
 20
115.413120803592
 30
0.0
  0
VERTEX
  5
1BB
330
81
100
AcDbEntity
  8
LASERCUTFLAT
100
AcDbVertex
100
AcDb2dVertex
 10
90.87631853554267
 20
115.6875766482808
 30
0.0
  0
VERTEX
  5
1BC
330
81
100
AcDbEntity
  8
LASERCUTFLAT
100
AcDbVertex
100
AcDb2dVertex
 10
94.79447519447092
 20
115.9315584194435
 30
0.0
  0
VERTEX
  5
1BD
330
81
100
AcDbEntity
  8
LASERCUTFLAT
100
AcDbVertex
100
AcDb2dVertex
 10
98.97873096887415
 20
116.1432732394594
 30
0.0
  0
VERTEX
  5
1BE
330
81
100
AcDbEntity
  8
LASERCUTFLAT
100
AcDbVertex
100
AcDb2dVertex
 10
103.4397937509182
 20
116.3209282307074
 30
0.0
  0
VERTEX
  5
1BF
330
81
100
AcDbEntity
  8
LASERCUTFLAT
100
AcDbVertex
100
AcDb2dVertex
 10
108.1883714327689
 20
116.4627305155667
 30
0.0
  0
VERTEX
  5
1C0
330
81
100
AcDbEntity
  8
LASERCUTFLAT
100
AcDbVertex
100
AcDb2dVertex
 10
113.2351719065922
 20
116.5668872164163
 30
0.0
  0
VERTEX
  5
1C1
330
81
100
AcDbEntity
  8
LASERCUTFLAT
100
AcDbVertex
100
AcDb2dVertex
 10
113.2351719065922
 20
71.61580427398569
 30
0.0
  0
SEQEND
  5
1C2
330
81
100
AcDbEntity
  8
LASERCUTFLAT
  0
CIRCLE
  5
1C3
330
1F
100
AcDbEntity
  8
LASERCUTFLAT
100
AcDbCircle
 10
-34.00507041015977
 20
-40.80536417962698
 30
0.0
 40
1.749999999999993
  0
CIRCLE
  5
1C4
330
1F
100
AcDbEntity
  8
LASERCUTFLAT
100
AcDbCircle
 10
-34.00507041015975
 20
-70.75644712205757
 30
0.0
 40
1.750000000000007
  0
CIRCLE
  5
1C5
330
1F
100
AcDbEntity
  8
LASERCUTFLAT
100
AcDbCircle
 10
-57.47023621562457
 20
-55.75661241102218
 30
0.0
 40
1.750000000000013
  0
POLYLINE
  5
1C6
330
1F
100
AcDbEntity
  8
LASERCUTFLAT
100
AcDb2dPolyline
 66
     1
 10
0.0
 20
0.0
 30
0.0
  0
VERTEX
  5
1C7
330
1C6
100
AcDbEntity
  8
LASERCUTFLAT
100
AcDbVertex
100
AcDb2dVertex
 10
3.980544063552429
 20
-77.36734762481525
 30
0.0
  0
VERTEX
  5
1C8
330
1C6
100
AcDbEntity
  8
LASERCUTFLAT
100
AcDbVertex
100
AcDb2dVertex
 10
9.740958413361273
 20
-77.32856337319691
 30
0.0
  0
VERTEX
  5
1C9
330
1C6
100
AcDbEntity
  8
LASERCUTFLAT
100
AcDbVertex
100
AcDb2dVertex
 10
15.16016558636277
 20
-77.32970306150834
 30
0.0
  0
VERTEX
  5
1CA
330
1C6
100
AcDbEntity
  8
LASERCUTFLAT
100
AcDbVertex
100
AcDb2dVertex
 10
20.25041792972252
 20
-77.37128849244256
 30
0.0
  0
VERTEX
  5
1CB
330
1C6
100
AcDbEntity
  8
LASERCUTFLAT
100
AcDbVertex
100
AcDb2dVertex
 10
25.02396779060613
 20
-77.4538414686926
 30
0.0
  0
VERTEX
  5
1CC
330
1C6
100
AcDbEntity
  8
LASERCUTFLAT
100
AcDbVertex
100
AcDb2dVertex
 10
29.4930675161792
 20
-77.5778837929515
 30
0.0
  0
VERTEX
  5
1CD
330
1C6
100
AcDbEntity
  8
LASERCUTFLAT
100
AcDbVertex
100
AcDb2dVertex
 10
33.66996945360734
 20
-77.74393726791232
 30
0.0
  0
VERTEX
  5
1CE
330
1C6
100
AcDbEntity
  8
LASERCUTFLAT
100
AcDbVertex
100
AcDb2dVertex
 10
37.56692595005614
 20
-77.95252369626806
 30
0.0
  0
VERTEX
  5
1CF
330
1C6
100
AcDbEntity
  8
LASERCUTFLAT
100
AcDbVertex
100
AcDb2dVertex
 10
41.19618935269122
 20
-78.2041648807118
 30
0.0
  0
VERTEX
  5
1D0
330
1C6
100
AcDbEntity
  8
LASERCUTFLAT
100
AcDbVertex
100
AcDb2dVertex
 10
44.57001200867818
 20
-78.49938262393655
 30
0.0
  0
VERTEX
  5
1D1
330
1C6
100
AcDbEntity
  8
LASERCUTFLAT
100
AcDbVertex
100
AcDb2dVertex
 10
47.70064626518262
 20
-78.83869872863536
 30
0.0
  0
VERTEX
  5
1D2
330
1C6
100
AcDbEntity
  8
LASERCUTFLAT
100
AcDbVertex
100
AcDb2dVertex
 10
50.60034446937014
 20
-79.22263499750129
 30
0.0
  0
VERTEX
  5
1D3
330
1C6
100
AcDbEntity
  8
LASERCUTFLAT
100
AcDbVertex
100
AcDb2dVertex
 10
53.28135896840635
 20
-79.65171323322735
 30
0.0
  0
VERTEX
  5
1D4
330
1C6
100
AcDbEntity
  8
LASERCUTFLAT
100
AcDbVertex
100
AcDb2dVertex
 10
54.54368868698197
 20
-79.8833436520045
 30
0.0
  0
VERTEX
  5
1D5
330
1C6
100
AcDbEntity
  8
LASERCUTFLAT
100
AcDbVertex
100
AcDb2dVertex
 10
55.75594210945685
 20
-80.1264552385066
 30
0.0
  0
VERTEX
  5
1D6
330
1C6
100
AcDbEntity
  8
LASERCUTFLAT
100
AcDbVertex
100
AcDb2dVertex
 10
56.91965077922671
 20
-80.38111321807023
 30
0.0
  0
VERTEX
  5
1D7
330
1C6
100
AcDbEntity
  8
LASERCUTFLAT
100
AcDbVertex
100
AcDb2dVertex
 10
58.03634623968725
 20
-80.64738281603206
 30
0.0
  0
VERTEX
  5
1D8
330
1C6
100
AcDbEntity
  8
LASERCUTFLAT
100
AcDbVertex
100
AcDb2dVertex
 10
59.10756003423417
 20
-80.92532925772869
 30
0.0
  0
VERTEX
  5
1D9
330
1C6
100
AcDbEntity
  8
LASERCUTFLAT
100
AcDbVertex
100
AcDb2dVertex
 10
60.13482370626316
 20
-81.21501776849678
 30
0.0
  0
VERTEX
  5
1DA
330
1C6
100
AcDbEntity
  8
LASERCUTFLAT
100
AcDbVertex
100
AcDb2dVertex
 10
61.11966879916993
 20
-81.51651357367292
 30
0.0
  0
VERTEX
  5
1DB
330
1C6
100
AcDbEntity
  8
LASERCUTFLAT
100
AcDbVertex
100
AcDb2dVertex
 10
62.06362685635016
 20
-81.82988189859377
 30
0.0
  0
VERTEX
  5
1DC
330
1C6
100
AcDbEntity
  8
LASERCUTFLAT
100
AcDbVertex
100
AcDb2dVertex
 10
62.96822942119958
 20
-82.15518796859595
 30
0.0
  0
VERTEX
  5
1DD
330
1C6
100
AcDbEntity
  8
LASERCUTFLAT
100
AcDbVertex
100
AcDb2dVertex
 10
63.83500803711387
 20
-82.4924970090161
 30
0.0
  0
VERTEX
  5
1DE
330
1C6
100
AcDbEntity
  8
LASERCUTFLAT
100
AcDbVertex
100
AcDb2dVertex
 10
64.66549424748874
 20
-82.84187424519085
 30
0.0
  0
VERTEX
  5
1DF
330
1C6
100
AcDbEntity
  8
LASERCUTFLAT
100
AcDbVertex
100
AcDb2dVertex
 10
65.4612195957199
 20
-83.20338490245682
 30
0.0
  0
VERTEX
  5
1E0
330
1C6
100
AcDbEntity
  8
LASERCUTFLAT
100
AcDbVertex
100
AcDb2dVertex
 10
66.22371562520303
 20
-83.57709420615063
 30
0.0
  0
VERTEX
  5
1E1
330
1C6
100
AcDbEntity
  8
LASERCUTFLAT
100
AcDbVertex
100
AcDb2dVertex
 10
66.95451387933383
 20
-83.96306738160894
 30
0.0
  0
VERTEX
  5
1E2
330
1C6
100
AcDbEntity
  8
LASERCUTFLAT
100
AcDbVertex
100
AcDb2dVertex
 10
67.65514590150802
 20
-84.36136965416836
 30
0.0
  0
VERTEX
  5
1E3
330
1C6
100
AcDbEntity
  8
LASERCUTFLAT
100
AcDbVertex
100
AcDb2dVertex
 10
68.3271432351213
 20
-84.77206624916552
 30
0.0
  0
VERTEX
  5
1E4
330
1C6
100
AcDbEntity
  8
LASERCUTFLAT
100
AcDbVertex
100
AcDb2dVertex
 10
68.97203742356936
 20
-85.19522239193705
 30
0.0
  0
VERTEX
  5
1E5
330
1C6
100
AcDbEntity
  8
LASERCUTFLAT
100
AcDbVertex
100
AcDb2dVertex
 10
69.59136001024788
 20
-85.63090330781958
 30
0.0
  0
VERTEX
  5
1E6
330
1C6
100
AcDbEntity
  8
LASERCUTFLAT
100
AcDbVertex
100
AcDb2dVertex
 10
70.18664253855259
 20
-86.07917422214973
 30
0.0
  0
VERTEX
  5
1E7
330
1C6
100
AcDbEntity
  8
LASERCUTFLAT
100
AcDbVertex
100
AcDb2dVertex
 10
70.75941655187918
 20
-86.54010036026418
 30
0.0
  0
VERTEX
  5
1E8
330
1C6
100
AcDbEntity
  8
LASERCUTFLAT
100
AcDbVertex
100
AcDb2dVertex
 10
71.31121359362336
 20
-87.0137469474995
 30
0.0
  0
VERTEX
  5
1E9
330
1C6
100
AcDbEntity
  8
LASERCUTFLAT
100
AcDbVertex
100
AcDb2dVertex
 10
71.84356520718083
 20
-87.50017920919234
 30
0.0
  0
VERTEX
  5
1EA
330
1C6
100
AcDbEntity
  8
LASERCUTFLAT
100
AcDbVertex
100
AcDb2dVertex
 10
72.35800293594727
 20
-87.99946237067934
 30
0.0
  0
VERTEX
  5
1EB
330
1C6
100
AcDbEntity
  8
LASERCUTFLAT
100
AcDbVertex
100
AcDb2dVertex
 10
72.85605832331841
 20
-88.51166165729713
 30
0.0
  0
VERTEX
  5
1EC
330
1C6
100
AcDbEntity
  8
LASERCUTFLAT
100
AcDbVertex
100
AcDb2dVertex
 10
73.33926291268992
 20
-89.03684229438232
 30
0.0
  0
VERTEX
  5
1ED
330
1C6
100
AcDbEntity
  8
LASERCUTFLAT
100
AcDbVertex
100
AcDb2dVertex
 10
73.80914824745753
 20
-89.57506950727154
 30
0.0
  0
VERTEX
  5
1EE
330
1C6
100
AcDbEntity
  8
LASERCUTFLAT
100
AcDbVertex
100
AcDb2dVertex
 10
74.26724587101691
 20
-90.12640852130144
 30
0.0
  0
VERTEX
  5
1EF
330
1C6
100
AcDbEntity
  8
LASERCUTFLAT
100
AcDbVertex
100
AcDb2dVertex
 10
74.71508732676378
 20
-90.69092456180864
 30
0.0
  0
VERTEX
  5
1F0
330
1C6
100
AcDbEntity
  8
LASERCUTFLAT
100
AcDbVertex
100
AcDb2dVertex
 10
75.15420415809385
 20
-91.26868285412978
 30
0.0
  0
VERTEX
  5
1F1
330
1C6
100
AcDbEntity
  8
LASERCUTFLAT
100
AcDbVertex
100
AcDb2dVertex
 10
75.58612790840279
 20
-91.85974862360146
 30
0.0
  0
VERTEX
  5
1F2
330
1C6
100
AcDbEntity
  8
LASERCUTFLAT
100
AcDbVertex
100
AcDb2dVertex
 10
76.43452233954014
 20
-93.08206349534305
 30
0.0
  0
VERTEX
  5
1F3
330
1C6
100
AcDbEntity
  8
LASERCUTFLAT
100
AcDbVertex
100
AcDb2dVertex
 10
77.27252296734144
 20
-94.35839097972644
 30
0.0
  0
VERTEX
  5
1F4
330
1C6
100
AcDbEntity
  8
LASERCUTFLAT
100
AcDbVertex
100
AcDb2dVertex
 10
78.1123821389723
 20
-95.68925287944467
 30
0.0
  0
VERTEX
  5
1F5
330
1C6
100
AcDbEntity
  8
LASERCUTFLAT
100
AcDbVertex
100
AcDb2dVertex
 10
79.84668550238513
 20
-98.51666713565781
 30
0.0
  0
SEQEND
  5
1F6
330
1C6
100
AcDbEntity
  8
LASERCUTFLAT
  0
LINE
  5
1F7
330
1F
100
AcDbEntity
  8
LASERCUTFLAT
100
AcDbLine
 10
79.84668550238513
 20
-98.51666713565781
 30
0.0
 11
93.84564310150472
 21
-98.51666713565801
 31
0.0
  0
POLYLINE
  5
1F8
330
1F
100
AcDbEntity
  8
LASERCUTFLAT
100
AcDb2dPolyline
 66
     1
 10
0.0
 20
0.0
 30
0.0
  0
VERTEX
  5
1F9
330
1F8
100
AcDbEntity
  8
LASERCUTFLAT
100
AcDbVertex
100
AcDb2dVertex
 10
93.84564310150472
 20
-98.51666713565801
 30
0.0
  0
VERTEX
  5
1FA
330
1F8
100
AcDbEntity
  8
LASERCUTFLAT
100
AcDbVertex
100
AcDb2dVertex
 10
92.21850400844349
 20
-94.11043827804077
 30
0.0
  0
VERTEX
  5
1FB
330
1F8
100
AcDbEntity
  8
LASERCUTFLAT
100
AcDbVertex
100
AcDb2dVertex
 10
91.40916960074387
 20
-92.00374547443523
 30
0.0
  0
VERTEX
  5
1FC
330
1F8
100
AcDbEntity
  8
LASERCUTFLAT
100
AcDbVertex
100
AcDb2dVertex
 10
90.60237147496511
 20
-89.95994242723182
 30
0.0
  0
VERTEX
  5
1FD
330
1F8
100
AcDbEntity
  8
LASERCUTFLAT
100
AcDbVertex
100
AcDb2dVertex
 10
89.79789427313241
 20
-87.97798564113059
 30
0.0
  0
VERTEX
  5
1FE
330
1F8
100
AcDbEntity
  8
LASERCUTFLAT
100
AcDbVertex
100
AcDb2dVertex
 10
88.99552263727097
 20
-86.05683162083159
 30
0.0
  0
VERTEX
  5
1FF
330
1F8
100
AcDbEntity
  8
LASERCUTFLAT
100
AcDbVertex
100
AcDb2dVertex
 10
88.19504120940593
 20
-84.19543687103489
 30
0.0
  0
VERTEX
  5
200
330
1F8
100
AcDbEntity
  8
LASERCUTFLAT
100
AcDbVertex
100
AcDb2dVertex
 10
87.39623463156249
 20
-82.39275789644053
 30
0.0
  0
VERTEX
  5
201
330
1F8
100
AcDbEntity
  8
LASERCUTFLAT
100
AcDbVertex
100
AcDb2dVertex
 10
86.59888754576582
 20
-80.64775120174858
 30
0.0
  0
VERTEX
  5
202
330
1F8
100
AcDbEntity
  8
LASERCUTFLAT
100
AcDbVertex
100
AcDb2dVertex
 10
85.8027845940411
 20
-78.95937329165903
 30
0.0
  0
VERTEX
  5
203
330
1F8
100
AcDbEntity
  8
LASERCUTFLAT
100
AcDbVertex
100
AcDb2dVertex
 10
85.00771041841348
 20
-77.32658067087203
 30
0.0
  0
VERTEX
  5
204
330
1F8
100
AcDbEntity
  8
LASERCUTFLAT
100
AcDbVertex
100
AcDb2dVertex
 10
84.21344966090818
 20
-75.74832984408755
 30
0.0
  0
VERTEX
  5
205
330
1F8
100
AcDbEntity
  8
LASERCUTFLAT
100
AcDbVertex
100
AcDb2dVertex
 10
83.41978696355035
 20
-74.22357731600569
 30
0.0
  0
VERTEX
  5
206
330
1F8
100
AcDbEntity
  8
LASERCUTFLAT
100
AcDbVertex
100
AcDb2dVertex
 10
82.62650696836515
 20
-72.7512795913265
 30
0.0
  0
VERTEX
  5
207
330
1F8
100
AcDbEntity
  8
LASERCUTFLAT
100
AcDbVertex
100
AcDb2dVertex
 10
81.83339431737778
 20
-71.33039317475001
 30
0.0
  0
VERTEX
  5
208
330
1F8
100
AcDbEntity
  8
LASERCUTFLAT
100
AcDbVertex
100
AcDb2dVertex
 10
81.04023365261341
 20
-69.9598745709763
 30
0.0
  0
VERTEX
  5
209
330
1F8
100
AcDbEntity
  8
LASERCUTFLAT
100
AcDbVertex
100
AcDb2dVertex
 10
80.24680961609722
 20
-68.6386802847054
 30
0.0
  0
VERTEX
  5
20A
330
1F8
100
AcDbEntity
  8
LASERCUTFLAT
100
AcDbVertex
100
AcDb2dVertex
 10
79.45290684985439
 20
-67.36576682063739
 30
0.0
  0
VERTEX
  5
20B
330
1F8
100
AcDbEntity
  8
LASERCUTFLAT
100
AcDbVertex
100
AcDb2dVertex
 10
78.65830999591009
 20
-66.1400906834723
 30
0.0
  0
VERTEX
  5
20C
330
1F8
100
AcDbEntity
  8
LASERCUTFLAT
100
AcDbVertex
100
AcDb2dVertex
 10
77.86280369628949
 20
-64.96060837791018
 30
0.0
  0
VERTEX
  5
20D
330
1F8
100
AcDbEntity
  8
LASERCUTFLAT
100
AcDbVertex
100
AcDb2dVertex
 10
77.06617259301778
 20
-63.8262764086511
 30
0.0
  0
VERTEX
  5
20E
330
1F8
100
AcDbEntity
  8
LASERCUTFLAT
100
AcDbVertex
100
AcDb2dVertex
 10
76.26820132812013
 20
-62.73605128039512
 30
0.0
  0
VERTEX
  5
20F
330
1F8
100
AcDbEntity
  8
LASERCUTFLAT
100
AcDbVertex
100
AcDb2dVertex
 10
75.46867454362172
 20
-61.68888949784227
 30
0.0
  0
VERTEX
  5
210
330
1F8
100
AcDbEntity
  8
LASERCUTFLAT
100
AcDbVertex
100
AcDb2dVertex
 10
74.66737688154771
 20
-60.68374756569263
 30
0.0
  0
VERTEX
  5
211
330
1F8
100
AcDbEntity
  8
LASERCUTFLAT
100
AcDbVertex
100
AcDb2dVertex
 10
73.8640929839233
 20
-59.71958198864623
 30
0.0
  0
VERTEX
  5
212
330
1F8
100
AcDbEntity
  8
LASERCUTFLAT
100
AcDbVertex
100
AcDb2dVertex
 10
73.05860749277365
 20
-58.79534927140313
 30
0.0
  0
VERTEX
  5
213
330
1F8
100
AcDbEntity
  8
LASERCUTFLAT
100
AcDbVertex
100
AcDb2dVertex
 10
72.25070505012394
 20
-57.91000591866338
 30
0.0
  0
VERTEX
  5
214
330
1F8
100
AcDbEntity
  8
LASERCUTFLAT
100
AcDbVertex
100
AcDb2dVertex
 10
71.44017029799934
 20
-57.06250843512704
 30
0.0
  0
VERTEX
  5
215
330
1F8
100
AcDbEntity
  8
LASERCUTFLAT
100
AcDbVertex
100
AcDb2dVertex
 10
70.62678787842505
 20
-56.25181332549415
 30
0.0
  0
VERTEX
  5
216
330
1F8
100
AcDbEntity
  8
LASERCUTFLAT
100
AcDbVertex
100
AcDb2dVertex
 10
69.81034243342621
 20
-55.4768770944648
 30
0.0
  0
VERTEX
  5
217
330
1F8
100
AcDbEntity
  8
LASERCUTFLAT
100
AcDbVertex
100
AcDb2dVertex
 10
68.99061860502803
 20
-54.736656246739
 30
0.0
  0
VERTEX
  5
218
330
1F8
100
AcDbEntity
  8
LASERCUTFLAT
100
AcDbVertex
100
AcDb2dVertex
 10
68.16740103525565
 20
-54.03010728701682
 30
0.0
  0
VERTEX
  5
219
330
1F8
100
AcDbEntity
  8
LASERCUTFLAT
100
AcDbVertex
100
AcDb2dVertex
 10
67.34047436613427
 20
-53.35618671999832
 30
0.0
  0
VERTEX
  5
21A
330
1F8
100
AcDbEntity
  8
LASERCUTFLAT
100
AcDbVertex
100
AcDb2dVertex
 10
66.50962323968908
 20
-52.71385105038355
 30
0.0
  0
VERTEX
  5
21B
330
1F8
100
AcDbEntity
  8
LASERCUTFLAT
100
AcDbVertex
100
AcDb2dVertex
 10
65.67463229794524
 20
-52.10205678287256
 30
0.0
  0
VERTEX
  5
21C
330
1F8
100
AcDbEntity
  8
LASERCUTFLAT
100
AcDbVertex
100
AcDb2dVertex
 10
64.83528618292792
 20
-51.5197604221654
 30
0.0
  0
VERTEX
  5
21D
330
1F8
100
AcDbEntity
  8
LASERCUTFLAT
100
AcDbVertex
100
AcDb2dVertex
 10
63.9913695366623
 20
-50.96591847296213
 30
0.0
  0
VERTEX
  5
21E
330
1F8
100
AcDbEntity
  8
LASERCUTFLAT
100
AcDbVertex
100
AcDb2dVertex
 10
63.14266700117356
 20
-50.4394874399628
 30
0.0
  0
VERTEX
  5
21F
330
1F8
100
AcDbEntity
  8
LASERCUTFLAT
100
AcDbVertex
100
AcDb2dVertex
 10
62.28896321848688
 20
-49.93942382786747
 30
0.0
  0
VERTEX
  5
220
330
1F8
100
AcDbEntity
  8
LASERCUTFLAT
100
AcDbVertex
100
AcDb2dVertex
 10
61.43004283062743
 20
-49.46468414137618
 30
0.0
  0
VERTEX
  5
221
330
1F8
100
AcDbEntity
  8
LASERCUTFLAT
100
AcDbVertex
100
AcDb2dVertex
 10
60.56569047962039
 20
-49.014224885189
 30
0.0
  0
VERTEX
  5
222
330
1F8
100
AcDbEntity
  8
LASERCUTFLAT
100
AcDbVertex
100
AcDb2dVertex
 10
59.69569080749092
 20
-48.58700256400597
 30
0.0
  0
VERTEX
  5
223
330
1F8
100
AcDbEntity
  8
LASERCUTFLAT
100
AcDbVertex
100
AcDb2dVertex
 10
58.81982845626422
 20
-48.18197368252715
 30
0.0
  0
VERTEX
  5
224
330
1F8
100
AcDbEntity
  8
LASERCUTFLAT
100
AcDbVertex
100
AcDb2dVertex
 10
57.93788806796546
 20
-47.79809474545259
 30
0.0
  0
VERTEX
  5
225
330
1F8
100
AcDbEntity
  8
LASERCUTFLAT
100
AcDbVertex
100
AcDb2dVertex
 10
57.04965428461981
 20
-47.43432225748234
 30
0.0
  0
VERTEX
  5
226
330
1F8
100
AcDbEntity
  8
LASERCUTFLAT
100
AcDbVertex
100
AcDb2dVertex
 10
56.15491174825245
 20
-47.08961272331646
 30
0.0
  0
VERTEX
  5
227
330
1F8
100
AcDbEntity
  8
LASERCUTFLAT
100
AcDbVertex
100
AcDb2dVertex
 10
55.25344510088856
 20
-46.762922647655
 30
0.0
  0
VERTEX
  5
228
330
1F8
100
AcDbEntity
  8
LASERCUTFLAT
100
AcDbVertex
100
AcDb2dVertex
 10
54.34503898455331
 20
-46.45320853519803
 30
0.0
  0
VERTEX
  5
229
330
1F8
100
AcDbEntity
  8
LASERCUTFLAT
100
AcDbVertex
100
AcDb2dVertex
 10
52.50654691306943
 20
-45.8805342186977
 30
0.0
  0
VERTEX
  5
22A
330
1F8
100
AcDbEntity
  8
LASERCUTFLAT
100
AcDbVertex
100
AcDb2dVertex
 10
50.63771267000223
 20
-45.36324181141592
 30
0.0
  0
VERTEX
  5
22B
330
1F8
100
AcDbEntity
  8
LASERCUTFLAT
100
AcDbVertex
100
AcDb2dVertex
 10
48.73681339155312
 20
-44.8929833509531
 30
0.0
  0
VERTEX
  5
22C
330
1F8
100
AcDbEntity
  8
LASERCUTFLAT
100
AcDbVertex
100
AcDb2dVertex
 10
46.80212621392351
 20
-44.46141087490967
 30
0.0
  0
VERTEX
  5
22D
330
1F8
100
AcDbEntity
  8
LASERCUTFLAT
100
AcDbVertex
100
AcDb2dVertex
 10
44.83192827331482
 20
-44.06017642088607
 30
0.0
  0
VERTEX
  5
22E
330
1F8
100
AcDbEntity
  8
LASERCUTFLAT
100
AcDbVertex
100
AcDb2dVertex
 10
42.82449670592845
 20
-43.68093202648269
 30
0.0
  0
VERTEX
  5
22F
330
1F8
100
AcDbEntity
  8
LASERCUTFLAT
100
AcDbVertex
100
AcDb2dVertex
 10
38.69104123562829
 20
-42.9550215669384
 30
0.0
  0
VERTEX
  5
230
330
1F8
100
AcDbEntity
  8
LASERCUTFLAT
100
AcDbVertex
100
AcDb2dVertex
 10
29.95786663398181
 20
-41.49601324629877
 30
0.0
  0
VERTEX
  5
231
330
1F8
100
AcDbEntity
  8
LASERCUTFLAT
100
AcDbVertex
100
AcDb2dVertex
 10
20.77406846299405
 20
-40.03132746235433
 30
0.0
  0
VERTEX
  5
232
330
1F8
100
AcDbEntity
  8
LASERCUTFLAT
100
AcDbVertex
100
AcDb2dVertex
 10
11.36745864409891
 20
-38.6041479930559
 30
0.0
  0
VERTEX
  5
233
330
1F8
100
AcDbEntity
  8
LASERCUTFLAT
100
AcDbVertex
100
AcDb2dVertex
 10
6.65179059213418
 20
-37.91811805700857
 30
0.0
  0
VERTEX
  5
234
330
1F8
100
AcDbEntity
  8
LASERCUTFLAT
100
AcDbVertex
100
AcDb2dVertex
 10
1.965849098730322
 20
-37.25765861635428
 30
0.0
  0
VERTEX
  5
235
330
1F8
100
AcDbEntity
  8
LASERCUTFLAT
100
AcDbVertex
100
AcDb2dVertex
 10
-2.661889345933424
 20
-36.6281676433369
 30
0.0
  0
VERTEX
  5
236
330
1F8
100
AcDbEntity
  8
LASERCUTFLAT
100
AcDbVertex
100
AcDb2dVertex
 10
-7.202948251677818
 20
-36.03504311020026
 30
0.0
  0
VERTEX
  5
237
330
1F8
100
AcDbEntity
  8
LASERCUTFLAT
100
AcDbVertex
100
AcDb2dVertex
 10
-11.62885112832362
 20
-35.48368298918823
 30
0.0
  0
VERTEX
  5
238
330
1F8
100
AcDbEntity
  8
LASERCUTFLAT
100
AcDbVertex
100
AcDb2dVertex
 10
-15.91112148569159
 20
-34.97948525254466
 30
0.0
  0
VERTEX
  5
239
330
1F8
100
AcDbEntity
  8
LASERCUTFLAT
100
AcDbVertex
100
AcDb2dVertex
 10
-20.0212828336025
 20
-34.52784787251338
 30
0.0
  0
VERTEX
  5
23A
330
1F8
100
AcDbEntity
  8
LASERCUTFLAT
100
AcDbVertex
100
AcDb2dVertex
 10
-23.93085868187709
 20
-34.13416882133826
 30
0.0
  0
VERTEX
  5
23B
330
1F8
100
AcDbEntity
  8
LASERCUTFLAT
100
AcDbVertex
100
AcDb2dVertex
 10
-27.61137254033614
 20
-33.80384607126314
 30
0.0
  0
VERTEX
  5
23C
330
1F8
100
AcDbEntity
  8
LASERCUTFLAT
100
AcDbVertex
100
AcDb2dVertex
 10
-31.0343479188004
 20
-33.54227759453187
 30
0.0
  0
VERTEX
  5
23D
330
1F8
100
AcDbEntity
  8
LASERCUTFLAT
100
AcDbVertex
100
AcDb2dVertex
 10
-34.17983735658804
 20
-33.35426981077495
 30
0.0
  0
VERTEX
  5
23E
330
1F8
100
AcDbEntity
  8
LASERCUTFLAT
100
AcDbVertex
100
AcDb2dVertex
 10
-37.06200951100689
 20
-33.24226292916946
 30
0.0
  0
VERTEX
  5
23F
330
1F8
100
AcDbEntity
  8
LASERCUTFLAT
100
AcDbVertex
100
AcDb2dVertex
 10
-39.70356206886217
 20
-33.20810560627913
 30
0.0
  0
VERTEX
  5
240
330
1F8
100
AcDbEntity
  8
LASERCUTFLAT
100
AcDbVertex
100
AcDb2dVertex
 10
-40.94119902620511
 20
-33.22079823452831
 30
0.0
  0
VERTEX
  5
241
330
1F8
100
AcDbEntity
  8
LASERCUTFLAT
100
AcDbVertex
100
AcDb2dVertex
 10
-42.12719271695912
 20
-33.25364649866768
 30
0.0
  0
VERTEX
  5
242
330
1F8
100
AcDbEntity
  8
LASERCUTFLAT
100
AcDbVertex
100
AcDb2dVertex
 10
-43.26438035197485
 20
-33.30688148076769
 30
0.0
  0
VERTEX
  5
243
330
1F8
100
AcDbEntity
  8
LASERCUTFLAT
100
AcDbVertex
100
AcDb2dVertex
 10
-44.35559914210295
 20
-33.38073426289883
 30
0.0
  0
VERTEX
  5
244
330
1F8
100
AcDbEntity
  8
LASERCUTFLAT
100
AcDbVertex
100
AcDb2dVertex
 10
-45.40368629819409
 20
-33.47543592713154
 30
0.0
  0
VERTEX
  5
245
330
1F8
100
AcDbEntity
  8
LASERCUTFLAT
100
AcDbVertex
100
AcDb2dVertex
 10
-46.41147903109891
 20
-33.5912175555363
 30
0.0
  0
VERTEX
  5
246
330
1F8
100
AcDbEntity
  8
LASERCUTFLAT
100
AcDbVertex
100
AcDb2dVertex
 10
-47.38181455166807
 20
-33.72831023018358
 30
0.0
  0
VERTEX
  5
247
330
1F8
100
AcDbEntity
  8
LASERCUTFLAT
100
AcDbVertex
100
AcDb2dVertex
 10
-48.31753007075222
 20
-33.88694503314384
 30
0.0
  0
VERTEX
  5
248
330
1F8
100
AcDbEntity
  8
LASERCUTFLAT
100
AcDbVertex
100
AcDb2dVertex
 10
-49.22146279920202
 20
-34.06735304648754
 30
0.0
  0
VERTEX
  5
249
330
1F8
100
AcDbEntity
  8
LASERCUTFLAT
100
AcDbVertex
100
AcDb2dVertex
 10
-50.0964499478681
 20
-34.26976535228515
 30
0.0
  0
VERTEX
  5
24A
330
1F8
100
AcDbEntity
  8
LASERCUTFLAT
100
AcDbVertex
100
AcDb2dVertex
 10
-50.94532872760114
 20
-34.49441303260714
 30
0.0
  0
VERTEX
  5
24B
330
1F8
100
AcDbEntity
  8
LASERCUTFLAT
100
AcDbVertex
100
AcDb2dVertex
 10
-51.77093634925179
 20
-34.74152716952396
 30
0.0
  0
VERTEX
  5
24C
330
1F8
100
AcDbEntity
  8
LASERCUTFLAT
100
AcDbVertex
100
AcDb2dVertex
 10
-52.5761100236707
 20
-35.0113388451061
 30
0.0
  0
VERTEX
  5
24D
330
1F8
100
AcDbEntity
  8
LASERCUTFLAT
100
AcDbVertex
100
AcDb2dVertex
 10
-53.36368696170852
 20
-35.304079141424
 30
0.0
  0
VERTEX
  5
24E
330
1F8
100
AcDbEntity
  8
LASERCUTFLAT
100
AcDbVertex
100
AcDb2dVertex
 10
-54.13650437421592
 20
-35.61997914054814
 30
0.0
  0
VERTEX
  5
24F
330
1F8
100
AcDbEntity
  8
LASERCUTFLAT
100
AcDbVertex
100
AcDb2dVertex
 10
-54.89739947204352
 20
-35.95926992454899
 30
0.0
  0
VERTEX
  5
250
330
1F8
100
AcDbEntity
  8
LASERCUTFLAT
100
AcDbVertex
100
AcDb2dVertex
 10
-55.64920946604201
 20
-36.32218257549701
 30
0.0
  0
VERTEX
  5
251
330
1F8
100
AcDbEntity
  8
LASERCUTFLAT
100
AcDbVertex
100
AcDb2dVertex
 10
-56.39477156706202
 20
-36.70894817546267
 30
0.0
  0
VERTEX
  5
252
330
1F8
100
AcDbEntity
  8
LASERCUTFLAT
100
AcDbVertex
100
AcDb2dVertex
 10
-57.1369229859542
 20
-37.11979780651642
 30
0.0
  0
VERTEX
  5
253
330
1F8
100
AcDbEntity
  8
LASERCUTFLAT
100
AcDbVertex
100
AcDb2dVertex
 10
-57.87850093356923
 20
-37.55496255072875
 30
0.0
  0
VERTEX
  5
254
330
1F8
100
AcDbEntity
  8
LASERCUTFLAT
100
AcDbVertex
100
AcDb2dVertex
 10
-58.62234262075775
 20
-38.0146734901701
 30
0.0
  0
VERTEX
  5
255
330
1F8
100
AcDbEntity
  8
LASERCUTFLAT
100
AcDbVertex
100
AcDb2dVertex
 10
-59.37128525837041
 20
-38.49916170691095
 30
0.0
  0
VERTEX
  5
256
330
1F8
100
AcDbEntity
  8
LASERCUTFLAT
100
AcDbVertex
100
AcDb2dVertex
 10
-60.89582222827077
 20
-39.54339430057301
 30
0.0
  0
VERTEX
  5
257
330
1F8
100
AcDbEntity
  8
LASERCUTFLAT
100
AcDbVertex
100
AcDb2dVertex
 10
-62.47480953007553
 20
-40.68950898827865
 30
0.0
  0
VERTEX
  5
258
330
1F8
100
AcDbEntity
  8
LASERCUTFLAT
100
AcDbVertex
100
AcDb2dVertex
 10
-64.12390180363543
 20
-41.94524428367123
 30
0.0
  0
VERTEX
  5
259
330
1F8
100
AcDbEntity
  8
LASERCUTFLAT
100
AcDbVertex
100
AcDb2dVertex
 10
-64.97126576151842
 20
-42.62363215004572
 30
0.0
  0
VERTEX
  5
25A
330
1F8
100
AcDbEntity
  8
LASERCUTFLAT
100
AcDbVertex
100
AcDb2dVertex
 10
-65.83058150098314
 20
-43.3418981287126
 30
0.0
  0
VERTEX
  5
25B
330
1F8
100
AcDbEntity
  8
LASERCUTFLAT
100
AcDbVertex
100
AcDb2dVertex
 10
-66.69940394766436
 20
-44.10469069455206
 30
0.0
  0
VERTEX
  5
25C
330
1F8
100
AcDbEntity
  8
LASERCUTFLAT
100
AcDbVertex
100
AcDb2dVertex
 10
-67.57528802719686
 20
-44.91665832244429
 30
0.0
  0
VERTEX
  5
25D
330
1F8
100
AcDbEntity
  8
LASERCUTFLAT
100
AcDbVertex
100
AcDb2dVertex
 10
-68.45578866521541
 20
-45.78244948726947
 30
0.0
  0
VERTEX
  5
25E
330
1F8
100
AcDbEntity
  8
LASERCUTFLAT
100
AcDbVertex
100
AcDb2dVertex
 10
-69.33846078735476
 20
-46.70671266390779
 30
0.0
  0
VERTEX
  5
25F
330
1F8
100
AcDbEntity
  8
LASERCUTFLAT
100
AcDbVertex
100
AcDb2dVertex
 10
-70.22085931924971
 20
-47.69409632723944
 30
0.0
  0
VERTEX
  5
260
330
1F8
100
AcDbEntity
  8
LASERCUTFLAT
100
AcDbVertex
100
AcDb2dVertex
 10
-71.10053918653503
 20
-48.7492489521446
 30
0.0
  0
VERTEX
  5
261
330
1F8
100
AcDbEntity
  8
LASERCUTFLAT
100
AcDbVertex
100
AcDb2dVertex
 10
-71.53859553520994
 20
-49.3036912735873
 30
0.0
  0
VERTEX
  5
262
330
1F8
100
AcDbEntity
  8
LASERCUTFLAT
100
AcDbVertex
100
AcDb2dVertex
 10
-71.97505531484548
 20
-49.87681901350346
 30
0.0
  0
VERTEX
  5
263
330
1F8
100
AcDbEntity
  8
LASERCUTFLAT
100
AcDbVertex
100
AcDb2dVertex
 10
-72.409612891146
 20
-50.46921323125311
 30
0.0
  0
VERTEX
  5
264
330
1F8
100
AcDbEntity
  8
LASERCUTFLAT
100
AcDbVertex
100
AcDb2dVertex
 10
-72.84196262981582
 20
-51.08145498619623
 30
0.0
  0
VERTEX
  5
265
330
1F8
100
AcDbEntity
  8
LASERCUTFLAT
100
AcDbVertex
100
AcDb2dVertex
 10
-73.27179889655935
 20
-51.71412533769287
 30
0.0
  0
VERTEX
  5
266
330
1F8
100
AcDbEntity
  8
LASERCUTFLAT
100
AcDbVertex
100
AcDb2dVertex
 10
-73.69881605708086
 20
-52.36780534510306
 30
0.0
  0
VERTEX
  5
267
330
1F8
100
AcDbEntity
  8
LASERCUTFLAT
100
AcDbVertex
100
AcDb2dVertex
 10
-74.12270847708476
 20
-53.04307606778682
 30
0.0
  0
VERTEX
  5
268
330
1F8
100
AcDbEntity
  8
LASERCUTFLAT
100
AcDbVertex
100
AcDb2dVertex
 10
-74.54317052227535
 20
-53.74051856510417
 30
0.0
  0
VERTEX
  5
269
330
1F8
100
AcDbEntity
  8
LASERCUTFLAT
100
AcDbVertex
100
AcDb2dVertex
 10
-74.959896558357
 20
-54.46071389641514
 30
0.0
  0
VERTEX
  5
26A
330
1F8
100
AcDbEntity
  8
LASERCUTFLAT
100
AcDbVertex
100
AcDb2dVertex
 10
-75.37258095103405
 20
-55.20424312107973
 30
0.0
  0
VERTEX
  5
26B
330
1F8
100
AcDbEntity
  8
LASERCUTFLAT
100
AcDbVertex
100
AcDb2dVertex
 10
-75.78091806601086
 20
-55.97168729845799
 30
0.0
  0
VERTEX
  5
26C
330
1F8
100
AcDbEntity
  8
LASERCUTFLAT
100
AcDbVertex
100
AcDb2dVertex
 10
-76.18460226899175
 20
-56.76362748790994
 30
0.0
  0
VERTEX
  5
26D
330
1F8
100
AcDbEntity
  8
LASERCUTFLAT
100
AcDbVertex
100
AcDb2dVertex
 10
-76.97678940178322
 20
-58.42332014047498
 30
0.0
  0
VERTEX
  5
26E
330
1F8
100
AcDbEntity
  8
LASERCUTFLAT
100
AcDbVertex
100
AcDb2dVertex
 10
-77.74669727504323
 20
-60.18796955365504
 30
0.0
  0
VERTEX
  5
26F
330
1F8
100
AcDbEntity
  8
LASERCUTFLAT
100
AcDbVertex
100
AcDb2dVertex
 10
-78.49188081440656
 20
-62.0622242023303
 30
0.0
  0
VERTEX
  5
270
330
1F8
100
AcDbEntity
  8
LASERCUTFLAT
100
AcDbVertex
100
AcDb2dVertex
 10
-79.20989494550798
 20
-64.05073256138095
 30
0.0
  0
VERTEX
  5
271
330
1F8
100
AcDbEntity
  8
LASERCUTFLAT
100
AcDbVertex
100
AcDb2dVertex
 10
-79.89829459398226
 20
-66.15814310568719
 30
0.0
  0
VERTEX
  5
272
330
1F8
100
AcDbEntity
  8
LASERCUTFLAT
100
AcDbVertex
100
AcDb2dVertex
 10
-80.55463468546415
 20
-68.3891043101292
 30
0.0
  0
VERTEX
  5
273
330
1F8
100
AcDbEntity
  8
LASERCUTFLAT
100
AcDbVertex
100
AcDb2dVertex
 10
-81.17647014558847
 20
-70.74826464958717
 30
0.0
  0
VERTEX
  5
274
330
1F8
100
AcDbEntity
  8
LASERCUTFLAT
100
AcDbVertex
100
AcDb2dVertex
 10
-81.76135589998995
 20
-73.24027259894129
 30
0.0
  0
VERTEX
  5
275
330
1F8
100
AcDbEntity
  8
LASERCUTFLAT
100
AcDbVertex
100
AcDb2dVertex
 10
-82.30684687430339
 20
-75.86977663307175
 30
0.0
  0
VERTEX
  5
276
330
1F8
100
AcDbEntity
  8
LASERCUTFLAT
100
AcDbVertex
100
AcDb2dVertex
 10
-82.81049799416354
 20
-78.64142522685871
 30
0.0
  0
VERTEX
  5
277
330
1F8
100
AcDbEntity
  8
LASERCUTFLAT
100
AcDbVertex
100
AcDb2dVertex
 10
-83.2698641852052
 20
-81.55986685518238
 30
0.0
  0
VERTEX
  5
278
330
1F8
100
AcDbEntity
  8
LASERCUTFLAT
100
AcDbVertex
100
AcDb2dVertex
 10
-83.6825003730631
 20
-84.62974999292297
 30
0.0
  0
VERTEX
  5
279
330
1F8
100
AcDbEntity
  8
LASERCUTFLAT
100
AcDbVertex
100
AcDb2dVertex
 10
-84.04596148337205
 20
-87.85572311496063
 30
0.0
  0
VERTEX
  5
27A
330
1F8
100
AcDbEntity
  8
LASERCUTFLAT
100
AcDbVertex
100
AcDb2dVertex
 10
-84.35780244176681
 20
-91.24243469617556
 30
0.0
  0
VERTEX
  5
27B
330
1F8
100
AcDbEntity
  8
LASERCUTFLAT
100
AcDbVertex
100
AcDb2dVertex
 10
-84.61557817388217
 20
-94.79453321144797
 30
0.0
  0
VERTEX
  5
27C
330
1F8
100
AcDbEntity
  8
LASERCUTFLAT
100
AcDbVertex
100
AcDb2dVertex
 10
-84.81684360535286
 20
-98.51666713565801
 30
0.0
  0
SEQEND
  5
27D
330
1F8
100
AcDbEntity
  8
LASERCUTFLAT
  0
LINE
  5
27E
330
1F
100
AcDbEntity
  8
LASERCUTFLAT
100
AcDbLine
 10
-84.81684360535286
 20
-98.51666713565801
 30
0.0
 11
-71.88559737528021
 21
-98.51666713565801
 31
0.0
  0
POLYLINE
  5
27F
330
1F
100
AcDbEntity
  8
LASERCUTFLAT
100
AcDb2dPolyline
 66
     1
 10
0.0
 20
0.0
 30
0.0
  0
VERTEX
  5
280
330
27F
100
AcDbEntity
  8
LASERCUTFLAT
100
AcDbVertex
100
AcDb2dVertex
 10
-71.88559737528021
 20
-98.51666713565801
 30
0.0
  0
VERTEX
  5
281
330
27F
100
AcDbEntity
  8
LASERCUTFLAT
100
AcDbVertex
100
AcDb2dVertex
 10
-70.15129401186738
 20
-95.68925287944487
 30
0.0
  0
VERTEX
  5
282
330
27F
100
AcDbEntity
  8
LASERCUTFLAT
100
AcDbVertex
100
AcDb2dVertex
 10
-69.31143484023653
 20
-94.35839097972664
 30
0.0
  0
VERTEX
  5
283
330
27F
100
AcDbEntity
  8
LASERCUTFLAT
100
AcDbVertex
100
AcDb2dVertex
 10
-68.47343421243522
 20
-93.08206349534325
 30
0.0
  0
VERTEX
  5
284
330
27F
100
AcDbEntity
  8
LASERCUTFLAT
100
AcDbVertex
100
AcDb2dVertex
 10
-67.62503978129787
 20
-91.85974862360166
 30
0.0
  0
VERTEX
  5
285
330
27F
100
AcDbEntity
  8
LASERCUTFLAT
100
AcDbVertex
100
AcDb2dVertex
 10
-67.19311603098893
 20
-91.26868285412996
 30
0.0
  0
VERTEX
  5
286
330
27F
100
AcDbEntity
  8
LASERCUTFLAT
100
AcDbVertex
100
AcDb2dVertex
 10
-66.75399919965886
 20
-90.69092456180883
 30
0.0
  0
VERTEX
  5
287
330
27F
100
AcDbEntity
  8
LASERCUTFLAT
100
AcDbVertex
100
AcDb2dVertex
 10
-66.306157743912
 20
-90.12640852130164
 30
0.0
  0
VERTEX
  5
288
330
27F
100
AcDbEntity
  8
LASERCUTFLAT
100
AcDbVertex
100
AcDb2dVertex
 10
-65.84806012035261
 20
-89.57506950727173
 30
0.0
  0
VERTEX
  5
289
330
27F
100
AcDbEntity
  8
LASERCUTFLAT
100
AcDbVertex
100
AcDb2dVertex
 10
-65.378174785585
 20
-89.0368422943825
 30
0.0
  0
VERTEX
  5
28A
330
27F
100
AcDbEntity
  8
LASERCUTFLAT
100
AcDbVertex
100
AcDb2dVertex
 10
-64.89497019621349
 20
-88.51166165729731
 30
0.0
  0
VERTEX
  5
28B
330
27F
100
AcDbEntity
  8
LASERCUTFLAT
100
AcDbVertex
100
AcDb2dVertex
 10
-64.39691480884235
 20
-87.99946237067954
 30
0.0
  0
VERTEX
  5
28C
330
27F
100
AcDbEntity
  8
LASERCUTFLAT
100
AcDbVertex
100
AcDb2dVertex
 10
-63.88247708007592
 20
-87.50017920919254
 30
0.0
  0
VERTEX
  5
28D
330
27F
100
AcDbEntity
  8
LASERCUTFLAT
100
AcDbVertex
100
AcDb2dVertex
 10
-63.35012546651845
 20
-87.0137469474997
 30
0.0
  0
VERTEX
  5
28E
330
27F
100
AcDbEntity
  8
LASERCUTFLAT
100
AcDbVertex
100
AcDb2dVertex
 10
-62.79832842477428
 20
-86.54010036026438
 30
0.0
  0
VERTEX
  5
28F
330
27F
100
AcDbEntity
  8
LASERCUTFLAT
100
AcDbVertex
100
AcDb2dVertex
 10
-62.22555441144767
 20
-86.07917422214993
 30
0.0
  0
VERTEX
  5
290
330
27F
100
AcDbEntity
  8
LASERCUTFLAT
100
AcDbVertex
100
AcDb2dVertex
 10
-61.63027188314297
 20
-85.63090330781978
 30
0.0
  0
VERTEX
  5
291
330
27F
100
AcDbEntity
  8
LASERCUTFLAT
100
AcDbVertex
100
AcDb2dVertex
 10
-61.01094929646443
 20
-85.19522239193722
 30
0.0
  0
VERTEX
  5
292
330
27F
100
AcDbEntity
  8
LASERCUTFLAT
100
AcDbVertex
100
AcDb2dVertex
 10
-60.36605510801638
 20
-84.7720662491657
 30
0.0
  0
VERTEX
  5
293
330
27F
100
AcDbEntity
  8
LASERCUTFLAT
100
AcDbVertex
100
AcDb2dVertex
 10
-59.69405777440311
 20
-84.36136965416854
 30
0.0
  0
VERTEX
  5
294
330
27F
100
AcDbEntity
  8
LASERCUTFLAT
100
AcDbVertex
100
AcDb2dVertex
 10
-58.99342575222892
 20
-83.96306738160911
 30
0.0
  0
VERTEX
  5
295
330
27F
100
AcDbEntity
  8
LASERCUTFLAT
100
AcDbVertex
100
AcDb2dVertex
 10
-58.26262749809811
 20
-83.5770942061508
 30
0.0
  0
VERTEX
  5
296
330
27F
100
AcDbEntity
  8
LASERCUTFLAT
100
AcDbVertex
100
AcDb2dVertex
 10
-57.50013146861498
 20
-83.20338490245699
 30
0.0
  0
VERTEX
  5
297
330
27F
100
AcDbEntity
  8
LASERCUTFLAT
100
AcDbVertex
100
AcDb2dVertex
 10
-56.70440612038384
 20
-82.84187424519102
 30
0.0
  0
VERTEX
  5
298
330
27F
100
AcDbEntity
  8
LASERCUTFLAT
100
AcDbVertex
100
AcDb2dVertex
 10
-55.87391991000896
 20
-82.49249700901626
 30
0.0
  0
VERTEX
  5
299
330
27F
100
AcDbEntity
  8
LASERCUTFLAT
100
AcDbVertex
100
AcDb2dVertex
 10
-55.00714129409467
 20
-82.15518796859612
 30
0.0
  0
VERTEX
  5
29A
330
27F
100
AcDbEntity
  8
LASERCUTFLAT
100
AcDbVertex
100
AcDb2dVertex
 10
-54.10253872924525
 20
-81.82988189859392
 30
0.0
  0
VERTEX
  5
29B
330
27F
100
AcDbEntity
  8
LASERCUTFLAT
100
AcDbVertex
100
AcDb2dVertex
 10
-53.15858067206501
 20
-81.51651357367307
 30
0.0
  0
VERTEX
  5
29C
330
27F
100
AcDbEntity
  8
LASERCUTFLAT
100
AcDbVertex
100
AcDb2dVertex
 10
-52.17373557915825
 20
-81.21501776849692
 30
0.0
  0
VERTEX
  5
29D
330
27F
100
AcDbEntity
  8
LASERCUTFLAT
100
AcDbVertex
100
AcDb2dVertex
 10
-51.14647190712925
 20
-80.92532925772883
 30
0.0
  0
VERTEX
  5
29E
330
27F
100
AcDbEntity
  8
LASERCUTFLAT
100
AcDbVertex
100
AcDb2dVertex
 10
-50.07525811258235
 20
-80.6473828160322
 30
0.0
  0
VERTEX
  5
29F
330
27F
100
AcDbEntity
  8
LASERCUTFLAT
100
AcDbVertex
100
AcDb2dVertex
 10
-48.95856265212181
 20
-80.38111321807037
 30
0.0
  0
VERTEX
  5
2A0
330
27F
100
AcDbEntity
  8
LASERCUTFLAT
100
AcDbVertex
100
AcDb2dVertex
 10
-47.79485398235195
 20
-80.12645523850674
 30
0.0
  0
VERTEX
  5
2A1
330
27F
100
AcDbEntity
  8
LASERCUTFLAT
100
AcDbVertex
100
AcDb2dVertex
 10
-46.58260055987706
 20
-79.88334365200464
 30
0.0
  0
VERTEX
  5
2A2
330
27F
100
AcDbEntity
  8
LASERCUTFLAT
100
AcDbVertex
100
AcDb2dVertex
 10
-45.32027084130145
 20
-79.6517132332275
 30
0.0
  0
VERTEX
  5
2A3
330
27F
100
AcDbEntity
  8
LASERCUTFLAT
100
AcDbVertex
100
AcDb2dVertex
 10
-42.63925634226524
 20
-79.22263499750142
 30
0.0
  0
VERTEX
  5
2A4
330
27F
100
AcDbEntity
  8
LASERCUTFLAT
100
AcDbVertex
100
AcDb2dVertex
 10
-39.73955813807772
 20
-78.83869872863549
 30
0.0
  0
VERTEX
  5
2A5
330
27F
100
AcDbEntity
  8
LASERCUTFLAT
100
AcDbVertex
100
AcDb2dVertex
 10
-36.60892388157328
 20
-78.49938262393667
 30
0.0
  0
VERTEX
  5
2A6
330
27F
100
AcDbEntity
  8
LASERCUTFLAT
100
AcDbVertex
100
AcDb2dVertex
 10
-33.23510122558633
 20
-78.20416488071189
 30
0.0
  0
VERTEX
  5
2A7
330
27F
100
AcDbEntity
  8
LASERCUTFLAT
100
AcDbVertex
100
AcDb2dVertex
 10
-29.60583782295125
 20
-77.95252369626814
 30
0.0
  0
VERTEX
  5
2A8
330
27F
100
AcDbEntity
  8
LASERCUTFLAT
100
AcDbVertex
100
AcDb2dVertex
 10
-25.70888132650245
 20
-77.74393726791237
 30
0.0
  0
VERTEX
  5
2A9
330
27F
100
AcDbEntity
  8
LASERCUTFLAT
100
AcDbVertex
100
AcDb2dVertex
 10
-21.53197938907432
 20
-77.57788379295155
 30
0.0
  0
VERTEX
  5
2AA
330
27F
100
AcDbEntity
  8
LASERCUTFLAT
100
AcDbVertex
100
AcDb2dVertex
 10
-17.06287966350125
 20
-77.45384146869264
 30
0.0
  0
VERTEX
  5
2AB
330
27F
100
AcDbEntity
  8
LASERCUTFLAT
100
AcDbVertex
100
AcDb2dVertex
 10
-12.28932980261764
 20
-77.37128849244259
 30
0.0
  0
VERTEX
  5
2AC
330
27F
100
AcDbEntity
  8
LASERCUTFLAT
100
AcDbVertex
100
AcDb2dVertex
 10
-7.199077459257899
 20
-77.32970306150837
 30
0.0
  0
VERTEX
  5
2AD
330
27F
100
AcDbEntity
  8
LASERCUTFLAT
100
AcDbVertex
100
AcDb2dVertex
 10
-1.77987028625641
 20
-77.32856337319694
 30
0.0
  0
VERTEX
  5
2AE
330
27F
100
AcDbEntity
  8
LASERCUTFLAT
100
AcDbVertex
100
AcDb2dVertex
 10
3.980544063552429
 20
-77.36734762481525
 30
0.0
  0
SEQEND
  5
2AF
330
27F
100
AcDbEntity
  8
LASERCUTFLAT
  0
POLYLINE
  5
2B0
330
1F
100
AcDbEntity
  8
LASERCUTFLAT
100
AcDb2dPolyline
 66
     1
 10
0.0
 20
0.0
 30
0.0
 70
     1
  0
VERTEX
  5
2B1
330
2B0
100
AcDbEntity
  8
LASERCUTFLAT
100
AcDbVertex
100
AcDb2dVertex
 10
87.063838104659
 20
-49.83494410963262
 30
0.0
  0
VERTEX
  5
2B2
330
2B0
100
AcDbEntity
  8
LASERCUTFLAT
100
AcDbVertex
100
AcDb2dVertex
 10
87.08022396270678
 20
-49.77693427698865
 30
0.0
  0
VERTEX
  5
2B3
330
2B0
100
AcDbEntity
  8
LASERCUTFLAT
100
AcDbVertex
100
AcDb2dVertex
 10
87.09831407764338
 20
-49.71892807198875
 30
0.0
  0
VERTEX
  5
2B4
330
2B0
100
AcDbEntity
  8
LASERCUTFLAT
100
AcDbVertex
100
AcDb2dVertex
 10
87.11809485905346
 20
-49.66090957358661
 30
0.0
  0
VERTEX
  5
2B5
330
2B0
100
AcDbEntity
  8
LASERCUTFLAT
100
AcDbVertex
100
AcDb2dVertex
 10
87.13955271652164
 20
-49.60286286073593
 30
0.0
  0
VERTEX
  5
2B6
330
2B0
100
AcDbEntity
  8
LASERCUTFLAT
100
AcDbVertex
100
AcDb2dVertex
 10
87.16267405963256
 20
-49.5447720123904
 30
0.0
  0
VERTEX
  5
2B7
330
2B0
100
AcDbEntity
  8
LASERCUTFLAT
100
AcDbVertex
100
AcDb2dVertex
 10
87.1874452979709
 20
-49.48662110750373
 30
0.0
  0
VERTEX
  5
2B8
330
2B0
100
AcDbEntity
  8
LASERCUTFLAT
100
AcDbVertex
100
AcDb2dVertex
 10
87.21385284112128
 20
-49.42839422502961
 30
0.0
  0
VERTEX
  5
2B9
330
2B0
100
AcDbEntity
  8
LASERCUTFLAT
100
AcDbVertex
100
AcDb2dVertex
 10
87.24188309866834
 20
-49.37007544392175
 30
0.0
  0
VERTEX
  5
2BA
330
2B0
100
AcDbEntity
  8
LASERCUTFLAT
100
AcDbVertex
100
AcDb2dVertex
 10
87.27152248019675
 20
-49.31164884313382
 30
0.0
  0
VERTEX
  5
2BB
330
2B0
100
AcDbEntity
  8
LASERCUTFLAT
100
AcDbVertex
100
AcDb2dVertex
 10
87.30275739529117
 20
-49.25309850161955
 30
0.0
  0
VERTEX
  5
2BC
330
2B0
100
AcDbEntity
  8
LASERCUTFLAT
100
AcDbVertex
100
AcDb2dVertex
 10
87.33557425353624
 20
-49.19440849833261
 30
0.0
  0
VERTEX
  5
2BD
330
2B0
100
AcDbEntity
  8
LASERCUTFLAT
100
AcDbVertex
100
AcDb2dVertex
 10
87.36995946451655
 20
-49.13556291222672
 30
0.0
  0
VERTEX
  5
2BE
330
2B0
100
AcDbEntity
  8
LASERCUTFLAT
100
AcDbVertex
100
AcDb2dVertex
 10
87.44338058302165
 20
-49.01734130737285
 30
0.0
  0
VERTEX
  5
2BF
330
2B0
100
AcDbEntity
  8
LASERCUTFLAT
100
AcDbVertex
100
AcDb2dVertex
 10
87.52291202748366
 20
-48.8983063186875
 30
0.0
  0
VERTEX
  5
2C0
330
2B0
100
AcDbEntity
  8
LASERCUTFLAT
100
AcDbVertex
100
AcDb2dVertex
 10
87.60844507457973
 20
-48.77833057780027
 30
0.0
  0
VERTEX
  5
2C1
330
2B0
100
AcDbEntity
  8
LASERCUTFLAT
100
AcDbVertex
100
AcDb2dVertex
 10
87.69987100098707
 20
-48.65728671634074
 30
0.0
  0
VERTEX
  5
2C2
330
2B0
100
AcDbEntity
  8
LASERCUTFLAT
100
AcDbVertex
100
AcDb2dVertex
 10
87.79708108338284
 20
-48.53504736593848
 30
0.0
  0
VERTEX
  5
2C3
330
2B0
100
AcDbEntity
  8
LASERCUTFLAT
100
AcDbVertex
100
AcDb2dVertex
 10
87.89996659844418
 20
-48.41148515822307
 30
0.0
  0
VERTEX
  5
2C4
330
2B0
100
AcDbEntity
  8
LASERCUTFLAT
100
AcDbVertex
100
AcDb2dVertex
 10
88.00841882284831
 20
-48.28647272482412
 30
0.0
  0
VERTEX
  5
2C5
330
2B0
100
AcDbEntity
  8
LASERCUTFLAT
100
AcDbVertex
100
AcDb2dVertex
 10
88.12232903327241
 20
-48.15988269737117
 30
0.0
  0
VERTEX
  5
2C6
330
2B0
100
AcDbEntity
  8
LASERCUTFLAT
100
AcDbVertex
100
AcDb2dVertex
 10
88.36608851888914
 20
-47.90146038682166
 30
0.0
  0
VERTEX
  5
2C7
330
2B0
100
AcDbEntity
  8
LASERCUTFLAT
100
AcDbVertex
100
AcDb2dVertex
 10
88.6303752687118
 20
-47.6351992796112
 30
0.0
  0
VERTEX
  5
2C8
330
2B0
100
AcDbEntity
  8
LASERCUTFLAT
100
AcDbVertex
100
AcDb2dVertex
 10
88.91431949615777
 20
-47.36008042877643
 30
0.0
  0
VERTEX
  5
2C9
330
2B0
100
AcDbEntity
  8
LASERCUTFLAT
100
AcDbVertex
100
AcDb2dVertex
 10
89.53770123758933
 20
-46.77919370838058
 30
0.0
  0
VERTEX
  5
2CA
330
2B0
100
AcDbEntity
  8
LASERCUTFLAT
100
AcDbVertex
100
AcDb2dVertex
 10
90.9820838422981
 20
-45.46629367770976
 30
0.0
  0
VERTEX
  5
2CB
330
2B0
100
AcDbEntity
  8
LASERCUTFLAT
100
AcDbVertex
100
AcDb2dVertex
 10
92.64356999172931
 20
-43.89754768915469
 30
0.0
  0
VERTEX
  5
2CC
330
2B0
100
AcDbEntity
  8
LASERCUTFLAT
100
AcDbVertex
100
AcDb2dVertex
 10
93.53833116406392
 20
-42.99685352140354
 30
0.0
  0
VERTEX
  5
2CD
330
2B0
100
AcDbEntity
  8
LASERCUTFLAT
100
AcDbVertex
100
AcDb2dVertex
 10
94.46649334459681
 20
-42.00774313706087
 30
0.0
  0
VERTEX
  5
2CE
330
2B0
100
AcDbEntity
  8
LASERCUTFLAT
100
AcDbVertex
100
AcDb2dVertex
 10
95.42109824066725
 20
-40.9220649604199
 30
0.0
  0
VERTEX
  5
2CF
330
2B0
100
AcDbEntity
  8
LASERCUTFLAT
100
AcDbVertex
100
AcDb2dVertex
 10
95.90614224057256
 20
-40.34046558257918
 30
0.0
  0
VERTEX
  5
2D0
330
2B0
100
AcDbEntity
  8
LASERCUTFLAT
100
AcDbVertex
100
AcDb2dVertex
 10
96.39518755961448
 20
-39.73166741577381
 30
0.0
  0
VERTEX
  5
2D1
330
2B0
100
AcDbEntity
  8
LASERCUTFLAT
100
AcDbVertex
100
AcDb2dVertex
 10
96.8873644112104
 20
-39.09465151304046
 30
0.0
  0
VERTEX
  5
2D2
330
2B0
100
AcDbEntity
  8
LASERCUTFLAT
100
AcDbVertex
100
AcDb2dVertex
 10
97.38180300877772
 20
-38.42839892741577
 30
0.0
  0
VERTEX
  5
2D3
330
2B0
100
AcDbEntity
  8
LASERCUTFLAT
100
AcDbVertex
100
AcDb2dVertex
 10
97.87763356573384
 20
-37.73189071193639
 30
0.0
  0
VERTEX
  5
2D4
330
2B0
100
AcDbEntity
  8
LASERCUTFLAT
100
AcDbVertex
100
AcDb2dVertex
 10
98.3739862954962
 20
-37.00410791963898
 30
0.0
  0
VERTEX
  5
2D5
330
2B0
100
AcDbEntity
  8
LASERCUTFLAT
100
AcDbVertex
100
AcDb2dVertex
 10
98.86999141148215
 20
-36.24403160356017
 30
0.0
  0
VERTEX
  5
2D6
330
2B0
100
AcDbEntity
  8
LASERCUTFLAT
100
AcDbVertex
100
AcDb2dVertex
 10
99.36477912710913
 20
-35.45064281673663
 30
0.0
  0
VERTEX
  5
2D7
330
2B0
100
AcDbEntity
  8
LASERCUTFLAT
100
AcDbVertex
100
AcDb2dVertex
 10
99.85747965579455
 20
-34.62292261220498
 30
0.0
  0
VERTEX
  5
2D8
330
2B0
100
AcDbEntity
  8
LASERCUTFLAT
100
AcDbVertex
100
AcDb2dVertex
 10
100.3472232109558
 20
-33.7598520430019
 30
0.0
  0
VERTEX
  5
2D9
330
2B0
100
AcDbEntity
  8
LASERCUTFLAT
100
AcDbVertex
100
AcDb2dVertex
 10
100.8331400060103
 20
-32.86041216216401
 30
0.0
  0
VERTEX
  5
2DA
330
2B0
100
AcDbEntity
  8
LASERCUTFLAT
100
AcDbVertex
100
AcDb2dVertex
 10
101.3143602543754
 20
-31.92358402272797
 30
0.0
  0
VERTEX
  5
2DB
330
2B0
100
AcDbEntity
  8
LASERCUTFLAT
100
AcDbVertex
100
AcDb2dVertex
 10
101.7900141694685
 20
-30.94834867773044
 30
0.0
  0
VERTEX
  5
2DC
330
2B0
100
AcDbEntity
  8
LASERCUTFLAT
100
AcDbVertex
100
AcDb2dVertex
 10
102.2592319647072
 20
-29.93368718020805
 30
0.0
  0
VERTEX
  5
2DD
330
2B0
100
AcDbEntity
  8
LASERCUTFLAT
100
AcDbVertex
100
AcDb2dVertex
 10
102.7211438535086
 20
-28.87858058319745
 30
0.0
  0
VERTEX
  5
2DE
330
2B0
100
AcDbEntity
  8
LASERCUTFLAT
100
AcDbVertex
100
AcDb2dVertex
 10
103.1748800492903
 20
-27.7820099397353
 30
0.0
  0
VERTEX
  5
2DF
330
2B0
100
AcDbEntity
  8
LASERCUTFLAT
100
AcDbVertex
100
AcDb2dVertex
 10
103.6195707654697
 20
-26.64295630285825
 30
0.0
  0
VERTEX
  5
2E0
330
2B0
100
AcDbEntity
  8
LASERCUTFLAT
100
AcDbVertex
100
AcDb2dVertex
 10
104.0543462154642
 20
-25.46040072560293
 30
0.0
  0
VERTEX
  5
2E1
330
2B0
100
AcDbEntity
  8
LASERCUTFLAT
100
AcDbVertex
100
AcDb2dVertex
 10
104.4783366126911
 20
-24.233324261006
 30
0.0
  0
VERTEX
  5
2E2
330
2B0
100
AcDbEntity
  8
LASERCUTFLAT
100
AcDbVertex
100
AcDb2dVertex
 10
104.8906721705678
 20
-22.96070796210411
 30
0.0
  0
VERTEX
  5
2E3
330
2B0
100
AcDbEntity
  8
LASERCUTFLAT
100
AcDbVertex
100
AcDb2dVertex
 10
105.2904831025119
 20
-21.64153288193391
 30
0.0
  0
VERTEX
  5
2E4
330
2B0
100
AcDbEntity
  8
LASERCUTFLAT
100
AcDbVertex
100
AcDb2dVertex
 10
105.6768996219406
 20
-20.27478007353205
 30
0.0
  0
VERTEX
  5
2E5
330
2B0
100
AcDbEntity
  8
LASERCUTFLAT
100
AcDbVertex
100
AcDb2dVertex
 10
106.0490519422714
 20
-18.85943058993516
 30
0.0
  0
VERTEX
  5
2E6
330
2B0
100
AcDbEntity
  8
LASERCUTFLAT
100
AcDbVertex
100
AcDb2dVertex
 10
106.4060702769218
 20
-17.39446548417991
 30
0.0
  0
VERTEX
  5
2E7
330
2B0
100
AcDbEntity
  8
LASERCUTFLAT
100
AcDbVertex
100
AcDb2dVertex
 10
106.747084839309
 20
-15.87886580930293
 30
0.0
  0
VERTEX
  5
2E8
330
2B0
100
AcDbEntity
  8
LASERCUTFLAT
100
AcDbVertex
100
AcDb2dVertex
 10
107.0712258428505
 20
-14.31161261834088
 30
0.0
  0
VERTEX
  5
2E9
330
2B0
100
AcDbEntity
  8
LASERCUTFLAT
100
AcDbVertex
100
AcDb2dVertex
 10
107.3776235009637
 20
-12.69168696433042
 30
0.0
  0
VERTEX
  5
2EA
330
2B0
100
AcDbEntity
  8
LASERCUTFLAT
100
AcDbVertex
100
AcDb2dVertex
 10
107.665408027066
 20
-11.01806990030817
 30
0.0
  0
VERTEX
  5
2EB
330
2B0
100
AcDbEntity
  8
LASERCUTFLAT
100
AcDbVertex
100
AcDb2dVertex
 10
107.9337096345748
 20
-9.289742479310796
 30
0.0
  0
VERTEX
  5
2EC
330
2B0
100
AcDbEntity
  8
LASERCUTFLAT
100
AcDbVertex
100
AcDb2dVertex
 10
108.1816585369075
 20
-7.505685754374944
 30
0.0
  0
VERTEX
  5
2ED
330
2B0
100
AcDbEntity
  8
LASERCUTFLAT
100
AcDbVertex
100
AcDb2dVertex
 10
108.4083849474816
 20
-5.664880778537261
 30
0.0
  0
VERTEX
  5
2EE
330
2B0
100
AcDbEntity
  8
LASERCUTFLAT
100
AcDbVertex
100
AcDb2dVertex
 10
108.6130190797144
 20
-3.766308604834399
 30
0.0
  0
VERTEX
  5
2EF
330
2B0
100
AcDbEntity
  8
LASERCUTFLAT
100
AcDbVertex
100
AcDb2dVertex
 10
108.7946911470233
 20
-1.808950286303002
 30
0.0
  0
VERTEX
  5
2F0
330
2B0
100
AcDbEntity
  8
LASERCUTFLAT
100
AcDbVertex
100
AcDb2dVertex
 10
108.9525313628257
 20
0.2082131240202791
 30
0.0
  0
VERTEX
  5
2F1
330
2B0
100
AcDbEntity
  8
LASERCUTFLAT
100
AcDbVertex
100
AcDb2dVertex
 10
109.085669940539
 20
2.286200573098797
 30
0.0
  0
VERTEX
  5
2F2
330
2B0
100
AcDbEntity
  8
LASERCUTFLAT
100
AcDbVertex
100
AcDb2dVertex
 10
109.1932370935808
 20
4.426031007895904
 30
0.0
  0
VERTEX
  5
2F3
330
2B0
100
AcDbEntity
  8
LASERCUTFLAT
100
AcDbVertex
100
AcDb2dVertex
 10
109.2743630353682
 20
6.62872337537495
 30
0.0
  0
VERTEX
  5
2F4
330
2B0
100
AcDbEntity
  8
LASERCUTFLAT
100
AcDbVertex
100
AcDb2dVertex
 10
109.3281779793188
 20
8.895296622499288
 30
0.0
  0
VERTEX
  5
2F5
330
2B0
100
AcDbEntity
  8
LASERCUTFLAT
100
AcDbVertex
100
AcDb2dVertex
 10
85.66856531174807
 20
8.66282131238033
 30
0.0
  0
VERTEX
  5
2F6
330
2B0
100
AcDbEntity
  8
LASERCUTFLAT
100
AcDbVertex
100
AcDb2dVertex
 10
83.94975853287778
 20
8.51949810974726
 30
0.0
  0
VERTEX
  5
2F7
330
2B0
100
AcDbEntity
  8
LASERCUTFLAT
100
AcDbVertex
100
AcDb2dVertex
 10
82.29956516329081
 20
8.362104918188818
 30
0.0
  0
VERTEX
  5
2F8
330
2B0
100
AcDbEntity
  8
LASERCUTFLAT
100
AcDbVertex
100
AcDb2dVertex
 10
79.19035965192965
 20
8.011817570583215
 30
0.0
  0
VERTEX
  5
2F9
330
2B0
100
AcDbEntity
  8
LASERCUTFLAT
100
AcDbVertex
100
AcDb2dVertex
 10
76.31163077759025
 20
7.625377274138318
 30
0.0
  0
VERTEX
  5
2FA
330
2B0
100
AcDbEntity
  8
LASERCUTFLAT
100
AcDbVertex
100
AcDb2dVertex
 10
73.63406054019826
 20
7.216202033428918
 30
0.0
  0
VERTEX
  5
2FB
330
2B0
100
AcDbEntity
  8
LASERCUTFLAT
100
AcDbVertex
100
AcDb2dVertex
 10
64.34900595861727
 20
5.620511719442208
 30
0.0
  0
VERTEX
  5
2FC
330
2B0
100
AcDbEntity
  8
LASERCUTFLAT
100
AcDbVertex
100
AcDb2dVertex
 10
62.50057016700748
 20
5.334260977544951
 30
0.0
  0
VERTEX
  5
2FD
330
2B0
100
AcDbEntity
  8
LASERCUTFLAT
100
AcDbVertex
100
AcDb2dVertex
 10
60.69252949633072
 20
5.080783731759568
 30
0.0
  0
VERTEX
  5
2FE
330
2B0
100
AcDbEntity
  8
LASERCUTFLAT
100
AcDbVertex
100
AcDb2dVertex
 10
58.92341392502824
 20
4.858824193195614
 30
0.0
  0
VERTEX
  5
2FF
330
2B0
100
AcDbEntity
  8
LASERCUTFLAT
100
AcDbVertex
100
AcDb2dVertex
 10
57.19175343154127
 20
4.667126572962649
 30
0.0
  0
VERTEX
  5
300
330
2B0
100
AcDbEntity
  8
LASERCUTFLAT
100
AcDbVertex
100
AcDb2dVertex
 10
55.49607799431104
 20
4.504435082170226
 30
0.0
  0
VERTEX
  5
301
330
2B0
100
AcDbEntity
  8
LASERCUTFLAT
100
AcDbVertex
100
AcDb2dVertex
 10
53.8349175917788
 20
4.369493931927906
 30
0.0
  0
VERTEX
  5
302
330
2B0
100
AcDbEntity
  8
LASERCUTFLAT
100
AcDbVertex
100
AcDb2dVertex
 10
52.20680220238579
 20
4.261047333345243
 30
0.0
  0
VERTEX
  5
303
330
2B0
100
AcDbEntity
  8
LASERCUTFLAT
100
AcDbVertex
100
AcDb2dVertex
 10
50.61026180457323
 20
4.177839497531797
 30
0.0
  0
VERTEX
  5
304
330
2B0
100
AcDbEntity
  8
LASERCUTFLAT
100
AcDbVertex
100
AcDb2dVertex
 10
49.04382637678238
 20
4.118614635597122
 30
0.0
  0
VERTEX
  5
305
330
2B0
100
AcDbEntity
  8
LASERCUTFLAT
100
AcDbVertex
100
AcDb2dVertex
 10
47.50602589745445
 20
4.082116958650778
 30
0.0
  0
VERTEX
  5
306
330
2B0
100
AcDbEntity
  8
LASERCUTFLAT
100
AcDbVertex
100
AcDb2dVertex
 10
45.9953903450307
 20
4.067090677802319
 30
0.0
  0
VERTEX
  5
307
330
2B0
100
AcDbEntity
  8
LASERCUTFLAT
100
AcDbVertex
100
AcDb2dVertex
 10
44.51044969795236
 20
4.072280004161307
 30
0.0
  0
VERTEX
  5
308
330
2B0
100
AcDbEntity
  8
LASERCUTFLAT
100
AcDbVertex
100
AcDb2dVertex
 10
41.61177303359688
 20
4.13828232293984
 30
0.0
  0
VERTEX
  5
309
330
2B0
100
AcDbEntity
  8
LASERCUTFLAT
100
AcDbVertex
100
AcDb2dVertex
 10
38.79823573191788
 20
4.270077603862835
 30
0.0
  0
VERTEX
  5
30A
330
2B0
100
AcDbEntity
  8
LASERCUTFLAT
100
AcDbVertex
100
AcDb2dVertex
 10
36.05807762044529
 20
4.457619535806748
 30
0.0
  0
VERTEX
  5
30B
330
2B0
100
AcDbEntity
  8
LASERCUTFLAT
100
AcDbVertex
100
AcDb2dVertex
 10
33.37953852670901
 20
4.690861807648036
 30
0.0
  0
VERTEX
  5
30C
330
2B0
100
AcDbEntity
  8
LASERCUTFLAT
100
AcDbVertex
100
AcDb2dVertex
 10
30.75085827823892
 20
4.959758108263155
 30
0.0
  0
VERTEX
  5
30D
330
2B0
100
AcDbEntity
  8
LASERCUTFLAT
100
AcDbVertex
100
AcDb2dVertex
 10
28.16027670256493
 20
5.254262126528563
 30
0.0
  0
VERTEX
  5
30E
330
2B0
100
AcDbEntity
  8
LASERCUTFLAT
100
AcDbVertex
100
AcDb2dVertex
 10
17.94373367842805
 20
6.487429153622218
 30
0.0
  0
VERTEX
  5
30F
330
2B0
100
AcDbEntity
  8
LASERCUTFLAT
100
AcDbVertex
100
AcDb2dVertex
 10
13.79121904464811
 20
6.91660205242053
 30
0.0
  0
VERTEX
  5
310
330
2B0
100
AcDbEntity
  8
LASERCUTFLAT
100
AcDbVertex
100
AcDb2dVertex
 10
9.602952986143567
 20
7.287104205796672
 30
0.0
  0
VERTEX
  5
311
330
2B0
100
AcDbEntity
  8
LASERCUTFLAT
100
AcDbVertex
100
AcDb2dVertex
 10
5.396854971778729
 20
7.604102723924726
 30
0.0
  0
VERTEX
  5
312
330
2B0
100
AcDbEntity
  8
LASERCUTFLAT
100
AcDbVertex
100
AcDb2dVertex
 10
1.190844470417875
 20
7.872764716978778
 30
0.0
  0
VERTEX
  5
313
330
2B0
100
AcDbEntity
  8
LASERCUTFLAT
100
AcDbVertex
100
AcDb2dVertex
 10
-2.997159049074707
 20
8.098257295132916
 30
0.0
  0
VERTEX
  5
314
330
2B0
100
AcDbEntity
  8
LASERCUTFLAT
100
AcDbVertex
100
AcDb2dVertex
 10
-7.149236117834729
 20
8.285747568561224
 30
0.0
  0
VERTEX
  5
315
330
2B0
100
AcDbEntity
  8
LASERCUTFLAT
100
AcDbVertex
100
AcDb2dVertex
 10
-11.2474672669979
 20
8.440402647437791
 30
0.0
  0
VERTEX
  5
316
330
2B0
100
AcDbEntity
  8
LASERCUTFLAT
100
AcDbVertex
100
AcDb2dVertex
 10
-15.27393302769994
 20
8.5673896419367
 30
0.0
  0
VERTEX
  5
317
330
2B0
100
AcDbEntity
  8
LASERCUTFLAT
100
AcDbVertex
100
AcDb2dVertex
 10
-23.03989050826348
 20
8.759027818497888
 30
0.0
  0
VERTEX
  5
318
330
2B0
100
AcDbEntity
  8
LASERCUTFLAT
100
AcDbVertex
100
AcDb2dVertex
 10
-36.92216417782829
 20
9.037640006748155
 30
0.0
  0
VERTEX
  5
319
330
2B0
100
AcDbEntity
  8
LASERCUTFLAT
100
AcDbVertex
100
AcDb2dVertex
 10
-42.75176886500097
 20
9.207287781222607
 30
0.0
  0
VERTEX
  5
31A
330
2B0
100
AcDbEntity
  8
LASERCUTFLAT
100
AcDbVertex
100
AcDb2dVertex
 10
-47.69982368740293
 20
9.431953273048025
 30
0.0
  0
VERTEX
  5
31B
330
2B0
100
AcDbEntity
  8
LASERCUTFLAT
100
AcDbVertex
100
AcDb2dVertex
 10
-51.87603573506056
 20
9.651343806589606
 30
0.0
  0
VERTEX
  5
31C
330
2B0
100
AcDbEntity
  8
LASERCUTFLAT
100
AcDbVertex
100
AcDb2dVertex
 10
-53.72480061155233
 20
9.733867655553865
 30
0.0
  0
VERTEX
  5
31D
330
2B0
100
AcDbEntity
  8
LASERCUTFLAT
100
AcDbVertex
100
AcDb2dVertex
 10
-55.44072466618847
 20
9.784840794807057
 30
0.0
  0
VERTEX
  5
31E
330
2B0
100
AcDbEntity
  8
LASERCUTFLAT
100
AcDbVertex
100
AcDb2dVertex
 10
-57.04384785624583
 20
9.79418590096914
 30
0.0
  0
VERTEX
  5
31F
330
2B0
100
AcDbEntity
  8
LASERCUTFLAT
100
AcDbVertex
100
AcDb2dVertex
 10
-57.80937161370646
 20
9.780098778084756
 30
0.0
  0
VERTEX
  5
320
330
2B0
100
AcDbEntity
  8
LASERCUTFLAT
100
AcDbVertex
100
AcDb2dVertex
 10
-58.55421013900121
 20
9.75182565066008
 30
0.0
  0
VERTEX
  5
321
330
2B0
100
AcDbEntity
  8
LASERCUTFLAT
100
AcDbVertex
100
AcDb2dVertex
 10
-59.28086842678968
 20
9.70810685327261
 30
0.0
  0
VERTEX
  5
322
330
2B0
100
AcDbEntity
  8
LASERCUTFLAT
100
AcDbVertex
100
AcDb2dVertex
 10
-59.99185147173146
 20
9.647682720499837
 30
0.0
  0
VERTEX
  5
323
330
2B0
100
AcDbEntity
  8
LASERCUTFLAT
100
AcDbVertex
100
AcDb2dVertex
 10
-60.68966426848616
 20
9.569293586919263
 30
0.0
  0
VERTEX
  5
324
330
2B0
100
AcDbEntity
  8
LASERCUTFLAT
100
AcDbVertex
100
AcDb2dVertex
 10
-61.37681181171337
 20
9.47167978710838
 30
0.0
  0
VERTEX
  5
325
330
2B0
100
AcDbEntity
  8
LASERCUTFLAT
100
AcDbVertex
100
AcDb2dVertex
 10
-62.05579909607272
 20
9.353581655644682
 30
0.0
  0
VERTEX
  5
326
330
2B0
100
AcDbEntity
  8
LASERCUTFLAT
100
AcDbVertex
100
AcDb2dVertex
 10
-62.72913111622378
 20
9.213739527105666
 30
0.0
  0
VERTEX
  5
327
330
2B0
100
AcDbEntity
  8
LASERCUTFLAT
100
AcDbVertex
100
AcDb2dVertex
 10
-63.39931286682619
 20
9.050893736068826
 30
0.0
  0
VERTEX
  5
328
330
2B0
100
AcDbEntity
  8
LASERCUTFLAT
100
AcDbVertex
100
AcDb2dVertex
 10
-64.06884934253952
 20
8.86378461711166
 30
0.0
  0
VERTEX
  5
329
330
2B0
100
AcDbEntity
  8
LASERCUTFLAT
100
AcDbVertex
100
AcDb2dVertex
 10
-64.7402455380234
 20
8.651152504811662
 30
0.0
  0
VERTEX
  5
32A
330
2B0
100
AcDbEntity
  8
LASERCUTFLAT
100
AcDbVertex
100
AcDb2dVertex
 10
-65.41600644793739
 20
8.411737733746325
 30
0.0
  0
VERTEX
  5
32B
330
2B0
100
AcDbEntity
  8
LASERCUTFLAT
100
AcDbVertex
100
AcDb2dVertex
 10
-66.09863706694114
 20
8.144280638493147
 30
0.0
  0
VERTEX
  5
32C
330
2B0
100
AcDbEntity
  8
LASERCUTFLAT
100
AcDbVertex
100
AcDb2dVertex
 10
-66.79064238969421
 20
7.847521553629624
 30
0.0
  0
VERTEX
  5
32D
330
2B0
100
AcDbEntity
  8
LASERCUTFLAT
100
AcDbVertex
100
AcDb2dVertex
 10
-67.49452741085625
 20
7.520200813733251
 30
0.0
  0
VERTEX
  5
32E
330
2B0
100
AcDbEntity
  8
LASERCUTFLAT
100
AcDbVertex
100
AcDb2dVertex
 10
-68.21279712508682
 20
7.16105875338152
 30
0.0
  0
VERTEX
  5
32F
330
2B0
100
AcDbEntity
  8
LASERCUTFLAT
100
AcDbVertex
100
AcDb2dVertex
 10
-68.94795652704555
 20
6.768835707151931
 30
0.0
  0
VERTEX
  5
330
330
2B0
100
AcDbEntity
  8
LASERCUTFLAT
100
AcDbVertex
100
AcDb2dVertex
 10
-69.70251061139203
 20
6.342272009621976
 30
0.0
  0
VERTEX
  5
331
330
2B0
100
AcDbEntity
  8
LASERCUTFLAT
100
AcDbVertex
100
AcDb2dVertex
 10
-70.47812575361313
 20
5.879593546027618
 30
0.0
  0
VERTEX
  5
332
330
2B0
100
AcDbEntity
  8
LASERCUTFLAT
100
AcDbVertex
100
AcDb2dVertex
 10
-71.27311385250482
 20
5.376968404238672
 30
0.0
  0
VERTEX
  5
333
330
2B0
100
AcDbEntity
  8
LASERCUTFLAT
100
AcDbVertex
100
AcDb2dVertex
 10
-72.08494818769027
 20
4.83005022278342
 30
0.0
  0
VERTEX
  5
334
330
2B0
100
AcDbEntity
  8
LASERCUTFLAT
100
AcDbVertex
100
AcDb2dVertex
 10
-72.9111020387927
 20
4.234492640190146
 30
0.0
  0
VERTEX
  5
335
330
2B0
100
AcDbEntity
  8
LASERCUTFLAT
100
AcDbVertex
100
AcDb2dVertex
 10
-73.32875918269505
 20
3.917115835506839
 30
0.0
  0
VERTEX
  5
336
330
2B0
100
AcDbEntity
  8
LASERCUTFLAT
100
AcDbVertex
100
AcDb2dVertex
 10
-73.74904868543535
 20
3.585949294987132
 30
0.0
  0
VERTEX
  5
337
330
2B0
100
AcDbEntity
  8
LASERCUTFLAT
100
AcDbVertex
100
AcDb2dVertex
 10
-74.17165470696649
 20
3.24044972344706
 30
0.0
  0
VERTEX
  5
338
330
2B0
100
AcDbEntity
  8
LASERCUTFLAT
100
AcDbVertex
100
AcDb2dVertex
 10
-74.5962614072414
 20
2.88007382570266
 30
0.0
  0
VERTEX
  5
339
330
2B0
100
AcDbEntity
  8
LASERCUTFLAT
100
AcDbVertex
100
AcDb2dVertex
 10
-75.02255294621295
 20
2.504278306569966
 30
0.0
  0
VERTEX
  5
33A
330
2B0
100
AcDbEntity
  8
LASERCUTFLAT
100
AcDbVertex
100
AcDb2dVertex
 10
-75.45021348383409
 20
2.112519870865012
 30
0.0
  0
VERTEX
  5
33B
330
2B0
100
AcDbEntity
  8
LASERCUTFLAT
100
AcDbVertex
100
AcDb2dVertex
 10
-75.87892718005767
 20
1.704255223403836
 30
0.0
  0
VERTEX
  5
33C
330
2B0
100
AcDbEntity
  8
LASERCUTFLAT
100
AcDbVertex
100
AcDb2dVertex
 10
-76.30837819483662
 20
1.278941069002471
 30
0.0
  0
VERTEX
  5
33D
330
2B0
100
AcDbEntity
  8
LASERCUTFLAT
100
AcDbVertex
100
AcDb2dVertex
 10
-76.73825068812383
 20
0.8360341124769537
 30
0.0
  0
VERTEX
  5
33E
330
2B0
100
AcDbEntity
  8
LASERCUTFLAT
100
AcDbVertex
100
AcDb2dVertex
 10
-77.16822881987221
 20
0.3749910586433189
 30
0.0
  0
VERTEX
  5
33F
330
2B0
100
AcDbEntity
  8
LASERCUTFLAT
100
AcDbVertex
100
AcDb2dVertex
 10
-77.59799675003464
 20
-0.1047313876823982
 30
0.0
  0
VERTEX
  5
340
330
2B0
100
AcDbEntity
  8
LASERCUTFLAT
100
AcDbVertex
100
AcDb2dVertex
 10
-78.02723863856403
 20
-0.6036765216841622
 30
0.0
  0
VERTEX
  5
341
330
2B0
100
AcDbEntity
  8
LASERCUTFLAT
100
AcDbVertex
100
AcDb2dVertex
 10
-78.4556386454133
 20
-1.122387638545938
 30
0.0
  0
VERTEX
  5
342
330
2B0
100
AcDbEntity
  8
LASERCUTFLAT
100
AcDbVertex
100
AcDb2dVertex
 10
-78.88288093053534
 20
-1.66140803345169
 30
0.0
  0
VERTEX
  5
343
330
2B0
100
AcDbEntity
  8
LASERCUTFLAT
100
AcDbVertex
100
AcDb2dVertex
 10
-79.30864965388305
 20
-2.221281001585383
 30
0.0
  0
VERTEX
  5
344
330
2B0
100
AcDbEntity
  8
LASERCUTFLAT
100
AcDbVertex
100
AcDb2dVertex
 10
-79.73262897540931
 20
-2.802549838130982
 30
0.0
  0
VERTEX
  5
345
330
2B0
100
AcDbEntity
  8
LASERCUTFLAT
100
AcDbVertex
100
AcDb2dVertex
 10
-80.15450305506707
 20
-3.405757838272452
 30
0.0
  0
VERTEX
  5
346
330
2B0
100
AcDbEntity
  8
LASERCUTFLAT
100
AcDbVertex
100
AcDb2dVertex
 10
-80.5739560528092
 20
-4.031448297193757
 30
0.0
  0
VERTEX
  5
347
330
2B0
100
AcDbEntity
  8
LASERCUTFLAT
100
AcDbVertex
100
AcDb2dVertex
 10
-80.99067212858861
 20
-4.680164510078861
 30
0.0
  0
VERTEX
  5
348
330
2B0
100
AcDbEntity
  8
LASERCUTFLAT
100
AcDbVertex
100
AcDb2dVertex
 10
-81.40433544235819
 20
-5.352449772111731
 30
0.0
  0
VERTEX
  5
349
330
2B0
100
AcDbEntity
  8
LASERCUTFLAT
100
AcDbVertex
100
AcDb2dVertex
 10
-81.81463015407085
 20
-6.048847378476329
 30
0.0
  0
VERTEX
  5
34A
330
2B0
100
AcDbEntity
  8
LASERCUTFLAT
100
AcDbVertex
100
AcDb2dVertex
 10
-82.2212404236795
 20
-6.769900624356621
 30
0.0
  0
VERTEX
  5
34B
330
2B0
100
AcDbEntity
  8
LASERCUTFLAT
100
AcDbVertex
100
AcDb2dVertex
 10
-82.62385041113703
 20
-7.516152804936572
 30
0.0
  0
VERTEX
  5
34C
330
2B0
100
AcDbEntity
  8
LASERCUTFLAT
100
AcDbVertex
100
AcDb2dVertex
 10
-83.02214427639635
 20
-8.288147215400148
 30
0.0
  0
VERTEX
  5
34D
330
2B0
100
AcDbEntity
  8
LASERCUTFLAT
100
AcDbVertex
100
AcDb2dVertex
 10
-83.41580617941034
 20
-9.08642715093131
 30
0.0
  0
VERTEX
  5
34E
330
2B0
100
AcDbEntity
  8
LASERCUTFLAT
100
AcDbVertex
100
AcDb2dVertex
 10
-83.80452028013194
 20
-9.911535906714029
 30
0.0
  0
VERTEX
  5
34F
330
2B0
100
AcDbEntity
  8
LASERCUTFLAT
100
AcDbVertex
100
AcDb2dVertex
 10
-84.56584171450947
 20
-11.64441305976998
 30
0.0
  0
VERTEX
  5
350
330
2B0
100
AcDbEntity
  8
LASERCUTFLAT
100
AcDbVertex
100
AcDb2dVertex
 10
-85.30358185915217
 20
-13.49112503603971
 30
0.0
  0
VERTEX
  5
351
330
2B0
100
AcDbEntity
  8
LASERCUTFLAT
100
AcDbVertex
100
AcDb2dVertex
 10
-86.01521399368326
 20
-15.45601819699496
 30
0.0
  0
VERTEX
  5
352
330
2B0
100
AcDbEntity
  8
LASERCUTFLAT
100
AcDbVertex
100
AcDb2dVertex
 10
-86.69821139772594
 20
-17.54343890410743
 30
0.0
  0
VERTEX
  5
353
330
2B0
100
AcDbEntity
  8
LASERCUTFLAT
100
AcDbVertex
100
AcDb2dVertex
 10
-87.35004735090341
 20
-19.75773351884883
 30
0.0
  0
VERTEX
  5
354
330
2B0
100
AcDbEntity
  8
LASERCUTFLAT
100
AcDbVertex
100
AcDb2dVertex
 10
-87.96819513283889
 20
-22.1032484026909
 30
0.0
  0
VERTEX
  5
355
330
2B0
100
AcDbEntity
  8
LASERCUTFLAT
100
AcDbVertex
100
AcDb2dVertex
 10
-88.55012802315558
 20
-24.58432991710535
 30
0.0
  0
VERTEX
  5
356
330
2B0
100
AcDbEntity
  8
LASERCUTFLAT
100
AcDbVertex
100
AcDb2dVertex
 10
-89.09331930147671
 20
-27.20532442356389
 30
0.0
  0
VERTEX
  5
357
330
2B0
100
AcDbEntity
  8
LASERCUTFLAT
100
AcDbVertex
100
AcDb2dVertex
 10
-89.59524224742549
 20
-29.97057828353825
 30
0.0
  0
VERTEX
  5
358
330
2B0
100
AcDbEntity
  8
LASERCUTFLAT
100
AcDbVertex
100
AcDb2dVertex
 10
-90.05337014062513
 20
-32.88443785850013
 30
0.0
  0
VERTEX
  5
359
330
2B0
100
AcDbEntity
  8
LASERCUTFLAT
100
AcDbVertex
100
AcDb2dVertex
 10
-90.46517626069885
 20
-35.95124950992125
 30
0.0
  0
VERTEX
  5
35A
330
2B0
100
AcDbEntity
  8
LASERCUTFLAT
100
AcDbVertex
100
AcDb2dVertex
 10
-90.82813388726984
 20
-39.17535959927335
 30
0.0
  0
VERTEX
  5
35B
330
2B0
100
AcDbEntity
  8
LASERCUTFLAT
100
AcDbVertex
100
AcDb2dVertex
 10
-91.13971629996132
 20
-42.56111448802814
 30
0.0
  0
VERTEX
  5
35C
330
2B0
100
AcDbEntity
  8
LASERCUTFLAT
100
AcDbVertex
100
AcDb2dVertex
 10
-91.39739677839651
 20
-46.11286053765733
 30
0.0
  0
VERTEX
  5
35D
330
2B0
100
AcDbEntity
  8
LASERCUTFLAT
100
AcDbVertex
100
AcDb2dVertex
 10
-91.59864860219864
 20
-49.83494410963262
 30
0.0
  0
VERTEX
  5
35E
330
2B0
100
AcDbEntity
  8
LASERCUTFLAT
100
AcDbVertex
100
AcDb2dVertex
 10
-78.66740237212593
 20
-49.83494410963262
 30
0.0
  0
VERTEX
  5
35F
330
2B0
100
AcDbEntity
  8
LASERCUTFLAT
100
AcDbVertex
100
AcDb2dVertex
 10
-76.93309900871313
 20
-47.00752985341947
 30
0.0
  0
VERTEX
  5
360
330
2B0
100
AcDbEntity
  8
LASERCUTFLAT
100
AcDbVertex
100
AcDb2dVertex
 10
-76.09323983708227
 20
-45.67666795370124
 30
0.0
  0
VERTEX
  5
361
330
2B0
100
AcDbEntity
  8
LASERCUTFLAT
100
AcDbVertex
100
AcDb2dVertex
 10
-75.25523920928096
 20
-44.40034046931785
 30
0.0
  0
VERTEX
  5
362
330
2B0
100
AcDbEntity
  8
LASERCUTFLAT
100
AcDbVertex
100
AcDb2dVertex
 10
-74.40684477814362
 20
-43.17802559757627
 30
0.0
  0
VERTEX
  5
363
330
2B0
100
AcDbEntity
  8
LASERCUTFLAT
100
AcDbVertex
100
AcDb2dVertex
 10
-73.97492102783468
 20
-42.58695982810457
 30
0.0
  0
VERTEX
  5
364
330
2B0
100
AcDbEntity
  8
LASERCUTFLAT
100
AcDbVertex
100
AcDb2dVertex
 10
-73.53580419650461
 20
-42.00920153578343
 30
0.0
  0
VERTEX
  5
365
330
2B0
100
AcDbEntity
  8
LASERCUTFLAT
100
AcDbVertex
100
AcDb2dVertex
 10
-73.08796274075775
 20
-41.44468549527623
 30
0.0
  0
VERTEX
  5
366
330
2B0
100
AcDbEntity
  8
LASERCUTFLAT
100
AcDbVertex
100
AcDb2dVertex
 10
-72.62986511719836
 20
-40.89334648124633
 30
0.0
  0
VERTEX
  5
367
330
2B0
100
AcDbEntity
  8
LASERCUTFLAT
100
AcDbVertex
100
AcDb2dVertex
 10
-72.15997978243075
 20
-40.3551192683571
 30
0.0
  0
VERTEX
  5
368
330
2B0
100
AcDbEntity
  8
LASERCUTFLAT
100
AcDbVertex
100
AcDb2dVertex
 10
-71.67677519305924
 20
-39.82993863127192
 30
0.0
  0
VERTEX
  5
369
330
2B0
100
AcDbEntity
  8
LASERCUTFLAT
100
AcDbVertex
100
AcDb2dVertex
 10
-71.1787198056881
 20
-39.31773934465414
 30
0.0
  0
VERTEX
  5
36A
330
2B0
100
AcDbEntity
  8
LASERCUTFLAT
100
AcDbVertex
100
AcDb2dVertex
 10
-70.66428207692167
 20
-38.81845618316714
 30
0.0
  0
VERTEX
  5
36B
330
2B0
100
AcDbEntity
  8
LASERCUTFLAT
100
AcDbVertex
100
AcDb2dVertex
 10
-70.13193046336421
 20
-38.33202392147429
 30
0.0
  0
VERTEX
  5
36C
330
2B0
100
AcDbEntity
  8
LASERCUTFLAT
100
AcDbVertex
100
AcDb2dVertex
 10
-69.58013342162003
 20
-37.85837733423897
 30
0.0
  0
VERTEX
  5
36D
330
2B0
100
AcDbEntity
  8
LASERCUTFLAT
100
AcDbVertex
100
AcDb2dVertex
 10
-69.00735940829344
 20
-37.39745119612455
 30
0.0
  0
VERTEX
  5
36E
330
2B0
100
AcDbEntity
  8
LASERCUTFLAT
100
AcDbVertex
100
AcDb2dVertex
 10
-68.41207687998872
 20
-36.94918028179438
 30
0.0
  0
VERTEX
  5
36F
330
2B0
100
AcDbEntity
  8
LASERCUTFLAT
100
AcDbVertex
100
AcDb2dVertex
 10
-67.7927542933102
 20
-36.51349936591185
 30
0.0
  0
VERTEX
  5
370
330
2B0
100
AcDbEntity
  8
LASERCUTFLAT
100
AcDbVertex
100
AcDb2dVertex
 10
-67.14786010486215
 20
-36.09034322314031
 30
0.0
  0
VERTEX
  5
371
330
2B0
100
AcDbEntity
  8
LASERCUTFLAT
100
AcDbVertex
100
AcDb2dVertex
 10
-66.47586277124887
 20
-35.67964662814315
 30
0.0
  0
VERTEX
  5
372
330
2B0
100
AcDbEntity
  8
LASERCUTFLAT
100
AcDbVertex
100
AcDb2dVertex
 10
-65.7752307490747
 20
-35.28134435558373
 30
0.0
  0
VERTEX
  5
373
330
2B0
100
AcDbEntity
  8
LASERCUTFLAT
100
AcDbVertex
100
AcDb2dVertex
 10
-65.04443249494389
 20
-34.89537118012541
 30
0.0
  0
VERTEX
  5
374
330
2B0
100
AcDbEntity
  8
LASERCUTFLAT
100
AcDbVertex
100
AcDb2dVertex
 10
-64.28193646546075
 20
-34.52166187643159
 30
0.0
  0
VERTEX
  5
375
330
2B0
100
AcDbEntity
  8
LASERCUTFLAT
100
AcDbVertex
100
AcDb2dVertex
 10
-63.48621111722959
 20
-34.16015121916562
 30
0.0
  0
VERTEX
  5
376
330
2B0
100
AcDbEntity
  8
LASERCUTFLAT
100
AcDbVertex
100
AcDb2dVertex
 10
-62.65572490685473
 20
-33.81077398299087
 30
0.0
  0
VERTEX
  5
377
330
2B0
100
AcDbEntity
  8
LASERCUTFLAT
100
AcDbVertex
100
AcDb2dVertex
 10
-61.78894629094043
 20
-33.47346494257072
 30
0.0
  0
VERTEX
  5
378
330
2B0
100
AcDbEntity
  8
LASERCUTFLAT
100
AcDbVertex
100
AcDb2dVertex
 10
-60.88434372609102
 20
-33.14815887256853
 30
0.0
  0
VERTEX
  5
379
330
2B0
100
AcDbEntity
  8
LASERCUTFLAT
100
AcDbVertex
100
AcDb2dVertex
 10
-59.94038566891078
 20
-32.83479054764767
 30
0.0
  0
VERTEX
  5
37A
330
2B0
100
AcDbEntity
  8
LASERCUTFLAT
100
AcDbVertex
100
AcDb2dVertex
 10
-58.95554057600401
 20
-32.53329474247152
 30
0.0
  0
VERTEX
  5
37B
330
2B0
100
AcDbEntity
  8
LASERCUTFLAT
100
AcDbVertex
100
AcDb2dVertex
 10
-57.92827690397503
 20
-32.24360623170344
 30
0.0
  0
VERTEX
  5
37C
330
2B0
100
AcDbEntity
  8
LASERCUTFLAT
100
AcDbVertex
100
AcDb2dVertex
 10
-56.85706310942812
 20
-31.9656597900068
 30
0.0
  0
VERTEX
  5
37D
330
2B0
100
AcDbEntity
  8
LASERCUTFLAT
100
AcDbVertex
100
AcDb2dVertex
 10
-55.74036764896758
 20
-31.69939019204498
 30
0.0
  0
VERTEX
  5
37E
330
2B0
100
AcDbEntity
  8
LASERCUTFLAT
100
AcDbVertex
100
AcDb2dVertex
 10
-54.57665897919772
 20
-31.44473221248134
 30
0.0
  0
VERTEX
  5
37F
330
2B0
100
AcDbEntity
  8
LASERCUTFLAT
100
AcDbVertex
100
AcDb2dVertex
 10
-53.36440555672283
 20
-31.20162062597925
 30
0.0
  0
VERTEX
  5
380
330
2B0
100
AcDbEntity
  8
LASERCUTFLAT
100
AcDbVertex
100
AcDb2dVertex
 10
-52.10207583814721
 20
-30.96999020720209
 30
0.0
  0
VERTEX
  5
381
330
2B0
100
AcDbEntity
  8
LASERCUTFLAT
100
AcDbVertex
100
AcDb2dVertex
 10
-49.42106133911101
 20
-30.54091197147602
 30
0.0
  0
VERTEX
  5
382
330
2B0
100
AcDbEntity
  8
LASERCUTFLAT
100
AcDbVertex
100
AcDb2dVertex
 10
-46.52136313492348
 20
-30.1569757026101
 30
0.0
  0
VERTEX
  5
383
330
2B0
100
AcDbEntity
  8
LASERCUTFLAT
100
AcDbVertex
100
AcDb2dVertex
 10
-43.39072887841905
 20
-29.81765959791127
 30
0.0
  0
VERTEX
  5
384
330
2B0
100
AcDbEntity
  8
LASERCUTFLAT
100
AcDbVertex
100
AcDb2dVertex
 10
-40.0169062224321
 20
-29.5224418546865
 30
0.0
  0
VERTEX
  5
385
330
2B0
100
AcDbEntity
  8
LASERCUTFLAT
100
AcDbVertex
100
AcDb2dVertex
 10
-36.38764281979702
 20
-29.27080067024275
 30
0.0
  0
VERTEX
  5
386
330
2B0
100
AcDbEntity
  8
LASERCUTFLAT
100
AcDbVertex
100
AcDb2dVertex
 10
-32.49068632334822
 20
-29.06221424188698
 30
0.0
  0
VERTEX
  5
387
330
2B0
100
AcDbEntity
  8
LASERCUTFLAT
100
AcDbVertex
100
AcDb2dVertex
 10
-28.31378438592009
 20
-28.89616076692617
 30
0.0
  0
VERTEX
  5
388
330
2B0
100
AcDbEntity
  8
LASERCUTFLAT
100
AcDbVertex
100
AcDb2dVertex
 10
-23.84468466034702
 20
-28.77211844266725
 30
0.0
  0
VERTEX
  5
389
330
2B0
100
AcDbEntity
  8
LASERCUTFLAT
100
AcDbVertex
100
AcDb2dVertex
 10
-19.07113479946342
 20
-28.6895654664172
 30
0.0
  0
VERTEX
  5
38A
330
2B0
100
AcDbEntity
  8
LASERCUTFLAT
100
AcDbVertex
100
AcDb2dVertex
 10
-13.98088245610368
 20
-28.64798003548298
 30
0.0
  0
VERTEX
  5
38B
330
2B0
100
AcDbEntity
  8
LASERCUTFLAT
100
AcDbVertex
100
AcDb2dVertex
 10
-8.561675283102188
 20
-28.64684034717154
 30
0.0
  0
VERTEX
  5
38C
330
2B0
100
AcDbEntity
  8
LASERCUTFLAT
100
AcDbVertex
100
AcDb2dVertex
 10
-2.801260933293349
 20
-28.68562459878986
 30
0.0
  0
VERTEX
  5
38D
330
2B0
100
AcDbEntity
  8
LASERCUTFLAT
100
AcDbVertex
100
AcDb2dVertex
 10
2.959153416515494
 20
-28.64684034717153
 30
0.0
  0
VERTEX
  5
38E
330
2B0
100
AcDbEntity
  8
LASERCUTFLAT
100
AcDbVertex
100
AcDb2dVertex
 10
8.378360589516989
 20
-28.64798003548295
 30
0.0
  0
VERTEX
  5
38F
330
2B0
100
AcDbEntity
  8
LASERCUTFLAT
100
AcDbVertex
100
AcDb2dVertex
 10
13.46861293287674
 20
-28.68956546641715
 30
0.0
  0
VERTEX
  5
390
330
2B0
100
AcDbEntity
  8
LASERCUTFLAT
100
AcDbVertex
100
AcDb2dVertex
 10
18.24216279376035
 20
-28.77211844266719
 30
0.0
  0
VERTEX
  5
391
330
2B0
100
AcDbEntity
  8
LASERCUTFLAT
100
AcDbVertex
100
AcDb2dVertex
 10
22.71126251933342
 20
-28.89616076692609
 30
0.0
  0
VERTEX
  5
392
330
2B0
100
AcDbEntity
  8
LASERCUTFLAT
100
AcDbVertex
100
AcDb2dVertex
 10
26.88816445676155
 20
-29.06221424188691
 30
0.0
  0
VERTEX
  5
393
330
2B0
100
AcDbEntity
  8
LASERCUTFLAT
100
AcDbVertex
100
AcDb2dVertex
 10
30.78512095321036
 20
-29.27080067024266
 30
0.0
  0
VERTEX
  5
394
330
2B0
100
AcDbEntity
  8
LASERCUTFLAT
100
AcDbVertex
100
AcDb2dVertex
 10
34.41438435584544
 20
-29.5224418546864
 30
0.0
  0
VERTEX
  5
395
330
2B0
100
AcDbEntity
  8
LASERCUTFLAT
100
AcDbVertex
100
AcDb2dVertex
 10
37.7882070118324
 20
-29.81765959791116
 30
0.0
  0
VERTEX
  5
396
330
2B0
100
AcDbEntity
  8
LASERCUTFLAT
100
AcDbVertex
100
AcDb2dVertex
 10
40.91884126833684
 20
-30.15697570260998
 30
0.0
  0
VERTEX
  5
397
330
2B0
100
AcDbEntity
  8
LASERCUTFLAT
100
AcDbVertex
100
AcDb2dVertex
 10
43.81853947252436
 20
-30.5409119714759
 30
0.0
  0
VERTEX
  5
398
330
2B0
100
AcDbEntity
  8
LASERCUTFLAT
100
AcDbVertex
100
AcDb2dVertex
 10
46.49955397156057
 20
-30.96999020720196
 30
0.0
  0
VERTEX
  5
399
330
2B0
100
AcDbEntity
  8
LASERCUTFLAT
100
AcDbVertex
100
AcDb2dVertex
 10
47.76188369013619
 20
-31.20162062597912
 30
0.0
  0
VERTEX
  5
39A
330
2B0
100
AcDbEntity
  8
LASERCUTFLAT
100
AcDbVertex
100
AcDb2dVertex
 10
48.97413711261107
 20
-31.4447322124812
 30
0.0
  0
VERTEX
  5
39B
330
2B0
100
AcDbEntity
  8
LASERCUTFLAT
100
AcDbVertex
100
AcDb2dVertex
 10
50.13784578238094
 20
-31.69939019204483
 30
0.0
  0
VERTEX
  5
39C
330
2B0
100
AcDbEntity
  8
LASERCUTFLAT
100
AcDbVertex
100
AcDb2dVertex
 10
51.25454124284147
 20
-31.96565979000665
 30
0.0
  0
VERTEX
  5
39D
330
2B0
100
AcDbEntity
  8
LASERCUTFLAT
100
AcDbVertex
100
AcDb2dVertex
 10
52.32575503738839
 20
-32.24360623170328
 30
0.0
  0
VERTEX
  5
39E
330
2B0
100
AcDbEntity
  8
LASERCUTFLAT
100
AcDbVertex
100
AcDb2dVertex
 10
53.35301870941738
 20
-32.53329474247136
 30
0.0
  0
VERTEX
  5
39F
330
2B0
100
AcDbEntity
  8
LASERCUTFLAT
100
AcDbVertex
100
AcDb2dVertex
 10
54.33786380232415
 20
-32.83479054764751
 30
0.0
  0
VERTEX
  5
3A0
330
2B0
100
AcDbEntity
  8
LASERCUTFLAT
100
AcDbVertex
100
AcDb2dVertex
 10
55.28182185950438
 20
-33.14815887256837
 30
0.0
  0
VERTEX
  5
3A1
330
2B0
100
AcDbEntity
  8
LASERCUTFLAT
100
AcDbVertex
100
AcDb2dVertex
 10
56.1864244243538
 20
-33.47346494257057
 30
0.0
  0
VERTEX
  5
3A2
330
2B0
100
AcDbEntity
  8
LASERCUTFLAT
100
AcDbVertex
100
AcDb2dVertex
 10
57.05320304026809
 20
-33.81077398299072
 30
0.0
  0
VERTEX
  5
3A3
330
2B0
100
AcDbEntity
  8
LASERCUTFLAT
100
AcDbVertex
100
AcDb2dVertex
 10
57.88368925064296
 20
-34.16015121916546
 30
0.0
  0
VERTEX
  5
3A4
330
2B0
100
AcDbEntity
  8
LASERCUTFLAT
100
AcDbVertex
100
AcDb2dVertex
 10
58.67941459887412
 20
-34.52166187643143
 30
0.0
  0
VERTEX
  5
3A5
330
2B0
100
AcDbEntity
  8
LASERCUTFLAT
100
AcDbVertex
100
AcDb2dVertex
 10
59.44191062835725
 20
-34.89537118012525
 30
0.0
  0
VERTEX
  5
3A6
330
2B0
100
AcDbEntity
  8
LASERCUTFLAT
100
AcDbVertex
100
AcDb2dVertex
 10
60.17270888248806
 20
-35.28134435558356
 30
0.0
  0
VERTEX
  5
3A7
330
2B0
100
AcDbEntity
  8
LASERCUTFLAT
100
AcDbVertex
100
AcDb2dVertex
 10
60.87334090466224
 20
-35.67964662814298
 30
0.0
  0
VERTEX
  5
3A8
330
2B0
100
AcDbEntity
  8
LASERCUTFLAT
100
AcDbVertex
100
AcDb2dVertex
 10
61.54533823827552
 20
-36.09034322314014
 30
0.0
  0
VERTEX
  5
3A9
330
2B0
100
AcDbEntity
  8
LASERCUTFLAT
100
AcDbVertex
100
AcDb2dVertex
 10
62.19023242672357
 20
-36.51349936591166
 30
0.0
  0
VERTEX
  5
3AA
330
2B0
100
AcDbEntity
  8
LASERCUTFLAT
100
AcDbVertex
100
AcDb2dVertex
 10
62.8095550134021
 20
-36.9491802817942
 30
0.0
  0
VERTEX
  5
3AB
330
2B0
100
AcDbEntity
  8
LASERCUTFLAT
100
AcDbVertex
100
AcDb2dVertex
 10
63.40483754170683
 20
-37.39745119612436
 30
0.0
  0
VERTEX
  5
3AC
330
2B0
100
AcDbEntity
  8
LASERCUTFLAT
100
AcDbVertex
100
AcDb2dVertex
 10
63.97761155503342
 20
-37.8583773342388
 30
0.0
  0
VERTEX
  5
3AD
330
2B0
100
AcDbEntity
  8
LASERCUTFLAT
100
AcDbVertex
100
AcDb2dVertex
 10
64.5294085967776
 20
-38.33202392147412
 30
0.0
  0
VERTEX
  5
3AE
330
2B0
100
AcDbEntity
  8
LASERCUTFLAT
100
AcDbVertex
100
AcDb2dVertex
 10
65.06176021033505
 20
-38.81845618316696
 30
0.0
  0
VERTEX
  5
3AF
330
2B0
100
AcDbEntity
  8
LASERCUTFLAT
100
AcDbVertex
100
AcDb2dVertex
 10
65.57619793910149
 20
-39.31773934465396
 30
0.0
  0
VERTEX
  5
3B0
330
2B0
100
AcDbEntity
  8
LASERCUTFLAT
100
AcDbVertex
100
AcDb2dVertex
 10
66.07425332647263
 20
-39.82993863127173
 30
0.0
  0
VERTEX
  5
3B1
330
2B0
100
AcDbEntity
  8
LASERCUTFLAT
100
AcDbVertex
100
AcDb2dVertex
 10
66.55745791584414
 20
-40.35511926835692
 30
0.0
  0
VERTEX
  5
3B2
330
2B0
100
AcDbEntity
  8
LASERCUTFLAT
100
AcDbVertex
100
AcDb2dVertex
 10
67.02734325061175
 20
-40.89334648124615
 30
0.0
  0
VERTEX
  5
3B3
330
2B0
100
AcDbEntity
  8
LASERCUTFLAT
100
AcDbVertex
100
AcDb2dVertex
 10
67.48544087417113
 20
-41.44468549527605
 30
0.0
  0
VERTEX
  5
3B4
330
2B0
100
AcDbEntity
  8
LASERCUTFLAT
100
AcDbVertex
100
AcDb2dVertex
 10
67.933282329918
 20
-42.00920153578325
 30
0.0
  0
VERTEX
  5
3B5
330
2B0
100
AcDbEntity
  8
LASERCUTFLAT
100
AcDbVertex
100
AcDb2dVertex
 10
68.37239916124807
 20
-42.58695982810438
 30
0.0
  0
VERTEX
  5
3B6
330
2B0
100
AcDbEntity
  8
LASERCUTFLAT
100
AcDbVertex
100
AcDb2dVertex
 10
68.80432291155701
 20
-43.17802559757608
 30
0.0
  0
VERTEX
  5
3B7
330
2B0
100
AcDbEntity
  8
LASERCUTFLAT
100
AcDbVertex
100
AcDb2dVertex
 10
69.65271734269436
 20
-44.40034046931767
 30
0.0
  0
VERTEX
  5
3B8
330
2B0
100
AcDbEntity
  8
LASERCUTFLAT
100
AcDbVertex
100
AcDb2dVertex
 10
70.49071797049567
 20
-45.67666795370106
 30
0.0
  0
VERTEX
  5
3B9
330
2B0
100
AcDbEntity
  8
LASERCUTFLAT
100
AcDbVertex
100
AcDb2dVertex
 10
71.33057714212651
 20
-47.00752985341929
 30
0.0
  0
VERTEX
  5
3BA
330
2B0
100
AcDbEntity
  8
LASERCUTFLAT
100
AcDbVertex
100
AcDb2dVertex
 10
73.06488050553935
 20
-49.83494410963242
 30
0.0
  0
SEQEND
  5
3BB
330
2B0
100
AcDbEntity
  8
LASERCUTFLAT
  0
CIRCLE
  5
3BC
330
1F
100
AcDbEntity
  8
LASERCUTFLAT
100
AcDbCircle
 10
91.08271681173646
 20
-0.6987271171454815
 30
0.0
 40
1.750035428671502
  0
CIRCLE
  5
3BD
330
1F
100
AcDbEntity
  8
LASERCUTFLAT
100
AcDbCircle
 10
-54.9044049234136
 20
-10.07488938499679
 30
0.0
 40
1.750035428671481
  0
CIRCLE
  5
3BE
330
1F
100
AcDbEntity
  8
LASERCUTFLAT
100
AcDbCircle
 10
-31.43923911794883
 20
1.876358847374018
 30
0.0
 40
1.750035428671488
  0
CIRCLE
  5
3BF
330
1F
100
AcDbEntity
  8
LASERCUTFLAT
100
AcDbCircle
 10
-31.43923911794882
 20
-22.07472409505656
 30
0.0
 40
1.750035428671481
  0
CIRCLE
  5
3C0
330
1F
100
AcDbEntity
  8
LASERCUTFLAT
100
AcDbCircle
 10
103.0827168117365
 20
-0.6987271171454764
 30
0.0
 40
1.750035428671488
  0
CIRCLE
  5
3C1
330
1F
100
AcDbEntity
  8
LASERCUTFLAT
100
AcDbCircle
 10
96.3993124821028
 20
-9.160518761640915
 30
0.0
 40
1.750035428671488
  0
ENDSEC
  0
SECTION
  2
OBJECTS
  0
DICTIONARY
  5
C
330
0
100
AcDbDictionary
  3
ACAD_GROUP
350
D
  3
ACAD_LAYOUT
350
1A
  3
ACAD_MATERIAL
350
43
  3
ACAD_MLEADERSTYLE
350
6B
  3
ACAD_MLINESTYLE
350
17
  3
ACAD_PLOTSETTINGS
350
19
  3
ACAD_SCALELIST
350
47
  3
ACAD_VISUALSTYLE
350
2A
  3
ACDBHEADERROUNDTRIPXREC
350
3C2
  3
ACDBVARIABLEDICTIONARY
350
3E3
  0
DICTIONARY
  5
3EA
330
8
100
AcDbDictionary
280
     1
  3
ACAD_XREC_ROUNDTRIP
360
3EB
  0
DICTIONARY
  5
D
102
{ACAD_REACTORS
330
C
102
}
330
C
100
AcDbDictionary
  0
DICTIONARY
  5
1A
102
{ACAD_REACTORS
330
C
102
}
330
C
100
AcDbDictionary
  0
DICTIONARY
  5
43
102
{ACAD_REACTORS
330
C
102
}
330
C
100
AcDbDictionary
  3
BYBLOCK
350
45
  3
BYLAYER
350
44
  3
GLOBAL
350
46
  0
DICTIONARY
  5
6B
102
{ACAD_REACTORS
330
C
102
}
330
C
100
AcDbDictionary
  3
STANDARD
350
6C
  0
DICTIONARY
  5
17
102
{ACAD_REACTORS
330
C
102
}
330
C
100
AcDbDictionary
  3
STANDARD
350
18
  0
DICTIONARY
  5
19
102
{ACAD_REACTORS
330
C
102
}
330
C
100
AcDbDictionary
  0
DICTIONARY
  5
47
102
{ACAD_REACTORS
330
C
102
}
330
C
100
AcDbDictionary
  3
A0
350
48
  3
A1
350
49
  3
A2
350
4A
  3
A3
350
4B
  3
A4
350
4C
  3
A5
350
4D
  3
A6
350
4E
  3
A7
350
4F
  3
A8
350
50
  3
A9
350
51
  3
B0
350
52
  3
B1
350
53
  3
B2
350
54
  3
B3
350
55
  3
B4
350
56
  3
B5
350
57
  3
B6
350
58
  3
B7
350
59
  3
B8
350
5A
  3
B9
350
5B
  3
C0
350
5C
  3
C1
350
5D
  3
C2
350
5E
  3
C3
350
5F
  3
C4
350
60
  3
C5
350
61
  3
C6
350
62
  3
C7
350
63
  3
C8
350
64
  3
C9
350
65
  3
D0
350
66
  3
D1
350
67
  3
D2
350
68
  0
DICTIONARY
  5
2A
102
{ACAD_REACTORS
330
C
102
}
330
C
100
AcDbDictionary
  3
2DWIREFRAME
350
2F
  3
BASIC
350
32
  3
BRIGHTEN
350
36
  3
COLORCHANGE
350
3A
  3
CONCEPTUAL
350
34
  3
DIM
350
35
  3
EDGECOLOROFF
350
3D
  3
FACEPATTERN
350
39
  3
FLAT
350
2B
  3
FLATWITHEDGES
350
2C
  3
GOURAUD
350
2D
  3
GOURAUDWITHEDGES
350
2E
  3
HIDDEN
350
31
  3
JITTEROFF
350
3B
  3
LINEPATTERN
350
38
  3
OVERHANGOFF
350
3C
  3
REALISTIC
350
33
  3
SHADED
350
42
  3
SHADED_WITH_EDGES
350
41
  3
SHADES_OF_GRAY
350
3E
  3
SKETCHY
350
3F
  3
THICKEN
350
37
  3
WIREFRAME
350
30
  3
X-RAY
350
40
  0
DICTIONARY
  5
3C2
102
{ACAD_REACTORS
330
C
102
}
330
C
100
AcDbDictionary
  3
CEPSNID
350
3CC
  3
CEPSNTYPE
350
3CB
  3
DIMSTYLEDATA
350
3E2
  3
FINGERPRINTGUID
350
3CD
  3
HYPERLINKBASE
350
3C5
  3
INSUNITS
350
3CA
  3
LAYOUTDICT
350
3C7
  3
LWETCUNION
350
3C9
  3
PLOTSETDICT
350
3C8
  3
PSVPSCALE
350
3CF
  3
PUCSBASE
350
3D2
  3
PUCSORGBACK
350
3D8
  3
PUCSORGBOTTOM
350
3D4
  3
PUCSORGFRONT
350
3D7
  3
PUCSORGLEFT
350
3D5
  3
PUCSORGRIGHT
350
3D6
  3
PUCSORGTOP
350
3D3
  3
PUCSORTHOREF
350
3D0
  3
PUCSORTHOVIEW
350
3D1
  3
STYLESHEET
350
3C6
  3
TSTACKALIGN
350
3C3
  3
TSTACKSIZE
350
3C4
  3
UCSBASE
350
3DB
  3
UCSORGBACK
350
3E1
  3
UCSORGBOTTOM
350
3DD
  3
UCSORGFRONT
350
3E0
  3
UCSORGLEFT
350
3DE
  3
UCSORGRIGHT
350
3DF
  3
UCSORGTOP
350
3DC
  3
UCSORTHOREF
350
3D9
  3
UCSORTHOVIEW
350
3DA
  3
VERSIONGUID
350
3CE
  0
DICTIONARY
  5
3E3
102
{ACAD_REACTORS
330
C
102
}
330
C
100
AcDbDictionary
  3
CANNOSCALE
350
3EC
  3
CMLEADERSTYLE
350
3E5
  3
CTABLESTYLE
350
3E4
  3
DIMASSOC
350
3E8
  3
HIDETEXT
350
3E9
  3
MSLTSCALE
350
3ED
  0
XRECORD
  5
3EB
102
{ACAD_REACTORS
330
3EA
102
}
330
3EA
100
AcDbXrecord
102
VTR_0.000_0.000_1.000_1.000_GRIDDISPLAY
 70
     3
102
VTR_0.000_0.000_1.000_1.000_GRIDMAJOR
 70
     5
102
VTR_0.000_0.000_1.000_1.000_DEFAULTLIGHTING
280
     1
102
VTR_0.000_0.000_1.000_1.000_DEFAULTLIGHTINGTYPE
 70
     1
102
VTR_0.000_0.000_1.000_1.000_BRIGHTNESS
141
0.0
102
VTR_0.000_0.000_1.000_1.000_CONTRAST
142
0.0
  0
MATERIAL
  5
45
102
{ACAD_REACTORS
330
43
102
}
102
{ACAD_XDICTIONARY
360
3F0
102
}
330
43
100
AcDbMaterial
  1
BYBLOCK
  0
MATERIAL
  5
44
102
{ACAD_REACTORS
330
43
102
}
102
{ACAD_XDICTIONARY
360
3EE
102
}
330
43
100
AcDbMaterial
  1
BYLAYER
  0
MATERIAL
  5
46
102
{ACAD_REACTORS
330
43
102
}
102
{ACAD_XDICTIONARY
360
3F2
102
}
330
43
100
AcDbMaterial
  1
GLOBAL
  0
ACAD_PROXY_OBJECT
  5
6C
102
{ACAD_REACTORS
330
6B
102
}
330
6B
100
AcDbProxyObject
 90
      499
 91
      505
 93
      610
310
40901902A4063FBFFFFFE056BD1B81E855B9FC0AD7A3703D0AD73F4214DD185B99185C9900AD7A3703D0AC73F90141901A02B5E8DC0F42B1CFC02B5E8DC0F42B1CFE5764000000000000300FC0
340
14
340
0
340
11
340
0
 94
        0
1001
ACAD_MLEADERVER
1070
     2
  0
MLINESTYLE
  5
18
102
{ACAD_REACTORS
330
17
102
}
330
17
100
AcDbMlineStyle
  2
Standard
 70
     0
  3

 62
   256
 51
90.0
 52
90.0
 71
     2
 49
0.5
 62
   256
  6
BYLAYER
 49
-0.5
 62
   256
  6
BYLAYER
  0
ACAD_PROXY_OBJECT
  5
48
102
{ACAD_REACTORS
330
47
102
}
330
47
100
AcDbProxyObject
 90
      499
 91
      503
 93
       41
310
903313A31580
  0
ACAD_PROXY_OBJECT
  5
49
102
{ACAD_REACTORS
330
47
102
}
330
47
100
AcDbProxyObject
 90
      499
 91
      503
 93
      105
310
903313A324000000000000004000
  0
ACAD_PROXY_OBJECT
  5
4A
102
{ACAD_REACTORS
330
47
102
}
330
47
100
AcDbProxyObject
 90
      499
 91
      503
 93
      105
310
903313A344000000000000104000
  0
ACAD_PROXY_OBJECT
  5
4B
102
{ACAD_REACTORS
330
47
102
}
330
47
100
AcDbProxyObject
 90
      499
 91
      503
 93
      105
310
903313A354000000000000144000
  0
ACAD_PROXY_OBJECT
  5
4C
102
{ACAD_REACTORS
330
47
102
}
330
47
100
AcDbProxyObject
 90
      499
 91
      503
 93
      105
310
903313A384000000000000204000
  0
ACAD_PROXY_OBJECT
  5
4D
102
{ACAD_REACTORS
330
47
102
}
330
47
100
AcDbProxyObject
 90
      499
 91
      503
 93
      113
310
904313A31304000000000000244000
  0
ACAD_PROXY_OBJECT
  5
4E
102
{ACAD_REACTORS
330
47
102
}
330
47
100
AcDbProxyObject
 90
      499
 91
      503
 93
      113
310
904313A31364000000000000304000
  0
ACAD_PROXY_OBJECT
  5
4F
102
{ACAD_REACTORS
330
47
102
}
330
47
100
AcDbProxyObject
 90
      499
 91
      503
 93
      113
310
904313A32304000000000000344000
  0
ACAD_PROXY_OBJECT
  5
50
102
{ACAD_REACTORS
330
47
102
}
330
47
100
AcDbProxyObject
 90
      499
 91
      503
 93
      113
310
904313A333040000000000003E4000
  0
ACAD_PROXY_OBJECT
  5
51
102
{ACAD_REACTORS
330
47
102
}
330
47
100
AcDbProxyObject
 90
      499
 91
      503
 93
      113
310
904313A34304000000000000444000
  0
ACAD_PROXY_OBJECT
  5
52
102
{ACAD_REACTORS
330
47
102
}
330
47
100
AcDbProxyObject
 90
      499
 91
      503
 93
      113
310
904313A35304000000000000494000
  0
ACAD_PROXY_OBJECT
  5
53
102
{ACAD_REACTORS
330
47
102
}
330
47
100
AcDbProxyObject
 90
      499
 91
      503
 93
      121
310
905313A3130304000000000000594000
  0
ACAD_PROXY_OBJECT
  5
54
102
{ACAD_REACTORS
330
47
102
}
330
47
100
AcDbProxyObject
 90
      499
 91
      503
 93
      105
310
903323A310000000000000010100
  0
ACAD_PROXY_OBJECT
  5
55
102
{ACAD_REACTORS
330
47
102
}
330
47
100
AcDbProxyObject
 90
      499
 91
      503
 93
      105
310
903343A310000000000000410100
  0
ACAD_PROXY_OBJECT
  5
56
102
{ACAD_REACTORS
330
47
102
}
330
47
100
AcDbProxyObject
 90
      499
 91
      503
 93
      105
310
903383A310000000000000810100
  0
ACAD_PROXY_OBJECT
  5
57
102
{ACAD_REACTORS
330
47
102
}
330
47
100
AcDbProxyObject
 90
      499
 91
      503
 93
      113
310
90431303A310000000000000910100
  0
ACAD_PROXY_OBJECT
  5
58
102
{ACAD_REACTORS
330
47
102
}
330
47
100
AcDbProxyObject
 90
      499
 91
      503
 93
      121
310
9053130303A310000000000001650100
  0
ACAD_PROXY_OBJECT
  5
59
102
{ACAD_REACTORS
330
47
102
}
330
47
100
AcDbProxyObject
 90
      499
 91
      503
 93
      257
310
90E312F31323822203D2031272D3022000000000000200FC000000000000284000
  0
ACAD_PROXY_OBJECT
  5
5A
102
{ACAD_REACTORS
330
47
102
}
330
47
100
AcDbProxyObject
 90
      499
 91
      503
 93
      249
310
90D312F363422203D2031272D3022000000000000240FC000000000000284000
  0
ACAD_PROXY_OBJECT
  5
5B
102
{ACAD_REACTORS
330
47
102
}
330
47
100
AcDbProxyObject
 90
      499
 91
      503
 93
      249
310
90D312F333222203D2031272D3022000000000000280FC000000000000284000
  0
ACAD_PROXY_OBJECT
  5
5C
102
{ACAD_REACTORS
330
47
102
}
330
47
100
AcDbProxyObject
 90
      499
 91
      503
 93
      249
310
90D312F313622203D2031272D30220000000000002C0FC000000000000284000
  0
ACAD_PROXY_OBJECT
  5
5D
102
{ACAD_REACTORS
330
47
102
}
330
47
100
AcDbProxyObject
 90
      499
 91
      503
 93
      249
310
90D332F333222203D2031272D30220000000000002E0FC000000000000284000
  0
ACAD_PROXY_OBJECT
  5
5E
102
{ACAD_REACTORS
330
47
102
}
330
47
100
AcDbProxyObject
 90
      499
 91
      503
 93
      241
310
90C312F3822203D2031272D3022000000000000300FC000000000000284000
  0
ACAD_PROXY_OBJECT
  5
5F
102
{ACAD_REACTORS
330
47
102
}
330
47
100
AcDbProxyObject
 90
      499
 91
      503
 93
      249
310
90D332F313622203D2031272D3022000000000000320FC000000000000284000
  0
ACAD_PROXY_OBJECT
  5
60
102
{ACAD_REACTORS
330
47
102
}
330
47
100
AcDbProxyObject
 90
      499
 91
      503
 93
      241
310
90C312F3422203D2031272D3022000000000000340FC000000000000284000
  0
ACAD_PROXY_OBJECT
  5
61
102
{ACAD_REACTORS
330
47
102
}
330
47
100
AcDbProxyObject
 90
      499
 91
      503
 93
      241
310
90C332F3822203D2031272D3022000000000000360FC000000000000284000
  0
ACAD_PROXY_OBJECT
  5
62
102
{ACAD_REACTORS
330
47
102
}
330
47
100
AcDbProxyObject
 90
      499
 91
      503
 93
      241
310
90C312F3222203D2031272D3022000000000000380FC000000000000284000
  0
ACAD_PROXY_OBJECT
  5
63
102
{ACAD_REACTORS
330
47
102
}
330
47
100
AcDbProxyObject
 90
      499
 91
      503
 93
      241
310
90C332F3422203D2031272D30220000000000003A0FC000000000000284000
  0
ACAD_PROXY_OBJECT
  5
64
102
{ACAD_REACTORS
330
47
102
}
330
47
100
AcDbProxyObject
 90
      499
 91
      503
 93
      161
310
90A3122203D2031272D30224000000000000284000
  0
ACAD_PROXY_OBJECT
  5
65
102
{ACAD_REACTORS
330
47
102
}
330
47
100
AcDbProxyObject
 90
      499
 91
      503
 93
      257
310
90E312D312F3222203D2031272D30220000000000003E0FC000000000000284000
  0
ACAD_PROXY_OBJECT
  5
66
102
{ACAD_REACTORS
330
47
102
}
330
47
100
AcDbProxyObject
 90
      499
 91
      503
 93
      225
310
90A3322203D2031272D302200000000000002100000000000000284000
  0
ACAD_PROXY_OBJECT
  5
67
102
{ACAD_REACTORS
330
47
102
}
330
47
100
AcDbProxyObject
 90
      499
 91
      503
 93
      225
310
90A3622203D2031272D302200000000000006100000000000000284000
  0
ACAD_PROXY_OBJECT
  5
68
102
{ACAD_REACTORS
330
47
102
}
330
47
100
AcDbProxyObject
 90
      499
 91
      503
 93
      249
310
90D31272D3022203D2031272D30220000000000000A100000000000000284000
  0
ACAD_PROXY_OBJECT
  5
2F
102
{ACAD_REACTORS
330
2A
102
}
330
2A
100
AcDbProxyObject
 90
      499
 91
      501
 93
      436
310
42CC9915DA5C99599C985B595049028333333333333E33F0000000000000F90107901411070040501600405405064090741402480A0340
1001
ACAD
1000
AcDbSavedByObjectVersion
1070
     0
  0
ACAD_PROXY_OBJECT
  5
32
102
{ACAD_REACTORS
330
2A
102
}
330
2A
100
AcDbProxyObject
 90
      499
 91
      501
 93
      388
310
4150985CDA58D07406404333333333333E33F0000000000000F90107A41107004050150841D405064090741402480A0350
1001
ACAD
1000
AcDbSavedByObjectVersion
1070
     0
  0
ACAD_PROXY_OBJECT
  5
36
102
{ACAD_REACTORS
330
2A
102
}
330
2A
100
AcDbProxyObject
 90
      499
 91
      501
 93
      428
310
42109C9A59DA1D195B90C409028333333333333E33F0000000000000F9010790141107004050150841D405064090741402480A029950
1001
ACAD
1000
AcDbSavedByObjectVersion
1070
     0
  0
ACAD_PROXY_OBJECT
  5
3A
102
{ACAD_REACTORS
330
2A
102
}
330
2A
100
AcDbProxyObject
 90
      499
 91
      501
 93
      452
310
42D0DBDB1BDC90DA185B99D95104090240C333333333333E33F0000000000000F90108901411070040501508421405064090741402480A0350
1001
ACAD
1000
AcDbSavedByObjectVersion
1070
     0
  0
ACAD_PROXY_OBJECT
  5
34
102
{ACAD_REACTORS
330
2A
102
}
330
2A
100
AcDbProxyObject
 90
      499
 91
      501
 93
      500
310
4290DBDB98D95C1D1D585B10940D028333333333333E33F0000000000000F90107902409070040501000000000018199010841D405064090740C02480A0340
1001
ACAD
1000
AcDbSavedByObjectVersion
1070
     0
  0
ACAD_PROXY_OBJECT
  5
35
102
{ACAD_REACTORS
330
2A
102
}
330
2A
100
AcDbProxyObject
 90
      499
 91
      501
 93
      412
310
40D11A5B50B409028333333333333E33F0000000000000F9010790141107004050150841D405064090741402480A02677FFFFFD0
1001
ACAD
1000
AcDbSavedByObjectVersion
1070
     0
  0
ACAD_PROXY_OBJECT
  5
3D
102
{ACAD_REACTORS
330
2A
102
}
330
2A
100
AcDbProxyObject
 90
      499
 91
      501
 93
      452
310
43115919D950DBDB1BDC93D999916409028333333333333E33F0000000000000F9010790141107004050150841D405064090741402480A0350
1001
ACAD
1000
AcDbSavedByObjectVersion
1070
     0
  0
ACAD_PROXY_OBJECT
  5
39
102
{ACAD_REACTORS
330
2A
102
}
330
2A
100
AcDbProxyObject
 90
      499
 91
      501
 93
      444
310
42D19858D95C185D1D195C9B90F409028333333333333E33F0000000000000F9010790141107004050150841D405064090741402480A0350
1001
ACAD
1000
AcDbSavedByObjectVersion
1070
     0
  0
ACAD_PROXY_OBJECT
  5
2B
102
{ACAD_REACTORS
330
2A
102
}
330
2A
100
AcDbProxyObject
 90
      499
 91
      501
 93
      380
310
41119B185D240901404333333333333E33F0000000000000F9010740A907004050150841D405064090741402480A1B50
1001
ACAD
1000
AcDbSavedByObjectVersion
1070
     0
  0
ACAD_PROXY_OBJECT
  5
2C
102
{ACAD_REACTORS
330
2A
102
}
330
2A
100
AcDbProxyObject
 90
      499
 91
      501
 93
      468
310
43519B185D15DA5D1A115919D95CD0140901404333333333333E33F0000000000000F90107409019070040501600405405064090741402480A1B50
1001
ACAD
1000
AcDbSavedByObjectVersion
1070
     0
  0
ACAD_PROXY_OBJECT
  5
2D
102
{ACAD_REACTORS
330
2A
102
}
330
2A
100
AcDbProxyObject
 90
      499
 91
      501
 93
      404
310
41D1DBDD5C985D5910240902404333333333333E33F0000000000000F9010740A9070040501641D405064090741402480A1B50
1001
ACAD
1000
AcDbSavedByObjectVersion
1070
     0
  0
ACAD_PROXY_OBJECT
  5
2E
102
{ACAD_REACTORS
330
2A
102
}
330
2A
100
AcDbProxyObject
 90
      499
 91
      501
 93
      492
310
4411DBDD5C985D5915DA5D1A115919D95CD0340902404333333333333E33F0000000000000F90107409019070040501600405405064090741402480A1B50
1001
ACAD
1000
AcDbSavedByObjectVersion
1070
     0
  0
ACAD_PROXY_OBJECT
  5
31
102
{ACAD_REACTORS
330
2A
102
}
330
2A
100
AcDbProxyObject
 90
      499
 91
      501
 93
      476
310
41921A5919195B90640502408333333333333E33F0000000000000F901079024090700405020000000000001110200405405064090740C02480A0340
1001
ACAD
1000
AcDbSavedByObjectVersion
1070
     0
  0
ACAD_PROXY_OBJECT
  5
3B
102
{ACAD_REACTORS
330
2A
102
}
330
2A
100
AcDbProxyObject
 90
      499
 91
      501
 93
      428
310
42529A5D1D195C93D999914409028333333333333E33F0000000000000F9010790141107004050150A41D405064090741402480A0350
1001
ACAD
1000
AcDbSavedByObjectVersion
1070
     0
  0
ACAD_PROXY_OBJECT
  5
38
102
{ACAD_REACTORS
330
2A
102
}
330
2A
100
AcDbProxyObject
 90
      499
 91
      501
 93
      444
310
42D31A5B995C185D1D195C9B90E409028333333333333E33F0000000000000F9010790141107004050750841D405064090741402483A0350
1001
ACAD
1000
AcDbSavedByObjectVersion
1070
     0
  0
ACAD_PROXY_OBJECT
  5
3C
102
{ACAD_REACTORS
330
2A
102
}
330
2A
100
AcDbProxyObject
 90
      499
 91
      501
 93
      444
310
42D3DD995C9A185B99D3D999915409028333333333333E33F0000000000000F9010790141107004050150941D405064090741402480A0350
1001
ACAD
1000
AcDbSavedByObjectVersion
1070
     0
  0
ACAD_PROXY_OBJECT
  5
33
102
{ACAD_REACTORS
330
2A
102
}
330
2A
100
AcDbProxyObject
 90
      499
 91
      501
 93
      428
310
425499585B1A5CDD1A58D08409038333333333333E33F0000000000000F9010740A907004050150800405405064090740C02480A1B40
1001
ACAD
1000
AcDbSavedByObjectVersion
1070
     0
  0
ACAD_PROXY_OBJECT
  5
42
102
{ACAD_REACTORS
330
2A
102
}
330
2A
100
AcDbProxyObject
 90
      499
 91
      501
 93
      420
310
4194DA1859195911B40902404333333333333E33F0000000000000F9010740A41107004050150800405405064090840C02480A0B40
1001
ACAD
1000
AcDbSavedByObjectVersion
1070
     0
  0
ACAD_PROXY_OBJECT
  5
41
102
{ACAD_REACTORS
330
2A
102
}
330
2A
100
AcDbProxyObject
 90
      499
 91
      501
 93
      516
310
4454DA18591959081DDA5D1A08195919D95CD1A40902404333333333333E33F0000000000000F901074090142907004050250800405405064090740C02480A0B40
1001
ACAD
1000
AcDbSavedByObjectVersion
1070
     0
  0
ACAD_PROXY_OBJECT
  5
3E
102
{ACAD_REACTORS
330
2A
102
}
330
2A
100
AcDbProxyObject
 90
      499
 91
      501
 93
      532
310
4394DA1859195CC81BD98811DC985E5174090240C333333333333E33F0000000000000F901079024090741D01000000000000111010841D405064090740C02480A0340
1001
ACAD
1000
AcDbSavedByObjectVersion
1070
     0
  0
ACAD_PROXY_OBJECT
  5
3F
102
{ACAD_REACTORS
330
2A
102
}
330
2A
100
AcDbProxyObject
 90
      499
 91
      501
 93
      476
310
41D4DAD95D18DA1E51840502408333333333333E33F0000000000000F901079024090741D01000000000000111010B41D405064090741802480A0340
1001
ACAD
1000
AcDbSavedByObjectVersion
1070
     0
  0
ACAD_PROXY_OBJECT
  5
37
102
{ACAD_REACTORS
330
2A
102
}
330
2A
100
AcDbProxyObject
 90
      499
 91
      501
 93
      412
310
41D51A1A58DAD95B90D409028333333333333E33F0000000000000F9010790141107004050150C41D405064090741402480A0350
1001
ACAD
1000
AcDbSavedByObjectVersion
1070
     0
  0
ACAD_PROXY_OBJECT
  5
30
102
{ACAD_REACTORS
330
2A
102
}
330
2A
100
AcDbProxyObject
 90
      499
 91
      501
 93
      420
310
4255DA5C99599C985B595059028333333333333E33F0000000000000F90107901411070040501600405405064090740C02480A0340
1001
ACAD
1000
AcDbSavedByObjectVersion
1070
     0
  0
ACAD_PROXY_OBJECT
  5
40
102
{ACAD_REACTORS
330
2A
102
}
330
2A
100
AcDbProxyObject
 90
      499
 91
      501
 93
      404
310
41560B54985E51940902404000000000000E03F0000000000000F9010740501907004050150841D405064090740C02480A1B40
1001
ACAD
1000
AcDbSavedByObjectVersion
1070
     0
  0
XRECORD
  5
3CC
102
{ACAD_REACTORS
330
3C2
102
}
330
3C2
100
AcDbXrecord
340
0
  0
XRECORD
  5
3CB
102
{ACAD_REACTORS
330
3C2
102
}
330
3C2
100
AcDbXrecord
 90
        0
  0
XRECORD
  5
3E2
102
{ACAD_REACTORS
330
3C2
102
}
330
3C2
100
AcDbXrecord
1000
DSTYLE
1002
{
1070
   279
 70
     2
1070
   340
340
11
1002
}
  0
XRECORD
  5
3CD
102
{ACAD_REACTORS
330
3C2
102
}
330
3C2
100
AcDbXrecord
  1
{131A9287-FACA-4225-AA47-AF1D16F2C887}
  0
XRECORD
  5
3C5
102
{ACAD_REACTORS
330
3C2
102
}
330
3C2
100
AcDbXrecord
  1

  0
XRECORD
  5
3CA
102
{ACAD_REACTORS
330
3C2
102
}
330
3C2
100
AcDbXrecord
 90
        4
  0
XRECORD
  5
3C7
102
{ACAD_REACTORS
330
3C2
102
}
330
3C2
100
AcDbXrecord
340
1A
  0
XRECORD
  5
3C9
102
{ACAD_REACTORS
330
3C2
102
}
330
3C2
100
AcDbXrecord
 90
    10781
  0
XRECORD
  5
3C8
102
{ACAD_REACTORS
330
3C2
102
}
330
3C2
100
AcDbXrecord
340
19
  0
XRECORD
  5
3CF
102
{ACAD_REACTORS
330
3C2
102
}
330
3C2
100
AcDbXrecord
 40
0.0
  0
XRECORD
  5
3D2
102
{ACAD_REACTORS
330
3C2
102
}
330
3C2
100
AcDbXrecord
340
0
  0
XRECORD
  5
3D8
102
{ACAD_REACTORS
330
3C2
102
}
330
3C2
100
AcDbXrecord
 10
0.0
 20
0.0
 30
0.0
  0
XRECORD
  5
3D4
102
{ACAD_REACTORS
330
3C2
102
}
330
3C2
100
AcDbXrecord
 10
0.0
 20
0.0
 30
0.0
  0
XRECORD
  5
3D7
102
{ACAD_REACTORS
330
3C2
102
}
330
3C2
100
AcDbXrecord
 10
0.0
 20
0.0
 30
0.0
  0
XRECORD
  5
3D5
102
{ACAD_REACTORS
330
3C2
102
}
330
3C2
100
AcDbXrecord
 10
0.0
 20
0.0
 30
0.0
  0
XRECORD
  5
3D6
102
{ACAD_REACTORS
330
3C2
102
}
330
3C2
100
AcDbXrecord
 10
0.0
 20
0.0
 30
0.0
  0
XRECORD
  5
3D3
102
{ACAD_REACTORS
330
3C2
102
}
330
3C2
100
AcDbXrecord
 10
0.0
 20
0.0
 30
0.0
  0
XRECORD
  5
3D0
102
{ACAD_REACTORS
330
3C2
102
}
330
3C2
100
AcDbXrecord
340
0
  0
XRECORD
  5
3D1
102
{ACAD_REACTORS
330
3C2
102
}
330
3C2
100
AcDbXrecord
 70
     0
  0
XRECORD
  5
3C6
102
{ACAD_REACTORS
330
3C2
102
}
330
3C2
100
AcDbXrecord
  1

  0
XRECORD
  5
3C3
102
{ACAD_REACTORS
330
3C2
102
}
330
3C2
100
AcDbXrecord
 90
        1
  0
XRECORD
  5
3C4
102
{ACAD_REACTORS
330
3C2
102
}
330
3C2
100
AcDbXrecord
 90
       70
  0
XRECORD
  5
3DB
102
{ACAD_REACTORS
330
3C2
102
}
330
3C2
100
AcDbXrecord
340
0
  0
XRECORD
  5
3E1
102
{ACAD_REACTORS
330
3C2
102
}
330
3C2
100
AcDbXrecord
 10
0.0
 20
0.0
 30
0.0
  0
XRECORD
  5
3DD
102
{ACAD_REACTORS
330
3C2
102
}
330
3C2
100
AcDbXrecord
 10
0.0
 20
0.0
 30
0.0
  0
XRECORD
  5
3E0
102
{ACAD_REACTORS
330
3C2
102
}
330
3C2
100
AcDbXrecord
 10
0.0
 20
0.0
 30
0.0
  0
XRECORD
  5
3DE
102
{ACAD_REACTORS
330
3C2
102
}
330
3C2
100
AcDbXrecord
 10
0.0
 20
0.0
 30
0.0
  0
XRECORD
  5
3DF
102
{ACAD_REACTORS
330
3C2
102
}
330
3C2
100
AcDbXrecord
 10
0.0
 20
0.0
 30
0.0
  0
XRECORD
  5
3DC
102
{ACAD_REACTORS
330
3C2
102
}
330
3C2
100
AcDbXrecord
 10
0.0
 20
0.0
 30
0.0
  0
XRECORD
  5
3D9
102
{ACAD_REACTORS
330
3C2
102
}
330
3C2
100
AcDbXrecord
340
0
  0
XRECORD
  5
3DA
102
{ACAD_REACTORS
330
3C2
102
}
330
3C2
100
AcDbXrecord
 70
     0
  0
XRECORD
  5
3CE
102
{ACAD_REACTORS
330
3C2
102
}
330
3C2
100
AcDbXrecord
  1
{FAEB1C32-E019-11D5-929B-00C0DF256EC4}
  0
DICTIONARYVAR
  5
3EC
102
{ACAD_REACTORS
330
3E3
102
}
330
3E3
100
DictionaryVariables
280
     0
  1
1:1
  0
DICTIONARYVAR
  5
3E5
102
{ACAD_REACTORS
330
3E3
102
}
330
3E3
100
DictionaryVariables
280
     0
  1
Standard
  0
DICTIONARYVAR
  5
3E4
102
{ACAD_REACTORS
330
3E3
102
}
330
3E3
100
DictionaryVariables
280
     0
  1
Standard
  0
DICTIONARYVAR
  5
3E8
102
{ACAD_REACTORS
330
3E3
102
}
330
3E3
100
DictionaryVariables
280
     0
  1
2
  0
DICTIONARYVAR
  5
3E9
102
{ACAD_REACTORS
330
3E3
102
}
330
3E3
100
DictionaryVariables
280
     0
  1
1
  0
DICTIONARYVAR
  5
3ED
102
{ACAD_REACTORS
330
3E3
102
}
330
3E3
100
DictionaryVariables
280
     0
  1
1
  0
DICTIONARY
  5
3F0
330
45
100
AcDbDictionary
280
     1
  3
ACAD_XREC_ROUNDTRIP
360
3F1
  0
DICTIONARY
  5
3EE
330
44
100
AcDbDictionary
280
     1
  3
ACAD_XREC_ROUNDTRIP
360
3EF
  0
DICTIONARY
  5
3F2
330
46
100
AcDbDictionary
280
     1
  3
ACAD_XREC_ROUNDTRIP
360
3F3
  0
XRECORD
  5
3F1
102
{ACAD_REACTORS
330
3F0
102
}
330
3F0
100
AcDbXrecord
102
MATERIAL
148
0.0
149
0.0
149
0.0
 93
        0
 94
      127
282
     0
 72
     1
 77
     1
171
     1
175
     1
179
     1
273
     0
  0
XRECORD
  5
3EF
102
{ACAD_REACTORS
330
3EE
102
}
330
3EE
100
AcDbXrecord
102
MATERIAL
148
0.0
149
0.0
149
0.0
 93
        0
 94
      127
282
     0
 72
     1
 77
     1
171
     1
175
     1
179
     1
273
     0
  0
XRECORD
  5
3F3
102
{ACAD_REACTORS
330
3F2
102
}
330
3F2
100
AcDbXrecord
102
MATERIAL
148
0.0
149
0.0
149
0.0
 93
        0
 94
      127
282
     0
 72
     1
 77
     1
171
     1
175
     1
179
     1
273
     0
  0
ENDSEC
  0
EOF
