<?xml version="1.0" encoding="UTF-8"?>
<svg width="280" height="80" xmlns="http://www.w3.org/2000/svg">
  <!-- Simple flower pattern for MugBot -->
  
  <!-- Flower 1 -->
  <circle cx="40" cy="40" r="8" stroke="black" stroke-width="2" fill="none"/>
  <circle cx="32" cy="40" r="5" stroke="black" stroke-width="1.5" fill="none"/>
  <circle cx="48" cy="40" r="5" stroke="black" stroke-width="1.5" fill="none"/>
  <circle cx="40" cy="32" r="5" stroke="black" stroke-width="1.5" fill="none"/>
  <circle cx="40" cy="48" r="5" stroke="black" stroke-width="1.5" fill="none"/>
  <circle cx="40" cy="40" r="3" stroke="black" stroke-width="2" fill="none"/>
  
  <!-- Flower 2 -->
  <circle cx="140" cy="40" r="8" stroke="black" stroke-width="2" fill="none"/>
  <circle cx="132" cy="40" r="5" stroke="black" stroke-width="1.5" fill="none"/>
  <circle cx="148" cy="40" r="5" stroke="black" stroke-width="1.5" fill="none"/>
  <circle cx="140" cy="32" r="5" stroke="black" stroke-width="1.5" fill="none"/>
  <circle cx="140" cy="48" r="5" stroke="black" stroke-width="1.5" fill="none"/>
  <circle cx="140" cy="40" r="3" stroke="black" stroke-width="2" fill="none"/>
  
  <!-- Flower 3 -->
  <circle cx="240" cy="40" r="8" stroke="black" stroke-width="2" fill="none"/>
  <circle cx="232" cy="40" r="5" stroke="black" stroke-width="1.5" fill="none"/>
  <circle cx="248" cy="40" r="5" stroke="black" stroke-width="1.5" fill="none"/>
  <circle cx="240" cy="32" r="5" stroke="black" stroke-width="1.5" fill="none"/>
  <circle cx="240" cy="48" r="5" stroke="black" stroke-width="1.5" fill="none"/>
  <circle cx="240" cy="40" r="3" stroke="black" stroke-width="2" fill="none"/>
  
  <!-- Decorative waves at top and bottom -->
  <path d="M 0 10 Q 20 5, 40 10 T 80 10 T 120 10 T 160 10 T 200 10 T 240 10 T 280 10" 
        stroke="black" stroke-width="1.5" fill="none"/>
  <path d="M 0 70 Q 20 75, 40 70 T 80 70 T 120 70 T 160 70 T 200 70 T 240 70 T 280 70" 
        stroke="black" stroke-width="1.5" fill="none"/>
</svg>
