999
DXF generated by OpenJsCad
  0
SECTION
  2
HEADER
  0
ENDSEC
  0
SECTION
  2
TABLES
  0
TABLE
  2
LTYPE
  70
1
  0
LTYPE
  2
CONTINUOUS
  3
Solid Line
  72
65
  73
0
  40
0.0
  0
ENDTAB
  0
TABLE
  2
LAYER
  70
1
  0
LAYER
  2
OpenJsCad
  62
7
  6
continuous
  0
ENDTAB
  0
TABLE
  2
STYLE
  70
0
  0
ENDTAB
  0
TABLE
  2
VIEW
  70
0
  0
ENDTAB
  0
ENDSEC
  0
SECTION
  2
BLOCKS
  0
ENDSEC
  0
SECTION
  2
ENTITIES
  0
LWPOLYLINE
  8
OpenJsCad
  90
1657
  70
1
 10
3.174664609872355
 20
-0.9324837929056456
 30
0.0
 10
3.197622894211796
 20
-0.8568004722033198
 30
0.0
 10
3.2155820970976965
 20
-0.7797776516626194
 30
0.0
 10
3.192254942928319
 20
-0.7571870211741341
 30
0.0
 10
3.1613629971439807
 20
-0.728799270156145
 30
0.0
 10
3.131206660364349
 20
-0.7025097785116537
 30
0.0
 10
3.101873606667482
 20
-0.678259701535572
 30
0.0
 10
3.073448910907965
 20
-0.6559870691196044
 30
0.0
 10
3.0460149458993815
 20
-0.6356268820967714
 30
0.0
 10
3.019651282840443
 20
-0.6171112117873065
 30
0.0
 10
2.9944345951420024
 20
-0.6003693026765271
 30
0.0
 10
2.9704385657106296
 20
-0.5853276780943425
 30
0.0
 10
2.947733797795476
 20
-0.57191024879375
 30
0.0
 10
2.9263877294865623
 20
-0.5600384243132818
 30
0.0
 10
2.9064645519383987
 20
-0.5496312270009533
 30
0.0
 10
2.8880251314084364
 20
-0.5406054085962506
 30
0.0
 10
2.871126931646826
 20
-0.5328755785137756
 30
0.0
 10
2.85582431978582
 20
-0.5263545386369708
 30
0.0
 10
2.842163110401825
 20
-0.5209507903529282
 30
0.0
 10
2.830205197541694
 20
-0.5165794061600008
 30
0.0
 10
2.8199700097228515
 20
-0.5131385568904707
 30
0.0
 10
2.8115218807258624
 20
-0.5105427163969164
 30
0.0
 10
2.8048743156096876
 20
-0.5086889777864245
 30
0.0
 10
2.7909451221484014
 20
-0.5051951657473244
 30
0.0
 10
2.768401990159884
 20
-0.4985187225446817
 30
0.0
 10
2.74812690145146
 20
-0.49106282172241716
 30
0.0
 10
2.730143784398744
 20
-0.48294175982039195
 30
0.0
 10
2.71447213496333
 20
-0.4742705144608236
 30
0.0
 10
2.701126998417829
 20
-0.4651645905590539
 30
0.0
 10
2.690118993473132
 20
-0.4557397783381309
 30
0.0
 10
2.6814540664669253
 20
-0.44611254814484935
 30
0.0
 10
2.675134115122219
 20
-0.4363984651150486
 30
0.0
 10
2.671156110524249
 20
-0.42671401797977937
 30
0.0
 10
2.6695127966255594
 20
-0.41717492026066366
 30
0.0
 10
2.6701924121430687
 20
-0.4078965960713102
 30
0.0
 10
2.6734031168904266
 20
-0.387625004108559
 30
0.0
 10
2.6826338481072645
 20
-0.3175106395037987
 30
0.0
 10
2.684779219545769
 20
-0.2970987937499339
 30
0.0
 10
2.68652416837236
 20
-0.287960723351722
 30
0.0
 10
2.6905803878706456
 20
-0.2791719834395339
 30
0.0
 10
2.69692936463033
 20
-0.2708471092996364
 30
0.0
 10
2.705548178780332
 20
-0.26309986926904455
 30
0.0
 10
2.716409532422848
 20
-0.2560431127034915
 30
0.0
 10
2.729481783002303
 20
-0.24978861893370927
 30
0.0
 10
2.7447289815761873
 20
-0.24444694736408776
 30
0.0
 10
2.762110915950167
 20
-0.24012728886665424
 30
0.0
 10
2.781583158635261
 20
-0.23693731862213638
 30
0.0
 10
2.8030971195802294
 20
-0.23498305055855637
 30
0.0
 10
2.8266001036277735
 20
-0.23436869353625978
 30
0.0
 10
2.8409612600629592
 20
-0.2345990472407845
 30
0.0
 10
2.8478570276906736
 20
-0.23452911305994975
 30
0.0
 10
2.8566950025032174
 20
-0.23420796597128174
 30
0.0
 10
2.8674654245748825
 20
-0.23353392440377083
 30
0.0
 10
2.8801545433708995
 20
-0.23240568049035987
 30
0.0
 10
2.8947446315372876
 20
-0.23072243924715977
 30
0.0
 10
2.9112140032385185
 20
-0.22838405726318958
 30
0.0
 10
2.929537037030063
 20
-0.2252911807575311
 30
0.0
 10
2.9496842032419597
 20
-0.2213453828618473
 30
0.0
 10
2.9716220958479833
 20
-0.2164492999870232
 30
0.0
 10
2.9953134687929515
 20
-0.21050676713257632
 30
0.0
 10
3.020717276727976
 20
-0.20342295195331808
 30
0.0
 10
3.047788720202104
 20
-0.19510448777241948
 30
0.0
 10
3.0764792950392854
 20
-0.18545960440950113
 30
0.0
 10
3.106736846172002
 20
-0.17439825836516887
 30
0.0
 10
3.1385056256546857
 20
-0.1618322605188775
 30
0.0
 10
3.171726354845386
 20
-0.1476754022630307
 30
0.0
 10
3.206336290743842
 20
-0.1318435795691316
 30
0.0
 10
3.2422692963892024
 20
-0.11425491491880832
 30
0.0
 10
3.279455915257708
 20
-0.09482987696952647
 30
0.0
 10
3.307835101335033
 20
-0.07904651531562094
 30
0.0
 10
3.3104228163114233
 20
9.16826328284919e-17
 30
0.0
 10
3.3078351013350327
 20
0.07904651531562211
 30
0.0
 10
3.279455915257711
 20
0.09482987696952569
 30
0.0
 10
3.242269296389213
 20
0.11425491491880377
 30
0.0
 10
3.2063362907438373
 20
0.13184357956913426
 30
0.0
 10
3.1717263548474977
 20
0.1476754022620653
 30
0.0
 10
3.1385056256551507
 20
0.16183226051828378
 30
0.0
 10
3.106736846172491
 20
0.17439825836481612
 30
0.0
 10
3.0764792950393502
 20
0.18545960440946294
 30
0.0
 10
3.0477887202087155
 20
0.19510448777019015
 30
0.0
 10
3.0207172767414083
 20
0.20342295199978686
 30
0.0
 10
2.9953134687929515
 20
0.21050676713256242
 30
0.0
 10
2.971622095847982
 20
0.21644929998701132
 30
0.0
 10
2.9496842032418984
 20
0.22134538286185176
 30
0.0
 10
2.9295370370294287
 20
0.22529118074854065
 30
0.0
 10
2.911214002221147
 20
0.2283840473317778
 30
0.0
 10
2.8947450449009335
 20
0.2307222807736044
 30
0.0
 10
2.8801507369677393
 20
0.23240611963221508
 30
0.0
 10
2.867468882625035
 20
0.23353361693291735
 30
0.0
 10
2.8566918930516145
 20
0.23420816056900645
 30
0.0
 10
2.847859774111821
 20
0.23452901326275388
 30
0.0
 10
2.8409589364271324
 20
0.23459907080619202
 30
0.0
 10
2.8266001036277717
 20
0.23436869353626022
 30
0.0
 10
2.8030971195802303
 20
0.23498305055855673
 30
0.0
 10
2.781583158635264
 20
0.23693731862214878
 30
0.0
 10
2.762110915950166
 20
0.24012728886665635
 30
0.0
 10
2.7447289815761375
 20
0.24444694736349737
 30
0.0
 10
2.729481783002452
 20
0.24978861893497034
 30
0.0
 10
2.7164095458311617
 20
0.25604320713881434
 30
0.0
 10
2.7055481585273498
 20
0.26309974928450536
 30
0.0
 10
2.6969293646087875
 20
0.2708471091895751
 30
0.0
 10
2.6905803878706154
 20
0.27917198343940275
 30
0.0
 10
2.68652416837237
 20
0.28796072335172923
 30
0.0
 10
2.684779219545839
 20
0.29709879375018694
 30
0.0
 10
2.682633848107394
 20
0.3175106395038195
 30
0.0
 10
2.6734031168902965
 20
0.3876250041085456
 30
0.0
 10
2.6701924121429355
 20
0.40789659607153644
 30
0.0
 10
2.6695127966255474
 20
0.417174920260668
 30
0.0
 10
2.6711561105243122
 20
0.42671401797966046
 30
0.0
 10
2.6751341151715136
 20
0.436398465014313
 30
0.0
 10
2.6814541170840887
 20
0.44611243749054197
 30
0.0
 10
2.690118956080036
 20
0.45573986608532135
 30
0.0
 10
2.701126998417359
 20
0.46516459056023335
 30
0.0
 10
2.714472134963531
 20
0.4742705144602662
 30
0.0
 10
2.730143784398745
 20
0.48294175982039433
 30
0.0
 10
2.748126901451454
 20
0.4910628217224284
 30
0.0
 10
2.7684019901598833
 20
0.49851872254468194
 30
0.0
 10
2.790945122148403
 20
0.5051951657473255
 30
0.0
 10
2.8048765539703675
 20
0.5086896019500663
 30
0.0
 10
2.811519253716161
 20
0.5105419091741289
 30
0.0
 10
2.819972962856863
 20
0.5131395496427336
 30
0.0
 10
2.830201936901056
 20
0.5165782141567242
 30
0.0
 10
2.8421666734466666
 20
0.5209521997010189
 30
0.0
 10
2.8558239615231735
 20
0.526354278576887
 30
0.0
 10
2.8711269351999706
 20
0.5328755691840839
 30
0.0
 10
2.888025131411376
 20
0.5406054085877308
 30
0.0
 10
2.906464551938457
 20
0.5496312270009737
 30
0.0
 10
2.926387729486567
 20
0.5600384243132706
 30
0.0
 10
2.947733797795479
 20
0.5719102487937364
 30
0.0
 10
2.9704385656856283
 20
0.5853276781357515
 30
0.0
 10
2.9944345951361933
 20
0.6003693026726626
 30
0.0
 10
3.0196512828403903
 20
0.6171112117872529
 30
0.0
 10
3.046014945899001
 20
0.6356268820963042
 30
0.0
 10
3.07344891090767
 20
0.6559870691189107
 30
0.0
 10
3.1018736066656927
 20
0.6782597015340932
 30
0.0
 10
3.131206660364353
 20
0.7025097785116576
 30
0.0
 10
3.1613629971439723
 20
0.7287992701561381
 30
0.0
 10
3.1922549429283165
 20
0.7571870211741326
 30
0.0
 10
3.2155820970976965
 20
0.7797776516626206
 30
0.0
 10
3.197622894211796
 20
0.8568004722033201
 30
0.0
 10
3.1746646098723543
 20
0.9324837929056468
 30
0.0
 10
3.143167386519435
 20
0.9403842757114936
 30
0.0
 10
3.1022203011888716
 20
0.9495228163572105
 30
0.0
 10
3.062959401630386
 20
0.9572120155841028
 30
0.0
 10
3.0254311934702853
 20
0.9635466714406841
 30
0.0
 10
2.989678368639716
 20
0.9686229890423065
 30
0.0
 10
2.955739764504333
 20
0.9725384457255902
 30
0.0
 10
2.923650327403746
 20
0.9753916550522149
 30
0.0
 10
2.8934410807022086
 20
0.9772822298007797
 30
0.0
 10
2.8651390973335884
 20
0.9783106440874537
 30
0.0
 10
2.838767476881739
 20
0.9785780947576717
 30
0.0
 10
2.814345327215068
 20
0.9781863621925704
 30
0.0
 10
2.7918877506780864
 20
0.977237670673162
 30
0.0
 10
2.771405834865723
 20
0.9758345484365987
 30
0.0
 10
2.752906649552707
 20
0.974079677774154
 30
0.0
 10
2.7363936789984202
 20
0.9720757580360553
 30
0.0
 10
2.7218608504834405
 20
0.9699249366336951
 30
0.0
 10
2.709319302073863
 20
0.9677317099644064
 30
0.0
 10
2.6987349447754756
 20
0.9655939789329914
 30
0.0
 10
2.6901207302028576
 20
0.9636179782460872
 30
0.0
 10
2.6834369006336933
 20
0.9618995804166618
 30
0.0
 10
2.6696269592224415
 20
0.9579607136679273
 30
0.0
 10
2.6467658126381983
 20
0.9524711170940813
 30
0.0
 10
2.625479120341588
 20
0.9487905722600477
 30
0.0
 10
2.605844753183694
 20
0.9468320596465495
 30
0.0
 10
2.587937083973637
 20
0.9465057536926765
 30
0.0
 10
2.5718268947573764
 20
0.9477191468437866
 30
0.0
 10
2.557581276719823
 20
0.9503772711806554
 30
0.0
 10
2.545263614713869
 20
0.9543822335930144
 30
0.0
 10
2.534933334783771
 20
0.9596349005989401
 30
0.0
 10
2.5266460581779233
 20
0.9660328755407056
 30
0.0
 10
2.520453357735708
 20
0.9734723195452971
 30
0.0
 10
2.516402759944001
 20
0.9818473917565796
 30
0.0
 10
2.509047515837888
 20
1.0010084577451537
 30
0.0
 10
2.481984381264796
 20
1.0663446442714994
 30
0.0
 10
2.473636404554162
 20
1.0850945069517282
 30
0.0
 10
2.4705785393671875
 20
1.0938807824714458
 30
0.0
 10
2.4696969585399344
 20
1.1035201642517976
 30
0.0
 10
2.4710328966319093
 20
1.1139042051200991
 30
0.0
 10
2.4746233886210125
 20
1.1249229188708085
 30
0.0
 10
2.480501218512141
 20
1.1364649261461581
 30
0.0
 10
2.4886948727136935
 20
1.1484176019283283
 30
0.0
 10
2.4992284982304125
 20
1.160667224493236
 30
0.0
 10
2.5121218657164763
 20
1.1730991256746766
 30
0.0
 10
2.5273903374281645
 20
1.1855978422862925
 30
0.0
 10
2.5450448401107435
 20
1.1980472685476415
 30
0.0
 10
2.565091842849509
 20
1.2103308093597158
 30
0.0
 10
2.5776441460023647
 20
1.2173118954173345
 30
0.0
 10
2.583581088856142
 20
1.2208203440083873
 30
0.0
 10
2.591074426017478
 20
1.2255174529517971
 30
0.0
 10
2.600064864357265
 20
1.2314864011083009
 30
0.0
 10
2.610489841629549
 20
1.2388080483969885
 30
0.0
 10
2.6222836080034955
 20
1.2475608221574914
 30
0.0
 10
2.635377311289145
 20
1.257820606209977
 30
0.0
 10
2.649699085774194
 20
1.2696606327304174
 30
0.0
 10
2.665174144580122
 20
1.2831513770522271
 30
0.0
 10
2.6817248754450214
 20
1.2983604555038706
 30
0.0
 10
2.699270939838672
 20
1.3153525263911294
 30
0.0
 10
2.7177293752736347
 20
1.334189194259593
 30
0.0
 10
2.7370147009488943
 20
1.354928917297786
 30
0.0
 10
2.757039025925613
 20
1.3776269187252022
 30
0.0
 10
2.7777121608406863
 20
1.4023351009660026
 30
0.0
 10
2.7989417319967704
 20
1.4291019640661333
 30
0.0
 10
2.8206332982802365
 20
1.4579725275488222
 30
0.0
 10
2.8426904706447016
 20
1.488988256139178
 30
0.0
 10
2.865015034042751
 20
1.5221869893676834
 30
0.0
 10
2.887507071689086
 20
1.557602875135491
 30
0.0
 10
2.9041924869438223
 20
1.585461260323553
 30
0.0
 10
2.8669102561933193
 20
1.6552114081557117
 30
0.0
 10
2.8251459716282
 20
1.7223738410114804
 30
0.0
 10
2.792677194719562
 20
1.7218530401222172
 30
0.0
 10
2.750760119123954
 20
1.7200823070215197
 30
0.0
 10
2.710846891075564
 20
1.7173480346046641
 30
0.0
 10
2.672957896019517
 20
1.7137538272967834
 30
0.0
 10
2.6371094714785923
 20
1.7094036615882704
 30
0.0
 10
2.6033139024761165
 20
1.7044017452059381
 30
0.0
 10
2.571579421516187
 20
1.6988523763140824
 30
0.0
 10
2.5419102131833156
 20
1.6928598029056927
 30
0.0
 10
2.5143064233087147
 20
1.686528082515342
 30
0.0
 10
2.4887641727061025
 20
1.6799609424018098
 30
0.0
 10
2.465275575458003
 20
1.6732616403441016
 30
0.0
 10
2.443828761718219
 20
1.6665328261897054
 30
0.0
 10
2.4244079050206087
 20
1.6598764042915422
 30
0.0
 10
2.4069932581105915
 20
1.6533933879190006
 30
0.0
 10
2.391561605976532
 20
1.647183878819494
 30
0.0
 10
2.3780806451264276
 20
1.6413449720803333
 30
0.0
 10
2.3665340884482005
 20
1.6359804862140879
 30
0.0
 10
2.356863669883254
 20
1.6311761633521915
 30
0.0
 10
2.349054404165273
 20
1.6270379704659528
 30
0.0
 10
2.343043074651221
 20
1.6236482232359526
 30
0.0
 10
2.330723149313247
 20
1.6162692942680568
 30
0.0
 10
2.3100617895521878
 20
1.6050498510325883
 30
0.0
 10
2.2904530188060246
 20
1.5959853163489806
 30
0.0
 10
2.2719945768498198
 20
1.5890117902754914
 30
0.0
 10
2.254781550866577
 20
1.584061757082415
 30
0.0
 10
2.238906253779483
 20
1.581064181075141
 30
0.0
 10
2.224458070202928
 20
1.5799446947642353
 30
0.0
 10
2.21152356180464
 20
1.580625145873373
 30
0.0
 10
2.2001857873686474
 20
1.5830251594041436
 30
0.0
 10
2.1905249751004403
 20
1.5870602236187192
 30
0.0
 10
2.182617816015471
 20
1.5926433859009255
 30
0.0
 10
2.176537610804162
 20
1.5996847125942948
 30
0.0
 10
2.164473741761099
 20
1.6162892038358476
 30
0.0
 10
2.121422511729223
 20
1.672394659145196
 30
0.0
 10
2.108506163872462
 20
1.688345020386618
 30
0.0
 10
2.103278437475032
 20
1.6960404770802597
 30
0.0
 10
2.099932040198258
 20
1.7051232349834717
 30
0.0
 10
2.0985348697617803
 20
1.7154992144606862
 30
0.0
 10
2.0991511657319224
 20
1.7270717623530507
 30
0.0
 10
2.1018414221247252
 20
1.7397417795872245
 30
0.0
 10
2.1066623041973256
 20
1.7534078515748288
 30
0.0
 10
2.113666569513266
 20
1.7679663812702708
 30
0.0
 10
2.1229029933633017
 20
1.783311724752197
 30
0.0
 10
2.1344162986191595
 20
1.7993363291914188
 30
0.0
 10
2.1482470900935158
 20
1.8159308730658024
 30
0.0
 10
2.164431793475118
 20
1.8329844084804756
 30
0.0
 10
2.1747495492426596
 20
1.8429763949149354
 30
0.0
 10
2.179576142360198
 20
1.847901889899484
 30
0.0
 10
2.1855984489979483
 20
1.854378367105545
 30
0.0
 10
2.192737668117875
 20
1.8624708249518493
 30
0.0
 10
2.200912441143815
 20
1.8722411758217996
 30
0.0
 10
2.210038960126938
 20
1.8837481573998018
 30
0.0
 10
2.2200310787808903
 20
1.8970472475694942
 30
0.0
 10
2.230800426276278
 20
1.912190582965929
 30
0.0
 10
2.2422565236771734
 20
1.929226881265283
 30
0.0
 10
2.2543069029017953
 20
1.9482013672939844
 30
0.0
 10
2.2668572280879986
 20
1.969155703037794
 30
0.0
 10
2.2798114191968892
 20
1.9921279216465362
 30
0.0
 10
2.2930717780225827
 20
2.017152365334971
 30
0.0
 10
2.306539115616421
 20
2.0442596277881546
 30
0.0
 10
2.3201128824074653
 20
2.073476500173196
 30
0.0
 10
2.333691299520203
 20
2.1048259218649097
 30
0.0
 10
2.347171491933903
 20
2.138326935224622
 30
0.0
 10
2.360449623118734
 20
2.173994644780251
 30
0.0
 10
2.373421031032723
 20
2.2118401807867594
 30
0.0
 10
2.3859803653452993
 20
2.2518706672168225
 30
0.0
 10
2.3948869582097347
 20
2.28309830419205
 30
0.0
 10
2.3408224220084763
 20
2.3408224220084755
 30
0.0
 10
2.28309830419205
 20
2.3948869582097343
 30
0.0
 10
2.251870667216826
 20
2.3859803653453002
 30
0.0
 10
2.2118401807867705
 20
2.3734210310327266
 30
0.0
 10
2.1739946447802465
 20
2.3604496231187317
 30
0.0
 10
2.1383269352267984
 20
2.347171491934713
 30
0.0
 10
2.104825921865659
 20
2.333691299520111
 30
0.0
 10
2.0734765001737916
 20
2.3201128824075608
 30
0.0
 10
2.044259627788229
 20
2.306539115616439
 30
0.0
 10
2.017152365341223
 20
2.293071778025681
 30
0.0
 10
1.9921279216231758
 20
2.279811419239245
 30
0.0
 10
1.9691557030378042
 20
2.266857228087989
 30
0.0
 10
1.948201367293992
 20
2.2543069029017855
 30
0.0
 10
1.9292268812652367
 20
2.242256523677132
 30
0.0
 10
1.9121905829718377
 20
2.230800426269472
 30
0.0
 10
1.8970472538726721
 20
2.220031071038931
 30
0.0
 10
1.883748561749765
 20
2.210039140361449
 30
0.0
 10
1.8722381737681297
 20
2.2009100601305116
 30
0.0
 10
1.8624734875772873
 20
2.1927398959138618
 30
0.0
 10
1.85437603078986
 20
2.185596387885004
 30
0.0
 10
1.847903902479775
 20
2.1795780138059406
 30
0.0
 10
1.8429747351930257
 20
2.1747479228472684
 30
0.0
 10
1.8329844084804738
 20
2.1644317934751163
 30
0.0
 10
1.8159308730658028
 20
2.148247090093516
 30
0.0
 10
1.7993363291914124
 20
2.13441629861917
 30
0.0
 10
1.7833117247521946
 20
2.1229029933633017
 30
0.0
 10
1.7679663812706534
 20
2.113666569512813
 30
0.0
 10
1.7534078515740423
 20
2.106662304198322
 30
0.0
 10
1.7397417222924767
 20
2.1018414983816913
 30
0.0
 10
1.7270718328739108
 20
2.0991510665690187
 30
0.0
 10
1.715499214523279
 20
2.0985348696687223
 30
0.0
 10
1.7051232349835435
 20
2.0999320401981434
 30
0.0
 10
1.6960404770802622
 20
2.1032784374750437
 30
0.0
 10
1.688345020386489
 20
2.10850616387269
 30
0.0
 10
1.672394659145273
 20
2.1214225117293286
 30
0.0
 10
1.616289203835765
 20
2.1644737417609967
 30
0.0
 10
1.5996847125940408
 20
2.1765376108042274
 30
0.0
 10
1.5926433859009141
 20
2.182617816015465
 30
0.0
 10
1.5870602236188478
 20
2.1905249751004003
 30
0.0
 10
1.5830251595102307
 20
2.2001857873322725
 30
0.0
 10
1.5806252599095236
 20
2.2115235193519673
 30
0.0
 10
1.57994460627669
 20
2.224458105808649
 30
0.0
 10
1.5810641810739743
 20
2.238906253779984
 30
0.0
 10
1.5840617570829514
 20
2.254781550866325
 30
0.0
 10
1.5890117902754906
 20
2.271994576849822
 30
0.0
 10
1.5959853163489683
 20
2.2904530188060273
 30
0.0
 10
1.605049851032588
 20
2.310061789552187
 30
0.0
 10
1.6162692942680577
 20
2.3307231493132483
 30
0.0
 10
1.6236493646456247
 20
2.3430450987615794
 30
0.0
 10
1.6270366836822863
 20
2.3490519757961916
 30
0.0
 10
1.6311775495514202
 20
2.3568664600461955
 30
0.0
 10
1.6359790234665816
 20
2.3665309399534937
 30
0.0
 10
1.641346494973911
 20
2.3780841611391885
 30
0.0
 10
1.6471838093797961
 20
2.3915611687563354
 30
0.0
 10
1.6533933970285415
 20
2.406993254025955
 30
0.0
 10
1.6598764042996454
 20
2.4244079050166625
 30
0.0
 10
1.6665328261897325
 20
2.4438287617182746
 30
0.0
 10
1.6732616403441127
 20
2.465275575457998
 30
0.0
 10
1.679960942401822
 20
2.488764172706095
 30
0.0
 10
1.686528082468383
 20
2.5143064233203156
 30
0.0
 10
1.692859802904318
 20
2.541910213176475
 30
0.0
 10
1.6988523763140835
 20
2.5715794215161116
 30
0.0
 10
1.7044017452059996
 20
2.6033139024755165
 30
0.0
 10
1.7094036615885526
 20
2.6371094714778924
 30
0.0
 10
1.713753827296564
 20
2.672957896017205
 30
0.0
 10
1.7173480346046643
 20
2.710846891075569
 30
0.0
 10
1.7200823070215192
 20
2.7507601191239424
 30
0.0
 10
1.7218530401222172
 20
2.7926771947195586
 30
0.0
 10
1.7223738410114804
 20
2.8251459716282006
 30
0.0
 10
1.6552114081557112
 20
2.8669102561933193
 30
0.0
 10
1.5854612603235518
 20
2.9041924869438223
 30
0.0
 10
1.5576028751354931
 20
2.887507071689088
 30
0.0
 10
1.5221869893676925
 20
2.8650150340427576
 30
0.0
 10
1.4889882561391732
 20
2.8426904706446985
 30
0.0
 10
1.4579725275507138
 20
2.8206332982815825
 30
0.0
 10
1.4291019640668798
 20
2.798941731996876
 30
0.0
 10
1.4023351009665526
 20
2.7777121608409328
 30
0.0
 10
1.3776269187252677
 20
2.75703902592565
 30
0.0
 10
1.3549289173030226
 20
2.7370147009535053
 30
0.0
 10
1.334189194226066
 20
2.7177293753085014
 30
0.0
 10
1.3153525263911416
 20
2.699270939838665
 30
0.0
 10
1.2983604555038804
 20
2.6817248754450143
 30
0.0
 10
1.2831513770521925
 20
2.665174144580071
 30
0.0
 10
1.2696606327378863
 20
2.6496990857691496
 30
0.0
 10
1.257820614302146
 20
2.6353773054423693
 30
0.0
 10
1.2475611660814392
 20
2.6222838867501364
 30
0.0
 10
1.238805764887406
 20
2.6104867647586425
 30
0.0
 10
1.2314883964109473
 20
2.600067705381118
 30
0.0
 10
1.2255157296994226
 20
2.59107183045226
 30
0.0
 10
1.2208218036458678
 20
2.5835834174280268
 30
0.0
 10
1.2173107131911793
 20
2.5776421454574128
 30
0.0
 10
1.2103308093597145
 20
2.565091842849507
 30
0.0
 10
1.1980472685476415
 20
2.5450448401107444
 30
0.0
 10
1.1855978422862832
 20
2.5273903374281734
 30
0.0
 10
1.1730991256746741
 20
2.5121218657164763
 30
0.0
 10
1.1606672244937224
 20
2.499228498230074
 30
0.0
 10
1.1484176019273107
 20
2.4886948727144533
 30
0.0
 10
1.1364648510669262
 20
2.4805012773417423
 30
0.0
 10
1.1249230126539762
 20
2.474623311089145
 30
0.0
 10
1.113904205204644
 20
2.4710328965582224
 30
0.0
 10
1.1035201642518961
 20
2.469696958539843
 30
0.0
 10
1.0938807824714447
 20
2.4705785393672
 30
0.0
 10
1.085094506951544
 20
2.473636404554349
 30
0.0
 10
1.066344644271546
 20
2.481984381264918
 30
0.0
 10
1.0010084577451002
 20
2.5090475158377683
 30
0.0
 10
0.9818473917563173
 20
2.516402759943998
 30
0.0
 10
0.9734723195452878
 20
2.5204533577357
 30
0.0
 10
0.9660328755408404
 20
2.526646058177918
 30
0.0
 10
0.9596349007108268
 20
2.534933334776093
 30
0.0
 10
0.9543823547310374
 20
2.5452636032224643
 30
0.0
 10
0.9503771764928116
 20
2.5575812882100464
 30
0.0
 10
0.9477191468425301
 20
2.5718268947575584
 30
0.0
 10
0.94650575369326
 20
2.5879370839735323
 30
0.0
 10
0.9468320596465479
 20
2.605844753183696
 30
0.0
 10
0.948790572260035
 20
2.6254791203415877
 30
0.0
 10
0.9524711170940809
 20
2.6467658126381974
 30
0.0
 10
0.9579607136679277
 20
2.669626959222443
 30
0.0
 10
0.9619001590554321
 20
2.683439151192726
 30
0.0
 10
0.9636173638166774
 20
2.6901180515343266
 30
0.0
 10
0.9655945957513182
 20
2.698737998640681
 30
0.0
 10
0.9677311119492065
 20
2.7093158822745993
 30
0.0
 10
0.9699254976248668
 20
2.7218646408448337
 30
0.0
 10
0.9720758041233711
 20
2.736393238703825
 30
0.0
 10
0.9740796876304763
 20
2.752906647964974
 30
0.0
 10
0.9758345484454469
 20
2.7714058348640087
 30
0.0
 10
0.9772376706731737
 20
2.7918877506781468
 30
0.0
 10
0.9781863621925821
 20
2.8143453272150656
 30
0.0
 10
0.978578094757685
 20
2.838767476881735
 30
0.0
 10
0.9783106440390918
 20
2.8651390973326403
 30
0.0
 10
0.977282229801222
 20
2.893441080695245
 30
0.0
 10
0.9753916550522351
 20
2.923650327403674
 30
0.0
 10
0.9725384457258046
 20
2.9557397645037695
 30
0.0
 10
0.9686229890427596
 20
2.9896783686391135
 30
0.0
 10
0.9635466714410701
 20
3.025431193467996
 30
0.0
 10
0.9572120155841015
 20
3.0629594016303914
 30
0.0
 10
0.9495228163572123
 20
3.1022203011888605
 30
0.0
 10
0.9403842757114936
 20
3.143167386519432
 30
0.0
 10
0.9324837929056459
 20
3.174664609872355
 30
0.0
 10
0.85680047220332
 20
3.197622894211796
 30
0.0
 10
0.7797776516626196
 20
3.2155820970976965
 30
0.0
 10
0.7571870211741343
 20
3.192254942928319
 30
0.0
 10
0.7287992701561452
 20
3.1613629971439807
 30
0.0
 10
0.702509778511654
 20
3.131206660364349
 30
0.0
 10
0.6782597015355722
 20
3.101873606667482
 30
0.0
 10
0.6559870691196046
 20
3.073448910907965
 30
0.0
 10
0.6356268820967717
 20
3.0460149458993815
 30
0.0
 10
0.6171112117873068
 20
3.019651282840443
 30
0.0
 10
0.6003693026765273
 20
2.9944345951420024
 30
0.0
 10
0.5853276780943427
 20
2.9704385657106296
 30
0.0
 10
0.5719102487937502
 20
2.947733797795476
 30
0.0
 10
0.560038424313282
 20
2.9263877294865623
 30
0.0
 10
0.5496312270009536
 20
2.9064645519383987
 30
0.0
 10
0.5406054085962508
 20
2.8880251314084364
 30
0.0
 10
0.5328755785137759
 20
2.871126931646826
 30
0.0
 10
0.526354538636971
 20
2.85582431978582
 30
0.0
 10
0.5209507903529285
 20
2.842163110401825
 30
0.0
 10
0.516579406160001
 20
2.830205197541694
 30
0.0
 10
0.5131385568904709
 20
2.8199700097228515
 30
0.0
 10
0.5105427163969166
 20
2.8115218807258624
 30
0.0
 10
0.5086889777864247
 20
2.8048743156096876
 30
0.0
 10
0.5051951657473246
 20
2.7909451221484014
 30
0.0
 10
0.4985187225446819
 20
2.768401990159884
 30
0.0
 10
0.49106282172241733
 20
2.74812690145146
 30
0.0
 10
0.4829417598203921
 20
2.730143784398744
 30
0.0
 10
0.47427051446082374
 20
2.71447213496333
 30
0.0
 10
0.46516459055905407
 20
2.701126998417829
 30
0.0
 10
0.45573977833813106
 20
2.690118993473132
 30
0.0
 10
0.4461125481448495
 20
2.6814540664669253
 30
0.0
 10
0.43639846511504876
 20
2.675134115122219
 30
0.0
 10
0.42671401797977954
 20
2.671156110524249
 30
0.0
 10
0.41717492026066383
 20
2.6695127966255594
 30
0.0
 10
0.40789659607131035
 20
2.6701924121430687
 30
0.0
 10
0.38762500410855916
 20
2.6734031168904266
 30
0.0
 10
0.3175106395037989
 20
2.6826338481072645
 30
0.0
 10
0.2970987937499341
 20
2.684779219545769
 30
0.0
 10
0.2879607233517222
 20
2.68652416837236
 30
0.0
 10
0.2791719834395341
 20
2.6905803878706456
 30
0.0
 10
0.27084710929963657
 20
2.69692936463033
 30
0.0
 10
0.2630998692690447
 20
2.705548178780332
 30
0.0
 10
0.25604311270349167
 20
2.716409532422848
 30
0.0
 10
0.24978861893370943
 20
2.729481783002303
 30
0.0
 10
0.24444694736408792
 20
2.7447289815761873
 30
0.0
 10
0.2401272888666544
 20
2.762110915950167
 30
0.0
 10
0.23693731862213654
 20
2.781583158635261
 30
0.0
 10
0.23498305055855653
 20
2.8030971195802294
 30
0.0
 10
0.23436869353625994
 20
2.8266001036277735
 30
0.0
 10
0.23459904724078467
 20
2.8409612600629592
 30
0.0
 10
0.23452911305994992
 20
2.8478570276906736
 30
0.0
 10
0.2342079659712819
 20
2.8566950025032174
 30
0.0
 10
0.233533924403771
 20
2.8674654245748825
 30
0.0
 10
0.23240568049036003
 20
2.8801545433708995
 30
0.0
 10
0.23072243924715993
 20
2.8947446315372876
 30
0.0
 10
0.22838405726318975
 20
2.9112140032385185
 30
0.0
 10
0.22529118075753127
 20
2.929537037030063
 30
0.0
 10
0.2213453828618475
 20
2.9496842032419597
 30
0.0
 10
0.2164492999870234
 20
2.9716220958479833
 30
0.0
 10
0.21050676713257652
 20
2.9953134687929515
 30
0.0
 10
0.20342295195331828
 20
3.020717276727976
 30
0.0
 10
0.19510448777241968
 20
3.047788720202104
 30
0.0
 10
0.18545960440950132
 20
3.0764792950392854
 30
0.0
 10
0.17439825836516906
 20
3.106736846172002
 30
0.0
 10
0.1618322605188777
 20
3.1385056256546857
 30
0.0
 10
0.14767540226303089
 20
3.171726354845386
 30
0.0
 10
0.13184357956913179
 20
3.206336290743842
 30
0.0
 10
0.11425491491880851
 20
3.2422692963892024
 30
0.0
 10
0.09482987696952666
 20
3.279455915257708
 30
0.0
 10
0.07904651531562115
 20
3.307835101335033
 30
0.0
 10
-5.357718426785545e-16
 20
3.3104228163114238
 30
0.0
 10
-0.07904651531562244
 20
3.3078351013350327
 30
0.0
 10
-0.09482987696952602
 20
3.279455915257711
 30
0.0
 10
-0.1142549149188041
 20
3.242269296389213
 30
0.0
 10
-0.1318435795691346
 20
3.2063362907438377
 30
0.0
 10
-0.14767540226206574
 20
3.1717263548474977
 30
0.0
 10
-0.16183226051828412
 20
3.1385056256551507
 30
0.0
 10
-0.17439825836481646
 20
3.106736846172491
 30
0.0
 10
-0.18545960440946327
 20
3.0764792950393502
 30
0.0
 10
-0.1951044877701905
 20
3.0477887202087155
 30
0.0
 10
-0.2034229519997872
 20
3.0207172767414083
 30
0.0
 10
-0.21050676713256275
 20
2.995313468792952
 30
0.0
 10
-0.21644929998701165
 20
2.971622095847982
 30
0.0
 10
-0.2213453828618521
 20
2.9496842032418984
 30
0.0
 10
-0.225291180748541
 20
2.9295370370294287
 30
0.0
 10
-0.22838404733177814
 20
2.911214002221147
 30
0.0
 10
-0.23072228077360474
 20
2.8947450449009335
 30
0.0
 10
-0.2324061196322153
 20
2.8801507369677393
 30
0.0
 10
-0.23353361693291758
 20
2.8674688826250354
 30
0.0
 10
-0.23420816056900678
 20
2.8566918930516145
 30
0.0
 10
-0.23452901326275422
 20
2.847859774111821
 30
0.0
 10
-0.23459907080619236
 20
2.8409589364271324
 30
0.0
 10
-0.23436869353626044
 20
2.8266001036277717
 30
0.0
 10
-0.23498305055855706
 20
2.8030971195802303
 30
0.0
 10
-0.23693731862214912
 20
2.7815831586352644
 30
0.0
 10
-0.24012728886665669
 20
2.762110915950166
 30
0.0
 10
-0.2444469473634977
 20
2.7447289815761375
 30
0.0
 10
-0.24978861893497067
 20
2.729481783002452
 30
0.0
 10
-0.2560432071388147
 20
2.7164095458311617
 30
0.0
 10
-0.2630997492845057
 20
2.7055481585273498
 30
0.0
 10
-0.27084710918957533
 20
2.6969293646087875
 30
0.0
 10
-0.2791719834394031
 20
2.690580387870616
 30
0.0
 10
-0.28796072335172956
 20
2.68652416837237
 30
0.0
 10
-0.2970987937501873
 20
2.684779219545839
 30
0.0
 10
-0.31751063950381986
 20
2.682633848107394
 30
0.0
 10
-0.38762500410854583
 20
2.6734031168902965
 30
0.0
 10
-0.40789659607153667
 20
2.6701924121429355
 30
0.0
 10
-0.4171749202606683
 20
2.6695127966255474
 30
0.0
 10
-0.4267140179796608
 20
2.6711561105243122
 30
0.0
 10
-0.43639846501431334
 20
2.6751341151715136
 30
0.0
 10
-0.4461124374905422
 20
2.6814541170840887
 30
0.0
 10
-0.4557398660853216
 20
2.690118956080036
 30
0.0
 10
-0.4651645905602337
 20
2.701126998417359
 30
0.0
 10
-0.4742705144602665
 20
2.714472134963531
 30
0.0
 10
-0.48294175982039467
 20
2.730143784398745
 30
0.0
 10
-0.4910628217224287
 20
2.748126901451454
 30
0.0
 10
-0.49851872254468216
 20
2.7684019901598833
 30
0.0
 10
-0.5051951657473257
 20
2.790945122148403
 30
0.0
 10
-0.5086896019500666
 20
2.8048765539703675
 30
0.0
 10
-0.5105419091741292
 20
2.811519253716161
 30
0.0
 10
-0.5131395496427339
 20
2.819972962856863
 30
0.0
 10
-0.5165782141567246
 20
2.830201936901056
 30
0.0
 10
-0.5209521997010191
 20
2.8421666734466666
 30
0.0
 10
-0.5263542785768872
 20
2.8558239615231735
 30
0.0
 10
-0.5328755691840842
 20
2.8711269351999706
 30
0.0
 10
-0.5406054085877312
 20
2.888025131411376
 30
0.0
 10
-0.549631227000974
 20
2.906464551938457
 30
0.0
 10
-0.5600384243132709
 20
2.926387729486567
 30
0.0
 10
-0.5719102487937369
 20
2.947733797795479
 30
0.0
 10
-0.5853276781357518
 20
2.9704385656856283
 30
0.0
 10
-0.600369302672663
 20
2.9944345951361933
 30
0.0
 10
-0.6171112117872533
 20
3.0196512828403903
 30
0.0
 10
-0.6356268820963047
 20
3.046014945899001
 30
0.0
 10
-0.6559870691189111
 20
3.07344891090767
 30
0.0
 10
-0.6782597015340935
 20
3.1018736066656927
 30
0.0
 10
-0.702509778511658
 20
3.131206660364353
 30
0.0
 10
-0.7287992701561384
 20
3.1613629971439723
 30
0.0
 10
-0.757187021174133
 20
3.192254942928317
 30
0.0
 10
-0.7797776516626209
 20
3.2155820970976965
 30
0.0
 10
-0.8568004722033197
 20
3.197622894211796
 30
0.0
 10
-0.9324837929056463
 20
3.1746646098723543
 30
0.0
 10
-0.9403842757114932
 20
3.1431673865194347
 30
0.0
 10
-0.94952281635721
 20
3.1022203011888716
 30
0.0
 10
-0.9572120155841024
 20
3.062959401630386
 30
0.0
 10
-0.9635466714406836
 20
3.025431193470285
 30
0.0
 10
-0.968622989042306
 20
2.9896783686397157
 30
0.0
 10
-0.9725384457255898
 20
2.9557397645043326
 30
0.0
 10
-0.9753916550522145
 20
2.923650327403746
 30
0.0
 10
-0.9772822298007793
 20
2.8934410807022086
 30
0.0
 10
-0.9783106440874533
 20
2.8651390973335884
 30
0.0
 10
-0.9785780947576712
 20
2.838767476881739
 30
0.0
 10
-0.9781863621925699
 20
2.814345327215068
 30
0.0
 10
-0.9772376706731616
 20
2.791887750678086
 30
0.0
 10
-0.9758345484365982
 20
2.771405834865723
 30
0.0
 10
-0.9740796777741536
 20
2.752906649552707
 30
0.0
 10
-0.9720757580360548
 20
2.7363936789984202
 30
0.0
 10
-0.9699249366336946
 20
2.7218608504834405
 30
0.0
 10
-0.9677317099644059
 20
2.709319302073863
 30
0.0
 10
-0.9655939789329909
 20
2.6987349447754756
 30
0.0
 10
-0.9636179782460867
 20
2.6901207302028576
 30
0.0
 10
-0.9618995804166613
 20
2.6834369006336933
 30
0.0
 10
-0.9579607136679269
 20
2.669626959222441
 30
0.0
 10
-0.9524711170940808
 20
2.6467658126381983
 30
0.0
 10
-0.9487905722600473
 20
2.6254791203415877
 30
0.0
 10
-0.946832059646549
 20
2.605844753183694
 30
0.0
 10
-0.9465057536926761
 20
2.587937083973637
 30
0.0
 10
-0.9477191468437861
 20
2.5718268947573764
 30
0.0
 10
-0.950377271180655
 20
2.557581276719823
 30
0.0
 10
-0.954382233593014
 20
2.5452636147138685
 30
0.0
 10
-0.9596349005989396
 20
2.534933334783771
 30
0.0
 10
-0.9660328755407052
 20
2.5266460581779233
 30
0.0
 10
-0.9734723195452967
 20
2.520453357735708
 30
0.0
 10
-0.9818473917565792
 20
2.516402759944001
 30
0.0
 10
-1.0010084577451532
 20
2.509047515837888
 30
0.0
 10
-1.066344644271499
 20
2.481984381264796
 30
0.0
 10
-1.0850945069517277
 20
2.473636404554162
 30
0.0
 10
-1.0938807824714454
 20
2.470578539367187
 30
0.0
 10
-1.103520164251797
 20
2.4696969585399344
 30
0.0
 10
-1.1139042051200987
 20
2.4710328966319093
 30
0.0
 10
-1.124922918870808
 20
2.4746233886210125
 30
0.0
 10
-1.1364649261461577
 20
2.480501218512141
 30
0.0
 10
-1.1484176019283279
 20
2.4886948727136935
 30
0.0
 10
-1.1606672244932354
 20
2.4992284982304125
 30
0.0
 10
-1.1730991256746761
 20
2.5121218657164763
 30
0.0
 10
-1.185597842286292
 20
2.5273903374281645
 30
0.0
 10
-1.198047268547641
 20
2.5450448401107435
 30
0.0
 10
-1.2103308093597154
 20
2.5650918428495086
 30
0.0
 10
-1.217311895417334
 20
2.5776441460023647
 30
0.0
 10
-1.220820344008387
 20
2.583581088856142
 30
0.0
 10
-1.2255174529517967
 20
2.591074426017478
 30
0.0
 10
-1.2314864011083004
 20
2.600064864357265
 30
0.0
 10
-1.238808048396988
 20
2.610489841629549
 30
0.0
 10
-1.247560822157491
 20
2.6222836080034955
 30
0.0
 10
-1.2578206062099766
 20
2.635377311289145
 30
0.0
 10
-1.269660632730417
 20
2.649699085774194
 30
0.0
 10
-1.2831513770522267
 20
2.665174144580122
 30
0.0
 10
-1.2983604555038701
 20
2.6817248754450214
 30
0.0
 10
-1.315352526391129
 20
2.699270939838672
 30
0.0
 10
-1.3341891942595925
 20
2.7177293752736347
 30
0.0
 10
-1.3549289172977856
 20
2.7370147009488943
 30
0.0
 10
-1.3776269187252017
 20
2.757039025925613
 30
0.0
 10
-1.4023351009660021
 20
2.7777121608406863
 30
0.0
 10
-1.4291019640661329
 20
2.7989417319967704
 30
0.0
 10
-1.4579725275488218
 20
2.8206332982802365
 30
0.0
 10
-1.4889882561391776
 20
2.842690470644701
 30
0.0
 10
-1.522186989367683
 20
2.865015034042751
 30
0.0
 10
-1.5576028751354905
 20
2.887507071689086
 30
0.0
 10
-1.5854612603235525
 20
2.9041924869438223
 30
0.0
 10
-1.6552114081557117
 20
2.8669102561933193
 30
0.0
 10
-1.7223738410114804
 20
2.8251459716282
 30
0.0
 10
-1.7218530401222172
 20
2.792677194719562
 30
0.0
 10
-1.7200823070215197
 20
2.750760119123954
 30
0.0
 10
-1.7173480346046641
 20
2.710846891075564
 30
0.0
 10
-1.7137538272967834
 20
2.672957896019517
 30
0.0
 10
-1.7094036615882704
 20
2.6371094714785923
 30
0.0
 10
-1.7044017452059381
 20
2.6033139024761165
 30
0.0
 10
-1.6988523763140824
 20
2.571579421516187
 30
0.0
 10
-1.6928598029056927
 20
2.5419102131833156
 30
0.0
 10
-1.686528082515342
 20
2.5143064233087147
 30
0.0
 10
-1.6799609424018098
 20
2.4887641727061025
 30
0.0
 10
-1.6732616403441016
 20
2.465275575458003
 30
0.0
 10
-1.6665328261897054
 20
2.443828761718219
 30
0.0
 10
-1.6598764042915422
 20
2.4244079050206087
 30
0.0
 10
-1.6533933879190006
 20
2.4069932581105915
 30
0.0
 10
-1.647183878819494
 20
2.391561605976532
 30
0.0
 10
-1.6413449720803333
 20
2.3780806451264276
 30
0.0
 10
-1.6359804862140879
 20
2.3665340884482005
 30
0.0
 10
-1.6311761633521915
 20
2.356863669883254
 30
0.0
 10
-1.6270379704659528
 20
2.349054404165273
 30
0.0
 10
-1.6236482232359526
 20
2.343043074651221
 30
0.0
 10
-1.6162692942680568
 20
2.330723149313247
 30
0.0
 10
-1.6050498510325883
 20
2.3100617895521878
 30
0.0
 10
-1.5959853163489806
 20
2.2904530188060246
 30
0.0
 10
-1.5890117902754914
 20
2.2719945768498198
 30
0.0
 10
-1.584061757082415
 20
2.254781550866577
 30
0.0
 10
-1.581064181075141
 20
2.238906253779483
 30
0.0
 10
-1.5799446947642353
 20
2.224458070202928
 30
0.0
 10
-1.580625145873373
 20
2.21152356180464
 30
0.0
 10
-1.5830251594041436
 20
2.2001857873686474
 30
0.0
 10
-1.5870602236187192
 20
2.1905249751004403
 30
0.0
 10
-1.5926433859009255
 20
2.182617816015471
 30
0.0
 10
-1.5996847125942948
 20
2.176537610804162
 30
0.0
 10
-1.6162892038358476
 20
2.164473741761099
 30
0.0
 10
-1.672394659145196
 20
2.121422511729223
 30
0.0
 10
-1.688345020386618
 20
2.108506163872462
 30
0.0
 10
-1.6960404770802597
 20
2.103278437475032
 30
0.0
 10
-1.7051232349834717
 20
2.099932040198258
 30
0.0
 10
-1.7154992144606862
 20
2.0985348697617803
 30
0.0
 10
-1.7270717623530507
 20
2.0991511657319224
 30
0.0
 10
-1.7397417795872245
 20
2.1018414221247252
 30
0.0
 10
-1.7534078515748288
 20
2.1066623041973256
 30
0.0
 10
-1.7679663812702708
 20
2.113666569513266
 30
0.0
 10
-1.783311724752197
 20
2.1229029933633017
 30
0.0
 10
-1.7993363291914188
 20
2.1344162986191595
 30
0.0
 10
-1.8159308730658024
 20
2.1482470900935158
 30
0.0
 10
-1.8329844084804756
 20
2.164431793475118
 30
0.0
 10
-1.8429763949149354
 20
2.1747495492426596
 30
0.0
 10
-1.847901889899484
 20
2.179576142360198
 30
0.0
 10
-1.854378367105545
 20
2.1855984489979483
 30
0.0
 10
-1.8624708249518493
 20
2.192737668117875
 30
0.0
 10
-1.8722411758217996
 20
2.200912441143815
 30
0.0
 10
-1.8837481573998018
 20
2.210038960126938
 30
0.0
 10
-1.8970472475694942
 20
2.2200310787808903
 30
0.0
 10
-1.912190582965929
 20
2.230800426276278
 30
0.0
 10
-1.929226881265283
 20
2.2422565236771734
 30
0.0
 10
-1.9482013672939844
 20
2.2543069029017953
 30
0.0
 10
-1.969155703037794
 20
2.2668572280879986
 30
0.0
 10
-1.9921279216465362
 20
2.2798114191968892
 30
0.0
 10
-2.017152365334971
 20
2.2930717780225827
 30
0.0
 10
-2.0442596277881546
 20
2.306539115616421
 30
0.0
 10
-2.073476500173196
 20
2.3201128824074653
 30
0.0
 10
-2.1048259218649097
 20
2.333691299520203
 30
0.0
 10
-2.138326935224622
 20
2.347171491933903
 30
0.0
 10
-2.173994644780251
 20
2.360449623118734
 30
0.0
 10
-2.2118401807867594
 20
2.373421031032723
 30
0.0
 10
-2.2518706672168225
 20
2.3859803653452993
 30
0.0
 10
-2.28309830419205
 20
2.3948869582097347
 30
0.0
 10
-2.3408224220084763
 20
2.340822422008476
 30
0.0
 10
-2.394886958209735
 20
2.2830983041920496
 30
0.0
 10
-2.3859803653453007
 20
2.251870667216825
 30
0.0
 10
-2.3734210310327266
 20
2.21184018078677
 30
0.0
 10
-2.3604496231187326
 20
2.173994644780246
 30
0.0
 10
-2.347171491934713
 20
2.1383269352267975
 30
0.0
 10
-2.3336912995201113
 20
2.1048259218656584
 30
0.0
 10
-2.320112882407561
 20
2.073476500173791
 30
0.0
 10
-2.30653911561644
 20
2.044259627788228
 30
0.0
 10
-2.2930717780256815
 20
2.0171523653412224
 30
0.0
 10
-2.2798114192392456
 20
1.9921279216231753
 30
0.0
 10
-2.266857228087989
 20
1.9691557030378037
 30
0.0
 10
-2.254306902901786
 20
1.9482013672939915
 30
0.0
 10
-2.2422565236771326
 20
1.9292268812652362
 30
0.0
 10
-2.2308004262694725
 20
1.9121905829718373
 30
0.0
 10
-2.2200310710389317
 20
1.8970472538726717
 30
0.0
 10
-2.210039140361449
 20
1.8837485617497645
 30
0.0
 10
-2.2009100601305125
 20
1.8722381737681293
 30
0.0
 10
-2.192739895913862
 20
1.862473487577287
 30
0.0
 10
-2.1855963878850044
 20
1.8543760307898596
 30
0.0
 10
-2.1795780138059415
 20
1.8479039024797748
 30
0.0
 10
-2.174747922847269
 20
1.8429747351930252
 30
0.0
 10
-2.1644317934751167
 20
1.8329844084804734
 30
0.0
 10
-2.1482470900935167
 20
1.8159308730658024
 30
0.0
 10
-2.1344162986191706
 20
1.799336329191412
 30
0.0
 10
-2.122902993363302
 20
1.7833117247521941
 30
0.0
 10
-2.113666569512813
 20
1.767966381270653
 30
0.0
 10
-2.1066623041983226
 20
1.753407851574042
 30
0.0
 10
-2.1018414983816918
 20
1.7397417222924763
 30
0.0
 10
-2.099151066569019
 20
1.7270718328739103
 30
0.0
 10
-2.0985348696687227
 20
1.7154992145232786
 30
0.0
 10
-2.0999320401981443
 20
1.705123234983543
 30
0.0
 10
-2.1032784374750446
 20
1.6960404770802617
 30
0.0
 10
-2.1085061638726903
 20
1.6883450203864885
 30
0.0
 10
-2.1214225117293295
 20
1.6723946591452725
 30
0.0
 10
-2.164473741760997
 20
1.6162892038357646
 30
0.0
 10
-2.176537610804228
 20
1.5996847125940403
 30
0.0
 10
-2.182617816015465
 20
1.5926433859009137
 30
0.0
 10
-2.1905249751004003
 20
1.5870602236188476
 30
0.0
 10
-2.2001857873322725
 20
1.5830251595102303
 30
0.0
 10
-2.211523519351968
 20
1.5806252599095232
 30
0.0
 10
-2.224458105808649
 20
1.5799446062766895
 30
0.0
 10
-2.238906253779984
 20
1.581064181073974
 30
0.0
 10
-2.254781550866325
 20
1.584061757082951
 30
0.0
 10
-2.271994576849822
 20
1.58901179027549
 30
0.0
 10
-2.2904530188060277
 20
1.595985316348968
 30
0.0
 10
-2.3100617895521873
 20
1.6050498510325875
 30
0.0
 10
-2.3307231493132488
 20
1.6162692942680572
 30
0.0
 10
-2.34304509876158
 20
1.6236493646456243
 30
0.0
 10
-2.349051975796192
 20
1.6270366836822858
 30
0.0
 10
-2.356866460046196
 20
1.6311775495514198
 30
0.0
 10
-2.366530939953494
 20
1.6359790234665812
 30
0.0
 10
-2.378084161139189
 20
1.6413464949739105
 30
0.0
 10
-2.391561168756336
 20
1.6471838093797957
 30
0.0
 10
-2.4069932540259553
 20
1.653393397028541
 30
0.0
 10
-2.424407905016663
 20
1.659876404299645
 30
0.0
 10
-2.4438287617182746
 20
1.666532826189732
 30
0.0
 10
-2.465275575457998
 20
1.6732616403441123
 30
0.0
 10
-2.4887641727060954
 20
1.6799609424018216
 30
0.0
 10
-2.514306423320316
 20
1.6865280824683826
 30
0.0
 10
-2.541910213176475
 20
1.6928598029043174
 30
0.0
 10
-2.571579421516112
 20
1.6988523763140828
 30
0.0
 10
-2.603313902475517
 20
1.704401745205999
 30
0.0
 10
-2.6371094714778924
 20
1.709403661588552
 30
0.0
 10
-2.672957896017206
 20
1.7137538272965633
 30
0.0
 10
-2.7108468910755694
 20
1.7173480346046637
 30
0.0
 10
-2.750760119123943
 20
1.7200823070215185
 30
0.0
 10
-2.792677194719559
 20
1.7218530401222165
 30
0.0
 10
-2.825145971628201
 20
1.7223738410114797
 30
0.0
 10
-2.8669102561933184
 20
1.655211408155712
 30
0.0
 10
-2.9041924869438214
 20
1.5854612603235527
 30
0.0
 10
-2.887507071689087
 20
1.5576028751354938
 30
0.0
 10
-2.865015034042757
 20
1.5221869893676931
 30
0.0
 10
-2.842690470644698
 20
1.488988256139174
 30
0.0
 10
-2.820633298281582
 20
1.4579725275507147
 30
0.0
 10
-2.7989417319968757
 20
1.4291019640668805
 30
0.0
 10
-2.7777121608409323
 20
1.4023351009665532
 30
0.0
 10
-2.75703902592565
 20
1.3776269187252683
 30
0.0
 10
-2.737014700953505
 20
1.3549289173030232
 30
0.0
 10
-2.717729375308501
 20
1.3341891942260669
 30
0.0
 10
-2.6992709398386645
 20
1.3153525263911423
 30
0.0
 10
-2.681724875445014
 20
1.2983604555038812
 30
0.0
 10
-2.6651741445800705
 20
1.2831513770521934
 30
0.0
 10
-2.6496990857691487
 20
1.269660632737887
 30
0.0
 10
-2.635377305442369
 20
1.2578206143021466
 30
0.0
 10
-2.6222838867501355
 20
1.2475611660814399
 30
0.0
 10
-2.6104867647586425
 20
1.2388057648874067
 30
0.0
 10
-2.600067705381117
 20
1.231488396410948
 30
0.0
 10
-2.5910718304522597
 20
1.2255157296994232
 30
0.0
 10
-2.5835834174280268
 20
1.2208218036458687
 30
0.0
 10
-2.5776421454574123
 20
1.21731071319118
 30
0.0
 10
-2.5650918428495064
 20
1.2103308093597152
 30
0.0
 10
-2.545044840110744
 20
1.1980472685476424
 30
0.0
 10
-2.5273903374281725
 20
1.1855978422862838
 30
0.0
 10
-2.512121865716476
 20
1.1730991256746748
 30
0.0
 10
-2.499228498230074
 20
1.160667224493723
 30
0.0
 10
-2.488694872714453
 20
1.1484176019273116
 30
0.0
 10
-2.480501277341742
 20
1.1364648510669269
 30
0.0
 10
-2.4746233110891445
 20
1.1249230126539769
 30
0.0
 10
-2.4710328965582224
 20
1.1139042052046446
 30
0.0
 10
-2.4696969585398425
 20
1.1035201642518968
 30
0.0
 10
-2.470578539367199
 20
1.0938807824714454
 30
0.0
 10
-2.473636404554348
 20
1.0850945069515447
 30
0.0
 10
-2.4819843812649176
 20
1.066344644271547
 30
0.0
 10
-2.509047515837768
 20
1.0010084577451008
 30
0.0
 10
-2.5164027599439978
 20
0.9818473917563179
 30
0.0
 10
-2.5204533577356996
 20
0.9734723195452886
 30
0.0
 10
-2.526646058177918
 20
0.966032875540841
 30
0.0
 10
-2.5349333347760927
 20
0.9596349007108276
 30
0.0
 10
-2.545263603222464
 20
0.954382354731038
 30
0.0
 10
-2.557581288210046
 20
0.9503771764928122
 30
0.0
 10
-2.5718268947575584
 20
0.9477191468425309
 30
0.0
 10
-2.5879370839735323
 20
0.9465057536932607
 30
0.0
 10
-2.6058447531836952
 20
0.9468320596465487
 30
0.0
 10
-2.6254791203415873
 20
0.9487905722600358
 30
0.0
 10
-2.646765812638197
 20
0.9524711170940817
 30
0.0
 10
-2.669626959222443
 20
0.9579607136679285
 30
0.0
 10
-2.683439151192725
 20
0.9619001590554329
 30
0.0
 10
-2.6901180515343266
 20
0.9636173638166782
 30
0.0
 10
-2.698737998640681
 20
0.9655945957513189
 30
0.0
 10
-2.709315882274599
 20
0.9677311119492072
 30
0.0
 10
-2.7218646408448337
 20
0.9699254976248676
 30
0.0
 10
-2.7363932387038243
 20
0.9720758041233719
 30
0.0
 10
-2.7529066479649735
 20
0.9740796876304771
 30
0.0
 10
-2.7714058348640083
 20
0.9758345484454476
 30
0.0
 10
-2.7918877506781463
 20
0.9772376706731746
 30
0.0
 10
-2.814345327215065
 20
0.978186362192583
 30
0.0
 10
-2.838767476881735
 20
0.9785780947576859
 30
0.0
 10
-2.8651390973326403
 20
0.9783106440390926
 30
0.0
 10
-2.893441080695245
 20
0.9772822298012228
 30
0.0
 10
-2.9236503274036734
 20
0.9753916550522359
 30
0.0
 10
-2.955739764503769
 20
0.9725384457258054
 30
0.0
 10
-2.989678368639113
 20
0.9686229890427605
 30
0.0
 10
-3.0254311934679956
 20
0.963546671441071
 30
0.0
 10
-3.062959401630391
 20
0.9572120155841024
 30
0.0
 10
-3.10222030118886
 20
0.9495228163572131
 30
0.0
 10
-3.143167386519431
 20
0.9403842757114945
 30
0.0
 10
-3.1746646098723543
 20
0.9324837929056468
 30
0.0
 10
-3.197622894211796
 20
0.8568004722033202
 30
0.0
 10
-3.2155820970976965
 20
0.7797776516626198
 30
0.0
 10
-3.192254942928319
 20
0.7571870211741345
 30
0.0
 10
-3.1613629971439807
 20
0.7287992701561453
 30
0.0
 10
-3.131206660364349
 20
0.7025097785116541
 30
0.0
 10
-3.101873606667482
 20
0.6782597015355724
 30
0.0
 10
-3.073448910907965
 20
0.6559870691196047
 30
0.0
 10
-3.0460149458993815
 20
0.6356268820967718
 30
0.0
 10
-3.019651282840443
 20
0.6171112117873069
 30
0.0
 10
-2.9944345951420024
 20
0.6003693026765274
 30
0.0
 10
-2.9704385657106296
 20
0.5853276780943428
 30
0.0
 10
-2.947733797795476
 20
0.5719102487937503
 30
0.0
 10
-2.9263877294865623
 20
0.5600384243132821
 30
0.0
 10
-2.9064645519383987
 20
0.5496312270009537
 30
0.0
 10
-2.8880251314084364
 20
0.540605408596251
 30
0.0
 10
-2.871126931646826
 20
0.532875578513776
 30
0.0
 10
-2.85582431978582
 20
0.5263545386369711
 30
0.0
 10
-2.842163110401825
 20
0.5209507903529286
 30
0.0
 10
-2.830205197541694
 20
0.5165794061600011
 30
0.0
 10
-2.8199700097228515
 20
0.513138556890471
 30
0.0
 10
-2.8115218807258624
 20
0.5105427163969167
 30
0.0
 10
-2.8048743156096876
 20
0.5086889777864249
 30
0.0
 10
-2.7909451221484014
 20
0.5051951657473247
 30
0.0
 10
-2.768401990159884
 20
0.49851872254468205
 30
0.0
 10
-2.74812690145146
 20
0.4910628217224175
 30
0.0
 10
-2.730143784398744
 20
0.4829417598203923
 30
0.0
 10
-2.71447213496333
 20
0.4742705144608239
 30
0.0
 10
-2.701126998417829
 20
0.46516459055905424
 30
0.0
 10
-2.690118993473132
 20
0.45573977833813123
 30
0.0
 10
-2.6814540664669253
 20
0.4461125481448497
 30
0.0
 10
-2.675134115122219
 20
0.43639846511504893
 30
0.0
 10
-2.671156110524249
 20
0.4267140179797797
 30
0.0
 10
-2.6695127966255594
 20
0.417174920260664
 30
0.0
 10
-2.6701924121430687
 20
0.4078965960713105
 30
0.0
 10
-2.6734031168904266
 20
0.3876250041085593
 30
0.0
 10
-2.6826338481072645
 20
0.31751063950379904
 30
0.0
 10
-2.684779219545769
 20
0.29709879374993425
 30
0.0
 10
-2.68652416837236
 20
0.28796072335172235
 30
0.0
 10
-2.6905803878706456
 20
0.27917198343953425
 30
0.0
 10
-2.69692936463033
 20
0.27084710929963673
 30
0.0
 10
-2.705548178780332
 20
0.2630998692690449
 30
0.0
 10
-2.716409532422848
 20
0.25604311270349184
 30
0.0
 10
-2.729481783002303
 20
0.2497886189337096
 30
0.0
 10
-2.7447289815761873
 20
0.2444469473640881
 30
0.0
 10
-2.762110915950167
 20
0.24012728886665458
 30
0.0
 10
-2.781583158635261
 20
0.2369373186221367
 30
0.0
 10
-2.8030971195802294
 20
0.2349830505585567
 30
0.0
 10
-2.8266001036277735
 20
0.2343686935362601
 30
0.0
 10
-2.8409612600629592
 20
0.23459904724078487
 30
0.0
 10
-2.8478570276906736
 20
0.2345291130599501
 30
0.0
 10
-2.8566950025032174
 20
0.2342079659712821
 30
0.0
 10
-2.8674654245748825
 20
0.2335339244037712
 30
0.0
 10
-2.8801545433708995
 20
0.23240568049036023
 30
0.0
 10
-2.8947446315372876
 20
0.23072243924716013
 30
0.0
 10
-2.9112140032385185
 20
0.22838405726318994
 30
0.0
 10
-2.929537037030063
 20
0.22529118075753146
 30
0.0
 10
-2.9496842032419597
 20
0.22134538286184766
 30
0.0
 10
-2.9716220958479833
 20
0.21644929998702356
 30
0.0
 10
-2.9953134687929515
 20
0.21050676713257668
 30
0.0
 10
-3.020717276727976
 20
0.20342295195331844
 30
0.0
 10
-3.047788720202104
 20
0.19510448777241984
 30
0.0
 10
-3.0764792950392854
 20
0.18545960440950152
 30
0.0
 10
-3.106736846172002
 20
0.17439825836516926
 30
0.0
 10
-3.1385056256546857
 20
0.1618322605188779
 30
0.0
 10
-3.171726354845386
 20
0.14767540226303108
 30
0.0
 10
-3.206336290743842
 20
0.13184357956913198
 30
0.0
 10
-3.2422692963892024
 20
0.11425491491880872
 30
0.0
 10
-3.279455915257708
 20
0.09482987696952687
 30
0.0
 10
-3.307835101335033
 20
0.07904651531562135
 30
0.0
 10
-3.3104228163114233
 20
-3.137272377535232e-16
 30
0.0
 10
-3.3078351013350327
 20
-0.07904651531562222
 30
0.0
 10
-3.279455915257711
 20
-0.0948298769695258
 30
0.0
 10
-3.242269296389213
 20
-0.11425491491880399
 30
0.0
 10
-3.2063362907438377
 20
-0.13184357956913448
 30
0.0
 10
-3.1717263548474977
 20
-0.14767540226206552
 30
0.0
 10
-3.1385056256551507
 20
-0.161832260518284
 30
0.0
 10
-3.106736846172491
 20
-0.17439825836481623
 30
0.0
 10
-3.0764792950393502
 20
-0.18545960440946305
 30
0.0
 10
-3.0477887202087155
 20
-0.19510448777019027
 30
0.0
 10
-3.0207172767414083
 20
-0.20342295199978697
 30
0.0
 10
-2.995313468792952
 20
-0.21050676713256253
 30
0.0
 10
-2.971622095847982
 20
-0.21644929998701143
 30
0.0
 10
-2.9496842032418984
 20
-0.22134538286185199
 30
0.0
 10
-2.9295370370294287
 20
-0.22529118074854076
 30
0.0
 10
-2.911214002221147
 20
-0.22838404733177803
 30
0.0
 10
-2.8947450449009335
 20
-0.23072228077360452
 30
0.0
 10
-2.8801507369677393
 20
-0.2324061196322152
 30
0.0
 10
-2.8674688826250354
 20
-0.23353361693291746
 30
0.0
 10
-2.8566918930516145
 20
-0.23420816056900667
 30
0.0
 10
-2.847859774111821
 20
-0.2345290132627541
 30
0.0
 10
-2.8409589364271324
 20
-0.23459907080619224
 30
0.0
 10
-2.8266001036277717
 20
-0.23436869353626033
 30
0.0
 10
-2.8030971195802303
 20
-0.23498305055855695
 30
0.0
 10
-2.781583158635264
 20
-0.236937318622149
 30
0.0
 10
-2.762110915950166
 20
-0.24012728886665646
 30
0.0
 10
-2.7447289815761375
 20
-0.24444694736349748
 30
0.0
 10
-2.729481783002452
 20
-0.24978861893497045
 30
0.0
 10
-2.7164095458311617
 20
-0.25604320713881457
 30
0.0
 10
-2.7055481585273498
 20
-0.2630997492845056
 30
0.0
 10
-2.6969293646087875
 20
-0.2708471091895752
 30
0.0
 10
-2.6905803878706154
 20
-0.27917198343940297
 30
0.0
 10
-2.68652416837237
 20
-0.28796072335172934
 30
0.0
 10
-2.684779219545839
 20
-0.29709879375018705
 30
0.0
 10
-2.682633848107394
 20
-0.31751063950381964
 30
0.0
 10
-2.6734031168902965
 20
-0.3876250041085457
 30
0.0
 10
-2.6701924121429355
 20
-0.40789659607153655
 30
0.0
 10
-2.6695127966255474
 20
-0.4171749202606681
 30
0.0
 10
-2.6711561105243122
 20
-0.4267140179796606
 30
0.0
 10
-2.6751341151715136
 20
-0.43639846501431323
 30
0.0
 10
-2.6814541170840887
 20
-0.4461124374905421
 30
0.0
 10
-2.690118956080036
 20
-0.45573986608532147
 30
0.0
 10
-2.701126998417359
 20
-0.46516459056023357
 30
0.0
 10
-2.714472134963531
 20
-0.4742705144602663
 30
0.0
 10
-2.730143784398745
 20
-0.48294175982039456
 30
0.0
 10
-2.748126901451454
 20
-0.4910628217224285
 30
0.0
 10
-2.7684019901598833
 20
-0.49851872254468205
 30
0.0
 10
-2.790945122148403
 20
-0.5051951657473255
 30
0.0
 10
-2.8048765539703675
 20
-0.5086896019500665
 30
0.0
 10
-2.811519253716161
 20
-0.5105419091741291
 30
0.0
 10
-2.819972962856863
 20
-0.5131395496427337
 30
0.0
 10
-2.830201936901056
 20
-0.5165782141567244
 30
0.0
 10
-2.8421666734466666
 20
-0.5209521997010189
 30
0.0
 10
-2.8558239615231735
 20
-0.5263542785768871
 30
0.0
 10
-2.8711269351999706
 20
-0.5328755691840841
 30
0.0
 10
-2.888025131411376
 20
-0.540605408587731
 30
0.0
 10
-2.906464551938457
 20
-0.5496312270009739
 30
0.0
 10
-2.926387729486567
 20
-0.5600384243132708
 30
0.0
 10
-2.947733797795479
 20
-0.5719102487937366
 30
0.0
 10
-2.9704385656856283
 20
-0.5853276781357516
 30
0.0
 10
-2.9944345951361933
 20
-0.6003693026726628
 30
0.0
 10
-3.0196512828403903
 20
-0.617111211787253
 30
0.0
 10
-3.046014945899001
 20
-0.6356268820963045
 30
0.0
 10
-3.07344891090767
 20
-0.6559870691189109
 30
0.0
 10
-3.1018736066656927
 20
-0.6782597015340934
 30
0.0
 10
-3.131206660364353
 20
-0.7025097785116577
 30
0.0
 10
-3.1613629971439723
 20
-0.7287992701561382
 30
0.0
 10
-3.1922549429283165
 20
-0.7571870211741328
 30
0.0
 10
-3.2155820970976965
 20
-0.7797776516626207
 30
0.0
 10
-3.197622894211796
 20
-0.8568004722033209
 30
0.0
 10
-3.1746646098723543
 20
-0.9324837929056474
 30
0.0
 10
-3.1431673865194347
 20
-0.9403842757114943
 30
0.0
 10
-3.1022203011888716
 20
-0.9495228163572113
 30
0.0
 10
-3.062959401630386
 20
-0.9572120155841036
 30
0.0
 10
-3.0254311934702853
 20
-0.9635466714406848
 30
0.0
 10
-2.9896783686397157
 20
-0.9686229890423071
 30
0.0
 10
-2.9557397645043326
 20
-0.972538445725591
 30
0.0
 10
-2.923650327403746
 20
-0.9753916550522157
 30
0.0
 10
-2.893441080702208
 20
-0.9772822298007803
 30
0.0
 10
-2.865139097333588
 20
-0.9783106440874542
 30
0.0
 10
-2.838767476881739
 20
-0.9785780947576721
 30
0.0
 10
-2.8143453272150674
 20
-0.9781863621925708
 30
0.0
 10
-2.791887750678086
 20
-0.9772376706731625
 30
0.0
 10
-2.7714058348657233
 20
-0.9758345484365991
 30
0.0
 10
-2.752906649552707
 20
-0.9740796777741545
 30
0.0
 10
-2.7363936789984202
 20
-0.9720757580360558
 30
0.0
 10
-2.7218608504834405
 20
-0.9699249366336955
 30
0.0
 10
-2.7093193020738626
 20
-0.967731709964407
 30
0.0
 10
-2.698734944775475
 20
-0.9655939789329918
 30
0.0
 10
-2.6901207302028576
 20
-0.9636179782460877
 30
0.0
 10
-2.683436900633693
 20
-0.9618995804166622
 30
0.0
 10
-2.669626959222441
 20
-0.9579607136679279
 30
0.0
 10
-2.646765812638198
 20
-0.9524711170940817
 30
0.0
 10
-2.6254791203415877
 20
-0.9487905722600481
 30
0.0
 10
-2.6058447531836935
 20
-0.9468320596465499
 30
0.0
 10
-2.587937083973637
 20
-0.946505753692677
 30
0.0
 10
-2.571826894757376
 20
-0.9477191468437871
 30
0.0
 10
-2.5575812767198225
 20
-0.950377271180656
 30
0.0
 10
-2.5452636147138685
 20
-0.9543822335930149
 30
0.0
 10
-2.5349333347837715
 20
-0.9596349005989405
 30
0.0
 10
-2.5266460581779233
 20
-0.9660328755407062
 30
0.0
 10
-2.520453357735708
 20
-0.9734723195452977
 30
0.0
 10
-2.5164027599440004
 20
-0.9818473917565801
 30
0.0
 10
-2.509047515837888
 20
-1.0010084577451541
 30
0.0
 10
-2.4819843812647955
 20
-1.0663446442714999
 30
0.0
 10
-2.4736364045541617
 20
-1.0850945069517286
 30
0.0
 10
-2.4705785393671875
 20
-1.0938807824714463
 30
0.0
 10
-2.4696969585399344
 20
-1.1035201642517982
 30
0.0
 10
-2.4710328966319093
 20
-1.1139042051200996
 30
0.0
 10
-2.474623388621012
 20
-1.124922918870809
 30
0.0
 10
-2.480501218512141
 20
-1.1364649261461586
 30
0.0
 10
-2.4886948727136935
 20
-1.148417601928329
 30
0.0
 10
-2.4992284982304125
 20
-1.1606672244932363
 30
0.0
 10
-2.5121218657164763
 20
-1.173099125674677
 30
0.0
 10
-2.527390337428164
 20
-1.185597842286293
 30
0.0
 10
-2.545044840110743
 20
-1.198047268547642
 30
0.0
 10
-2.5650918428495086
 20
-1.2103308093597163
 30
0.0
 10
-2.5776441460023642
 20
-1.217311895417335
 30
0.0
 10
-2.5835810888561417
 20
-1.2208203440083878
 30
0.0
 10
-2.5910744260174776
 20
-1.2255174529517976
 30
0.0
 10
-2.6000648643572646
 20
-1.2314864011083013
 30
0.0
 10
-2.6104898416295486
 20
-1.238808048396989
 30
0.0
 10
-2.622283608003495
 20
-1.2475608221574919
 30
0.0
 10
-2.6353773112891448
 20
-1.2578206062099775
 30
0.0
 10
-2.6496990857741936
 20
-1.2696606327304178
 30
0.0
 10
-2.665174144580122
 20
-1.2831513770522276
 30
0.0
 10
-2.6817248754450214
 20
-1.298360455503871
 30
0.0
 10
-2.6992709398386716
 20
-1.3153525263911299
 30
0.0
 10
-2.7177293752736342
 20
-1.3341891942595938
 30
0.0
 10
-2.7370147009488943
 20
-1.3549289172977868
 30
0.0
 10
-2.7570390259256126
 20
-1.3776269187252028
 30
0.0
 10
-2.777712160840686
 20
-1.4023351009660032
 30
0.0
 10
-2.7989417319967704
 20
-1.429101964066134
 30
0.0
 10
-2.8206332982802365
 20
-1.457972527548823
 30
0.0
 10
-2.842690470644701
 20
-1.4889882561391787
 30
0.0
 10
-2.8650150340427505
 20
-1.522186989367684
 30
0.0
 10
-2.8875070716890856
 20
-1.5576028751354916
 30
0.0
 10
-2.904192486943822
 20
-1.5854612603235536
 30
0.0
 10
-2.8669102561933197
 20
-1.6552114081557117
 30
0.0
 10
-2.825145971628201
 20
-1.7223738410114804
 30
0.0
 10
-2.7926771947195626
 20
-1.7218530401222172
 30
0.0
 10
-2.7507601191239544
 20
-1.7200823070215197
 30
0.0
 10
-2.7108468910755645
 20
-1.7173480346046641
 30
0.0
 10
-2.6729578960195175
 20
-1.7137538272967834
 30
0.0
 10
-2.6371094714785923
 20
-1.7094036615882704
 30
0.0
 10
-2.603313902476117
 20
-1.7044017452059381
 30
0.0
 10
-2.5715794215161876
 20
-1.6988523763140821
 30
0.0
 10
-2.5419102131833156
 20
-1.6928598029056927
 30
0.0
 10
-2.514306423308715
 20
-1.6865280825153417
 30
0.0
 10
-2.488764172706103
 20
-1.6799609424018098
 30
0.0
 10
-2.4652755754580036
 20
-1.6732616403441016
 30
0.0
 10
-2.4438287617182195
 20
-1.6665328261897054
 30
0.0
 10
-2.424407905020609
 20
-1.659876404291542
 30
0.0
 10
-2.406993258110592
 20
-1.6533933879190006
 30
0.0
 10
-2.3915616059765323
 20
-1.647183878819494
 30
0.0
 10
-2.3780806451264285
 20
-1.641344972080333
 30
0.0
 10
-2.366534088448201
 20
-1.6359804862140876
 30
0.0
 10
-2.356863669883254
 20
-1.6311761633521915
 30
0.0
 10
-2.3490544041652734
 20
-1.6270379704659528
 30
0.0
 10
-2.343043074651221
 20
-1.6236482232359524
 30
0.0
 10
-2.3307231493132474
 20
-1.6162692942680565
 30
0.0
 10
-2.3100617895521878
 20
-1.6050498510325883
 30
0.0
 10
-2.290453018806025
 20
-1.5959853163489806
 30
0.0
 10
-2.27199457684982
 20
-1.5890117902754912
 30
0.0
 10
-2.2547815508665776
 20
-1.584061757082415
 30
0.0
 10
-2.2389062537794833
 20
-1.581064181075141
 30
0.0
 10
-2.224458070202928
 20
-1.579944694764235
 30
0.0
 10
-2.21152356180464
 20
-1.580625145873373
 30
0.0
 10
-2.200185787368648
 20
-1.5830251594041436
 30
0.0
 10
-2.1905249751004403
 20
-1.5870602236187192
 30
0.0
 10
-2.1826178160154712
 20
-1.5926433859009252
 30
0.0
 10
-2.1765376108041625
 20
-1.5996847125942948
 30
0.0
 10
-2.164473741761099
 20
-1.6162892038358476
 30
0.0
 10
-2.1214225117292234
 20
-1.672394659145196
 30
0.0
 10
-2.108506163872462
 20
-1.688345020386618
 30
0.0
 10
-2.1032784374750326
 20
-1.6960404770802597
 30
0.0
 10
-2.099932040198258
 20
-1.7051232349834717
 30
0.0
 10
-2.0985348697617807
 20
-1.7154992144606862
 30
0.0
 10
-2.0991511657319224
 20
-1.7270717623530507
 30
0.0
 10
-2.1018414221247257
 20
-1.7397417795872243
 30
0.0
 10
-2.1066623041973256
 20
-1.7534078515748286
 30
0.0
 10
-2.1136665695132666
 20
-1.7679663812702708
 30
0.0
 10
-2.122902993363302
 20
-1.783311724752197
 30
0.0
 10
-2.13441629861916
 20
-1.7993363291914186
 30
0.0
 10
-2.148247090093516
 20
-1.8159308730658024
 30
0.0
 10
-2.164431793475118
 20
-1.8329844084804756
 30
0.0
 10
-2.1747495492426596
 20
-1.8429763949149354
 30
0.0
 10
-2.1795761423601983
 20
-1.847901889899484
 30
0.0
 10
-2.1855984489979483
 20
-1.854378367105545
 30
0.0
 10
-2.1927376681178754
 20
-1.8624708249518491
 30
0.0
 10
-2.2009124411438155
 20
-1.8722411758217996
 30
0.0
 10
-2.2100389601269383
 20
-1.8837481573998018
 30
0.0
 10
-2.220031078780891
 20
-1.8970472475694942
 30
0.0
 10
-2.2308004262762786
 20
-1.912190582965929
 30
0.0
 10
-2.242256523677174
 20
-1.929226881265283
 30
0.0
 10
-2.2543069029017957
 20
-1.9482013672939844
 30
0.0
 10
-2.2668572280879986
 20
-1.969155703037794
 30
0.0
 10
-2.2798114191968897
 20
-1.9921279216465362
 30
0.0
 10
-2.293071778022583
 20
-2.0171523653349706
 30
0.0
 10
-2.3065391156164217
 20
-2.0442596277881546
 30
0.0
 10
-2.3201128824074653
 20
-2.0734765001731956
 30
0.0
 10
-2.3336912995202033
 20
-2.1048259218649097
 30
0.0
 10
-2.3471714919339033
 20
-2.138326935224622
 30
0.0
 10
-2.3604496231187344
 20
-2.173994644780251
 30
0.0
 10
-2.373421031032723
 20
-2.2118401807867594
 30
0.0
 10
-2.3859803653453
 20
-2.2518706672168225
 30
0.0
 10
-2.394886958209735
 20
-2.28309830419205
 30
0.0
 10
-2.3408224220084772
 20
-2.3408224220084755
 30
0.0
 10
-2.283098304192051
 20
-2.394886958209734
 30
0.0
 10
-2.251870667216827
 20
-2.3859803653453
 30
0.0
 10
-2.2118401807867714
 20
-2.3734210310327257
 30
0.0
 10
-2.1739946447802474
 20
-2.3604496231187313
 30
0.0
 10
-2.138326935226799
 20
-2.3471714919347124
 30
0.0
 10
-2.1048259218656598
 20
-2.333691299520111
 30
0.0
 10
-2.0734765001737925
 20
-2.3201128824075603
 30
0.0
 10
-2.0442596277882292
 20
-2.306539115616439
 30
0.0
 10
-2.0171523653412238
 20
-2.29307177802568
 30
0.0
 10
-1.9921279216231769
 20
-2.2798114192392447
 30
0.0
 10
-1.9691557030378053
 20
-2.266857228087988
 30
0.0
 10
-1.948201367293993
 20
-2.254306902901785
 30
0.0
 10
-1.9292268812652378
 20
-2.242256523677132
 30
0.0
 10
-1.9121905829718389
 20
-2.2308004262694716
 30
0.0
 10
-1.8970472538726733
 20
-2.2200310710389304
 30
0.0
 10
-1.8837485617497658
 20
-2.2100391403614488
 30
0.0
 10
-1.8722381737681306
 20
-2.2009100601305116
 30
0.0
 10
-1.8624734875772884
 20
-2.1927398959138613
 30
0.0
 10
-1.854376030789861
 20
-2.185596387885004
 30
0.0
 10
-1.847903902479776
 20
-2.1795780138059406
 30
0.0
 10
-1.8429747351930266
 20
-2.1747479228472675
 30
0.0
 10
-1.832984408480475
 20
-2.164431793475116
 30
0.0
 10
-1.8159308730658037
 20
-2.1482470900935153
 30
0.0
 10
-1.7993363291914133
 20
-2.1344162986191697
 30
0.0
 10
-1.7833117247521952
 20
-2.1229029933633012
 30
0.0
 10
-1.7679663812706543
 20
-2.1136665695128127
 30
0.0
 10
-1.7534078515740432
 20
-2.1066623041983217
 30
0.0
 10
-1.7397417222924774
 20
-2.101841498381691
 30
0.0
 10
-1.7270718328739116
 20
-2.0991510665690187
 30
0.0
 10
-1.7154992145232797
 20
-2.098534869668722
 30
0.0
 10
-1.7051232349835441
 20
-2.099932040198143
 30
0.0
 10
-1.6960404770802628
 20
-2.1032784374750437
 30
0.0
 10
-1.6883450203864898
 20
-2.1085061638726894
 30
0.0
 10
-1.6723946591452739
 20
-2.121422511729328
 30
0.0
 10
-1.616289203835766
 20
-2.1644737417609963
 30
0.0
 10
-1.5996847125940417
 20
-2.176537610804227
 30
0.0
 10
-1.592643385900915
 20
-2.1826178160154646
 30
0.0
 10
-1.5870602236188487
 20
-2.1905249751004
 30
0.0
 10
-1.5830251595102316
 20
-2.200185787332272
 30
0.0
 10
-1.5806252599095243
 20
-2.211523519351967
 30
0.0
 10
-1.5799446062766909
 20
-2.2244581058086488
 30
0.0
 10
-1.5810641810739752
 20
-2.2389062537799838
 30
0.0
 10
-1.5840617570829523
 20
-2.254781550866324
 30
0.0
 10
-1.5890117902754917
 20
-2.2719945768498215
 30
0.0
 10
-1.5959853163489695
 20
-2.2904530188060273
 30
0.0
 10
-1.6050498510325888
 20
-2.310061789552186
 30
0.0
 10
-1.6162692942680588
 20
-2.330723149313248
 30
0.0
 10
-1.6236493646456258
 20
-2.343045098761579
 30
0.0
 10
-1.6270366836822874
 20
-2.349051975796191
 30
0.0
 10
-1.6311775495514211
 20
-2.3568664600461955
 30
0.0
 10
-1.6359790234665827
 20
-2.3665309399534937
 30
0.0
 10
-1.641346494973912
 20
-2.378084161139188
 30
0.0
 10
-1.6471838093797972
 20
-2.391561168756335
 30
0.0
 10
-1.6533933970285426
 20
-2.406993254025955
 30
0.0
 10
-1.6598764042996466
 20
-2.424407905016662
 30
0.0
 10
-1.6665328261897336
 20
-2.443828761718274
 30
0.0
 10
-1.6732616403441138
 20
-2.4652755754579974
 30
0.0
 10
-1.6799609424018231
 20
-2.4887641727060945
 30
0.0
 10
-1.686528082468384
 20
-2.5143064233203156
 30
0.0
 10
-1.692859802904319
 20
-2.5419102131764744
 30
0.0
 10
-1.6988523763140844
 20
-2.5715794215161107
 30
0.0
 10
-1.7044017452060005
 20
-2.603313902475516
 30
0.0
 10
-1.7094036615885535
 20
-2.637109471477892
 30
0.0
 10
-1.713753827296565
 20
-2.672957896017205
 30
0.0
 10
-1.7173480346046652
 20
-2.7108468910755685
 30
0.0
 10
-1.72008230702152
 20
-2.750760119123942
 30
0.0
 10
-1.7218530401222183
 20
-2.792677194719558
 30
0.0
 10
-1.7223738410114815
 20
-2.8251459716282006
 30
0.0
 10
-1.655211408155711
 20
-2.8669102561933193
 30
0.0
 10
-1.5854612603235514
 20
-2.9041924869438223
 30
0.0
 10
-1.557602875135493
 20
-2.887507071689088
 30
0.0
 10
-1.522186989367692
 20
-2.865015034042758
 30
0.0
 10
-1.488988256139173
 20
-2.8426904706446985
 30
0.0
 10
-1.4579725275507136
 20
-2.8206332982815825
 30
0.0
 10
-1.4291019640668796
 20
-2.798941731996876
 30
0.0
 10
-1.4023351009665521
 20
-2.7777121608409328
 30
0.0
 10
-1.3776269187252674
 20
-2.75703902592565
 30
0.0
 10
-1.3549289173030223
 20
-2.7370147009535053
 30
0.0
 10
-1.3341891942260657
 20
-2.7177293753085014
 30
0.0
 10
-1.3153525263911414
 20
-2.699270939838665
 30
0.0
 10
-1.29836045550388
 20
-2.6817248754450143
 30
0.0
 10
-1.283151377052192
 20
-2.665174144580071
 30
0.0
 10
-1.2696606327378859
 20
-2.6496990857691496
 30
0.0
 10
-1.2578206143021455
 20
-2.6353773054423693
 30
0.0
 10
-1.2475611660814387
 20
-2.6222838867501364
 30
0.0
 10
-1.2388057648874058
 20
-2.6104867647586425
 30
0.0
 10
-1.231488396410947
 20
-2.600067705381118
 30
0.0
 10
-1.2255157296994221
 20
-2.59107183045226
 30
0.0
 10
-1.2208218036458676
 20
-2.5835834174280268
 30
0.0
 10
-1.2173107131911791
 20
-2.5776421454574128
 30
0.0
 10
-1.2103308093597143
 20
-2.5650918428495073
 30
0.0
 10
-1.1980472685476413
 20
-2.5450448401107444
 30
0.0
 10
-1.185597842286283
 20
-2.5273903374281734
 30
0.0
 10
-1.1730991256746737
 20
-2.5121218657164763
 30
0.0
 10
-1.160667224493722
 20
-2.499228498230074
 30
0.0
 10
-1.1484176019273105
 20
-2.4886948727144533
 30
0.0
 10
-1.136464851066926
 20
-2.4805012773417423
 30
0.0
 10
-1.1249230126539758
 20
-2.474623311089145
 30
0.0
 10
-1.1139042052046437
 20
-2.4710328965582224
 30
0.0
 10
-1.103520164251896
 20
-2.469696958539843
 30
0.0
 10
-1.0938807824714443
 20
-2.4705785393672
 30
0.0
 10
-1.0850945069515439
 20
-2.473636404554349
 30
0.0
 10
-1.0663446442715458
 20
-2.481984381264918
 30
0.0
 10
-1.0010084577450997
 20
-2.5090475158377687
 30
0.0
 10
-0.981847391756317
 20
-2.516402759943998
 30
0.0
 10
-0.9734723195452875
 20
-2.5204533577357
 30
0.0
 10
-0.9660328755408399
 20
-2.526646058177918
 30
0.0
 10
-0.9596349007108266
 20
-2.5349333347760936
 30
0.0
 10
-0.9543823547310372
 20
-2.5452636032224643
 30
0.0
 10
-0.9503771764928112
 20
-2.5575812882100464
 30
0.0
 10
-0.9477191468425299
 20
-2.5718268947575584
 30
0.0
 10
-0.9465057536932596
 20
-2.5879370839735323
 30
0.0
 10
-0.9468320596465477
 20
-2.605844753183696
 30
0.0
 10
-0.9487905722600347
 20
-2.6254791203415877
 30
0.0
 10
-0.9524711170940806
 20
-2.6467658126381974
 30
0.0
 10
-0.9579607136679275
 20
-2.669626959222443
 30
0.0
 10
-0.9619001590554319
 20
-2.683439151192726
 30
0.0
 10
-0.9636173638166771
 20
-2.6901180515343266
 30
0.0
 10
-0.9655945957513179
 20
-2.698737998640681
 30
0.0
 10
-0.9677311119492061
 20
-2.7093158822745993
 30
0.0
 10
-0.9699254976248666
 20
-2.7218646408448337
 30
0.0
 10
-0.9720758041233708
 20
-2.736393238703825
 30
0.0
 10
-0.9740796876304759
 20
-2.752906647964974
 30
0.0
 10
-0.9758345484454465
 20
-2.7714058348640087
 30
0.0
 10
-0.9772376706731734
 20
-2.7918877506781468
 30
0.0
 10
-0.9781863621925818
 20
-2.8143453272150656
 30
0.0
 10
-0.9785780947576845
 20
-2.838767476881735
 30
0.0
 10
-0.9783106440390915
 20
-2.8651390973326407
 30
0.0
 10
-0.9772822298012217
 20
-2.893441080695245
 30
0.0
 10
-0.9753916550522348
 20
-2.923650327403674
 30
0.0
 10
-0.9725384457258042
 20
-2.9557397645037695
 30
0.0
 10
-0.9686229890427593
 20
-2.9896783686391135
 30
0.0
 10
-0.9635466714410698
 20
-3.025431193467996
 30
0.0
 10
-0.9572120155841011
 20
-3.0629594016303914
 30
0.0
 10
-0.9495228163572119
 20
-3.1022203011888605
 30
0.0
 10
-0.9403842757114933
 20
-3.143167386519432
 30
0.0
 10
-0.9324837929056454
 20
-3.174664609872355
 30
0.0
 10
-0.8568004722033203
 20
-3.197622894211796
 30
0.0
 10
-0.7797776516626199
 20
-3.2155820970976965
 30
0.0
 10
-0.7571870211741346
 20
-3.192254942928319
 30
0.0
 10
-0.7287992701561455
 20
-3.1613629971439807
 30
0.0
 10
-0.7025097785116543
 20
-3.131206660364349
 30
0.0
 10
-0.6782597015355726
 20
-3.101873606667482
 30
0.0
 10
-0.6559870691196049
 20
-3.073448910907965
 30
0.0
 10
-0.635626882096772
 20
-3.0460149458993815
 30
0.0
 10
-0.6171112117873071
 20
-3.019651282840443
 30
0.0
 10
-0.6003693026765277
 20
-2.9944345951420024
 30
0.0
 10
-0.585327678094343
 20
-2.9704385657106296
 30
0.0
 10
-0.5719102487937505
 20
-2.947733797795476
 30
0.0
 10
-0.5600384243132823
 20
-2.9263877294865623
 30
0.0
 10
-0.5496312270009539
 20
-2.9064645519383987
 30
0.0
 10
-0.5406054085962512
 20
-2.8880251314084364
 30
0.0
 10
-0.5328755785137762
 20
-2.871126931646826
 30
0.0
 10
-0.5263545386369713
 20
-2.85582431978582
 30
0.0
 10
-0.5209507903529288
 20
-2.842163110401825
 30
0.0
 10
-0.5165794061600013
 20
-2.830205197541694
 30
0.0
 10
-0.5131385568904713
 20
-2.8199700097228515
 30
0.0
 10
-0.510542716396917
 20
-2.8115218807258624
 30
0.0
 10
-0.5086889777864251
 20
-2.8048743156096876
 30
0.0
 10
-0.5051951657473249
 20
-2.7909451221484014
 30
0.0
 10
-0.4985187225446822
 20
-2.768401990159884
 30
0.0
 10
-0.49106282172241766
 20
-2.74812690145146
 30
0.0
 10
-0.48294175982039245
 20
-2.730143784398744
 30
0.0
 10
-0.4742705144608241
 20
-2.71447213496333
 30
0.0
 10
-0.4651645905590544
 20
-2.701126998417829
 30
0.0
 10
-0.4557397783381314
 20
-2.690118993473132
 30
0.0
 10
-0.44611254814484985
 20
-2.6814540664669253
 30
0.0
 10
-0.4363984651150491
 20
-2.675134115122219
 30
0.0
 10
-0.42671401797977987
 20
-2.671156110524249
 30
0.0
 10
-0.41717492026066416
 20
-2.6695127966255594
 30
0.0
 10
-0.4078965960713107
 20
-2.6701924121430687
 30
0.0
 10
-0.3876250041085595
 20
-2.6734031168904266
 30
0.0
 10
-0.3175106395037992
 20
-2.6826338481072645
 30
0.0
 10
-0.2970987937499344
 20
-2.684779219545769
 30
0.0
 10
-0.2879607233517225
 20
-2.68652416837236
 30
0.0
 10
-0.2791719834395344
 20
-2.6905803878706456
 30
0.0
 10
-0.2708471092996369
 20
-2.69692936463033
 30
0.0
 10
-0.26309986926904505
 20
-2.705548178780332
 30
0.0
 10
-0.256043112703492
 20
-2.716409532422848
 30
0.0
 10
-0.24978861893370977
 20
-2.729481783002303
 30
0.0
 10
-0.24444694736408826
 20
-2.7447289815761873
 30
0.0
 10
-0.24012728886665474
 20
-2.762110915950167
 30
0.0
 10
-0.23693731862213688
 20
-2.781583158635261
 30
0.0
 10
-0.2349830505585569
 20
-2.8030971195802294
 30
0.0
 10
-0.2343686935362603
 20
-2.8266001036277735
 30
0.0
 10
-0.23459904724078504
 20
-2.8409612600629592
 30
0.0
 10
-0.23452911305995028
 20
-2.8478570276906736
 30
0.0
 10
-0.23420796597128227
 20
-2.8566950025032174
 30
0.0
 10
-0.23353392440377135
 20
-2.8674654245748825
 30
0.0
 10
-0.2324056804903604
 20
-2.8801545433708995
 30
0.0
 10
-0.2307224392471603
 20
-2.8947446315372876
 30
0.0
 10
-0.2283840572631901
 20
-2.9112140032385185
 30
0.0
 10
-0.22529118075753163
 20
-2.929537037030063
 30
0.0
 10
-0.22134538286184785
 20
-2.9496842032419597
 30
0.0
 10
-0.21644929998702375
 20
-2.9716220958479833
 30
0.0
 10
-0.21050676713257688
 20
-2.9953134687929515
 30
0.0
 10
-0.20342295195331864
 20
-3.020717276727976
 30
0.0
 10
-0.19510448777242004
 20
-3.047788720202104
 30
0.0
 10
-0.18545960440950168
 20
-3.0764792950392854
 30
0.0
 10
-0.17439825836516945
 20
-3.106736846172002
 30
0.0
 10
-0.16183226051887808
 20
-3.1385056256546857
 30
0.0
 10
-0.14767540226303127
 20
-3.171726354845386
 30
0.0
 10
-0.13184357956913217
 20
-3.206336290743842
 30
0.0
 10
-0.11425491491880892
 20
-3.2422692963892024
 30
0.0
 10
-0.09482987696952706
 20
-3.279455915257708
 30
0.0
 10
-0.07904651531562155
 20
-3.307835101335033
 30
0.0
 10
1.5349725648411953e-15
 20
-3.3104228163114233
 30
0.0
 10
0.07904651531562344
 20
-3.3078351013350327
 30
0.0
 10
0.09482987696952702
 20
-3.279455915257711
 30
0.0
 10
0.1142549149188051
 20
-3.2422692963892126
 30
0.0
 10
0.1318435795691356
 20
-3.2063362907438377
 30
0.0
 10
0.14767540226206663
 20
-3.1717263548474977
 30
0.0
 10
0.16183226051828511
 20
-3.1385056256551507
 30
0.0
 10
0.17439825836481745
 20
-3.1067368461724905
 30
0.0
 10
0.18545960440946416
 20
-3.0764792950393502
 30
0.0
 10
0.19510448777019138
 20
-3.047788720208715
 30
0.0
 10
0.20342295199978808
 20
-3.020717276741408
 30
0.0
 10
0.21050676713256364
 20
-2.995313468792952
 30
0.0
 10
0.21644929998701243
 20
-2.9716220958479824
 30
0.0
 10
0.22134538286185299
 20
-2.949684203241898
 30
0.0
 10
0.22529118074854187
 20
-2.9295370370294287
 30
0.0
 10
0.22838404733177892
 20
-2.9112140022211466
 30
0.0
 10
0.23072228077360563
 20
-2.8947450449009335
 30
0.0
 10
0.2324061196322162
 20
-2.8801507369677397
 30
0.0
 10
0.2335336169329184
 20
-2.867468882625035
 30
0.0
 10
0.23420816056900762
 20
-2.8566918930516145
 30
0.0
 10
0.23452901326275505
 20
-2.847859774111821
 30
0.0
 10
0.2345990708061932
 20
-2.840958936427132
 30
0.0
 10
0.23436869353626133
 20
-2.8266001036277713
 30
0.0
 10
0.2349830505585579
 20
-2.8030971195802303
 30
0.0
 10
0.23693731862214995
 20
-2.781583158635264
 30
0.0
 10
0.2401272888666574
 20
-2.762110915950166
 30
0.0
 10
0.24444694736349853
 20
-2.7447289815761375
 30
0.0
 10
0.24978861893497145
 20
-2.729481783002452
 30
0.0
 10
0.2560432071388155
 20
-2.7164095458311612
 30
0.0
 10
0.2630997492845065
 20
-2.7055481585273493
 30
0.0
 10
0.27084710918957616
 20
-2.696929364608788
 30
0.0
 10
0.2791719834394039
 20
-2.690580387870616
 30
0.0
 10
0.2879607233517303
 20
-2.68652416837237
 30
0.0
 10
0.29709879375018794
 20
-2.684779219545839
 30
0.0
 10
0.3175106395038206
 20
-2.6826338481073937
 30
0.0
 10
0.38762500410854667
 20
-2.673403116890296
 30
0.0
 10
0.4078965960715375
 20
-2.670192412142935
 30
0.0
 10
0.417174920260669
 20
-2.669512796625548
 30
0.0
 10
0.4267140179796615
 20
-2.6711561105243122
 30
0.0
 10
0.4363984650143142
 20
-2.675134115171513
 30
0.0
 10
0.446112437490543
 20
-2.681454117084088
 30
0.0
 10
0.4557398660853224
 20
-2.6901189560800356
 30
0.0
 10
0.4651645905602345
 20
-2.701126998417359
 30
0.0
 10
0.4742705144602672
 20
-2.714472134963531
 30
0.0
 10
0.4829417598203955
 20
-2.730143784398745
 30
0.0
 10
0.4910628217224295
 20
-2.7481269014514536
 30
0.0
 10
0.49851872254468294
 20
-2.768401990159883
 30
0.0
 10
0.5051951657473266
 20
-2.790945122148403
 30
0.0
 10
0.5086896019500674
 20
-2.8048765539703675
 30
0.0
 10
0.51054190917413
 20
-2.811519253716161
 30
0.0
 10
0.5131395496427347
 20
-2.819972962856863
 30
0.0
 10
0.5165782141567253
 20
-2.8302019369010556
 30
0.0
 10
0.52095219970102
 20
-2.8421666734466666
 30
0.0
 10
0.5263542785768881
 20
-2.855823961523173
 30
0.0
 10
0.532875569184085
 20
-2.87112693519997
 30
0.0
 10
0.540605408587732
 20
-2.8880251314113754
 30
0.0
 10
0.5496312270009749
 20
-2.9064645519384573
 30
0.0
 10
0.5600384243132719
 20
-2.9263877294865663
 30
0.0
 10
0.5719102487937378
 20
-2.947733797795479
 30
0.0
 10
0.5853276781357526
 20
-2.9704385656856283
 30
0.0
 10
0.6003693026726638
 20
-2.9944345951361933
 30
0.0
 10
0.6171112117872541
 20
-3.01965128284039
 30
0.0
 10
0.6356268820963056
 20
-3.0460149458990005
 30
0.0
 10
0.6559870691189119
 20
-3.0734489109076697
 30
0.0
 10
0.6782597015340944
 20
-3.1018736066656922
 30
0.0
 10
0.7025097785116589
 20
-3.1312066603643527
 30
0.0
 10
0.7287992701561393
 20
-3.161362997143972
 30
0.0
 10
0.7571870211741338
 20
-3.1922549429283165
 30
0.0
 10
0.7797776516626218
 20
-3.2155820970976965
 30
0.0
 10
0.8568004722033209
 20
-3.197622894211796
 30
0.0
 10
0.9324837929056474
 20
-3.1746646098723543
 30
0.0
 10
0.9403842757114943
 20
-3.1431673865194347
 30
0.0
 10
0.9495228163572113
 20
-3.1022203011888716
 30
0.0
 10
0.9572120155841036
 20
-3.062959401630386
 30
0.0
 10
0.9635466714406848
 20
-3.0254311934702853
 30
0.0
 10
0.9686229890423071
 20
-2.9896783686397157
 30
0.0
 10
0.972538445725591
 20
-2.9557397645043326
 30
0.0
 10
0.9753916550522157
 20
-2.923650327403746
 30
0.0
 10
0.9772822298007803
 20
-2.893441080702208
 30
0.0
 10
0.9783106440874542
 20
-2.865139097333588
 30
0.0
 10
0.9785780947576721
 20
-2.838767476881739
 30
0.0
 10
0.9781863621925708
 20
-2.8143453272150674
 30
0.0
 10
0.9772376706731625
 20
-2.791887750678086
 30
0.0
 10
0.9758345484365991
 20
-2.7714058348657233
 30
0.0
 10
0.9740796777741545
 20
-2.752906649552707
 30
0.0
 10
0.9720757580360558
 20
-2.7363936789984202
 30
0.0
 10
0.9699249366336955
 20
-2.7218608504834405
 30
0.0
 10
0.967731709964407
 20
-2.7093193020738626
 30
0.0
 10
0.9655939789329918
 20
-2.698734944775475
 30
0.0
 10
0.9636179782460877
 20
-2.6901207302028576
 30
0.0
 10
0.9618995804166622
 20
-2.683436900633693
 30
0.0
 10
0.9579607136679279
 20
-2.669626959222441
 30
0.0
 10
0.9524711170940817
 20
-2.646765812638198
 30
0.0
 10
0.9487905722600481
 20
-2.6254791203415877
 30
0.0
 10
0.9468320596465499
 20
-2.6058447531836935
 30
0.0
 10
0.946505753692677
 20
-2.587937083973637
 30
0.0
 10
0.9477191468437871
 20
-2.571826894757376
 30
0.0
 10
0.950377271180656
 20
-2.5575812767198225
 30
0.0
 10
0.9543822335930149
 20
-2.5452636147138685
 30
0.0
 10
0.9596349005989405
 20
-2.5349333347837715
 30
0.0
 10
0.9660328755407062
 20
-2.5266460581779233
 30
0.0
 10
0.9734723195452977
 20
-2.520453357735708
 30
0.0
 10
0.9818473917565801
 20
-2.5164027599440004
 30
0.0
 10
1.0010084577451541
 20
-2.509047515837888
 30
0.0
 10
1.0663446442714999
 20
-2.4819843812647955
 30
0.0
 10
1.0850945069517286
 20
-2.4736364045541617
 30
0.0
 10
1.0938807824714463
 20
-2.4705785393671875
 30
0.0
 10
1.1035201642517982
 20
-2.4696969585399344
 30
0.0
 10
1.1139042051200996
 20
-2.4710328966319093
 30
0.0
 10
1.124922918870809
 20
-2.474623388621012
 30
0.0
 10
1.1364649261461586
 20
-2.480501218512141
 30
0.0
 10
1.148417601928329
 20
-2.4886948727136935
 30
0.0
 10
1.1606672244932363
 20
-2.4992284982304125
 30
0.0
 10
1.173099125674677
 20
-2.5121218657164763
 30
0.0
 10
1.185597842286293
 20
-2.527390337428164
 30
0.0
 10
1.198047268547642
 20
-2.545044840110743
 30
0.0
 10
1.2103308093597163
 20
-2.5650918428495086
 30
0.0
 10
1.217311895417335
 20
-2.5776441460023642
 30
0.0
 10
1.2208203440083878
 20
-2.5835810888561417
 30
0.0
 10
1.2255174529517976
 20
-2.5910744260174776
 30
0.0
 10
1.2314864011083013
 20
-2.6000648643572646
 30
0.0
 10
1.238808048396989
 20
-2.6104898416295486
 30
0.0
 10
1.2475608221574919
 20
-2.622283608003495
 30
0.0
 10
1.2578206062099775
 20
-2.6353773112891448
 30
0.0
 10
1.2696606327304178
 20
-2.6496990857741936
 30
0.0
 10
1.2831513770522276
 20
-2.665174144580122
 30
0.0
 10
1.298360455503871
 20
-2.6817248754450214
 30
0.0
 10
1.3153525263911299
 20
-2.6992709398386716
 30
0.0
 10
1.3341891942595938
 20
-2.7177293752736342
 30
0.0
 10
1.3549289172977868
 20
-2.7370147009488943
 30
0.0
 10
1.3776269187252028
 20
-2.7570390259256126
 30
0.0
 10
1.4023351009660032
 20
-2.777712160840686
 30
0.0
 10
1.429101964066134
 20
-2.7989417319967704
 30
0.0
 10
1.457972527548823
 20
-2.8206332982802365
 30
0.0
 10
1.4889882561391787
 20
-2.842690470644701
 30
0.0
 10
1.522186989367684
 20
-2.8650150340427505
 30
0.0
 10
1.5576028751354916
 20
-2.8875070716890856
 30
0.0
 10
1.5854612603235536
 20
-2.904192486943822
 30
0.0
 10
1.6552114081557139
 20
-2.866910256193318
 30
0.0
 10
1.7223738410114826
 20
-2.8251459716281992
 30
0.0
 10
1.7218530401222194
 20
-2.7926771947195608
 30
0.0
 10
1.7200823070215219
 20
-2.750760119123952
 30
0.0
 10
1.7173480346046663
 20
-2.710846891075563
 30
0.0
 10
1.7137538272967852
 20
-2.6729578960195157
 30
0.0
 10
1.7094036615882726
 20
-2.637109471478591
 30
0.0
 10
1.70440174520594
 20
-2.6033139024761156
 30
0.0
 10
1.6988523763140844
 20
-2.571579421516186
 30
0.0
 10
1.6928598029056947
 20
-2.5419102131833142
 30
0.0
 10
1.686528082515344
 20
-2.5143064233087133
 30
0.0
 10
1.679960942401812
 20
-2.488764172706101
 30
0.0
 10
1.6732616403441034
 20
-2.465275575458002
 30
0.0
 10
1.666532826189707
 20
-2.443828761718218
 30
0.0
 10
1.6598764042915441
 20
-2.4244079050206073
 30
0.0
 10
1.6533933879190024
 20
-2.40699325811059
 30
0.0
 10
1.6471838788194961
 20
-2.3915616059765306
 30
0.0
 10
1.6413449720803353
 20
-2.3780806451264263
 30
0.0
 10
1.6359804862140894
 20
-2.3665340884481996
 30
0.0
 10
1.6311761633521933
 20
-2.3568636698832526
 30
0.0
 10
1.6270379704659548
 20
-2.3490544041652717
 30
0.0
 10
1.6236482232359544
 20
-2.3430430746512196
 30
0.0
 10
1.6162692942680585
 20
-2.3307231493132456
 30
0.0
 10
1.6050498510325901
 20
-2.3100617895521864
 30
0.0
 10
1.5959853163489826
 20
-2.2904530188060233
 30
0.0
 10
1.5890117902754932
 20
-2.271994576849819
 30
0.0
 10
1.5840617570824167
 20
-2.254781550866576
 30
0.0
 10
1.5810641810751425
 20
-2.2389062537794815
 30
0.0
 10
1.5799446947642368
 20
-2.224458070202927
 30
0.0
 10
1.5806251458733747
 20
-2.211523561804638
 30
0.0
 10
1.5830251594041451
 20
-2.200185787368646
 30
0.0
 10
1.5870602236187208
 20
-2.190524975100439
 30
0.0
 10
1.5926433859009272
 20
-2.1826178160154694
 30
0.0
 10
1.5996847125942966
 20
-2.1765376108041607
 30
0.0
 10
1.6162892038358494
 20
-2.1644737417610975
 30
0.0
 10
1.6723946591451977
 20
-2.1214225117292216
 30
0.0
 10
1.6883450203866197
 20
-2.1085061638724607
 30
0.0
 10
1.6960404770802615
 20
-2.103278437475031
 30
0.0
 10
1.7051232349834733
 20
-2.0999320401982566
 30
0.0
 10
1.715499214460688
 20
-2.0985348697617794
 30
0.0
 10
1.7270717623530525
 20
-2.099151165731921
 30
0.0
 10
1.7397417795872259
 20
-2.101841422124724
 30
0.0
 10
1.7534078515748301
 20
-2.1066623041973243
 30
0.0
 10
1.7679663812702726
 20
-2.113666569513265
 30
0.0
 10
1.7833117247521986
 20
-2.1229029933633
 30
0.0
 10
1.7993363291914204
 20
-2.134416298619158
 30
0.0
 10
1.815930873065804
 20
-2.1482470900935144
 30
0.0
 10
1.8329844084804772
 20
-2.1644317934751163
 30
0.0
 10
1.8429763949149367
 20
-2.174749549242658
 30
0.0
 10
1.8479018898994852
 20
-2.1795761423601965
 30
0.0
 10
1.8543783671055463
 20
-2.1855984489979465
 30
0.0
 10
1.8624708249518507
 20
-2.192737668117874
 30
0.0
 10
1.8722411758218016
 20
-2.2009124411438137
 30
0.0
 10
1.8837481573998038
 20
-2.2100389601269366
 30
0.0
 10
1.8970472475694955
 20
-2.220031078780889
 30
0.0
 10
1.9121905829659307
 20
-2.2308004262762764
 30
0.0
 10
1.929226881265285
 20
-2.2422565236771717
 30
0.0
 10
1.9482013672939857
 20
-2.254306902901794
 30
0.0
 10
1.969155703037796
 20
-2.2668572280879973
 30
0.0
 10
1.9921279216465377
 20
-2.279811419196888
 30
0.0
 10
2.0171523653349728
 20
-2.2930717780225813
 30
0.0
 10
2.044259627788157
 20
-2.3065391156164194
 30
0.0
 10
2.073476500173198
 20
-2.320112882407464
 30
0.0
 10
2.1048259218649115
 20
-2.333691299520201
 30
0.0
 10
2.1383269352246237
 20
-2.347171491933901
 30
0.0
 10
2.1739946447802527
 20
-2.360449623118732
 30
0.0
 10
2.211840180786761
 20
-2.3734210310327213
 30
0.0
 10
2.2518706672168243
 20
-2.3859803653452976
 30
0.0
 10
2.283098304192052
 20
-2.394886958209733
 30
0.0
 10
2.340822422008475
 20
-2.3408224220084772
 30
0.0
 10
2.394886958209734
 20
-2.283098304192051
 30
0.0
 10
2.3859803653453
 20
-2.2518706672168265
 30
0.0
 10
2.3734210310327253
 20
-2.2118401807867714
 30
0.0
 10
2.3604496231187313
 20
-2.1739946447802474
 30
0.0
 10
2.347171491934712
 20
-2.138326935226799
 30
0.0
 10
2.3336912995201105
 20
-2.1048259218656598
 30
0.0
 10
2.3201128824075603
 20
-2.0734765001737925
 30
0.0
 10
2.3065391156164385
 20
-2.0442596277882292
 30
0.0
 10
2.2930717780256797
 20
-2.0171523653412238
 30
0.0
 10
2.2798114192392447
 20
-1.9921279216231769
 30
0.0
 10
2.2668572280879875
 20
-1.969155703037805
 30
0.0
 10
2.2543069029017846
 20
-1.9482013672939928
 30
0.0
 10
2.2422565236771317
 20
-1.9292268812652376
 30
0.0
 10
2.230800426269471
 20
-1.9121905829718389
 30
0.0
 10
2.22003107103893
 20
-1.897047253872673
 30
0.0
 10
2.210039140361448
 20
-1.8837485617497658
 30
0.0
 10
2.200910060130511
 20
-1.8722381737681306
 30
0.0
 10
2.192739895913861
 20
-1.8624734875772884
 30
0.0
 10
2.1855963878850035
 20
-1.854376030789861
 30
0.0
 10
2.17957801380594
 20
-1.847903902479776
 30
0.0
 10
2.174747922847267
 20
-1.8429747351930266
 30
0.0
 10
2.1644317934751154
 20
-1.8329844084804747
 30
0.0
 10
2.1482470900935153
 20
-1.8159308730658037
 30
0.0
 10
2.1344162986191697
 20
-1.799336329191413
 30
0.0
 10
2.122902993363301
 20
-1.7833117247521952
 30
0.0
 10
2.1136665695128123
 20
-1.767966381270654
 30
0.0
 10
2.1066623041983212
 20
-1.7534078515740432
 30
0.0
 10
2.101841498381691
 20
-1.7397417222924774
 30
0.0
 10
2.0991510665690183
 20
-1.7270718328739114
 30
0.0
 10
2.0985348696687214
 20
-1.7154992145232797
 30
0.0
 10
2.099932040198143
 20
-1.7051232349835441
 30
0.0
 10
2.1032784374750433
 20
-1.6960404770802628
 30
0.0
 10
2.1085061638726894
 20
-1.6883450203864898
 30
0.0
 10
2.121422511729328
 20
-1.6723946591452739
 30
0.0
 10
2.164473741760996
 20
-1.616289203835766
 30
0.0
 10
2.176537610804227
 20
-1.5996847125940417
 30
0.0
 10
2.182617816015464
 20
-1.592643385900915
 30
0.0
 10
2.1905249751003995
 20
-1.5870602236188487
 30
0.0
 10
2.2001857873322717
 20
-1.5830251595102316
 30
0.0
 10
2.2115235193519664
 20
-1.5806252599095243
 30
0.0
 10
2.2244581058086483
 20
-1.5799446062766909
 30
0.0
 10
2.2389062537799833
 20
-1.5810641810739752
 30
0.0
 10
2.2547815508663236
 20
-1.584061757082952
 30
0.0
 10
2.271994576849821
 20
-1.5890117902754914
 30
0.0
 10
2.290453018806027
 20
-1.5959853163489695
 30
0.0
 10
2.310061789552186
 20
-1.6050498510325888
 30
0.0
 10
2.330723149313248
 20
-1.6162692942680585
 30
0.0
 10
2.3430450987615785
 20
-1.6236493646456258
 30
0.0
 10
2.349051975796191
 20
-1.6270366836822872
 30
0.0
 10
2.356866460046195
 20
-1.6311775495514211
 30
0.0
 10
2.3665309399534933
 20
-1.6359790234665825
 30
0.0
 10
2.378084161139188
 20
-1.641346494973912
 30
0.0
 10
2.3915611687563345
 20
-1.647183809379797
 30
0.0
 10
2.4069932540259544
 20
-1.6533933970285426
 30
0.0
 10
2.424407905016662
 20
-1.6598764042996466
 30
0.0
 10
2.4438287617182737
 20
-1.6665328261897334
 30
0.0
 10
2.465275575457997
 20
-1.6732616403441136
 30
0.0
 10
2.488764172706094
 20
-1.6799609424018231
 30
0.0
 10
2.514306423320315
 20
-1.686528082468384
 30
0.0
 10
2.541910213176474
 20
-1.692859802904319
 30
0.0
 10
2.5715794215161107
 20
-1.6988523763140844
 30
0.0
 10
2.603313902475516
 20
-1.7044017452060005
 30
0.0
 10
2.6371094714778915
 20
-1.7094036615885535
 30
0.0
 10
2.6729578960172047
 20
-1.713753827296565
 30
0.0
 10
2.710846891075568
 20
-1.7173480346046652
 30
0.0
 10
2.7507601191239415
 20
-1.72008230702152
 30
0.0
 10
2.7926771947195577
 20
-1.7218530401222183
 30
0.0
 10
2.8251459716282
 20
-1.7223738410114815
 30
0.0
 10
2.8669102561933193
 20
-1.6552114081557112
 30
0.0
 10
2.9041924869438223
 20
-1.5854612603235516
 30
0.0
 10
2.887507071689088
 20
-1.557602875135493
 30
0.0
 10
2.8650150340427576
 20
-1.5221869893676923
 30
0.0
 10
2.8426904706446985
 20
-1.4889882561391732
 30
0.0
 10
2.8206332982815825
 20
-1.4579725275507138
 30
0.0
 10
2.798941731996876
 20
-1.4291019640668796
 30
0.0
 10
2.7777121608409328
 20
-1.4023351009665521
 30
0.0
 10
2.75703902592565
 20
-1.3776269187252674
 30
0.0
 10
2.7370147009535053
 20
-1.3549289173030223
 30
0.0
 10
2.7177293753085014
 20
-1.334189194226066
 30
0.0
 10
2.699270939838665
 20
-1.3153525263911414
 30
0.0
 10
2.6817248754450143
 20
-1.2983604555038801
 30
0.0
 10
2.665174144580071
 20
-1.2831513770521923
 30
0.0
 10
2.6496990857691496
 20
-1.269660632737886
 30
0.0
 10
2.6353773054423693
 20
-1.2578206143021458
 30
0.0
 10
2.6222838867501364
 20
-1.247561166081439
 30
0.0
 10
2.6104867647586425
 20
-1.2388057648874058
 30
0.0
 10
2.600067705381118
 20
-1.231488396410947
 30
0.0
 10
2.59107183045226
 20
-1.2255157296994226
 30
0.0
 10
2.5835834174280268
 20
-1.2208218036458678
 30
0.0
 10
2.5776421454574128
 20
-1.2173107131911791
 30
0.0
 10
2.565091842849507
 20
-1.2103308093597143
 30
0.0
 10
2.5450448401107444
 20
-1.1980472685476415
 30
0.0
 10
2.5273903374281734
 20
-1.1855978422862832
 30
0.0
 10
2.5121218657164763
 20
-1.173099125674674
 30
0.0
 10
2.499228498230074
 20
-1.1606672244937222
 30
0.0
 10
2.4886948727144533
 20
-1.1484176019273107
 30
0.0
 10
2.4805012773417423
 20
-1.136464851066926
 30
0.0
 10
2.474623311089145
 20
-1.124923012653976
 30
0.0
 10
2.4710328965582224
 20
-1.1139042052046437
 30
0.0
 10
2.469696958539843
 20
-1.1035201642518961
 30
0.0
 10
2.4705785393672
 20
-1.0938807824714445
 30
0.0
 10
2.473636404554349
 20
-1.0850945069515439
 30
0.0
 10
2.481984381264918
 20
-1.066344644271546
 30
0.0
 10
2.5090475158377683
 20
-1.0010084577451
 30
0.0
 10
2.516402759943998
 20
-0.9818473917563171
 30
0.0
 10
2.5204533577357
 20
-0.9734723195452877
 30
0.0
 10
2.526646058177918
 20
-0.9660328755408402
 30
0.0
 10
2.534933334776093
 20
-0.9596349007108268
 30
0.0
 10
2.5452636032224643
 20
-0.9543823547310372
 30
0.0
 10
2.5575812882100464
 20
-0.9503771764928114
 30
0.0
 10
2.5718268947575584
 20
-0.94771914684253
 30
0.0
 10
2.5879370839735323
 20
-0.9465057536932597
 30
0.0
 10
2.605844753183696
 20
-0.9468320596465479
 30
0.0
 10
2.6254791203415877
 20
-0.9487905722600349
 30
0.0
 10
2.6467658126381974
 20
-0.9524711170940807
 30
0.0
 10
2.669626959222443
 20
-0.9579607136679275
 30
0.0
 10
2.683439151192726
 20
-0.961900159055432
 30
0.0
 10
2.6901180515343266
 20
-0.9636173638166773
 30
0.0
 10
2.698737998640681
 20
-0.965594595751318
 30
0.0
 10
2.7093158822745993
 20
-0.9677311119492064
 30
0.0
 10
2.7218646408448337
 20
-0.9699254976248668
 30
0.0
 10
2.736393238703825
 20
-0.9720758041233709
 30
0.0
 10
2.752906647964974
 20
-0.9740796876304761
 30
0.0
 10
2.7714058348640087
 20
-0.9758345484454467
 30
0.0
 10
2.7918877506781468
 20
-0.9772376706731736
 30
0.0
 10
2.8143453272150656
 20
-0.978186362192582
 30
0.0
 10
2.838767476881735
 20
-0.9785780947576848
 30
0.0
 10
2.8651390973326403
 20
-0.9783106440390916
 30
0.0
 10
2.893441080695245
 20
-0.9772822298012218
 30
0.0
 10
2.923650327403674
 20
-0.9753916550522349
 30
0.0
 10
2.9557397645037695
 20
-0.9725384457258044
 30
0.0
 10
2.9896783686391135
 20
-0.9686229890427596
 30
0.0
 10
3.025431193467996
 20
-0.96354667144107
 30
0.0
 10
3.0629594016303914
 20
-0.9572120155841013
 30
0.0
 10
3.1022203011888605
 20
-0.949522816357212
 30
0.0
 10
3.143167386519432
 20
-0.9403842757114934
 30
0.0
 10
3.174664609872355
 20
-0.9324837929056456
 30
0.0
  0
LWPOLYLINE
  8
OpenJsCad
  90
91
  70
1
 10
0.03487823687206268
 20
-0.4987820251299121
 30
0.0
 10
3.061616997868383e-17
 20
-0.5
 30
0.0
 10
-0.03487823687206235
 20
-0.49878202512991215
 30
0.0
 10
-0.06958655048003291
 20
-0.4951340343707851
 30
0.0
 10
-0.10395584540887991
 20
-0.4890738003669028
 30
0.0
 10
-0.13781867790849986
 20
-0.48063084796915934
 30
0.0
 10
-0.17101007166283427
 20
-0.4698463103929542
 30
0.0
 10
-0.20336832153790005
 20
-0.4567727288213005
 30
0.0
 10
-0.23473578139294538
 20
-0.4414737964294635
 30
0.0
 10
-0.2649596321166029
 20
-0.4240240480782127
 30
0.0
 10
-0.2938926261462367
 20
-0.40450849718747367
 30
0.0
 10
-0.3213938048432698
 20
-0.3830222215594889
 30
0.0
 10
-0.3473291852294988
 20
-0.35966990016932543
 30
0.0
 10
-0.3715724127386973
 20
-0.3345653031794289
 30
0.0
 10
-0.3940053768033609
 20
-0.30783073766282926
 30
0.0
 10
-0.41451878627752103
 20
-0.2795964517353731
 30
0.0
 10
-0.4330127018922193
 20
-0.25000000000000006
 30
0.0
 10
-0.4493970231495835
 20
-0.21918557339453873
 30
0.0
 10
-0.4635919272833937
 20
-0.187303296707956
 30
0.0
 10
-0.4755282581475768
 20
-0.15450849718747364
 30
0.0
 10
-0.4851478631379983
 20
-0.12096094779983375
 30
0.0
 10
-0.49240387650610407
 20
-0.08682408883346501
 30
0.0
 10
-0.4972609476841367
 20
-0.05226423163382652
 30
0.0
 10
-0.4996954135095479
 20
-0.017449748351250672
 30
0.0
 10
-0.4996954135095478
 20
0.017449748351250793
 30
0.0
 10
-0.4972609476841367
 20
0.05226423163382665
 30
0.0
 10
-0.492403876506104
 20
0.08682408883346514
 30
0.0
 10
-0.48514786313799824
 20
0.12096094779983387
 30
0.0
 10
-0.47552825814757677
 20
0.15450849718747375
 30
0.0
 10
-0.46359192728339366
 20
0.18730329670795612
 30
0.0
 10
-0.4493970231495834
 20
0.21918557339453884
 30
0.0
 10
-0.43301270189221924
 20
0.2500000000000002
 30
0.0
 10
-0.4145187862775207
 20
0.2795964517353736
 30
0.0
 10
-0.39400537680336106
 20
0.30783073766282903
 30
0.0
 10
-0.371572412738697
 20
0.33456530317942923
 30
0.0
 10
-0.3473291852294987
 20
0.35966990016932554
 30
0.0
 10
-0.3213938048432696
 20
0.38302222155948906
 30
0.0
 10
-0.2938926261462365
 20
0.4045084971874737
 30
0.0
 10
-0.2649596321166024
 20
0.42402404807821303
 30
0.0
 10
-0.23473578139294546
 20
0.44147379642946344
 30
0.0
 10
-0.20336832153789994
 20
0.45677272882130054
 30
0.0
 10
-0.17101007166283436
 20
0.4698463103929542
 30
0.0
 10
-0.13781867790849953
 20
0.48063084796915945
 30
0.0
 10
-0.10395584540887956
 20
0.48907380036690284
 30
0.0
 10
-0.06958655048003279
 20
0.4951340343707851
 30
0.0
 10
-0.03487823687206244
 20
0.49878202512991215
 30
0.0
 10
3.061616997868383e-17
 20
0.5
 30
0.0
 10
0.034878236872062734
 20
0.4987820251299121
 30
0.0
 10
0.06958655048003284
 20
0.4951340343707851
 30
0.0
 10
0.10395584540887963
 20
0.48907380036690284
 30
0.0
 10
0.1378186779084998
 20
0.48063084796915934
 30
0.0
 10
0.1710100716628344
 20
0.46984631039295416
 30
0.0
 10
0.2033683215379002
 20
0.4567727288213004
 30
0.0
 10
0.23473578139294551
 20
0.4414737964294634
 30
0.0
 10
0.26495963211660245
 20
0.424024048078213
 30
0.0
 10
0.2938926261462366
 20
0.40450849718747367
 30
0.0
 10
0.32139380484326974
 20
0.38302222155948895
 30
0.0
 10
0.34732918522949857
 20
0.35966990016932565
 30
0.0
 10
0.3715724127386971
 20
0.3345653031794291
 30
0.0
 10
0.394005376803361
 20
0.30783073766282915
 30
0.0
 10
0.41451878627752087
 20
0.27959645173537334
 30
0.0
 10
0.43301270189221935
 20
0.24999999999999992
 30
0.0
 10
0.44939702314958346
 20
0.21918557339453879
 30
0.0
 10
0.4635919272833937
 20
0.18730329670795606
 30
0.0
 10
0.4755282581475768
 20
0.1545084971874737
 30
0.0
 10
0.48514786313799824
 20
0.12096094779983392
 30
0.0
 10
0.492403876506104
 20
0.08682408883346518
 30
0.0
 10
0.4972609476841367
 20
0.052264231633826694
 30
0.0
 10
0.4996954135095479
 20
0.017449748351250398
 30
0.0
 10
0.4996954135095479
 20
-0.01744974835125051
 30
0.0
 10
0.49726094768413664
 20
-0.0522642316338267
 30
0.0
 10
0.492403876506104
 20
-0.08682408883346518
 30
0.0
 10
0.48514786313799824
 20
-0.12096094779983392
 30
0.0
 10
0.47552825814757677
 20
-0.1545084971874737
 30
0.0
 10
0.4635919272833937
 20
-0.18730329670795595
 30
0.0
 10
0.4493970231495835
 20
-0.2191855733945387
 30
0.0
 10
0.4330127018922193
 20
-0.25000000000000006
 30
0.0
 10
0.41451878627752087
 20
-0.2795964517353734
 30
0.0
 10
0.394005376803361
 20
-0.30783073766282915
 30
0.0
 10
0.3715724127386971
 20
-0.3345653031794291
 30
0.0
 10
0.3473291852294986
 20
-0.3596699001693256
 30
0.0
 10
0.3213938048432696
 20
-0.383022221559489
 30
0.0
 10
0.29389262614623657
 20
-0.4045084971874737
 30
0.0
 10
0.26495963211660245
 20
-0.424024048078213
 30
0.0
 10
0.23473578139294543
 20
-0.4414737964294635
 30
0.0
 10
0.2033683215379001
 20
-0.45677272882130043
 30
0.0
 10
0.17101007166283438
 20
-0.4698463103929542
 30
0.0
 10
0.1378186779084996
 20
-0.48063084796915945
 30
0.0
 10
0.10395584540887969
 20
-0.48907380036690284
 30
0.0
 10
0.06958655048003275
 20
-0.4951340343707852
 30
0.0
 10
0.03487823687206268
 20
-0.4987820251299121
 30
0.0
  0
LWPOLYLINE
  8
OpenJsCad
  90
1006
  70
1
 10
2.865312408155683
 20
0.5192194390935014
 30
0.0
 10
2.84842667453556
 20
0.45002635715526695
 30
0.0
 10
2.8357091979115596
 20
0.3799472848417795
 30
0.0
 10
2.8440446237854298
 20
0.37144105750170725
 30
0.0
 10
2.880121777415671
 20
0.3375848008633719
 30
0.0
 10
2.9152251333619965
 20
0.3073046499013813
 30
0.0
 10
2.9491226197595184
 20
0.28045608118005944
 30
0.0
 10
2.9815927063147636
 20
0.25688158514646875
 30
0.0
 10
3.0124250772569416
 20
0.23641130141386085
 30
0.0
 10
3.0414212693344975
 20
0.21886368730308775
 30
0.0
 10
3.068395273267989
 20
0.20404621781812343
 30
0.0
 10
3.0931740971532657
 20
0.19175611516214747
 30
0.0
 10
3.1155982904181263
 20
0.18178110582260182
 30
0.0
 10
3.1355224270202084
 20
0.17390020319719884
 30
0.0
 10
3.152815546685729
 20
0.16788451366484458
 30
0.0
 10
3.1673615530826345
 20
0.16349806394475608
 30
0.0
 10
3.1790595670681485
 20
0.16049864450454926
 30
0.0
 10
3.18782423689526
 20
0.15863871730537815
 30
0.0
 10
3.1928040111851637
 20
0.15779812089835576
 30
0.0
 10
3.192983765600011
 20
0.1578057143930761
 30
0.0
 10
3.1930020285434684
 20
0.15776469515047453
 30
0.0
 10
3.1935863079917
 20
0.15766606754683465
 30
0.0
 10
3.194870656442566
 20
0.1575042608819201
 30
0.0
 10
3.230596862894963
 20
0.1575160698975493
 30
0.0
 10
3.2650242055847922
 20
0.15448361568351165
 30
0.0
 10
3.296107575659689
 20
0.1489767037821762
 30
0.0
 10
3.323705722019541
 20
0.14127189284748948
 30
0.0
 10
3.347694635821029
 20
0.13165225665419333
 30
0.0
 10
3.367968660535413
 20
0.12041074980443833
 30
0.0
 10
3.3844388430047854
 20
0.10783854394194364
 30
0.0
 10
3.3970358742292373
 20
0.09423816990817951
 30
0.0
 10
3.405708138820289
 20
0.07991176214638435
 30
0.0
 10
3.4104228163114287
 20
0.0651645905602577
 30
0.0
 10
3.411165758480019
 20
0.05030309813867556
 30
0.0
 10
3.4104228163114128
 20
0.03257703499908965
 30
0.0
 10
3.410422816319225
 20
-0.03257703499909281
 30
0.0
 10
3.4111657584799366
 20
-0.05030309813849637
 30
0.0
 10
3.410422816311422
 20
-0.06516459056023416
 30
0.0
 10
3.405708138820526
 20
-0.07991176214705484
 30
0.0
 10
3.3970358742837163
 20
-0.0942381700888279
 30
0.0
 10
3.384438857879621
 20
-0.10783860195517095
 30
0.0
 10
3.3679685231716077
 20
-0.12041010249556211
 30
0.0
 10
3.3476947604138525
 20
-0.13165299475409328
 30
0.0
 10
3.323705722019667
 20
-0.14127189284848826
 30
0.0
 10
3.29610757565969
 20
-0.1489767037821762
 30
0.0
 10
3.2650242055847913
 20
-0.15448361568351385
 30
0.0
 10
3.2305968628949633
 20
-0.15751606989755235
 30
0.0
 10
3.1948707050451706
 20
-0.1575042547592183
 30
0.0
 10
3.1935860097937336
 20
-0.15766611788273893
 30
0.0
 10
3.193002029928579
 20
-0.15776469203946786
 30
0.0
 10
3.192983765600012
 20
-0.15780571439307955
 30
0.0
 10
3.192803992929803
 20
-0.15779812012718164
 30
0.0
 10
3.1878242402961576
 20
-0.15863868834857064
 30
0.0
 10
3.179059567960896
 20
-0.16049864761840726
 30
0.0
 10
3.167361553086421
 20
-0.1634980639553862
 30
0.0
 10
3.152815546685623
 20
-0.16788451366491014
 30
0.0
 10
3.1355224270202
 20
-0.17390020319716173
 30
0.0
 10
3.1155982904181134
 20
-0.1817811058225655
 30
0.0
 10
3.0931740971496895
 20
-0.19175611515405133
 30
0.0
 10
3.0683952732698536
 20
-0.20404621781714485
 30
0.0
 10
3.0414212693346996
 20
-0.21886368730297617
 30
0.0
 10
3.012425077257138
 20
-0.23641130141369215
 30
0.0
 10
2.9815927063152046
 20
-0.25688158514612947
 30
0.0
 10
2.9491226197598093
 20
-0.28045608117983034
 30
0.0
 10
2.915225133362
 20
-0.30730464990137935
 30
0.0
 10
2.880121777415674
 20
-0.3375848008633707
 30
0.0
 10
2.844044623785418
 20
-0.3714410575017204
 30
0.0
 10
2.8357091979115596
 20
-0.37994728484177986
 30
0.0
 10
2.84842667453556
 20
-0.45002635715526723
 30
0.0
 10
2.8653124081556824
 20
-0.519219439093502
 30
0.0
 10
2.876386992953814
 20
-0.5235999413031551
 30
0.0
 10
2.923115692949584
 20
-0.5398552704085947
 30
0.0
 10
2.96750025127647
 20
-0.5532397436183498
 30
0.0
 10
3.0093874427135288
 20
-0.5639797817918828
 30
0.0
 10
3.048638954174241
 20
-0.572309381553722
 30
0.0
 10
3.0851317410850294
 20
-0.5784692612192119
 30
0.0
 10
3.1187583383038184
 20
-0.5827059905549675
 30
0.0
 10
3.149427124868886
 20
-0.5852711066864931
 30
0.0
 10
3.1770625419723553
 20
-0.5864202184953571
 30
0.0
 10
3.201605263684185
 20
-0.5864121018752092
 30
0.0
 10
3.2230123200527308
 20
-0.5855077882330553
 30
0.0
 10
3.2412571723378134
 20
-0.5839696486388638
 30
0.0
 10
3.256329740242716
 20
-0.5820604760437919
 30
0.0
 10
3.2682363815769087
 20
-0.5800425711098356
 30
0.0
 10
3.2769998064305597
 20
-0.5781767867710373
 30
0.0
 10
3.2818909579739604
 20
-0.5769192531224328
 30
0.0
 10
3.282052083250583
 20
-0.5768392034125505
 30
0.0
 10
3.282085451308659
 20
-0.5768692481469904
 30
0.0
 10
3.2826593326050033
 20
-0.576721701084902
 30
0.0
 10
3.283898455998038
 20
-0.576347127251206
 30
0.0
 10
3.3165311664620516
 20
-0.5618051818963379
 30
0.0
 10
3.3492155192423496
 20
-0.5505726048733994
 30
0.0
 10
3.3798514536429587
 20
-0.5429606736267565
 30
0.0
 10
3.4081974438244655
 20
-0.5387741912526136
 30
0.0
 10
3.434025065594466
 20
-0.5378049959305218
 30
0.0
 10
3.4571186415396085
 20
-0.5398284346962093
 30
0.0
 10
3.477278478729618
 20
-0.5446146895260003
 30
0.0
 10
3.4943182098635663
 20
-0.5519155752538314
 30
0.0
 10
3.508067792788564
 20
-0.5614760722013257
 30
0.0
 10
3.5183730800606483
 20
-0.5730306517209767
 30
0.0
 10
3.5250965050427054
 20
-0.5863051188128512
 30
0.0
 10
3.5316276330365275
 20
-0.6028008650702599
 30
0.0
 10
3.558128180751556
 20
-0.6623220697634744
 30
0.0
 10
3.5660167315890323
 20
-0.6782134524325949
 30
0.0
 10
3.571382733684409
 20
-0.6920922831318844
 30
0.0
 10
3.5730738765444374
 20
-0.7074821268439326
 30
0.0
 10
3.5709784437429315
 20
-0.7240972795090415
 30
0.0
 10
3.5650022906288177
 20
-0.7416455604274896
 30
0.0
 10
3.555069181098683
 20
-0.7598292862913876
 30
0.0
 10
3.54112107347771
 20
-0.7783462616515383
 30
0.0
 10
3.523118354740491
 20
-0.7968907832602672
 30
0.0
 10
3.50104002242868
 20
-0.8151546556963047
 30
0.0
 10
3.4748838137489964
 20
-0.8328282156491568
 30
0.0
 10
3.444666281463298
 20
-0.8496013622175815
 30
0.0
 10
3.4120240065908938
 20
-0.8641217060654458
 30
0.0
 10
3.4109162147429872
 20
-0.8647921080206429
 30
0.0
 10
3.4104228163109913
 20
-0.8651196860037401
 30
0.0
 10
3.410422816310991
 20
-0.8651645905602339
 30
0.0
 10
3.4102554969389267
 20
-0.8652307729855162
 30
0.0
 10
3.406048156436921
 20
-0.8680241181355617
 30
0.0
 10
3.3987977434269867
 20
-0.8732881888812246
 30
0.0
 10
3.389331047607065
 20
-0.8807863033521453
 30
0.0
 10
3.3778267393626473
 20
-0.8907099183730784
 30
0.0
 10
3.3644754898099647
 20
-0.9032392696608773
 30
0.0
 10
3.349479337197942
 20
-0.9185427088941549
 30
0.0
 10
3.3330510191064118
 20
-0.936776074452558
 30
0.0
 10
3.3154132722055056
 20
-0.9580820975586393
 30
0.0
 10
3.296798101233657
 20
-0.9825898453120765
 30
0.0
 10
3.27744601932965
 20
-1.0104142023029947
 30
0.0
 10
3.257605261395436
 20
-1.041655392078408
 30
0.0
 10
3.2375309726924435
 20
-1.076398539852131
 30
0.0
 10
3.2174843746814163
 20
-1.1147132776780597
 30
0.0
 10
3.197731910262747
 20
-1.1566533932044227
 30
0.0
 10
3.1785443706113474
 20
-1.2022565230284696
 30
0.0
 10
3.1743893745203033
 20
-1.2134176715151963
 30
0.0
 10
3.214511094145489
 20
-1.2722654259525492
 30
0.0
 10
3.2580803412647414
 20
-1.3286084050489952
 30
0.0
 10
3.2699791886660927
 20
-1.3281057535005667
 30
0.0
 10
3.3192796182812105
 20
-1.323949460995751
 30
0.0
 10
3.365270885632884
 20
-1.3181239594411824
 30
0.0
 10
3.407905106176824
 20
-1.3108984168965392
 30
0.0
 10
3.4471510996226598
 20
-1.3025428569157667
 30
0.0
 10
3.4829943681186224
 20
-1.2933272333592254
 30
0.0
 10
3.5154370263314707
 20
-1.2835205089283337
 30
0.0
 10
3.5444976837138342
 20
-1.2733897398239307
 30
0.0
 10
3.5702112793584235
 20
-1.2631991689145774
 30
0.0
 10
3.5926288699696194
 20
-1.2532093297720968
 30
0.0
 10
3.611817371581507
 20
-1.243676163906546
 30
0.0
 10
3.627859255776781
 20
-1.2348501534952039
 30
0.0
 10
3.6408522012689426
 20
-1.226975471870948
 30
0.0
 10
3.65090870349669
 20
-1.220289156658001
 30
0.0
 10
3.658155607606469
 20
-1.21502027184353
 30
0.0
 10
3.6621124118667954
 20
-1.2118820471314764
 30
0.0
 10
3.66222704798109
 20
-1.2117433825284996
 30
0.0
 10
3.662269751513403
 20
-1.2117572577472453
 30
0.0
 10
3.662734005368175
 20
-1.2113890482468865
 30
0.0
 10
3.663713648011639
 20
-1.2105428611333227
 30
0.0
 10
3.6876103703891743
 20
-1.1839852139004985
 30
0.0
 10
3.7129003117362034
 20
-1.160429820252609
 30
0.0
 10
3.7377915790859326
 20
-1.1410152179227566
 30
0.0
 10
3.7619841338714752
 20
-1.1256613230752721
 30
0.0
 10
3.7851846331693784
 20
-1.1142708789138447
 30
0.0
 10
3.8071046712658125
 20
-1.1067263786505135
 30
0.0
 10
3.827468344179935
 20
-1.1028990955057698
 30
0.0
 10
3.8460044509092226
 20
-1.1026381034588613
 30
0.0
 10
3.8624539243693947
 20
-1.1057795928154448
 30
0.0
 10
3.8765679436324847
 20
-1.1121436884996128
 30
0.0
 10
3.888109310168213
 20
-1.1215358543068468
 30
0.0
 10
3.900785216936195
 20
-1.1339490192970476
 30
0.0
 10
3.9492041269149416
 20
-1.1775456016607861
 30
0.0
 10
3.9628742843425018
 20
-1.18885453942531
 30
0.0
 10
3.9734214001908796
 20
-1.1993509324890257
 30
0.0
 10
3.981225949437783
 20
-1.2127224045361473
 30
0.0
 10
3.98606966773937
 20
-1.2287533910848714
 30
0.0
 10
3.987747709080316
 20
-1.2472152638634975
 30
0.0
 10
3.9860693496052875
 20
-1.2678670836550707
 30
0.0
 10
3.9808586516433424
 20
-1.290456388855631
 30
0.0
 10
3.9719550861823194
 20
-1.314720017720855
 30
0.0
 10
3.9592141121507396
 20
-1.3403849621929784
 30
0.0
 10
3.9425077109686844
 20
-1.3671692511222455
 30
0.0
 10
3.9217248749369755
 20
-1.3947828606241233
 30
0.0
 10
3.8978106289131564
 20
-1.4213246640937074
 30
0.0
 10
3.8970712877432554
 20
-1.4223876862921168
 30
0.0
 10
3.8967537838544857
 20
-1.422887626875433
 30
0.0
 10
3.8967720481830534
 20
-1.4229286492290443
 30
0.0
 10
3.8966461131098202
 20
-1.4230571648198467
 30
0.0
 10
3.8939386721347393
 20
-1.427320292145362
 30
0.0
 10
3.8894561807274854
 20
-1.4350782687123456
 30
0.0
 10
3.8838576816716115
 20
-1.4457785892069546
 30
0.0
 10
3.877384270992395
 20
-1.4595234863489652
 30
0.0
 10
3.870283443892405
 20
-1.4764000607290677
 30
0.0
 10
3.8628082462928344
 20
-1.4964799328994045
 30
0.0
 10
3.855216408822808
 20
-1.5198189401347513
 30
0.0
 10
3.847769465573898
 20
-1.5464568787296353
 30
0.0
 10
3.8407318597399067
 20
-1.57641729251821
 30
0.0
 10
3.834370038778803
 20
-1.6097073082892535
 30
0.0
 10
3.8289515411467603
 20
-1.6463175185781744
 30
0.0
 10
3.824744077182107
 20
-1.6862219122102546
 30
0.0
 10
3.822014606471593
 20
-1.7293778528919939
 30
0.0
 10
3.8210284141240747
 20
-1.7757261059942326
 30
0.0
 10
3.822048188370584
 20
-1.8251909135659705
 30
0.0
 10
3.82279205863345
 20
-1.8370771192301585
 30
0.0
 10
3.883380611442246
 20
-1.874518244434093
 30
0.0
 10
3.946099853419525
 20
-1.9082689077430786
 30
0.0
 10
3.956765544610767
 20
-1.9029700154557379
 30
0.0
 10
4.000113211684438
 20
-1.8791207620734813
 30
0.0
 10
4.039758880118248
 20
-1.8550925678963943
 30
0.0
 10
4.075768285717286
 20
-1.8311508065815363
 30
0.0
 10
4.1082227723428035
 20
-1.8075548390867073
 30
0.0
 10
4.137218895675116
 20
-1.7845571773423727
 30
0.0
 10
4.162867984544724
 20
-1.7624026708902294
 30
0.0
 10
4.18529566107519
 20
-1.7413277185631975
 30
0.0
 10
4.204641320973267
 20
-1.7215595072242844
 30
0.0
 10
4.221057575409737
 20
-1.7033152795020452
 30
0.0
 10
4.234709656014205
 20
-1.686801632397344
 30
0.0
 10
4.245774784606365
 20
-1.67221384855076
 30
0.0
 10
4.254441509372986
 20
-1.6597352618893906
 30
0.0
 10
4.260909011898658
 20
-1.6495366610410376
 30
0.0
 10
4.265386339707927
 20
-1.641775713801632
 30
0.0
 10
4.267724629282132
 20
-1.6372994255887214
 30
0.0
 10
4.267772954608498
 20
-1.6371261224622324
 30
0.0
 10
4.267817609786363
 20
-1.6371214290139111
 30
0.0
 10
4.268091962490458
 20
-1.6365962238429725
 30
0.0
 10
4.268642735271523
 20
-1.6354247368888437
 30
0.0
 10
4.279671509168596
 20
-1.6014434462532692
 30
0.0
 10
4.29319417847155
 20
-1.569638177536182
 30
0.0
 10
4.308036852515568
 20
-1.5417778652420766
 30
0.0
 10
4.323892859400265
 20
-1.517911385826136
 30
0.0
 10
4.340454659127543
 20
-1.4980692040998207
 30
0.0
 10
4.357410985651102
 20
-1.4822612774426338
 30
0.0
 10
4.374457430244324
 20
-1.4704822283488577
 30
0.0
 10
4.391284851320214
 20
-1.462704486423158
 30
0.0
 10
4.407589951915522
 20
-1.4588837761395428
 30
0.0
 10
4.4230722610171895
 20
-1.4589569780284408
 30
0.0
 10
4.437435961982539
 20
-1.462842851757816
 30
0.0
 10
4.454064868090773
 20
-1.469027086480426
 30
0.0
 10
4.516030070926002
 20
-1.4891608013616153
 30
0.0
 10
4.533118140531586
 20
-1.4939318761469618
 30
0.0
 10
4.547022677985243
 20
-1.4992309098576497
 30
0.0
 10
4.559591156152127
 20
-1.5082719612468871
 30
0.0
 10
4.570536502658664
 20
-1.5209468784680114
 30
0.0
 10
4.579578589862292
 20
-1.5371301175825423
 30
0.0
 10
4.586445184043019
 20
-1.556679144043935
 30
0.0
 10
4.590872872755428
 20
-1.5794348829983327
 30
0.0
 10
4.592607967925165
 20
-1.605222217261106
 30
0.0
 10
4.591407382331991
 20
-1.633850531711385
 30
0.0
 10
4.587039477184832
 20
-1.6651143027335704
 30
0.0
 10
4.579284878563133
 20
-1.6987937312242596
 30
0.0
 10
4.568233651779522
 20
-1.7327676753709578
 30
0.0
 10
4.567990600092607
 20
-1.734039511617221
 30
0.0
 10
4.567903890008555
 20
-1.7346253705357222
 30
0.0
 10
4.567937260597354
 20
-1.7346554175488358
 30
0.0
 10
4.567874485186507
 20
-1.734824044788343
 30
0.0
 10
4.567135084879269
 20
-1.7398198208454496
 30
0.0
 10
4.566195578561168
 20
-1.7487302786063175
 30
0.0
 10
4.565433307616871
 20
-1.7607826225017367
 30
0.0
 10
4.5651101060183805
 20
-1.775972184180501
 30
0.0
 10
4.565487498885662
 20
-1.7942778686237226
 30
0.0
 10
4.566825785873547
 20
-1.8156621814129557
 30
0.0
 10
4.56938312669327
 20
-1.8400713039460297
 30
0.0
 10
4.573414631237449
 20
-1.8674352164485866
 30
0.0
 10
4.579171456524654
 20
-1.8976678685464399
 30
0.0
 10
4.586899913145957
 20
-1.9306673969404957
 30
0.0
 10
4.596840583282172
 20
-1.9663163897906513
 30
0.0
 10
4.6092274527989545
 20
-2.0044821971020657
 30
0.0
 10
4.624287059671266
 20
-2.0450172864363303
 30
0.0
 10
4.642237661011061
 20
-2.0877596430924066
 30
0.0
 10
4.663288420923899
 20
-2.1325332138090127
 30
0.0
 10
4.668802535614376
 20
-2.1430892437085363
 30
0.0
 10
4.7393816103964195
 20
-2.1526498289893476
 30
0.0
 10
4.810406120507429
 20
-2.1579723802095985
 30
0.0
 10
4.817994460586834
 20
-2.148793473798752
 30
0.0
 10
4.847894159680826
 20
-2.1093750121125128
 30
0.0
 10
4.874339132954975
 20
-2.071298818375416
 30
0.0
 10
4.89749737024586
 20
-2.034780586325756
 30
0.0
 10
4.9175486744737515
 20
-2.000024168459362
 30
0.0
 10
4.934683959496747
 20
-1.9672209731700265
 30
0.0
 10
4.949104518542903
 20
-1.93654940012958
 30
0.0
 10
4.9610212652003085
 20
-1.9081743152971942
 30
0.0
 10
4.970653949005692
 20
-1.8822465668577812
 30
0.0
 10
4.97823034773838
 20
-1.8589025432725648
 30
0.0
 10
4.983985438573659
 20
-1.8382637745348902
 30
0.0
 10
4.988160550305582
 20
-1.820436577605994
 30
0.0
 10
4.9910024988997925
 20
-1.805511746905663
 30
0.0
 10
4.992762711781282
 20
-1.7935642911599647
 30
0.0
 10
4.993696292636572
 20
-1.7846532197793097
 30
0.0
 10
4.994011756014581
 20
-1.7796128589633546
 30
0.0
 10
4.993985414665069
 20
-1.7794348829983335
 30
0.0
 10
4.994024300202554
 20
-1.7794124324227987
 30
0.0
 10
4.994061313681018
 20
-1.778821044326674
 30
0.0
 10
4.994087982982223
 20
-1.7775268182689747
 30
0.0
 10
4.990341833198766
 20
-1.7419975580918752
 30
0.0
 10
4.9897590380855705
 20
-1.7074418342085695
 30
0.0
 10
4.991986685640205
 20
-1.6759531130488534
 30
0.0
 10
4.996764496986392
 20
-1.647700780175632
 30
0.0
 10
5.003823911510972
 20
-1.6228377543654706
 30
0.0
 10
5.012884623562341
 20
-1.6014997354439608
 30
0.0
 10
5.023666354702408
 20
-1.5838056249987675
 30
0.0
 10
5.035875476148559
 20
-1.5698559754317978
 30
0.0
 10
5.049216903858884
 20
-1.559733701026084
 30
0.0
 10
5.063390470903089
 20
-1.5535033518481034
 30
0.0
 10
5.078092891911022
 20
-1.5512110306297564
 30
0.0
 10
5.0957995084235
 20
-1.5500970247274695
 30
0.0
 10
5.1605966576088615
 20
-1.5432865699131317
 30
0.0
 10
5.178147956918396
 20
-1.5406948195377812
 30
0.0
 10
5.193005695132836
 20
-1.5398802428266531
 30
0.0
 10
5.208164898163608
 20
-1.5430275936374345
 30
0.0
 10
5.223319323028763
 20
-1.5501548331954182
 30
0.0
 10
5.238161997072782
 20
-1.5612612095828395
 30
0.0
 10
5.252386248394369
 20
-1.5763272384415472
 30
0.0
 10
5.265686736178465
 20
-1.5953147371551686
 30
0.0
 10
5.2777604782612695
 20
-1.6181669124508806
 30
0.0
 10
5.288307873262539
 20
-1.6448085012307898
 30
0.0
 10
5.297033714631393
 20
-1.6751459643137145
 30
0.0
 10
5.303648193969713
 20
-1.7090677326391723
 30
0.0
 10
5.307370843934439
 20
-1.7445994138764274
 30
0.0
 10
5.307666107575233
 20
-1.745860152129296
 30
0.0
 10
5.307825184261534
 20
-1.74643062905196
 30
0.0
 10
5.307867891032598
 20
-1.7464445053230404
 30
0.0
 10
5.307879129718606
 20
-1.7466240870312633
 30
0.0
 10
5.309235619109575
 20
-1.7514886967544872
 30
0.0
 10
5.312001547058171
 20
-1.7600109366134171
 30
0.0
 10
5.3162073077967325
 20
-1.7713313441580218
 30
0.0
 10
5.322090199771543
 20
-1.7853391571664454
 30
0.0
 10
5.329880557950835
 20
-1.8019087325306304
 30
0.0
 10
5.339800927548015
 20
-1.8208999439871187
 30
0.0
 10
5.352065259197046
 20
-1.8421586227820352
 30
0.0
 10
5.366878127773555
 20
-1.8655170401272312
 30
0.0
 10
5.3844339767906835
 20
-1.8907944303316229
 30
0.0
 10
5.404916390633745
 20
-1.917797553098055
 30
0.0
 10
5.428497396363513
 20
-1.9463212937847199
 30
0.0
 10
5.455336797091104
 20
-1.9761492999658514
 30
0.0
 10
5.485581538705784
 20
-2.0070546527570206
 30
0.0
 10
5.519365111685148
 20
-2.0388005711989794
 30
0.0
 10
5.556806989635236
 20
-2.071141147928432
 30
0.0
 10
5.566137908229181
 20
-2.078541768595141
 30
0.0
 10
5.634503741763891
 20
-2.058568701902587
 30
0.0
 10
5.701552736973018
 20
-2.0345428235742626
 30
0.0
 10
5.704751633002951
 20
-2.0230710193460926
 30
0.0
 10
5.716033434513674
 20
-1.9748991594869028
 30
0.0
 10
5.724705136504023
 20
-1.9293586859983016
 30
0.0
 10
5.73100793587318
 20
-1.886578317292949
 30
0.0
 10
5.735189005042062
 20
-1.846671149456232
 30
0.0
 10
5.737500605306087
 20
-1.809734391095097
 30
0.0
 10
5.738199188863044
 20
-1.775849145087534
 30
0.0
 10
5.737544491890079
 20
-1.7450802376968666
 30
0.0
 10
5.735798621062634
 20
-1.7174760954083284
 30
0.0
 10
5.733225135921238
 20
-1.6930686697118145
 30
0.0
 10
5.730088129498547
 20
-1.6718734099532382
 30
0.0
 10
5.726651309622086
 20
-1.6538892842460364
 30
0.0
 10
5.723177083313653
 20
-1.639098848322661
 30
0.0
 10
5.719925649752719
 20
-1.6274683613172765
 30
0.0
 10
5.717154059042835
 20
-1.6189479709916295
 30
0.0
 10
5.715392149740696
 20
-1.6142150617479507
 30
0.0
 10
5.71529569637394
 20
-1.6140631866056094
 30
0.0
 10
5.71532208860835
 20
-1.6140268608113282
 30
0.0
 10
5.715115362894499
 20
-1.6134715461644304
 30
0.0
 10
5.714613317351384
 20
-1.6122783644462104
 30
0.0
 10
5.696739987217657
 20
-1.5813444665854017
 30
0.0
 10
5.682152498257912
 20
-1.5500132861241978
 30
0.0
 10
5.6713799388234225
 20
-1.5203408420534368
 30
0.0
 10
5.664253427644292
 20
-1.4925877407411006
 30
0.0
 10
5.660589820062106
 20
-1.4670029138831688
 30
0.0
 10
5.660188238213619
 20
-1.4438243400186812
 30
0.0
 10
5.662840996637461
 20
-1.423274640663992
 30
0.0
 10
5.668320750439445
 20
-1.4055651045944688
 30
0.0
 10
5.676391651210608
 20
-1.3908914992693806
 30
0.0
 10
5.686805737692592
 20
-1.3794348829983396
 30
0.0
 10
5.699304696583537
 20
-1.3713607299960067
 30
0.0
 10
5.715027388646291
 20
-1.363141105201286
 30
0.0
 10
5.7714524684239485
 20
-1.3305640702009498
 30
0.0
 10
5.786432218337732
 20
-1.321057631857492
 30
0.0
 10
5.799674119397364
 20
-1.3142702924380991
 30
0.0
 10
5.814802883370968
 20
-1.3109797371224556
 30
0.0
 10
5.831546048861926
 20
-1.3113269345487848
 30
0.0
 10
5.849622876562667
 20
-1.3154360548334498
 30
0.0
 10
5.868745282748343
 20
-1.323414032829226
 30
0.0
 10
5.88861879443512
 20
-1.3353501802784755
 30
0.0
 10
5.908943523738372
 20
-1.3513158478930025
 30
0.0
 10
5.92941515891829
 20
-1.3713641382712598
 30
0.0
 10
5.949725969558701
 20
-1.3955296704406863
 30
0.0
 10
5.969565823288786
 20
-1.4238283966878504
 30
0.0
 10
5.987418670003735
 20
-1.4547740645345508
 30
0.0
 10
5.988201195206358
 20
-1.455805711696656
 30
0.0
 10
5.988578552858519
 20
-1.4562621659759065
 30
0.0
 10
5.988623211423153
 20
-1.4562574721716215
 30
0.0
 10
5.988706520935368
 20
-1.456416957044787
 30
0.0
 10
5.991924350685526
 20
-1.4603092652193914
 30
0.0
 10
5.99791745883084
 20
-1.4669697144826563
 30
0.0
 10
6.006364037012428
 20
-1.4756007843693102
 30
0.0
 10
6.0174358170936975
 20
-1.4860047705812505
 30
0.0
 10
6.031292116882619
 20
-1.4979732067560656
 30
0.0
 10
6.048079247062013
 20
-1.5112875638892418
 30
0.0
 10
6.067929955180279
 20
-1.525719980253326
 30
0.0
 10
6.090962908241554
 20
-1.5410340198776176
 30
0.0
 10
6.117282215203662
 20
-1.556985457784327
 30
0.0
 10
6.146976990838129
 20
-1.5733230896811503
 30
0.0
 10
6.180120962044063
 20
-1.5897895643095514
 30
0.0
 10
6.21677211776836
 20
-1.6061222361127525
 30
0.0
 10
6.256972403535379
 20
-1.622054036096918
 30
0.0
 10
6.300747461472055
 20
-1.6373143586235288
 30
0.0
 10
6.348106416613039
 20
-1.6516299618443895
 30
0.0
 10
6.359640738516825
 20
-1.6545955387324827
 30
0.0
 10
6.4139722571019515
 20
-1.6085423447473202
 30
0.0
 10
6.46545235701654
 20
-1.5593223295016396
 30
0.0
 10
6.463708690812368
 20
-1.5475412066252665
 30
0.0
 10
6.454421868766669
 20
-1.4989453007903881
 30
0.0
 10
6.443820883419147
 20
-1.4538149091386754
 30
0.0
 10
6.432178433596512
 20
-1.412169518174234
 30
0.0
 10
6.419766322863265
 20
-1.3740119122314014
 30
0.0
 10
6.40685454168244
 20
-1.3393282918790212
 30
0.0
 10
6.393710358306769
 20
-1.3080884397768449
 30
0.0
 10
6.380597420757793
 20
-1.2802459334424912
 30
0.0
 10
6.367774872224324
 20
-1.2557384042822761
 30
0.0
 10
6.355496482169168
 20
-1.2344878421118934
 30
0.0
 10
6.344009795397801
 20
-1.2164009442975636
 30
0.0
 10
6.333555301292123
 20
-1.2013695085274836
 30
0.0
 10
6.324365625372131
 20
-1.1892708681191078
 30
0.0
 10
6.316664747769806
 20
-1.1799683667169254
 30
0.0
 10
6.310667218707598
 20
-1.1733119103389071
 30
0.0
 10
6.307132586850093
 20
-1.1697048156728664
 30
0.0
 10
6.306982699129458
 20
-1.169605301945059
 30
0.0
 10
6.306992034603695
 20
-1.1695613819918713
 30
0.0
 10
6.3065773144515
 20
-1.1691381597415238
 30
0.0
 10
6.305633362299409
 20
-1.1682523343215798
 30
0.0
 10
6.276723312969642
 20
-1.1472625507428353
 30
0.0
 10
6.250653439527662
 20
-1.1245733594403142
 30
0.0
 10
6.2287433464959046
 20
-1.101847827604035
 30
0.0
 10
6.210944751316648
 20
-1.079392721198497
 30
0.0
 10
6.197191592661486
 20
-1.0575099422873864
 30
0.0
 10
6.187397154063003
 20
-1.0364985994718239
 30
0.0
 10
6.181462253739584
 20
-1.016646540914222
 30
0.0
 10
6.179265140683039
 20
-0.9982392580146505
 30
0.0
 10
6.180669982449873
 20
-0.981551521436415
 30
0.0
 10
6.185523898207896
 20
-0.966849591105668
 30
0.0
 10
6.193658211440131
 20
-0.95438970072483
 30
0.0
 10
6.204678382757241
 20
-0.9404857048386335
 30
0.0
 10
6.242974984227831
 20
-0.8877749549565568
 30
0.0
 10
6.252793049901161
 20
-0.8729975781972249
 30
0.0
 10
6.262129468813881
 20
-0.8614110687162233
 30
0.0
 10
6.274611892998773
 20
-0.852251574181986
 30
0.0
 10
6.290048753695267
 20
-0.8457586958874589
 30
0.0
 10
6.308234087320446
 20
-0.842160055841963
 30
0.0
 10
6.3289482106191
 20
-0.8416705181016836
 30
0.0
 10
6.351958435492728
 20
-0.8444914459560904
 30
0.0
 10
6.3770198216755265
 20
-0.8508099969153438
 30
0.0
 10
6.403875965332519
 20
-0.8607984573525483
 30
0.0
 10
6.432259821566838
 20
-0.874613618559415
 30
0.0
 10
6.461894558739343
 20
-0.8923961958742939
 30
0.0
 10
6.49079068281948
 20
-0.9134050632271783
 30
0.0
 10
6.491925163867381
 20
-0.9140292381319721
 30
0.0
 10
6.492455553918834
 20
-0.9142927446827214
 30
0.0
 10
6.492494442405501
 20
-0.9142702924044737
 30
0.0
 10
6.492635417772742
 20
-0.9143821040525846
 30
0.0
 10
6.497158195885221
 20
-0.9166290952346707
 30
0.0
 10
6.505342221383251
 20
-0.9202761017163702
 30
0.0
 10
6.516569126905514
 20
-0.9247254435508632
 30
0.0
 10
6.530915383733227
 20
-0.929726659233028
 30
0.0
 10
6.548441745017742
 20
-0.9350245048740177
 30
0.0
 10
6.569192988465042
 20
-0.9403598343784192
 30
0.0
 10
6.593197705280874
 20
-0.945470492407934
 30
0.0
 10
6.620468135994811
 20
-0.9500922177365987
 30
0.0
 10
6.651000053624752
 20
-0.9539595548172916
 30
0.0
 10
6.684772694574859
 20
-0.9568067708668194
 30
0.0
 10
6.721748737531924
 20
-0.9583687763804802
 30
0.0
 10
6.761874330462901
 20
-0.9583820464733128
 30
0.0
 10
6.80507916576501
 20
-0.9565855406973525
 30
0.0
 10
6.851276603457829
 20
-0.9527216189080867
 30
0.0
 10
6.900363842203233
 20
-0.9465369507702968
 30
0.0
 10
6.91210717837367
 20
-0.9445547086944025
 30
0.0
 10
6.943009968859494
 20
-0.8803844030367983
 30
0.0
 10
6.970019796522285
 20
-0.814480838659541
 30
0.0
 10
6.96363506381142
 20
-0.8044274603084304
 30
0.0
 10
6.935385394109131
 20
-0.7638101820966594
 30
0.0
 10
6.907344728097252
 20
-0.7268933269951527
 30
0.0
 10
6.8797701144254955
 20
-0.6935837802058742
 30
0.0
 10
6.852910990496385
 20
-0.6637735328754089
 30
0.0
 10
6.827008392136724
 20
-0.6373401635815097
 30
0.0
 10
6.8022941905452345
 20
-0.6141473596183331
 30
0.0
 10
6.778990358449765
 20
-0.5940454766267314
 30
0.0
 10
6.757308267340904
 20
-0.5768721350305532
 30
0.0
 10
6.737448017558197
 20
-0.562452851640858
 30
0.0
 10
6.719597802934196
 20
-0.5506017047171803
 30
0.0
 10
6.703933311606271
 20
-0.5411220306851765
 30
0.0
 10
6.69061716452687
 20
-0.5338071506311057
 30
0.0
 10
6.679798394580874
 20
-0.5284411218351349
 30
0.0
 10
6.671611954427038
 20
-0.5247995611845122
 30
0.0
 10
6.666915769973453
 20
-0.5229419805332933
 30
0.0
 10
6.666738364847522
 20
-0.5229120350476122
 30
0.0
 10
6.666729029373283
 20
-0.5228681150944243
 30
0.0
 10
6.666178023664671
 20
-0.522650164212566
 30
0.0
 10
6.664955382806237
 20
-0.522224862353478
 30
0.0
 10
6.630007424449099
 20
-0.5148085173237604
 30
0.0
 10
6.596962884480369
 20
-0.5046844824809597
 30
0.0
 10
6.56770371198348
 20
-0.49283531378863005
 30
0.0
 10
6.542310571605752
 20
-0.47956089418564574
 30
0.0
 10
6.520845907952616
 20
-0.4651638944938921
 30
0.0
 10
6.503352160017496
 20
-0.44995283478212317
 30
0.0
 10
6.489855799129611
 20
-0.43423101829650806
 30
0.0
 10
6.480361720022158
 20
-0.4183087750051394
 30
0.0
 10
6.474857592880592
 20
-0.40249236843146086
 30
0.0
 10
6.473312051783651
 20
-0.387087221358038
 30
0.0
 10
6.475675222701407
 20
-0.37239602184009235
 30
0.0
 10
6.480087385523864
 20
-0.3552117820644226
 30
0.0
 10
6.493633678380121
 20
-0.291481484817504
 30
0.0
 10
6.496592427076218
 20
-0.27398831233263954
 30
0.0
 10
6.500409012193313
 20
-0.2596060455394287
 30
0.0
 10
6.508086772048662
 20
-0.24616137160296298
 30
0.0
 10
6.51954815449679
 20
-0.23395109523065077
 30
0.0
 10
6.534697584654044
 20
-0.22326693241147844
 30
0.0
 10
6.553421764965439
 20
-0.21439452445774848
 30
0.0
 10
6.575590026103937
 20
-0.2076124686639605
 30
0.0
 10
6.601054727819729
 20
-0.20319136810485228
 30
0.0
 10
6.6296517087350955
 20
-0.20139290304909674
 30
0.0
 10
6.661200783961171
 20
-0.20246892641393727
 30
0.0
 10
6.695506289295834
 20
-0.2066605856291449
 30
0.0
 10
6.730449288374658
 20
-0.2141000284633311
 30
0.0
 10
6.731739563188217
 20
-0.21420880559932404
 30
0.0
 10
6.732331276377854
 20
-0.21423380174093642
 30
0.0
 10
6.732357670613921
 20
-0.21419747319160765
 30
0.0
 10
6.7325319359172395
 20
-0.2142422783690586
 30
0.0
 10
6.737577632968244
 20
-0.2144554273699684
 30
0.0
 10
6.746537483460841
 20
-0.2144583905174039
 30
0.0
 10
6.758603482365745
 20
-0.21395667267554946
 30
0.0
 10
6.773743617802738
 20
-0.2126903622018752
 30
0.0
 10
6.79190957349476
 20
-0.2104015716682957
 30
0.0
 10
6.813036851698801
 20
-0.20683534660266406
 30
0.0
 10
6.837044943598733
 20
-0.20174056709543614
 30
0.0
 10
6.8638375467508075
 20
-0.1948708398320913
 30
0.0
 10
6.893302829116602
 20
-0.18598537837186174
 30
0.0
 10
6.925313738947263
 20
-0.17484986905298444
 30
0.0
 10
6.95972835991138
 20
-0.16123732050821854
 30
0.0
 10
6.9963903105017025
 20
-0.1449288943710767
 30
0.0
 10
7.0351291868115595
 20
-0.12571471500439713
 30
0.0
 10
7.075761047592889
 20
-0.10339465607924614
 30
0.0
 10
7.118088940420067
 20
-0.07777910188977516
 30
0.0
 10
7.128010761348428
 20
-0.07119178851291957
 30
0.0
 10
7.130141450516911
 20
4.996003610813204e-16
 30
0.0
 10
7.128010761348428
 20
0.07119178851292046
 30
0.0
 10
7.118088940420053
 20
0.07777910188978593
 30
0.0
 10
7.075761047592891
 20
0.1033946560792462
 30
0.0
 10
7.035129186811564
 20
0.12571471500439652
 30
0.0
 10
6.996390310502035
 20
0.14492889437091344
 30
0.0
 10
6.959728359911882
 20
0.16123732050797868
 30
0.0
 10
6.92531373894749
 20
0.17484986905286085
 30
0.0
 10
6.8933028291168235
 20
0.185985378371795
 30
0.0
 10
6.863837546752835
 20
0.19487083983152212
 30
0.0
 10
6.8370449435969185
 20
0.20174056708677376
 30
0.0
 10
6.813036851698795
 20
0.2068353466026263
 30
0.0
 10
6.791909573494759
 20
0.21040157166825812
 30
0.0
 10
6.773743617802621
 20
0.21269036220191764
 30
0.0
 10
6.7586034823672385
 20
0.21395667268673518
 30
0.0
 10
6.746537483686672
 20
0.2144583937488297
 30
0.0
 10
6.737577642315282
 20
0.21445539975302433
 30
0.0
 10
6.732531918221138
 20
0.21424227381923425
 30
0.0
 10
6.732357670647859
 20
0.21419747321626936
 30
0.0
 10
6.73233127841345
 20
0.21423379901055048
 30
0.0
 10
6.73173926104117
 20
0.21420879283642505
 30
0.0
 10
6.73044933718816
 20
0.21410003257947516
 30
0.0
 10
6.695506289295834
 20
0.2066605856291483
 30
0.0
 10
6.661200783961169
 20
0.20246892641393938
 30
0.0
 10
6.629651708735096
 20
0.2013929030490973
 30
0.0
 10
6.601054727819645
 20
0.20319136810585584
 30
0.0
 10
6.57558999451451
 20
0.20761321653891165
 30
0.0
 10
6.553421765186445
 20
0.21439386273458355
 30
0.0
 10
6.5346975871422
 20
0.22326699224962993
 30
0.0
 10
6.51954815451252
 20
0.23395109541867878
 30
0.0
 10
6.508086772048754
 20
0.2461613716036683
 30
0.0
 10
6.500409012193312
 20
0.25960604553940464
 30
0.0
 10
6.496592427076175
 20
0.27398831233244747
 30
0.0
 10
6.493633678400495
 20
0.29148148482183833
 30
0.0
 10
6.480087385541673
 20
0.3552117820682117
 30
0.0
 10
6.475675222701525
 20
0.37239602183993453
 30
0.0
 10
6.473312051783662
 20
0.38708722135801665
 30
0.0
 10
6.474857592880221
 20
0.4024923684320677
 30
0.0
 10
6.48036171993131
 20
0.41830877517051374
 30
0.0
 10
6.489855772518197
 20
0.4342310719493554
 30
0.0
 10
6.503352428962655
 20
0.44995223017804015
 30
0.0
 10
6.520845632622846
 20
0.4651645905602341
 30
0.0
 10
6.54231057160542
 20
0.47956089418659675
 30
0.0
 10
6.567703711983478
 20
0.49283531378863005
 30
0.0
 10
6.596962884480369
 20
0.5046844824809622
 30
0.0
 10
6.630007424449097
 20
0.5148085173237638
 30
0.0
 10
6.664955336538697
 20
0.5222248462595225
 30
0.0
 10
6.666178304880872
 20
0.5226502754473532
 30
0.0
 10
6.6667290286191525
 20
0.5228681117732188
 30
0.0
 10
6.666738364801418
 20
0.5229120350574152
 30
0.0
 10
6.666915787990227
 20
0.5229419835744744
 30
0.0
 10
6.671611957120918
 20
0.5247995321533947
 30
0.0
 10
6.679798393060227
 20
0.5284411246953354
 30
0.0
 10
6.690617164520956
 20
0.5338071506407166
 30
0.0
 10
6.70393331160636
 20
0.5411220306852629
 30
0.0
 10
6.719597802934212
 20
0.5506017047171462
 30
0.0
 10
6.737448017558218
 20
0.5624528516408254
 30
0.0
 10
6.757308267346085
 20
0.5768721350233779
 30
0.0
 10
6.778990358448144
 20
0.5940454766253871
 30
0.0
 10
6.8022941905450605
 20
0.6141473596181821
 30
0.0
 10
6.827008392136567
 20
0.6373401635813041
 30
0.0
 10
6.8529109904960235
 20
0.6637735328749855
 30
0.0
 10
6.879770114425259
 20
0.69358378020559
 30
0.0
 10
6.907344728097249
 20
0.7268933269951502
 30
0.0
 10
6.935385394109128
 20
0.7638101820966579
 30
0.0
 10
6.963635063811429
 20
0.8044274603084463
 30
0.0
 10
6.970019796522285
 20
0.8144808386595417
 30
0.0
 10
6.943009968859494
 20
0.8803844030367982
 30
0.0
 10
6.912107178373671
 20
0.9445547086944024
 30
0.0
 10
6.900363842203216
 20
0.9465369507702995
 30
0.0
 10
6.8512766034578325
 20
0.9527216189080872
 30
0.0
 10
6.805079165765014
 20
0.9565855406973529
 30
0.0
 10
6.761874330463272
 20
0.9583820464732976
 30
0.0
 10
6.721748737532481
 20
0.958368776380464
 30
0.0
 10
6.684772694575117
 20
0.9568067708667978
 30
0.0
 10
6.651000053624982
 20
0.9539595548173195
 30
0.0
 10
6.620468135996894
 20
0.9500922177369023
 30
0.0
 10
6.593197705282739
 20
0.9454704923992816
 30
0.0
 10
6.569192988465054
 20
0.9403598343783817
 30
0.0
 10
6.548441745017757
 20
0.9350245048739823
 30
0.0
 10
6.530915383733103
 20
0.9297266592330187
 30
0.0
 10
6.516569126902329
 20
0.9247254435616883
 30
0.0
 10
6.505342220275219
 20
0.9202761047602778
 30
0.0
 10
6.497158215656991
 20
0.9166290738071186
 30
0.0
 10
6.492635403457131
 20
0.9143820926984607
 30
0.0
 10
6.492494442424914
 20
0.9142702924381025
 30
0.0
 10
6.492455556887428
 20
0.9142927430136361
 30
0.0
 10
6.491924893033457
 20
0.9140291035782075
 30
0.0
 10
6.4907907257386475
 20
0.9134050868417021
 30
0.0
 10
6.461894558739341
 20
0.8923961958742961
 30
0.0
 10
6.432259821566835
 20
0.8746136185594153
 30
0.0
 10
6.40387596533252
 20
0.8607984573525482
 30
0.0
 10
6.3770198216750416
 20
0.8508099969162255
 30
0.0
 10
6.351958102446204
 20
0.8444921163252763
 30
0.0
 10
6.328948479968059
 20
0.8416699136773826
 30
0.0
 10
6.30823406525512
 20
0.8421601115188578
 30
0.0
 10
6.290048753633159
 20
0.8457586960656281
 30
0.0
 10
6.274611892998571
 20
0.8522515741826675
 30
0.0
 10
6.26212946881389
 20
0.8614110687162002
 30
0.0
 10
6.2527930499012
 20
0.8729975781970312
 30
0.0
 10
6.242974984222926
 20
0.8877749549529961
 30
0.0
 10
6.204678382750611
 20
0.9404857048338195
 30
0.0
 10
6.193658211440303
 20
0.9543897007247331
 30
0.0
 10
6.185523898207915
 20
0.9668495911056525
 30
0.0
 10
6.180669982449288
 20
0.9815515214368176
 30
0.0
 10
6.179265140532782
 20
0.998239258128776
 30
0.0
 10
6.181462207606271
 20
1.0166465791047
 30
0.0
 10
6.187397645671268
 20
1.036498156528361
 30
0.0
 10
6.1971910580195395
 20
1.057510466188924
 30
0.0
 10
6.210944751315959
 20
1.0793927211992305
 30
0.0
 10
6.228743346495904
 20
1.1018478276040338
 30
0.0
 10
6.250653439527662
 20
1.1245733594403162
 30
0.0
 10
6.27672331296964
 20
1.1472625507428373
 30
0.0
 10
6.30563332657791
 20
1.1682523008003152
 30
0.0
 10
6.3065775261120205
 20
1.169138375740491
 30
0.0
 10
6.306992035269875
 20
1.1695613786519696
 30
0.0
 10
6.306982699087608
 20
1.1696053019361656
 30
0.0
 10
6.307132602072276
 20
1.1697048257792035
 30
0.0
 10
6.3106672329765985
 20
1.17331188491336
 30
0.0
 10
6.316664745217279
 20
1.1799683687113451
 30
0.0
 10
6.324365625362819
 20
1.1892708681254813
 30
0.0
 10
6.33355530129217
 20
1.2013695085275984
 30
0.0
 10
6.344009795397829
 20
1.216400944297538
 30
0.0
 10
6.3554964821692
 20
1.234487842111871
 30
0.0
 10
6.367774872231976
 20
1.2557384042778272
 30
0.0
 10
6.38059742075686
 20
1.280245933440603
 30
0.0
 10
6.393710358306672
 20
1.3080884397766355
 30
0.0
 10
6.406854541682382
 20
1.3393282918787688
 30
0.0
 10
6.419766322863108
 20
1.3740119122308672
 30
0.0
 10
6.432178433596412
 20
1.4121695181738771
 30
0.0
 10
6.4438208834191455
 20
1.453814909138671
 30
0.0
 10
6.4544218687666675
 20
1.4989453007903846
 30
0.0
 10
6.4637086908123695
 20
1.5475412066252836
 30
0.0
 10
6.46545235701654
 20
1.5593223295016394
 30
0.0
 10
6.413972257101952
 20
1.6085423447473195
 30
0.0
 10
6.359640738516826
 20
1.6545955387324824
 30
0.0
 10
6.348106416613023
 20
1.6516299618443848
 30
0.0
 10
6.300747461472058
 20
1.63731435862353
 30
0.0
 10
6.256972403535384
 20
1.6220540360969196
 30
0.0
 10
6.216772117768706
 20
1.6061222361128888
 30
0.0
 10
6.180120962044578
 20
1.5897895643097628
 30
0.0
 10
6.146976990838375
 20
1.5733230896812354
 30
0.0
 10
6.117282215203861
 20
1.5569854577844455
 30
0.0
 10
6.090962908243336
 20
1.5410340198787424
 30
0.0
 10
6.0679299551855035
 20
1.5257199802461803
 30
0.0
 10
6.04807924706204
 20
1.5112875638892118
 30
0.0
 10
6.031292116882648
 20
1.497973206756039
 30
0.0
 10
6.017435817093589
 20
1.4860047705811912
 30
0.0
 10
6.006364037005117
 20
1.4756007843779044
 30
0.0
 10
5.997917456580535
 20
1.4669697168127263
 30
0.0
 10
5.991924377463308
 20
1.460309253686251
 30
0.0
 10
5.988706512475545
 20
1.4564169408495937
 30
0.0
 10
5.988623211427452
 20
1.456257472212533
 30
0.0
 10
5.988578556249587
 20
1.4562621656608523
 30
0.0
 10
5.988201002515206
 20
1.4558054786175951
 30
0.0
 10
5.987418699607454
 20
1.4547741035642896
 30
0.0
 10
5.969565823288784
 20
1.4238283966878518
 30
0.0
 10
5.949725969558699
 20
1.3955296704406854
 30
0.0
 10
5.929415158918292
 20
1.3713641382712605
 30
0.0
 10
5.908943523737571
 20
1.3513158478936107
 30
0.0
 10
5.888618217518268
 20
1.3353506572289748
 30
0.0
 10
5.868745774652371
 20
1.3234135902142425
 30
0.0
 10
5.849622833759157
 20
1.315436096722048
 30
0.0
 10
5.831546048732721
 20
1.311326934686289
 30
0.0
 10
5.814802883370507
 20
1.3109797371229956
 30
0.0
 10
5.799674119397382
 20
1.3142702924380814
 30
0.0
 10
5.786432218337848
 20
1.3210576318573306
 30
0.0
 10
5.771452468419051
 20
1.33056407019247
 30
0.0
 10
5.715027388640278
 20
1.3631411051908726
 30
0.0
 10
5.699304696583734
 20
1.3713607299959878
 30
0.0
 10
5.686805737692617
 20
1.379434882998333
 30
0.0
 10
5.67639165120991
 20
1.39089149926951
 30
0.0
 10
5.66832075025576
 20
1.4055651046376123
 30
0.0
 10
5.662840938959116
 20
1.42327465678862
 30
0.0
 10
5.660188867481454
 20
1.4438241353247878
 30
0.0
 10
5.660589118552432
 20
1.467003175032568
 30
0.0
 10
5.664253427643365
 20
1.4925877407414905
 30
0.0
 10
5.671379938823423
 20
1.5203408420534354
 30
0.0
 10
5.682152498257912
 20
1.5500132861241995
 30
0.0
 10
5.696739987217655
 20
1.5813444665854026
 30
0.0
 10
5.714613298352498
 20
1.6122783192937686
 30
0.0
 10
5.7151154684013115
 20
1.6134718295793946
 30
0.0
 10
5.715322090578554
 20
1.6140268580334307
 30
0.0
 10
5.715295696342486
 20
1.6140631865827582
 30
0.0
 10
5.715392159536232
 20
1.6142150771719685
 30
0.0
 10
5.717154082419717
 20
1.6189479535679623
 30
0.0
 10
5.719925646609667
 20
1.627468362101063
 30
0.0
 10
5.723177083302555
 20
1.6390988483246958
 30
0.0
 10
5.726651309622083
 20
1.6538892842461603
 30
0.0
 10
5.730088129498585
 20
1.6718734099532266
 30
0.0
 10
5.733225135921277
 20
1.693068669711807
 30
0.0
 10
5.735798621071435
 20
1.7174760954073767
 30
0.0
 10
5.737544491889995
 20
1.7450802376947623
 30
0.0
 10
5.7381991888630415
 20
1.7758491450873026
 30
0.0
 10
5.737500605306137
 20
1.809734391094842
 30
0.0
 10
5.735189005042137
 20
1.8466711494556804
 30
0.0
 10
5.731007935873234
 20
1.8865783172925825
 30
0.0
 10
5.724705136504025
 20
1.9293586859982967
 30
0.0
 10
5.716033434513676
 20
1.974899159486899
 30
0.0
 10
5.704751633002947
 20
2.0230710193461094
 30
0.0
 10
5.701552736973019
 20
2.034542823574262
 30
0.0
 10
5.634503741763891
 20
2.0585687019025873
 30
0.0
 10
5.56613790822918
 20
2.0785417685951417
 30
0.0
 10
5.556806989635221
 20
2.0711411479284214
 30
0.0
 10
5.519365111685149
 20
2.0388005711989825
 30
0.0
 10
5.485581538705786
 20
2.007054652757025
 30
0.0
 10
5.455336797091362
 20
1.9761492999661165
 30
0.0
 10
5.4284973963638965
 20
1.9463212937851233
 30
0.0
 10
5.404916390633932
 20
1.9177975530982332
 30
0.0
 10
5.384433976790815
 20
1.890794430331812
 30
0.0
 10
5.366878127774723
 20
1.8655170401289838
 30
0.0
 10
5.352065259204723
 20
1.8421586227776325
 30
0.0
 10
5.339800927548049
 20
1.8208999439871023
 30
0.0
 10
5.329880557950871
 20
1.8019087325306187
 30
0.0
 10
5.322090199771466
 20
1.7853391571663473
 30
0.0
 10
5.316207307786556
 20
1.7713313441628993
 30
0.0
 10
5.312001544054688
 20
1.7600109378267605
 30
0.0
 10
5.309235648263245
 20
1.7514886971099441
 30
0.0
 10
5.3078791285773494
 20
1.7466240687952983
 30
0.0
 10
5.3078678910213615
 20
1.746444505357609
 30
0.0
 10
5.3078251874890485
 20
1.7464306301388615
 30
0.0
 10
5.307666026344898
 20
1.7458598608264257
 30
0.0
 10
5.307370855103955
 20
1.7445994615727856
 30
0.0
 10
5.3036481939697095
 20
1.709067732639173
 30
0.0
 10
5.29703371463139
 20
1.6751459643137134
 30
0.0
 10
5.288307873262539
 20
1.6448085012307914
 30
0.0
 10
5.27776047826029
 20
1.6181669124511109
 30
0.0
 10
5.26568601514545
 20
1.595314938217908
 30
0.0
 10
5.2523868777987905
 20
1.5763270341680333
 30
0.0
 10
5.238161940932201
 20
1.5612612304402222
 30
0.0
 10
5.223319322854798
 20
1.5501548332684818
 30
0.0
 10
5.208164898162965
 20
1.5430275936377404
 30
0.0
 10
5.193005695132858
 20
1.5398802428266443
 30
0.0
 10
5.178147956918566
 20
1.540694819537681
 30
0.0
 10
5.1605966576084095
 20
1.5432865699088665
 30
0.0
 10
5.095799508422647
 20
1.5500970247193804
 30
0.0
 10
5.078092891911209
 20
1.5512110306298192
 30
0.0
 10
5.063390470903113
 20
1.5535033518481074
 30
0.0
 10
5.049216903858192
 20
1.5597337010259182
 30
0.0
 10
5.035875475963205
 20
1.5698559753965
 30
0.0
 10
5.02366629545214
 20
1.583805616269452
 30
0.0
 10
5.012885281683619
 20
1.6014998043930708
 30
0.0
 10
5.0038231644309645
 20
1.6228377076076284
 30
0.0
 10
4.996764496985385
 20
1.6477007801756107
 30
0.0
 10
4.991986685640204
 20
1.6759531130488525
 30
0.0
 10
4.989759038085569
 20
1.7074418342085715
 30
0.0
 10
4.990341833198762
 20
1.7419975580918752
 30
0.0
 10
4.994087983991029
 20
1.7775267692926235
 30
0.0
 10
4.9940612947910346
 20
1.778821346152615
 30
0.0
 10
4.994024303131131
 20
1.779412430684402
 30
0.0
 10
4.993985414644462
 20
1.779434882962648
 30
0.0
 10
4.994011758689734
 20
1.7796128770381006
 30
0.0
 10
4.99369632107926
 20
1.7846532133702313
 30
0.0
 10
4.992762708591164
 20
1.7935642905975948
 30
0.0
 10
4.991002498888824
 20
1.805511746903008
 30
0.0
 10
4.988160550305528
 20
1.820436577606106
 30
0.0
 10
4.983985438573696
 20
1.8382637745348949
 30
0.0
 10
4.9782303477384175
 20
1.8589025432725736
 30
0.0
 10
4.9706539490141175
 20
1.8822465668604917
 30
0.0
 10
4.961021265201086
 20
1.9081743152952375
 30
0.0
 10
4.949104518542993
 20
1.9365494001293677
 30
0.0
 10
4.934683959496894
 20
1.9672209731698138
 30
0.0
 10
4.917548674474042
 20
2.000024168458888
 30
0.0
 10
4.897497370246057
 20
2.0347805863254433
 30
0.0
 10
4.874339132954977
 20
2.071298818375412
 30
0.0
 10
4.847894159680826
 20
2.109375012112509
 30
0.0
 10
4.817994460586822
 20
2.1487934737987655
 30
0.0
 10
4.810406120507428
 20
2.1579723802095985
 30
0.0
 10
4.73938161039642
 20
2.1526498289893476
 30
0.0
 10
4.668802535614376
 20
2.143089243708536
 30
0.0
 10
4.663288420923891
 20
2.132533213808997
 30
0.0
 10
4.642237661011062
 20
2.08775964309241
 30
0.0
 10
4.624287059671267
 20
2.0450172864363347
 30
0.0
 10
4.609227452799083
 20
2.0044821971024134
 30
0.0
 10
4.596840583282359
 20
1.9663163897911757
 30
0.0
 10
4.586899913146056
 20
1.9306673969407349
 30
0.0
 10
4.579171456524699
 20
1.8976678685466668
 30
0.0
 10
4.573414631237804
 20
1.8674352164506625
 30
0.0
 10
4.569383126702076
 20
1.8400713039451306
 30
0.0
 10
4.566825785873586
 20
1.8156621814129548
 30
0.0
 10
4.5654874988857
 20
1.7942778686237264
 30
0.0
 10
4.565110106018351
 20
1.7759721841803804
 30
0.0
 10
4.565433307605591
 20
1.7607826225020538
 30
0.0
 10
4.56619557532384
 20
1.7487302784931358
 30
0.0
 10
4.567135111367896
 20
1.739819833028042
 30
0.0
 10
4.567874491561154
 20
1.7348240276647704
 30
0.0
 10
4.5679372605727915
 20
1.7346554175761122
 30
0.0
 10
4.5679038925147175
 20
1.7346253728416707
 30
0.0
 10
4.567990644368557
 20
1.7340392124594532
 30
0.0
 10
4.568233642583527
 20
1.7327677234868009
 30
0.0
 10
4.57928487856313
 20
1.6987937312242591
 30
0.0
 10
4.587039477184831
 20
1.6651143027335686
 30
0.0
 10
4.591407382331991
 20
1.6338505317113867
 30
0.0
 10
4.5926079679241765
 20
1.6052222172609178
 30
0.0
 10
4.590872132279409
 20
1.579434773407737
 30
0.0
 10
4.586445842118096
 20
1.5566792134326364
 30
0.0
 10
4.579578530091858
 20
1.537130113802278
 30
0.0
 10
4.570536502470023
 20
1.5209468784640008
 30
0.0
 10
4.559591156151416
 20
1.508271961246906
 30
0.0
 10
4.547022677985267
 20
1.4992309098576508
 30
0.0
 10
4.533118140531783
 20
1.4939318761469393
 30
0.0
 10
4.516030070924894
 20
1.4891608013650137
 30
0.0
 10
4.454064868090518
 20
1.4690270864812018
 30
0.0
 10
4.437435961982684
 20
1.4628428517579497
 30
0.0
 10
4.423072261017211
 20
1.4589569780284546
 30
0.0
 10
4.407589951914958
 20
1.4588837761391105
 30
0.0
 10
4.391284851165243
 20
1.4627044863155223
 30
0.0
 10
4.374457379667043
 20
1.470482196274976
 30
0.0
 10
4.357411558830677
 20
1.4822616081128195
 30
0.0
 10
4.340453995654124
 20
1.4980688575195917
 30
0.0
 10
4.323892859399354
 20
1.5179113858257074
 30
0.0
 10
4.308036852515568
 20
1.5417778652420755
 30
0.0
 10
4.293194178471548
 20
1.5696381775361825
 30
0.0
 10
4.279671509168594
 20
1.6014434462532683
 30
0.0
 10
4.268642756113589
 20
1.6354246925570386
 30
0.0
 10
4.2680918224699305
 20
1.6365964918914409
 30
0.0
 10
4.267817613167853
 20
1.637121428607744
 30
0.0
 10
4.267772954603219
 20
1.6371261224120266
 30
0.0
 10
4.267724624374345
 20
1.6372994431889063
 30
0.0
 10
4.265386368298423
 20
1.6417757195153317
 30
0.0
 10
4.260909009213077
 20
1.6495366592297496
 30
0.0
 10
4.254441509364048
 20
1.659735261882504
 30
0.0
 10
4.245774784606271
 20
1.6722138485508404
 30
0.0
 10
4.234709656014238
 20
1.6868016323973636
 30
0.0
 10
4.221057575409768
 20
1.703315279502069
 30
0.0
 10
4.204641320979862
 20
1.7215595072301877
 30
0.0
 10
4.185295661076697
 20
1.741327718561727
 30
0.0
 10
4.162867984544894
 20
1.762402670890072
 30
0.0
 10
4.137218895675337
 20
1.7845571773422382
 30
0.0
 10
4.108222772343263
 20
1.8075548390863934
 30
0.0
 10
4.0757682857175945
 20
1.8311508065813313
 30
0.0
 10
4.039758880118251
 20
1.8550925678963914
 30
0.0
 10
4.0001132116844405
 20
1.8791207620734796
 30
0.0
 10
3.956765544610752
 20
1.9029700154557458
 30
0.0
 10
3.9460998534195255
 20
1.9082689077430783
 30
0.0
 10
3.883380611442247
 20
1.874518244434094
 30
0.0
 10
3.8227920586334507
 20
1.8370771192301594
 30
0.0
 10
3.8220481883705837
 20
1.825190913565953
 30
0.0
 10
3.8210284141240747
 20
1.7757261059942362
 30
0.0
 10
3.8220146064715927
 20
1.729377852891999
 30
0.0
 10
3.824744077182083
 20
1.6862219122106243
 30
0.0
 10
3.8289515411467185
 20
1.6463175185787298
 30
0.0
 10
3.834370038778798
 20
1.609707308289513
 30
0.0
 10
3.840731859739856
 20
1.5764172925184354
 30
0.0
 10
3.8477694655733785
 20
1.5464568787316764
 30
0.0
 10
3.8552164088312186
 20
1.5198189401375115
 30
0.0
 10
3.862808246292871
 20
1.4964799328994198
 30
0.0
 10
3.8702834438924394
 20
1.4764000607290872
 30
0.0
 10
3.8773842709924176
 20
1.459523486348843
 30
0.0
 10
3.8838576816611785
 20
1.4457785892026565
 30
0.0
 10
3.889456177816074
 20
1.4350782672922089
 30
0.0
 10
3.8939386913781955
 20
1.4273203140486088
 30
0.0
 10
3.896646125903165
 20
1.423057151772682
 30
0.0
 10
3.8967720481300265
 20
1.4229286492526518
 30
0.0
 10
3.8967537851865712
 20
1.4228876300100501
 30
0.0
 10
3.8970714498697756
 20
1.4223874310065487
 30
0.0
 10
3.897810600941721
 20
1.4213247043093695
 30
0.0
 10
3.9217248749369737
 20
1.3947828606241222
 30
0.0
 10
3.9425077109686844
 20
1.3671692511222435
 30
0.0
 10
3.959214112150739
 20
1.3403849621929802
 30
0.0
 10
3.9719550861814934
 20
1.314720017720281
 30
0.0
 10
3.9808580197593506
 20
1.29045598756091
 30
0.0
 10
3.9860699225638565
 20
1.2678674147080513
 30
0.0
 10
3.9877476560148795
 20
1.2472152360992284
 30
0.0
 10
3.9860696675686693
 20
1.2287533910044801
 30
0.0
 10
3.981225949437127
 20
1.212722404535875
 30
0.0
 10
3.9734214001909023
 20
1.1993509324890372
 30
0.0
 10
3.96287428434269
 20
1.1888545394253696
 30
0.0
 10
3.949204126914033
 20
1.1775456016617913
 30
0.0
 10
3.900785216937066
 20
1.1339490192960784
 30
0.0
 10
3.888109310168292
 20
1.1215358543070284
 30
0.0
 10
3.876567943632498
 20
1.1121436884996339
 30
0.0
 10
3.8624539243690554
 20
1.1057795928148206
 30
0.0
 10
3.846004450811429
 20
1.1026381032974986
 30
0.0
 10
3.827468311020913
 20
1.1028990456331877
 30
0.0
 10
3.8071050603957293
 20
1.1067269138658957
 30
0.0
 10
3.7851841680231293
 20
1.1142702924380998
 30
0.0
 10
3.7619841338708184
 20
1.1256613230745103
 30
0.0
 10
3.7377915790859344
 20
1.1410152179227562
 30
0.0
 10
3.7129003117362016
 20
1.1604298202526093
 30
0.0
 10
3.687610370389173
 20
1.1839852139004967
 30
0.0
 10
3.6637136850831844
 20
1.2105428291114364
 30
0.0
 10
3.662733768427924
 20
1.2113892361698688
 30
0.0
 10
3.6622697547658762
 20
1.2117572587573446
 30
0.0
 10
3.6622270479948122
 20
1.2117433824862622
 30
0.0
 10
3.6621124002246708
 20
1.2118820612138703
 30
0.0
 10
3.6581556314012174
 20
1.2150202886920576
 30
0.0
 10
3.6509087017800077
 20
1.2202891539109832
 30
0.0
 10
3.640852201263577
 20
1.2269754718610213
 30
0.0
 10
3.627859255776662
 20
1.2348501534952392
 30
0.0
 10
3.6118173715815294
 20
1.2436761639065774
 30
0.0
 10
3.592628869969639
 20
1.2532093297721312
 30
0.0
 10
3.570211279362048
 20
1.2631991689226534
 30
0.0
 10
3.54449768371581
 20
1.2733897398232006
 30
0.0
 10
3.5154370263316896
 20
1.283520508928259
 30
0.0
 10
3.48299436811888
 20
1.293327233359193
 30
0.0
 10
3.447151099623208
 20
1.3025428569156667
 30
0.0
 10
3.4079051061771897
 20
1.3108984168964772
 30
0.0
 10
3.3652708856328895
 20
1.3181239594411815
 30
0.0
 10
3.3192796182812145
 20
1.3239494609957503
 30
0.0
 10
3.2699791886660754
 20
1.328105753500568
 30
0.0
 10
3.258080341264742
 20
1.3286084050489957
 30
0.0
 10
3.214511094145489
 20
1.2722654259525492
 30
0.0
 10
3.1743893745203033
 20
1.2134176715151963
 30
0.0
 10
3.178544370611353
 20
1.2022565230284528
 30
0.0
 10
3.197731910262745
 20
1.156653393204425
 30
0.0
 10
3.2174843746814132
 20
1.1147132776780628
 30
0.0
 10
3.2375309726922716
 20
1.0763985398524585
 30
0.0
 10
3.2576052613951707
 20
1.0416553920788971
 30
0.0
 10
3.277446019329539
 20
1.010414202303229
 30
0.0
 10
3.2967981012335175
 20
0.9825898453122606
 30
0.0
 10
3.3154132722042
 20
0.9580820975602918
 30
0.0
 10
3.333051019112972
 20
0.9367760744584996
 30
0.0
 10
3.3494793371979683
 20
0.9185427088941831
 30
0.0
 10
3.3644754898099873
 20
0.9032392696609077
 30
0.0
 10
3.3778267393627175
 20
0.8907099183729756
 30
0.0
 10
3.3893310475992813
 20
0.8807863033439745
 30
0.0
 10
3.3987977413449015
 20
0.8732881863996867
 30
0.0
 10
3.40604816510784
 20
0.8680241459721914
 30
0.0
 10
3.41025551392985
 20
0.8652307662651308
 30
0.0
 10
3.4104228163281034
 20
0.8651645905602308
 30
0.0
 10
3.410422816328103
 20
0.8651196894091624
 30
0.0
 10
3.4109164666869276
 20
0.8647919407484668
 30
0.0
 10
3.4120239646805324
 20
0.8641217314272729
 30
0.0
 10
3.4446662814632965
 20
0.8496013622175789
 30
0.0
 10
3.474883813748997
 20
0.8328282156491543
 30
0.0
 10
3.501040022428679
 20
0.8151546556963052
 30
0.0
 10
3.523118354739969
 20
0.7968907832594063
 30
0.0
 10
3.5411206594442266
 20
0.7783456380401941
 30
0.0
 10
3.555069569871003
 20
0.7598298217665781
 30
0.0
 10
3.5650022534438746
 20
0.7416455134799098
 30
0.0
 10
3.5709784436196856
 20
0.7240972793661693
 30
0.0
 10
3.573073876543948
 20
0.7074821268434164
 30
0.0
 10
3.571382733684424
 20
0.6920922831319033
 30
0.0
 10
3.56601673158918
 20
0.678213452432725
 30
0.0
 10
3.5581281807216296
 20
0.6623220697767955
 30
0.0
 10
3.5316276330084087
 20
0.6028008650827759
 30
0.0
 10
3.525096505042703
 20
0.5863051188130481
 30
0.0
 10
3.5183730800606514
 20
0.5730306517210007
 30
0.0
 10
3.5080677927885073
 20
0.5614760722006167
 30
0.0
 10
3.4943182098398586
 20
0.5519155750666421
 30
0.0
 10
3.4772784687223504
 20
0.5446146304781396
 30
0.0
 10
3.4571187793357674
 20
0.5398290819131859
 30
0.0
 10
3.434024879203399
 20
0.5378042709662441
 30
0.0
 10
3.408197443824174
 20
0.5387741912516497
 30
0.0
 10
3.3798514536429596
 20
0.5429606736267558
 30
0.0
 10
3.3492155192423474
 20
0.550572604873398
 30
0.0
 10
3.3165311664620507
 20
0.5618051818963348
 30
0.0
 10
3.2838985028890537
 20
0.576347113076112
 30
0.0
 10
3.28265903971415
 20
0.5767217763888047
 30
0.0
 10
3.2820854538661774
 20
0.5768692503959016
 30
0.0
 10
3.2820520832773794
 20
0.5768392033827856
 30
0.0
 10
3.281890941610523
 20
0.5769192612520591
 30
0.0
 10
3.276999821315229
 20
0.5781768118411269
 30
0.0
 10
3.268236381125954
 20
0.5800425679020715
 30
0.0
 10
3.256329740241852
 20
0.5820604760325402
 30
0.0
 10
3.24125717233769
 20
0.5839696486388466
 30
0.0
 10
3.2230123200527387
 20
0.5855077882330924
 30
0.0
 10
3.201605263684188
 20
0.5864121018752475
 30
0.0
 10
3.177062541972381
 20
0.5864202185042077
 30
0.0
 10
3.1494271248709875
 20
0.5852711066866283
 30
0.0
 10
3.1187583383040485
 20
0.5827059905549873
 30
0.0
 10
3.0851317410852777
 20
0.5784692612192861
 30
0.0
 10
3.0486389541747814
 20
0.5723093815538525
 30
0.0
 10
3.009387442713887
 20
0.5639797817919738
 30
0.0
 10
2.9675002512764745
 20
0.5532397436183498
 30
0.0
 10
2.9231156929495876
 20
0.5398552704085942
 30
0.0
 10
2.8763869929537975
 20
0.5235999413031478
 30
0.0
 10
2.865312408155683
 20
0.5192194390935014
 30
0.0
  0
LWPOLYLINE
  8
OpenJsCad
  90
91
  70
1
 10
4.827815546558635
 20
0.4806308479691594
 30
0.0
 10
4.8616783790582545
 20
0.4890738003669028
 30
0.0
 10
4.896047673987101
 20
0.4951340343707851
 30
0.0
 10
4.930755987595072
 20
0.4987820251299121
 30
0.0
 10
4.965634224467134
 20
0.5
 30
0.0
 10
5.000512461339198
 20
0.4987820251299121
 30
0.0
 10
5.035220774947167
 20
0.4951340343707851
 30
0.0
 10
5.069590069876014
 20
0.48907380036690284
 30
0.0
 10
5.103452902375634
 20
0.48063084796915945
 30
0.0
 10
5.136644296129969
 20
0.46984631039295405
 30
0.0
 10
5.169002546005035
 20
0.45677272882130043
 30
0.0
 10
5.20037000586008
 20
0.44147379642946344
 30
0.0
 10
5.230593856583737
 20
0.4240240480782129
 30
0.0
 10
5.259526850613371
 20
0.4045084971874736
 30
0.0
 10
5.287028029310404
 20
0.3830222215594892
 30
0.0
 10
5.312963409696633
 20
0.3596699001693254
 30
0.0
 10
5.337206637205831
 20
0.33456530317942923
 30
0.0
 10
5.359639601270495
 20
0.3078307376628292
 30
0.0
 10
5.380153010744655
 20
0.2795964517353735
 30
0.0
 10
5.398646926359354
 20
0.25
 30
0.0
 10
5.415031247616718
 20
0.2191855733945387
 30
0.0
 10
5.4292261517505285
 20
0.18730329670795595
 30
0.0
 10
5.441162482614711
 20
0.1545084971874736
 30
0.0
 10
5.450782087605132
 20
0.12096094779983413
 30
0.0
 10
5.458038100973238
 20
0.08682408883346496
 30
0.0
 10
5.462895172151271
 20
0.05226423163382691
 30
0.0
 10
5.465329637976682
 20
0.017449748351250613
 30
0.0
 10
5.465329637976682
 20
-0.017449748351250405
 30
0.0
 10
5.462895172151271
 20
-0.052264231633826694
 30
0.0
 10
5.458038100973238
 20
-0.0868240888334652
 30
0.0
 10
5.450782087605132
 20
-0.1209609477998339
 30
0.0
 10
5.441162482614711
 20
-0.15450849718747386
 30
0.0
 10
5.429226151750528
 20
-0.18730329670795615
 30
0.0
 10
5.415031247616718
 20
-0.21918557339453848
 30
0.0
 10
5.398646926359354
 20
-0.25000000000000006
 30
0.0
 10
5.380153010744655
 20
-0.2795964517353733
 30
0.0
 10
5.359639601270495
 20
-0.30783073766282915
 30
0.0
 10
5.337206637205831
 20
-0.334565303179429
 30
0.0
 10
5.312963409696633
 20
-0.35966990016932554
 30
0.0
 10
5.287028029310404
 20
-0.3830222215594889
 30
0.0
 10
5.259526850613371
 20
-0.4045084971874738
 30
0.0
 10
5.230593856583737
 20
-0.4240240480782129
 30
0.0
 10
5.20037000586008
 20
-0.44147379642946344
 30
0.0
 10
5.169002546005034
 20
-0.4567727288213005
 30
0.0
 10
5.136644296129969
 20
-0.4698463103929541
 30
0.0
 10
5.103452902375634
 20
-0.4806308479691595
 30
0.0
 10
5.069590069876014
 20
-0.4890738003669028
 30
0.0
 10
5.035220774947167
 20
-0.4951340343707851
 30
0.0
 10
5.000512461339197
 20
-0.4987820251299121
 30
0.0
 10
4.965634224467134
 20
-0.5
 30
0.0
 10
4.930755987595072
 20
-0.4987820251299121
 30
0.0
 10
4.896047673987102
 20
-0.4951340343707851
 30
0.0
 10
4.8616783790582545
 20
-0.4890738003669028
 30
0.0
 10
4.827815546558635
 20
-0.48063084796915934
 30
0.0
 10
4.7946241528043
 20
-0.46984631039295416
 30
0.0
 10
4.762265902929235
 20
-0.45677272882130043
 30
0.0
 10
4.730898443074189
 20
-0.4414737964294635
 30
0.0
 10
4.700674592350532
 20
-0.4240240480782131
 30
0.0
 10
4.671741598320898
 20
-0.4045084971874738
 30
0.0
 10
4.6442404196238645
 20
-0.38302222155948906
 30
0.0
 10
4.618305039237636
 20
-0.35966990016932554
 30
0.0
 10
4.594061811728437
 20
-0.3345653031794291
 30
0.0
 10
4.571628847663773
 20
-0.30783073766282926
 30
0.0
 10
4.551115438189614
 20
-0.2795964517353735
 30
0.0
 10
4.532621522574915
 20
-0.25000000000000006
 30
0.0
 10
4.5162372013175505
 20
-0.21918557339453884
 30
0.0
 10
4.502042297183741
 20
-0.1873032967079561
 30
0.0
 10
4.4901059663195575
 20
-0.15450849718747375
 30
0.0
 10
4.480486361329136
 20
-0.12096094779983387
 30
0.0
 10
4.473230347961031
 20
-0.08682408883346525
 30
0.0
 10
4.468373276782998
 20
-0.052264231633826846
 30
0.0
 10
4.465938810957587
 20
-0.01744974835125057
 30
0.0
 10
4.465938810957587
 20
0.01744974835125046
 30
0.0
 10
4.468373276782998
 20
0.05226423163382664
 30
0.0
 10
4.47323034796103
 20
0.08682408883346501
 30
0.0
 10
4.480486361329136
 20
0.12096094779983375
 30
0.0
 10
4.4901059663195575
 20
0.15450849718747367
 30
0.0
 10
4.50204229718374
 20
0.18730329670795592
 30
0.0
 10
4.5162372013175505
 20
0.2191855733945386
 30
0.0
 10
4.532621522574915
 20
0.24999999999999994
 30
0.0
 10
4.551115438189614
 20
0.2795964517353734
 30
0.0
 10
4.571628847663773
 20
0.3078307376628291
 30
0.0
 10
4.594061811728437
 20
0.334565303179429
 30
0.0
 10
4.618305039237636
 20
0.3596699001693255
 30
0.0
 10
4.6442404196238645
 20
0.38302222155948895
 30
0.0
 10
4.671741598320898
 20
0.4045084971874736
 30
0.0
 10
4.7006745923505315
 20
0.4240240480782129
 30
0.0
 10
4.730898443074189
 20
0.44147379642946344
 30
0.0
 10
4.762265902929234
 20
0.45677272882130043
 30
0.0
 10
4.7946241528043
 20
0.46984631039295416
 30
0.0
 10
4.827815546558635
 20
0.4806308479691594
 30
0.0
  0
ENDSEC
  0
EOF
